<svg xmlns="http://www.w3.org/2000/svg" width="1000" height="1000" overflow="hidden" preserveAspectRatio="xMinYMin" viewBox="0.3 0.3 1000 1000">
  <rect width="10090" height="4317.9" x="-4035" y="-1726.2" fill="none" rx="0" ry="0" style="-webkit-tap-highlight-color:transparent" transform="scale(.3474)"/>
  <g fill="#7480ff" stroke="#7480ff" stroke-linejoin="round" stroke-width="7.3">
    <path d="m323.8 331.3-1 6 1.6 5.5 6 8.1.3 6 12.6 2.9-.2 8.5-2.4 3.6-5.3 1.2-2.2 5.4-3.8 1.3-9.5-.2-5-1-3.4 2-4.9-1-18.8.6-.4 7.1 1.5 9.3-7.5-3.1-5 .4-3.9 3-4.8-2.4-2-4.3-4.7-2.7-.8-7.1 3-5.2-.3-4.2 8.7-10.3 1.7-8.4 2.9-3.1 5.2 1.7 4.6-2.5 1.6-3.3 8.3-5.4 2-3.8 10.3-5.2 6-1.8 2.7 2.4z" class="sm_state sm_state_BF" style="-webkit-tap-highlight-color:transparent"/>
    <path d="m644.4 571-1.1.2v-.6l-3.9-11.8v-.2l-.2-1.9-2.7-5.6 6.8 1 3.2-7.2 6 .8.6 4.8 2.3 3v4l-2.7 2.5-4.4 6.5z" class="sm_state sm_state_BI" style="-webkit-tap-highlight-color:transparent"/>
    <path d="m358.9 371.7-.4 4 2.5 7.4-2.1 5 1.1 3.3-5.4 7.7-3.3 3.8-2 7.8.3 7.9-.6 19.8-9 1.5-2.7-8.4.6-28.6-2.4-2.5-.3-6.1-3.9-4.3-3.3-3.6 1.4-6.6 3.8-1.3 2.2-5.4 5.3-1.2 2.4-3.6 3.6-3.7h3.9z" class="sm_state sm_state_BJ" style="-webkit-tap-highlight-color:transparent"/>
    <path d="m591.8 735.3 3.7 9.8 2.1 2.4 3 7 11.8 13.6 4.5 1.3-.2 4.5 2.9 7.9 8.3 1.9 6.5 5.6-15.6 9-10 9.3-3.9 8.3-3.4 4.6-5.8 1-2.3 6-1.2 3.8-7 2.7-8.6-.6-4.8-3.5-4.5-1.3-5.3 2.7-3 6-5.1 3.6-5.4 5.6-7.7 1.3-2.2-4.4 1.2-7.5-5.8-11.8-2.7-1.9 1.2-36 10.6-.4 1.5-44.1 8.1-.4 16.8-4.4 3.8 5.2 7.2-4.9h3.2l6.2-2.8z" class="sm_state sm_state_BW" style="-webkit-tap-highlight-color:transparent"/>
    <path d="m438.8 106-.2 9.5-5 3.4-3 4-7 4.9 1.2 5-.8 5.4-5 2.7-5-22.2-6.6-5-.2-2.9-8.6-7.5-1.2-9.2 6.2-7 2-10.2-1.8-11.7 1.9-6.4 11-4.8 7.1 1.3v6.4l8.5-4.6.7 2.3-4.8 6.1.2 5.6 3.7 3.1-1 10.8-6.7 6.2 2.3 6.7 5.4.2 2.7 6z" class="sm_state sm_state_TN" style="-webkit-tap-highlight-color:transparent"/>
    <path d="m652 530 4.2 6.9-.6 7.3-3 1.5-6-.8-3.3 7.2-6.8-1 1.2-7 1.5-.9.4-7.3 3-3.5 2.8 1.4z" class="sm_state sm_state_RW" style="-webkit-tap-highlight-color:transparent"/>
    <path d="m171 360.2-.2 4.2-1.2 1.4.8 4-1.7 1.5-2.3.2-3 2-3.2-.2-5 6-5.6-5-4.6-1-2.5-3.5.2-2-3.3-2.4-.8-2.7 5.8-2 3.7.4 2.9-1.5z" class="sm_state sm_state_GW" style="-webkit-tap-highlight-color:transparent"/>
    <path d="M442.9 488v14.8H427l-3.7.5-2.1-1.7 3.7-13.9z" class="sm_state sm_state_GQ" style="-webkit-tap-highlight-color:transparent"/>
    <path d="m462.5 488-.7 5.3 3 6.4 8.1-1 2.7 2.3-4.8 14.5 5.2 7.3 1.2 9.6-1.4 8.3-3.3 5.8-9.6-.6-6-6-.7 5.6-7.4 1.6-3.8 3 4 8.1-8.2 7-11.2-12.5-7.1-10.3-6.8-12.7.4-4.2 2.5-3.9 2.5-9 2.3-9.3 3.7-.5h15.8v-14.9l5.2-.8 6.5 1.6 6.6-1.6z" class="sm_state sm_state_GA" style="-webkit-tap-highlight-color:transparent"/>
    <path d="m194.7 361.9.6 4.6h1.7l2.9-1.7 1.7.4 3.1 3.3 4.6 1 3-2.8 3.6-1.7 2.5-1.8 2.1.4 2.5 2.7 1.2 3.5 4.4 5.2-2.1 3-.6 4.1 2.3-1.1 1.4 1.3-.6 3.7 3.3 3.6-2.2 1-1 4.2 2.6 5 2.7 10-4 1.4-1 1.8.7 2.5-.7 5.4h-1.8l-3-.4-2.2 5h-3l-2.2-2.7.8-5-4.6-7.5-2.7 1.3-2.5.4-3 .6.3-4.5-1.8-3.2.4-3.7-2.3-5.2-3-4.4H190l-2.5 2.3-3.1.4-2 2.7-1.1 3.2-6 5.6-4.6-7.3-4.2-4.8-2.7-1.7-2.7-2.5-1.2-5.4-1.5-2.7-3.3-2.2 5-6 3.3.3 2.9-2 2.3-.2 1.7-1.5-.8-4 1.2-1.4.2-4.2 5.2.2 7.9 2.8 2.3-.1.8-1.4 6 1z" class="sm_state sm_state_GN" style="-webkit-tap-highlight-color:transparent"/>
    <path d="m137 353.2 1.6-5.6 11.8-.2 2.5-3 3.4-.2 4.3 3h3.3l3.6-1.9 2.1 3.5-4.8 2.9-4.6-.4-4.6-2.5-4 2.9h-2l-2.7 1.7z" class="sm_state sm_state_GM" style="-webkit-tap-highlight-color:transparent"/>
    <path d="m320 379.6-.8 3.9 4.4 6.3v9.1l1.2 9.6 2.7 4.7-2.6 11 1 6.1 2.9 8 2.5 4.3-17.1 7.2-6.2 4.2-9.8 3.7-9.7-3.5.4-5-4.6-10.6 2.9-14 4.6-10.3-2.9-17.7-1.5-9.3.4-7 18.8-.7 4.9 1 3.4-2z" class="sm_state sm_state_GH" style="-webkit-tap-highlight-color:transparent"/>
    <path d="m658.3 621.8.6.4 4.2 2.1 7 2.2 6.1 3.6 5 5.6 2.5 10.4-1.9 3.3-2.5 10 1.7 10.4-3.4 4.2-3.9 11.6 5.6 3-33.1 10.3.7 8.9-8.3 1.7-6.3 4.8-1.6 4.3-3.8 1.1-9.8 10-6.2 8.1-3.7.2-3.4-1.3-12-1.4-2-1v-.9l-4.2-2.9-6.9-.6-8.9 2.7-6.9-7.7-7-10 1.6-39.5 22.6.2-.8-4.2 1.7-4.7-1.7-5.8 1.3-6-1.1-3.8 3.6.2.6 3.9 5.2-.2 6.8 1.1 3.6 5.6 8.5 1.8 6.8-3.9 2.3 6.4 8.2 1.7 3.9 5.4 4.2 6.7h8.3l-.4-13.3-3 2.3-7.6-4.8-2.8-2.3 1.7-12.3 2.1-14.7-2.3-5.4 3.3-7.9 2.9-1.5 14.8-2.1 1.7.6-.5 2.7 3.6 1 2.3 2.4 2-.5z" class="sm_state sm_state_ZM" style="-webkit-tap-highlight-color:transparent"/>
    <path d="m228.2 173.8-.2.8-.2 2.3-.4 19-34.6-.9-.4 31.8-10 1-3 6.4 1.8 17.9h-41.8l-2.5 4 .6-5.2h.2l24-1 1.4-4.4 4.6-5.6 3.9-17.1 15.2-13.3 5.2-15.6 3.5-1 3.6-9.6 8.9-1.4 3.8 1.8h4.9l3.4-3 6.6-.3-.2-6.6z" class="sm_state sm_state_EH" style="-webkit-tap-highlight-color:transparent"/>
    <path d="m677.6 129.7 7.5 18.1 1.3 3.1-2.5 5-1.3 9.3-2.3 6.5-2.4 2.1-3.8-4-5.2-5.4-9-17.7-1 1.1 5.4 13 7.5 12.5 9.4 19.2 4.5 6.8 3.8 7 10.4 13.6-2 2.1.9 8.1 13 11.2 2.2 2.5H587l-2-45.7-2.4-44-3.9-10 2.1-7.5-1.9-5.3 3.3-6 13.9-.2 10.4 3.3L617 132l5 2 7.7-3.9 4-3.5 9-1.1 7.6 1.5 3.5 6.2 2-4 8.6 2.8 8.2.8z" class="sm_state sm_state_EG" style="-webkit-tap-highlight-color:transparent"/>
    <path d="m653 791.2 4.3 17.3 2.1 9-2.6 13.6.7 4.4-5.2-2.1-3.3.8-1.1 3.6-3.3 4.7-.2 4.2 6 6.7 6.2-1.3 2.7-5.4h7.9l-3.3 9-2 10.3-3.2 5.5-7.7 6.4-2.1 1.7-5 6.4-3.5 6.4-6.8 8.8-12.9 12.7-7.9 7.4-8.3 5.7-11.3 4.7-5.2.7-1.8 3.5-6.1-2-5.2 2.4-11-2.3-6.4 1.5-4.2-.7-11.2 5-8.9 1.9-6.7 4.6-4.6.4-4-4.4-3.5-.2-4.3-5.6-.6 1.7-1.1-3.3.6-7.3-3-8.3 3.5-2.3.2-9.4-6.3-11.6-4.7-10.4v-.2l-6.9-16 5.4-6.1 3.9 3.4 1.5 5.2 4.8 1 6.6 2.3 5.6-1 9.6-6.3 2.1-45.7 2.7 2 5.8 11.7-1.2 7.5 2.2 4.4 7.7-1.3 5.4-5.6 5.2-3.6 2.9-6 5.3-2.7 4.5 1.3 4.8 3.5 8.7.6 6.9-2.7 1.2-3.9 2.3-6 5.8-1 3.4-4.5 3.9-8.3 10-9.3 15.6-9h4.2l5.2 2 3.7-1.4zm-39 102.5 2-3.8 6-2 2.2-4 3.6-6-3.2-3.8-4.3-3.9-5.2 2.7-6 4.8-6.1 7.7 7.1 9.7z" class="sm_state sm_state_ZA" style="-webkit-tap-highlight-color:transparent"/>
    <path d="m745.4 336 7.5.3 9.6 5 3 4.2 5 4 4.8 7.2 3.8 4-3.7 5.4-3.4 5.8 1 3.5.3 3.8 6.2.2 2.5-1 2.5 2.4-2.3 4.2 4.2 7 4.3 6 4.2 4.4 36 14.6 9.3-.2-30 37.2-14.1.6-9.7 8.7-6.9.1-2.9 4h-7.5l-4.4-4.1-10 5.2-3.1 5.2-7.4-1.2-2.5-1.3-2.5.3-3.4-.2-14-10.4h-7.6l-3.7-4-.2-7-5.6-2-6.7-13.6-5-2.8-2-5-5.7-6-6.8-1 3.7-7 5.8-.3 1.5-3.7-.4-9.6v-1.5l3-13 5-3.4.9-5 4.4-9.7 6.4-6 3.8-12.3 1.4-10.6 12.7 2.7 2.9-9.2 7 5.6 6-3z" class="sm_state sm_state_ET" style="-webkit-tap-highlight-color:transparent"/>
    <path d="m774 536.7-6.4-10.3-.4-45 9.4-14 2.9-4 7-.2 9.6-8.6 14-.6 30-37.2-9.2.2-36-14.6-4.2-4.5-4.3-6-4.2-6.9 2.3-4.2 3.7-6.8 3.6 2.3 2.3 5.2 5.2 5.3h5.4l10-3.3 11.8-1.4 9.5-3.8 5.4-.8 3.8-2.3 6.2-.4 3.4-.4 4.9-1.7 5.7-1.4 4.9-4.2h4.2l.4 3.5-.8 7.1.4 6.5-2.1 4.5-2.7 13.5-4.6 13.6-6.4 15.8-8.9 18.2-9 13.8-12.7 17-10.8 10L801 503l-10.2 9.3-12 15-2.5 6.6z" class="sm_state sm_state_SO" style="-webkit-tap-highlight-color:transparent"/>
    <path d="m653 791.2-5.5-1.3-3.7 1.5-5.2-2.1h-4.2l-6.6-5.6-8.2-2-3-7.8.3-4.5-4.5-1.3-11.7-13.5-3.1-7.1-2.1-2.4-3.7-9.8 12 1.4 3.4 1.3 3.7-.2 6.2-8 9.8-10 3.8-1.2 1.6-4.3 6.3-4.8 8.3-1.7.4 4.6 9-.2 5 2.5 2.2 3 5.2 1 5.4 3.9-.8 15.8-2.5 8.5-.8 9.2 1.6 3.7-1.7 7.3-1.6 1.2-3.3 8.8z" class="sm_state sm_state_ZW" style="-webkit-tap-highlight-color:transparent"/>
    <path d="m787 358.8-3.3 3.1-4.6-1.2-3.8-4-4.9-7.1-5-4-2.9-4.3-9.6-5-7.5-.2-2.7-2.5-6.2 2.9-7-5.6-2.8 9.2-12.7-2.7-1.4-4.8 3.9-18.3.6-8 3.2-4 7.7-2 5.3-7 6.9 14.3 3.6 11.3 6.2 6 15.4 11.8 6.4 6.9 6.2 7.3 3.4 4.3z" class="sm_state sm_state_ER" style="-webkit-tap-highlight-color:transparent"/>
    <path d="m862.2 683.7.7 14.8 2.5 5.8-1.3 6-2.3 3.4-3.1-7-2.3 3.6 1.5 9-1.3 5.4-3.3 2.7-1.4 10.6-5.2 14.5-6.5 17-8.3 23.4-5.6 17.2-6 14.4-8.8 3-9.8 5.1-5.8-3-8.1-4.5-2.3-6.5v-11l-3-9.9-.3-9 2.5-8.9 5-2 .4-4.1 5.6-9.5 1.5-7.9-2-5.8-1.6-7.9-.2-11.3 4.2-7 2-7.9 5.3-.3 6.2-2.6 4.2-2.3 4.7-.2 6.5-6.9 9.5-7.7 3.4-6.2-1.1-5.4 4.6 1.6 6.4-8.5.5-7.5 3.9-5.6 3.5 5.4 2.6 5.2z" class="sm_state sm_state_MG" style="-webkit-tap-highlight-color:transparent"/>
    <path d="m297.4 80.8 3.7 7.9.5 7.5 3.7 13 2.7 2.8-2 4.8-13.6 2.1-4.8 4.5-6 1.1-.6 9.3-12.3 4.8-4 6.1-8.7 3.3-10.4 2-17.2 9.2-.2 14.6h-1.7l.2 6.6-6.6.4-3.4 2.9h-4.9l-3.8-1.8-8.9 1.4-3.6 9.6-3.5 1-5.2 15.6-15.2 13.3-3.9 17.1-4.6 5.6-1.4 4.4-24 1h-.2l.5-5.8 4.3-3.2 3.6-6.6-.5-4.2 3.8-8.7 6.2-7.9 3.7-2 3-7 .4-6.8 4-7.5 7.4-4.6 7-12.6.1-.2 5.6-4.8 9.8-1.3 8.5-8.5 5.4-3.3 9-10.4-2.3-15.2 4.3-10.8 1.7-6.5 7-8.3 10.4-5.6 7.9-5.2 7-12.7 3.6-7.7 7.5.1 6 5.2 9.8-.7 10.6 2.7z" class="sm_state sm_state_MA" style="-webkit-tap-highlight-color:transparent"/>
    <path d="m365.6 278.9.2 28.5-6 8.3-.7 7.7-9.7 1.9-14.8 1-3.9 4.4-6.9.6h-7l-2.6-2.4-6 1.8-10.2 5.2-2.1 3.8-8.3 5.4-1.6 3.3-4.6 2.5-5.2-1.7-2.9 3-1.7 8.5-8.7 10.3.4 4.2-3 5.2.7 7.1-4.6 2-2.5 1.5-1.8-5.2-3 1.3-2-.2-2 3.5h-8.4l-2.9-2-1.5 1.2-3.3-3.6.6-3.7-1.4-1.3-2.3 1.1.6-4 2.1-3.1-4.4-5.2-1.2-3.5-2.5-2.7-2.1-.4-2.5 1.8-3.7 1.7-2.9 2.7-4.6-1-3-3.2-1.8-.4-2.9 1.7h-1.7l-.6-4.6.6-3.9-1-4.6-3.8-3.4-2.2-7.2-.3-7.7 3.6-2.3 2-7.3 3.4-.2 7.5 3.5 6.2-2.6 4 .8 1.8-2.7 43.3-.2 2.5-8.6-1.9-1.6-4.8-53.4-4.6-53.3 16.3-.2 35.9 27 36 27 2.5 5.7 6.8 3.5 5 2.1.2 7.9z" class="sm_state sm_state_ML" style="-webkit-tap-highlight-color:transparent"/>
    <path d="M697.2 683.7h.8l3.7 4 4.2 8.9.2 16-4.8 2.5-3.7 8.7-6.7-7.7-.4-8.7 2.5-5.8-.4-5-4.2-3-3 1-6.1-6-5.6-3 3.9-11.6 3.4-4.2-1.7-10.4 2.5-10 2-3.3-2.6-10.4-5-5.6 10.6 2.3 2 3.3-.3 1.5 3.5 8 .4 14.8-3.5 7 3.1 9-.4 5.4 2.3 3.6-.1 4.7 1.7 2.7 2-3.1 3.6 4.8.4-1.6-2-6.5-2-.6z" class="sm_state sm_state_MW" style="-webkit-tap-highlight-color:transparent"/>
    <path d="m267.3 207-16.3.2 4.6 53.3 4.8 53.4 2 1.6-2.6 8.6-43.3.2-1.8 2.7-4-.7-6.2 2.5-7.5-3.5-3.5.2-1.9 7.3-3.6 2.3-7-8.5-6.5-9.2-7-3.3-5.2-3.5h-6l-5.3 2.7-5.2-1-3.9 4-.8-6.6 3.1-6.2 1.6-11.5-.8-12.4-1.2-6.1 1.2-6.2-2.7-5.8-5.4-5.4 2.5-4h41.8l-1.7-18 2.9-6.3 10-1 .4-31.8 34.7.8.3-18.9z" class="sm_state sm_state_MR" style="-webkit-tap-highlight-color:transparent"/>
    <path d="m690.9 463.3 5.2 8.6 1.3 6.2 5 14.2-4 9.1-5.4 8-3.1 5.1v.6l-.4-.8-5.8-2.5-4.6 3-7 1.8-5 7.2.6 4.8-12-.2-3.8 1.5-6.5 3.9-2.7-1.4.2-9.2 2.5-4.8.6-9.9 2.3-5.7 4.2-6.4 4-3.5 3.7-4.2-4.4-1.7.6-14.5 4.4-3.5 7 3 8.6-3h7.7z" class="sm_state sm_state_UG" style="-webkit-tap-highlight-color:transparent"/>
    <path d="m569.9 732.6 8.8-2.7 7 .6 4.2 2.9v1l-6.2 2.9h-3.3l-7 4.8-4-5.2-16.7 4.4-8 .4-1.6 44.1-10.6.4-1.2 36-2.1 45.7-9.6 6.4-5.6 1-6.6-2.4-4.8-1-1.5-5.2-3.9-3.4-5.4 6.1-7.5-9.4-3.9-8.9-1.9-12.1-2.3-8.9-3-19 .1-14.9-1.1-6.7-4-5.2-5.5-10.2-5.4-14.9-2.1-7.7-8.5-12.1-.6-9.5 5.2-2.3 6.6-2.1 7 .4 6.3 5.6 1.5-1 43.8-.4 7.3 5.8 26 1.7z" class="sm_state sm_state_NA" style="-webkit-tap-highlight-color:transparent"/>
    <path d="m478.1 233 3.1 19.3 4.3 3.2.1 3.9 4.7 4.2-2.3 5.4-3.5 25-.4 16.3-13.5 11.5-4.4 16.4 4.6 4.6v8l7.1.1-1.1 6-3 .6-.3 4-2 .2-7.4-13.5-2.7-.6-8.3 7-8.5-3.7-5.8-.6-3 1.8-6.4-.4-6.4 5.2-5.6.4-13-6.4-5.3 2.9-5.6-.2-4-4.6-10.8-4.6-11.7 1.5-2.7 2.5-1.6 7.1-3 5-.8 11.2-8.3-7.1h-3.9l-3.6 3.7.2-8.5-12.6-3-.4-5.9-6-8-1.5-5.7 1-6 7-.5 3.8-4.5 14.8-1 9.7-1.8.7-7.7 6-8.3-.2-28.6 15-5.3 30.9-24.3 36.2-23.7 17 5.4 6.1 6.7z" class="sm_state sm_state_NE" style="-webkit-tap-highlight-color:transparent"/>
    <path d="m473.5 361.5 4.4 4.8-1.1 2.3-.6 4-9 9.7-2.7 8-1.6 6.3-2.3 2.9-2.1 8.6-5.8 5-1.5 6.2-2.5 5-1 5.2-7.5 4.3-6.2-5.2-4 .2-6.6 7.3h-3l-5.3 12-2.7 8.8-11.3 4.4-4-.6-4.3 2.7-8.7-.2-6-7.9-3.6-8.8-7.7-8.1H349l.6-19.9-.4-7.9 2.1-7.7 3.3-3.8 5.4-7.7-1.1-3.3 2-5-2.4-7.3.4-4 .7-11.3 3.1-5 1.6-7 2.7-2.6 11.7-1.5 10.8 4.6 4 4.6 5.6.2 5.2-2.9 13.1 6.4 5.6-.4 6.4-5.2 6.3.4 3.1-1.8 5.8.6 8.5 3.7 8.3-7 2.7.6 7.5 13.5z" class="sm_state sm_state_NG" style="-webkit-tap-highlight-color:transparent"/>
    <path d="m261 387.5 4.8 2.7 2 4.3 4.7 2.5 3.9-3.1 5-.4 7.5 3 3 17.8-4.7 10.2-3 14 4.7 10.7-.4 5h-5l-7.5-2.3H269l-13 2.3-7.4 3.5-10.8 4.6-2.2-.4.8-10.2 1.2-1.5-.4-4.9-4.6-5.2-3.5-.7-3-3.5 2.2-5.6-1-6 .4-3.4h1.8l.8-5.4-.8-2.5 1-1.8 4-1.3-2.7-10-2.5-5 1-4.3 2-1 1.6-1.1 2.9 2h8.5l2-3.5 1.8.1 3.1-1.3 1.8 5.2 2.5-1.5z" class="sm_state sm_state_CI" style="-webkit-tap-highlight-color:transparent"/>
    <path d="m486.2 424.1-5.4 12.6-2.7 2-.7 9.7 1.1 5.2-1 3.7 5.3 6.5 1 4.5 4 6.3 5 4 .6 5.7 1.1 3.6-.8 6.6-8.6-3-8.9-3.2-13.7-.4-1.3-.8-6.6 1.6-6.5-1.6-5.2.8-18-.2 1.8-9.8-4.4-8.3-5-2-2.2-5.5-2.9-1.7.2-3.5 2.7-8.9 5.2-12h3.1l6.6-7.2 4-.2 6.2 5.2 7.5-4.3 1-5.2 2.5-5 1.5-6.1 5.8-5 2.1-8.7 2.3-3 1.6-6.3 2.7-7.9 9-9.6.6-4 1.1-2.4-4.4-4.8.4-4 2.9-.6 4.4 7.9 1 8-.4 8.4 6.2 11.1h-6.2l-3 .8-5.1-1.1-2.3 5.7 6.5 7.4 4.9 2 1.5 5 3.5 8.6z" class="sm_state sm_state_CM" style="-webkit-tap-highlight-color:transparent"/>
    <path d="m521.1 472.5-.6 7.5-3.3 6.6-2 7.7-1.4 11 .6 7-1.8 4.3-.2 4.6-1.3 3.9-7.1 6-5 6.3-4.9 12 .2 10.2-2.7 4-6.3 6-6.6 7.7-4-2.1-.6-3.5-6-.2-3.8 4.9-3-1.4-4-4.2-3.3 2-4.4 5.5-8.8-13.1 8.2-7-4-8 3.8-3.1 7.4-1.6.7-5.6 6 6 9.6.6 3.3-5.8 1.4-8.3-1.2-9.6-5.2-7.3 4.8-14.5-2.7-2.3-8 1-3.1-6.4.7-5.4 13.7.4 8.9 3.3 8.6 2.9.8-6.6 5.8-11.5 6.3-6.6 7.6 2.1z" class="sm_state sm_state_CG" style="-webkit-tap-highlight-color:transparent"/>
    <path d="m579.7 409.3 7.5 4.8 6 5 .2 4 7.5 6.4 4.6 5.4 2.7 7.3 8.3 5 1.7 4-3.5 1.3-7-.2-8.2-1.4-4 1-1.8 3-3.4.5-4.3-2.7-12.1 6.1-5-1.1-1.6 1-3 7.4-8.3-2.5-8-1.1-6.9-4.6-9-4.3-5.8 4-4.2 6.2-1 8.7-7-.6-7.4-2.1-6.4 6.6-5.8 11.5-1.1-3.6-.6-5.6-5-4-4-6.4-1-4.5-5.2-6.5 1-3.7-1.2-5.2.7-9.6 2.7-2.1 5.4-12.6 8.9-1 2-3.2 1.8.4 2.7 2.7 13.7-4.6 4.6-4.9 5.6-4.4-1.1-4.2 3-1.2 10.7.8 10-5.8 7.7-13.5 5.4-5 7-2.1 1.3 5.2 6.3 7.7v5.2l-1.5 5 .8 3.9 3.6 3.6z" class="sm_state sm_state_CF" style="-webkit-tap-highlight-color:transparent"/>
    <path d="m618.2 451.1 6.8 10.2 5 1.6 2.9-2.2 5 .8 6-2.5 2.6 5.2 9.9 8.3-.6 14.4 4.4 1.8-3.6 4.2-4 3.5-4.3 6.3-2.3 5.8-.6 9.9-2.5 4.8-.2 9.2-3 3.5-.5 7.3-1.5 1-1.2 7 2.7 5.5.2 2-2.3 19.8 2.9 7-2 5.1 3.5 8.9 6.6 6.7 1.3 6.8 3.1 3.2-.6 2.2-1.7-.6-14.8 2.1-3 1.5-3.2 8 2.3 5.3-2.1 14.7-1.7 12.3 2.9 2.3 7.5 4.8 3-2.3.4 13.3h-8.3l-4.2-6.7-3.8-5.4-8.3-1.7-2.3-6.4-6.8 3.8-8.5-1.7-3.6-5.6-6.8-1.1-5.2.2-.5-3.9-3.7-.2-5-.8-6.8 2-4.6-.4-2.7 1.1.8-14.6-3.5-4.6-.8-7.7 1.8-7.5-2.1-4.7-.2-7.9-13.1.2 1-4.4h-5.7l-.5 2.1-6.8.6-2.9 7.1-1.7 3.1-6-1.7-3.4 1.7-7.4 1-4-6.4-2.5-4-3.1-7.6-2.5-9-32.2-.2-3.8 1.3-3.3-.2-4.4 1.8-1.6-3.9 2.7-1.3.4-5.4 2-3.1 3.8-2.7 2.9 1.4 3.8-4.9 6 .2.6 3.5 4 2.1 6.6-7.7 6.3-6 2.7-4-.2-10.2 4.8-12 5-6.3 7.2-6 1.3-3.9.2-4.6 1.8-4.2-.6-7.1 1.3-11 2.2-7.7 3.2-6.6.6-7.5 1-8.7 4.2-6.1 5.8-4 9 4.2 7 4.6 7.9 1.1 8.3 2.5 3-7.5 1.6-1 5 1.2 12.1-6.1 4.3 2.6 3.4-.3 1.8-3.1 4-1 8.1 1.4 7.2.2z" class="sm_state sm_state_CD" style="-webkit-tap-highlight-color:transparent"/>
    <path d="m657.5 835.5 1.2 5.6.6 5.6-2.7 5.4-6.2 1.3-6-6.7.2-4.2 3.3-4.7 1.1-3.6 3.3-.8z" class="sm_state sm_state_SZ" style="-webkit-tap-highlight-color:transparent"/>
    <path d="m776.6 467.5-9.4 13.9.3 45 6.4 10.3-7.7 5-2.7 5.2-4.2.7-1.6 9-3.6 5-2.2 8-4.4 4-15.6-12.3-.6-7.1-39.5-25.2.8-9.1-2.7-4.8v-.6l3-5 5.5-8.1 4-9-5-14.3-1.3-6.2-5.2-8.7 6.5-7.3 7.3-8 5.6 2 .2 7 3.7 4h7.7l13.9 10.4 3.4.2 2.5-.4 2.5 1.4 7.4 1.2 3-5.2 10-5.3 4.5 4.3z" class="sm_state sm_state_KE" style="-webkit-tap-highlight-color:transparent"/>
    <path d="m689.1 398.9.4 9.6-1.5 3.7-5.8.4-3.7 7 6.8.9 5.7 6 2 5 5 2.9 6.7 13.4-7.3 8.1-6.5 7.4-6.8 5.7h-7.7l-8.7 3-6.9-3-4.4 3.5-9.9-8.3-2.7-5.2-6 2.5-5-.7-2.8 2-5-1.5-6.8-10.2-1.7-3.8-8.3-5-2.7-7.4-4.6-5.4-7.5-6.3-.2-4-6-5-7.5-4.9 3.3-1.3 3.8-2.4 2.5-11.1 2.9-5.6 7.9-1.8 2 3.3 5.5 7.3 3.1 1 3.9-2.1 7.9.6 1.5 2.5h10.8l.4-2.5 5.6-2.5 1-3.5 4-2.5 9.2 7.1 5.6-1.3 5.2-8.9 5.8-6.7-1-7.6-2.9-3.4 6.6-.8.8-2.7 5 .8-1.2 9.2 1.7 8.9 5.6 4.8 1.6 4.2-.2 6.2z" class="sm_state sm_state_SS" style="-webkit-tap-highlight-color:transparent"/>
    <path d="m188 335.1.3 7.7 2.2 7.2 3.8 3.4 1 4.6-.6 3.9-1.5.8-6-1-.8 1.4-2.3.2-7.9-3-5.2-.1-20-.6-3 1.5-3.6-.4-5.8 2-1.5-9.5 9.8.2 2.7-1.7h2l4-2.9 4.6 2.5 4.6.4 4.8-2.9-2-3.5-3.7 2h-3.3l-4.3-3.1-3.4.2-2.5 3-11.8.2-4.4-9.6-5.2-4.2 4.8-2.5 5.4-8.7 2.7-6.4 3.9-3.8 5.2 1 5.3-2.8h6l5.2 3.5 7 3.3 6.5 9.2z" class="sm_state sm_state_SN" style="-webkit-tap-highlight-color:transparent"/>
    <path d="m208.2 412-5 5.8-5 6.5-.6 3.7-2.7 4-3-1-7.6-5-5.8-6.5-1.7-4.6-1.4-9 6-5.7 1.2-3.2 1.9-2.7 3-.4 2.6-2.3h8.6l3.1 4.4 2.3 5.2-.4 3.7 1.8 3.2-.2 4.5z" class="sm_state sm_state_SL" style="-webkit-tap-highlight-color:transparent"/>
    <path d="m714 337.4-1.4 10.6-3.8 12.4-6.4 6-4.4 9.6-1 5-5 3.4-2.9 13v1.5l-1.5-.4.2-6.2-1.6-4.2-5.6-4.8-1.7-8.9 1.2-9.2-5-.8-.8 2.7-6.6.8 3 3.4.9 7.6-5.8 6.7-5.2 8.9-5.6 1.3-9.2-7.1-4 2.5-1 3.5-5.6 2.5-.4 2.5H624l-1.5-2.5-8-.6-3.8 2.1-3-1-5.7-7.3-1.9-3.3-7.9 1.8-2.9 5.6-2.5 11.1-3.8 2.4-3.3 1.3-1-.6-3.6-3.6-.8-3.9 1.5-5V391l-6.3-7.7-1.4-5.2V375l-4-3.7-.2-7-2.5-4.9-3.7.8 1-4.7 2.7-5-1.4-5.2 3.5-3.8-2.3-3 2.5-7.4 4.8-9.3 9.3 1-2.2-49.1v-5.3H588l-1-24.6h127l4 12.1-2.3 2.1 2.3 13 4.8 14.6 4.3 3 6.1 4.7-5.2 7-7.7 2-3.2 4-.6 8-3.9 18.3z" class="sm_state sm_state_SD" style="-webkit-tap-highlight-color:transparent"/>
    <path d="m788.2 374-3.7 6.8-2.5-2.3-2.5 1-6.2-.3-.4-3.8-1-3.5 3.5-5.8 3.7-5.4 4.6 1.2 3.3-3 2.7 3.8-.2 5-6 3z" class="sm_state sm_state_DJ" style="-webkit-tap-highlight-color:transparent"/>
    <path d="m405.7 58.8-2 6.4 2 11.7-2.1 10.2-6.2 7 1.2 9.2 8.6 7.5.2 3 6.6 5 5 22 3.6 11 .8 5.9-1.5 10 .7 5.8-1.1 6.7 1.1 7.7-4.2 5.2 6.5 9 .4 5.3 4 6.9 4.9-2.3 8.7 5.8 4.8 7.7-36.2 23.7-30.9 24.3-15 5.4-12 1.3-.1-7.9-5-2.1-6.8-3.5-2.5-5.8-36-27-35.9-27-39.5-30 .2-2.3.2-.8.2-14.6 17.2-9.3L256 148l8.6-3.3 4-6.1 12.4-4.8.6-9.3 6-1.1 4.8-4.5 13.7-2.1 1.9-4.8-2.7-2.7-3.7-13.1-.5-7.5-3.7-8 9.8-6.7 11.2-2 6.4-5.1 9.8-3.9 17.3-2 17-1 5.2 1.7 9.4-4.8 11-.2 4.2 2.9z" class="sm_state sm_state_DZ" style="-webkit-tap-highlight-color:transparent"/>
    <path d="m227.6 420.9-.3 3.4 1 6-2.4 5.6 3 3.5 3.6.7 4.6 5.2.4 4.8-1.2 1.6-.8 10.2-2.9.2-11.1-6-10-9.4-9.3-6.8-7.3-7.9 2.7-4 .6-3.7 5-6.5 5-5.8 2.5-.4 2.7-1.3 4.6 7.5-.8 5 2.2 2.7h3l2.2-5z" class="sm_state sm_state_LR" style="-webkit-tap-highlight-color:transparent"/>
    <path d="m614 893.7-3.9 1.4-7.1-9.7 6.2-7.7 6-4.8 5.1-2.7 4.3 3.9 3.3 3.8-3.7 6-2.1 4-6 2z" class="sm_state sm_state_LS" style="-webkit-tap-highlight-color:transparent"/>
    <path d="m329.4 379.8-1.4 6.6 3.3 3.6 3.9 4.3.3 6.1 2.4 2.5-.6 28.6 2.7 8.4-8.7 2.7-2.5-4.4-2.9-7.9-1-6.2 2.6-11-2.7-4.6-1.2-9.6v-9l-4.4-6.4.7-3.9z" class="sm_state sm_state_TG" style="-webkit-tap-highlight-color:transparent"/>
    <path d="m575.6 273.6 2.1 49.2-9.2-1-4.8 9.3-2.5 7.5 2.3 2.9-3.5 3.8 1.4 5.2-2.7 5-1 4.7 3.7-.8 2.5 4.8.2 7.1 4 3.7v3l-7 2.2-5.3 5-7.7 13.5-10 5.8-10.6-.8-3.1 1.2 1.1 4.2-5.6 4.4-4.6 4.9-13.7 4.6-2.7-2.7-1.9-.4-2 3.3-8.8 1 1.6-3.5-3.5-8.5-1.5-5-4.9-2.1-6.5-7.4 2.3-5.7 5 1.1 3-.8h6.3l-6.2-11.1.4-8.3-1-8.1-4.4-8 1.1-5.9-7-.2v-7.9l-4.7-4.6 4.4-16.4 13.5-11.5.4-16.2 3.5-25 2.3-5.5-4.7-4.2-.1-3.9-4.3-3.2-3-19.3 10.5-6.7 43.4 23.7z" class="sm_state sm_state_TD" style="-webkit-tap-highlight-color:transparent"/>
    <path d="m582.2 125.3-3.3 6 2 5.3-2.2 7.6 3.9 10 2.5 44 1.9 45.6 1 24.6h-12.4v5.2L532.1 250l-43.4-23.7-10.6 6.8-7.3 4.6-6.2-6.7-17-5.4-4.7-7.7-8.7-5.8-4.8 2.3-4-7-.5-5.1-6.5-9 4.2-5.3-1.1-7.7 1.1-6.7-.7-5.8 1.5-10-.8-5.8-3.6-11 5-2.7.8-5.4-1.2-5 7-4.8 3-4 5-3.5.2-9.5 12.4 4.3 4.4-1.2 8.7 2.1 14 5.6 5.4 11 9.5 2.3 15 5.2 11.5 6.2 4.9-3.3 4.8-5.6-3.1-9.4 2.9-6.2 7.1-5.8 7.1-1.5 14.3 2.5 3.9 5.4 3.8.2 3.5 2 10.4 1.4z" class="sm_state sm_state_LY" style="-webkit-tap-highlight-color:transparent"/>
    <path d="m579.5 651.1 1.1 3.9-1.3 6 1.7 5.7-1.7 4.7.8 4.2-22.6-.2-1.5 39.5 7 10 6.9 7.7-20 5-26.1-1.7-7.3-5.8-43.8.4-1.5 1-6.4-5.6-6.9-.4-6.5 2.1-5.2 2.3-1-7.7 1.7-11 3.9-11.3.6-5.2 3.6-11.2 2.7-5 6.4-8.1 3.6-5.6 1.2-9-.6-7.2-3-4.4-3-7.5-2.5-7.4.6-2.7 3.3-4.8-3.1-12-2.3-8.2-5.4-7.9 1.2-2.3 4.4-1.7 3.3.1 3.8-1.3 32.2.2 2.5 9 3 7.6 2.6 4 4 6.4 7.4-1 3.4-1.7 6 1.7 1.7-3 3-7.2 6.7-.6.5-2.1h5.6l-1 4.4 13.2-.2.2 8 2 4.6-1.7 7.5.8 7.7 3.5 4.6-.8 14.6 2.7-1.1 4.6.4 6.8-2zm-127-63.6-2.9-9.2 4.5-5.4 3.2-2.1 4 4.2-3.8 2.7-2 3-.3 5.5z" class="sm_state sm_state_AO" style="-webkit-tap-highlight-color:transparent"/>
    <path d="m667.7 528.6-.3 7.5-2.2 8.7 3.1 4.8 4.8-3 6.4-.7 1.3 1.6 6.4-3.1-4.4-4.3 3.6-5.6 5.4-5.5 39.5 25.2.6 7.1 15.6 12.4-5.4 15.4.6 7 6.7 4.3.4 3.3-3.3 7.5.6 3.7-.7 6 3.4 7.7 4.3 12.3 3.8 2.7-8.8 7.1-12 4.8-6.5-.1-4 3.6-7.6.4-2.9 1.5-13-3.4-4.1.4.1-.2-3.4-4.7-.6-13-5.6-6.6-.8 2.3-1.9-3.3-10.6-2.3-6.1-3.6-7-2.2-4.2-2-.6-.5-5.2-12.7-.8-7.5-8.6-8.5 2.7-4.6-2.2-5 .4-5.2-2-1.8.7-5.3 1.1-.2 3.9-4.5 4.4-6.5 2.7-2.5v-4l-2.3-3-.6-4.8 3.1-1.5.6-7.3-4.3-7 3.9-1.5z" class="sm_state sm_state_TZ" style="-webkit-tap-highlight-color:transparent"/>
    <path d="M667.2 846.7h-8l-.5-5.6-1.2-5.6-.7-4.4 2.7-13.7-2.2-8.9-4.2-17.3 12-14 3.2-9 1.6-1 1.7-7.4-1.6-3.7.8-9.2 2.5-8.5.8-15.8-5.4-3.8-5.2-1-2.1-3-5-2.6-9 .2-.5-4.6-.7-8.9 33.1-10.2 6.2 6 2.9-1.2 4.2 3.1.4 5-2.5 5.8.4 8.7 6.7 7.7 3.7-8.7 4.8-2.5-.2-16-4.2-8.9-3.7-4h-.8l-1.1-14 2.9-11.8 4.2-.4L716 661l2.9-1.6 7.5-.4 4-3.6 6.6.2 12-4.9 8.8-7 1.7 5.3-1 12.3 1 11-.3 19.3 1.5 6-3.7 8.8-4.6 8.7-7.1 7.7-10.2 4.6-12.5 6-12.8 13.3-4.2 2.3-8.1 8.9-4.4 2.7-1.6 8.8 4.7 9.5 1.7 7.1v3.9l2-.8-1 12.1-2.2 5.8 2.3 2.1-1.9 5.2-4.6 4.5-9 4-13.4 6.8-4.8 4.6.6 5.2 2.5.7z" class="sm_state sm_state_MZ" style="-webkit-tap-highlight-color:transparent"/>
  </g>
</svg>
