<svg xmlns="http://www.w3.org/2000/svg" width="1000" height="1000" overflow="hidden" preserveAspectRatio="xMinYMin" viewBox="0.3 0.3 1000 1000">
  <g fill="#7480ff" stroke="#7480ff" stroke-linejoin="round" stroke-width="5.1">
    <path d="m591.3 575.7.8 6.2-2.8-1.3 1.4 7-2.8-4.5-1-4.4-2-4.2-3.8-5-7-.3 1.2 3.6-1.6 4.7-3.5-1.8-.8 1.6-2.2-.9-3-.8-2.1-7.1-3.5-6.4.4-5.3-5-2.2 1.2-3.1 4-3.2-6.1-4.6 1.6-5.9 6.6 3.8 3.6.4 1.6 6 7.2 1.2 6.9-.1 4.5 1.5-2.1 7.2-3.2.5-1.7 4.8 4.9 4.6.4-5.6h2z" class="sm_state sm_state_BD" style="-webkit-tap-highlight-color:transparent"/>
    <path d="m768.7 726.4 3-3.2 6.1-4.8-.1 4.2-.1 5.5-3.7-.2-1.4 3z" class="sm_state sm_state_BN" style="-webkit-tap-highlight-color:transparent"/>
    <path d="m869.7 471.7 2.1 3-1.7 5.1-4.2-2.8-2.8 2 .2 5-5.8-2.4-1.6-4 1.7-5.3 4.6 1.1 1.3-3.6zm33-25.7.7 6.8 3.4 4.3-.8 6-7.2 4-12.4.6-5.9 9.9-6.3-3.4-3.2-6.4-11.5 1.9-6.8 4-8.3.2 9.9 6.3 1 14.6-3.3 3.7-4.8-3.4-1.2-7.8-5.5-2.4-5.4-5.9 5.8-2.6 1.5-5.5 5.2-4.5 2.7-5.8 13-2.6 8.4 1.8v-15.3l6.8 4.1 6-8.5 2.3-3.4-1.3-10.4-6.8-9.7-.3-5.3 6.4-1.6 11 11.9 3.8 6.8-1.8 8.7zm-16-60 6 1.7 2.4-3.5 8 9.5-8.5 2.3-.5 8.4-14.6-5.7 2.1 9.2-7.6.2-6.3-8.5-.8-6.5 7-.4-6-11.8-2.4-6.6 14.1 8.8z" class="sm_state sm_state_JP" style="-webkit-tap-highlight-color:transparent"/>
    <path d="m575.5 526.5 3.5 2.8.6 5.2-6 .3-6.3-.6-4.3 1.4-7.4-3.4-.5-1.6 3.5-6.4 3.5-2.2 5.7 2 4 .2z" class="sm_state sm_state_BT" style="-webkit-tap-highlight-color:transparent"/>
    <path d="m848.5 846 .2-2.6-.7-1.7 1-2 6.6-1.9 5.4-.4 2.4-1 2.8 1-3 2.4-8.1 3.8z" class="sm_state sm_state_TL" style="-webkit-tap-highlight-color:transparent"/>
    <path d="m374 444-2.2-.2-4-2.3-.3 3-5.6 1.7.2 6.9-3.4 2.6-5.4 1.2-.5 4-5.3 1.1-7.9-3.3-2.2-7.1-5.4-.4-9.8-7.5-5.7-1-8.9-4.4-5.2-.8-2.7 1.6-4.8-.2-4 5-5.9 1.5-2.5-6-.9-9-6.1-3 .5-5.7-4.7-.5-.1-7.2 7.1 2.1 5.5-2.7-6.3-5.2-3.2-4.8-5.1 2.1.8 6.3-3.5-5.5 2.4-3 7.5-1.7 5.2 2.4 6.5 6.7 3.5-.4h7.9l-2.3-4.4 5-3 4.6-4.9 10.6 4.6 2.6 6.7 3 1.7 7.4-.4 2.8 1.6 5.8 8.9 9.5 5.8 5.6 4 8.4 4.2 10.3 3.8z" class="sm_state sm_state_TM" style="-webkit-tap-highlight-color:transparent"/>
    <path d="M399 419.4 397 422l-8-1.4.8 4.9 7.3-.7 9.5 2.8 12.9-1.3 4.1 8 2-1 5 2 .7 3.4 2.4 4.8h-7.2l-5.1-.6-3.4 3.9-3 .8-2 1.8-3.6-2.8-1.2-7.2-2.2-.4.1-2.7-4.4-1.9-2.3 3 .3 3.5-.8 1.2-4.3-.2-1.2 4-2.8-1.7-4.6 2.7-2.4-1 1.7-8.6-3.2-6.5-5.6-2 .8-3.7 5.9.4 2-4.7.7-5.5 8.7-2-.3 4 1.8 2.3z" class="sm_state sm_state_TJ" style="-webkit-tap-highlight-color:transparent"/>
    <path d="m274.6 539.6.4.1.2-.1.6 1-.2.2.2 1.2v1l-.3.5-.1-.6-.8-1v-.6l-.2-1v-.5z" class="sm_state sm_state_BH" style="-webkit-tap-highlight-color:transparent"/>
    <path d="m209.7 398.4 6.9 1.8 2.8 3.4 4.8 2-1.6 1.1 4.4 4.7-.8 1-3.9-.5-5.6-2.5-1.5 1.5-9.3 1.3-7.5-4.3-7.4.4.4-3.6-2.8-5.7-4.6-3.3-4-.9-3-2.5.6-1.1 6.2 1.5L194 394l10.1 4.2 1.7 1.6z" class="sm_state sm_state_GE" style="-webkit-tap-highlight-color:transparent"/>
    <path d="m301 622-3-6-7-14.2 21.9-8.5 3.4-17.2-4-6.1v-3.5l1.8-3.5-.3-3.5 3.2-1.7-1.5-1.2v-5.7h3.8l4 6 4.4 3 5.5 1.2 4.6 1.5 3.9 5 2.2 2.8 2.7 1.2.3 1.8-2.3 5.1-1 2.4-2.9 2.9-2.3 5.9-3.3-.6-1.3 2.2-1 4.2 1.5 5.8-.7 1h-3.3l-4.5 3.3-.4 4.1-1.6 2-4.6-.2-2.7 2.1.2 3.5-3.4 2.4-4.2-.8-4.8 3zm16.5-77.9-1.7-3 1.9-2.7 1 .6-.4 3.6z" class="sm_state sm_state_OM" style="-webkit-tap-highlight-color:transparent"/>
    <path d="M186.2 488.7 185 490l-14 4.3 8 8.7-2 1.3-1 3-5.5 1.2-1.5 3-2.8 2.8-8.3-1.5-.4-1.2 2.4-13.7-.5-3.3.8-2.6-.5-5.3.9-2.7 8.4 3.5 13-9.3z" class="sm_state sm_state_JO" style="-webkit-tap-highlight-color:transparent"/>
    <path d="m159.7 486.7.5 5.3-.8 2.6-3.4 1 .2-2.2 1.7-1.2-2-1 1-5.6z" class="sm_state sm_state_PS" style="-webkit-tap-highlight-color:transparent"/>
    <path d="m458.7 460-5 7.3-7.7 1.3-11.4-2.2-2.7 3.8 4.4 7.5 4 5.9 6.7 4.1-5 5 1.3 6.2-5.2 8.7-3 8.7-6 9-8.7-.7-6.6 9 5.4 3.8 1.9 6.7 4.7 4.3 2.4 7.4H412l-4.3 5.7-5.6-2.1-3-6.2-6.6-6.5-13.3 1.6-12.1.1-10.2 1.2 1.5-9.9 10-4.6-1.2-3.8-3.6-1.5-1.3-7.5-7.7-3.8-3.7-5.2-4.3-4.5 12.9 4.4 7-1.4 4.6 1.1 1.2-1.9 5.2.8 8.9-3.6-1-7.2 3-5h5.5l.3-2.2 5.3-1.2 2.8.8 2.4-2.4-1.4-5.3 1.8-5 4.2-2.3-4.2-5.7 7 .3 1.2-3-1-3.4 2.6-3.6-1.9-4.3-2.5-3.6 3.2-3.8 7.1-1.7 7.9-1.1 3.2-1.5 3.9-1 6.3 4 3.9 6.7z" class="sm_state sm_state_PK" style="-webkit-tap-highlight-color:transparent"/>
    <path d="m859 693 1.2 5.7.8 4.8-2.2 7.8-3.3-8.7-3.2 4.4 2.8 6.3-1.9 4-9.2-5-2.6-6.3 2-4-5-4.1-2.2 3.6-3.5-.4-5.3 4.8-1.4-2.5 2.4-7.3 4.6-2.4 3.9-3.2 3 3.9 5.6-2.3.9-3.9 5.3-.2-1-6.6 6.5 4 1 4.3zm-19.6-16.2-2.4 2.9-1.9 5.4-2.1 2.6-5.2-5.9 1.3-2.4 1.8-2.4.2-5.2 4.2-.6-.7 5.8 4.8-8.3zm-40.5 8.3-9.6 8.2 3.3-6 5-5.4 4-5.9 3.1-8.5 2.2 7-4.7 4.8zm23.4-22 4.8 2.6h4.7l.3 3.5-3.1 3.8-4.6 2.5-.6-4V667zm26.9-2.5 3.2 9.7-6-2.3.4 3 2.4 5.2-3.5 2-.8-6.2-2.4-.4-1.6-5.2 4.4.7-.4-3.3-5.3-6.5 7.2.1zm-30.8-7.7-1.2 7.5-3.6-4.3-4.7-6.6 6.4.3zm-8.7-46.8 5 2.6 2-2.3 1 2.1-.5 3.7 3.5 6.1-.8 7.1-4 2.8v7l2.6 6.8 4 1 3.3-1 10 4.7-.1 4.7 2.8 2.1-.4 4-6.3-4.2-3.4-4.6-1.6 3.2-5.3-5.2-6.7 1.3-4-1.8-.2-3.6 2.2-2.2-2.6-2-.5 3-4.4-4.9-1.8-3.7-1.4-8.2 3.4 2.8-1.4-13.5 1-7.8z" class="sm_state sm_state_PH" style="-webkit-tap-highlight-color:transparent"/>
    <path d="m844.3 330.8 18.3 14.7-12-2.7 5 12.1 12.9 8.6 4 5.9-8.7-5.1.1 6.5-6.3-7-5-8.2-7.5-9-3.3-6.4-8.5-11-10.7-8.2-9.2-11.2 2.6-3.8-5.9-3.7 1.7-1.2 6.6 5.3 9.2 8 7 8zM47.5 301.3l-11.8.2-8-1 1-3.5 8.5-2.6 6.8 1.4 3 1.2-.3 2.3zm607.7-143.5-8 .1-11.8-.8-1.4-.4 1-2.7 5.6-.7 11.2 2.7zm16.9-12.8-1.5 2.7-9.2-.5-13.8-2.7-2.5-2.1 11.2 1zm-34.2-3.2 4.2 5.1-19.2-.2-6.1 1.6-16.8-4.5-4.5-4.5 4.7-1.2 13.6.3zM214 175.3l-3 .5-18-.9-3.1-3-10.6-2-2.7-3.8 4.7-1.5-2.1-3.8 7.2-5.8-5.3-.8 9-6-3.4-3.2 9-3.4 13.9-4.3L225 136l6.7-2.4 9-.8 5.6 2.5-1.7 2-15.3 3.4-13.2 3-11.7 6.5-3.7 6.7-4.4 6.7 4.1 5.7zM807 402.6l-1.8-1.5-2.6-4.4 3.4-.2-5.3-10-6.3-7.2 4-3 9.2 1.5-.8-8.3-3.8-9.1.4-3-1.7-7.7-9.3 2.5-3.5 3.2h-10.1l-8-7.7-12.1-6-13.4-2.7-8.3-8-6-5.2-5.1-3.6-10.3-8.3-8-3-11.6-2.5-8.3.3-6.8 1.5-2.3 4.1 5 1.9 3.3 4.5-1.7 2.7.2 8.7 2.6 3.8-6 5.2-9.8-3.2-7.5.8-5.3-2.8-4.5-1-5.9 6-7.9 1.3-4.8 2.1-9.1-1.3H621l-6.6-4.3-8.8-3.9-7.2-1.2-7.7 1-5.3 1.7-11.4-3.5-4.8-6.2-9-2.1-6.4-1-9.4-3.4-1.7 8.5 5.3 4.9-3.2 5.9-10.7-2.2-6.7-.2-6.4-4h-7l-7-2.6-8 3.9-9 7-6.3 1.5-2.2.7-6-5-8 1.1-4.4-3.6-5.3-1.6-5.5-4.8-4.4-1.5-8.4 2.2-11.2-4.7-1.5 4.3-24.5-21-11.2-6.2 1-2.7-12.3 7.8-5.9.4-1.4-4.5-9.6-2.8-5.7 2-5.9-8.4-12.2-1.7-4.1 3.3-14.6 3-2.3 2.1-22.8 2.8-1.9 2.8 6.9 5.6-5.4 2.2 2 2.1-4.7 4 12.6 5.8-.2 3.9-9.4-.4-1 2.5-9.9-4.3-10.3.2-5.9 3.5-8.8-3.4-16-5.7-10.3.2-10.8 9 .8 6-8-4.8-3 9.2 2.4 1.6-2.2 6.5 7 5.6 4.9-.3 5.7 5.7.3 4.2 3.8 1.5-2 5-6 1.3-5 8.7 8.1 8.2.6 5.6 9.7 10-3.3 3.5-.8 2.2-3.2-.7-5.8-5-2-.3-4.8-2-2.8-3.5-6.9-1.8-3.8 1.4-1.6-1.6L194 394l-10.3-1.3-6.2-1.5-.5 1-10.2-7.2-8.3-3.2-6.8-5 4.8-1.3 4.3-7-4.5-3.3 9.3-3.5-.6-1.8-5.7 1.3-.5-3.6 2.9-2.4 6.4-.6.4-2.8-2.4-4.7 1.8-4.3-.6-2.5-10.3-2.7-3.9.2-4.8-4-4.8 1.4-9-3-.1-1.5-3.1-3.7-5.2-.4-1-2.5 1.1-1.7-5-4.7-6.6.8-2-.4-1.4 1.8-2.4-.2-2.7-5.4-2-2.7 1-.8 5.3.3 2.2-1.7-2.3-2.2-4.6-1.5v-1.4l-2.8-1.5-5-5.4.9-2.1-1.5-3.9-6.4-1.9-3.3 1-1.2-2-7-2-2.9-4.9-1.3-3.8-3.4-1.8 2.2-2.5-3.2-7.5 3.5-4.6-1.3-1.3 6-4.4-7.2-3.8 10.8-9.9 4.5-4.6 1.2-3.8-9.9-5.3 1.2-5-6.6-5.7 2.3-6.4-8.7-8.4 3.9-5.7-9.8-5-.5-5 4.3-.7 8.5-2.8 5-2.5 10.3 4.3 15.7 1.7 23.7 8.3 5.5 3.5 2 5-5 3.8-8.7 2-27-5.6-4 1 11 5.4 1.3 3.5 2.5 7.8 8.2 2.3 5 2-.2-3.8-4.5-3.2 2.8-3 15.5 4.9 4.3-1.9-5.8-5.6 10.9-7.3 5.5.4 6.1 2.6 1.5-5.1-6.3-4.4 1-4.4-5.7-4.6 16.5 2.4 4.8 4-6.8 1 1.6 4.1 5.5 2.6 8-1.6-.5-4.7 10.3-3.6 16.6-6.2 4.3.3-3.4 4.4 7.3.8 2.8-2.6H221l6.7-3.2 8.6 4.5 3.7-4.9-8-4.1 1.6-2.4 17.4 2.1 8.8 2.3 25 8.3 1.4-3.8-7.9-3.8-1-1.5-7.2-.8-.2-3.4-6.3-5.6-1.5-2.3 5.8-6.3-.8-6.4 3-1.3 15.2 1.8 3.9 4-1.2 5.6 5 2.2 5 5 5 9.9 9 4.4.7 5-4.7 10.4 7.1 1 .7-2.6 5.1-1.9-.7-3.6 2.6-3.6-6-4.1-.5-4.9-6.4-.5-3.9-4-.5-7.3-11-5.7 6.3-4.7-5-5h2.6l5.6 3.7 2.8 6.8 6.7 1.3-6.1-5 6.8-2.9 10.8-.4 13 4-9.3-5.7-6.6-7.4 7.9-1.3 12.7.3 10.5-1-7.5-3.5 1.7-4.4 5.6-.3 6.6-3.2 12.5-1-.3-1.8 12.4-.5 5.8 1.5 7.2-3.5 9.4.1-2-3 1.2-2.6 8.3-2.7 11.1 2.1-4.7 1.7 12.6.9 5.5 3.2 2.6-1.6 14.6.1 15.5 3.2 7.4 2.5 3.3 3.4-3.2 2-8.9 3.8-1.4 2 7.5 1 9.6 1.7 3.2-1.4 7.8 4.5.3-1.8 7-1 18.1 1 5.1 3.2 23.3 1.1-6.4-5.2 12.7 1.2 8.2-.1 13.3 3.6 8 4.4.5 3 13.6 5.6 12 2.8-4-7.4 12.6 3 6.7-1.8 13 2.2 1.4-2 10.2 1-12.6-6.5 2.8-3 54.1 4.6 10.6 4.1 21.8 5.4 19.9-1.4 12.4 1.2 8.9 3 6.8 5.2 9.8 2 5.2-1.5h9.4l12.4 1.3 9.3-.9 19.1 6.5 3.4-2.3-11.4-4.6-2.4-3.2 20.5 2 10.7-.4 21.1 3.4 12.7 3.2 44.5 29.6-2.7 3.3-8.3-.5 11 4 12.2 6.3 5.6 2 5.1 3.2 1.3 2-13.3-1.6-8.9 5.8-4 1-2.1 5.4-2.7 4.9 2.3 3.6-15.4-5.5-8.2 6.1-6.3-3-1.9 3.6-9.4-1.2 4.2 5.2 1.5 7.8 3.9 3.2 9 1.7 12.2 11.7-5.4.4 4.5 6.7 6.3 3.4-6.7 4.2 7.2 9.4-7.6 2 6 8.3-2.2 7.7-7.7-5.7-14-12-21.7-18.1-8.7-11.2v-4.8l-3.7-3.7 7.7-1.8-.3-10 1-8 3.3-6.3-8.8-11-6.3.6 4.2 6.5-4.8 8.5-16.4-9.6-12.2 2.7v13.1l10.3 4.8-11.4 2.2-8.6.8-5.7-5.8-10.7-1.2-3.4 3.9-20.2-1.3-17.7 2.2-4.7 15.7-6.7 19 11 1 7.6 5.2 7.8 1.7.5-4 7.5.5 17.2 9 6.3 7 1.8 8.3 7.4 9.9 7.1 13.2-1.3 12.2 1.7 5.8-2.7 9.9-2.8 9.8-1.2 5-6.1 4.9-4.2.1-7-4.1-5.4 6.3zM412.5 124.2l-24.2 2.4-1.8-8.2 3-.7 4.1.4 16.9 3.5zm-271-13.4-5.7.6-3.9.6v.9l-4.8 1-6-1.4 1.5-1.9-10.5-.1 8.4-1h7l2 1.4 1.8-1.3 3.7-1 7.8 1.2zm241.5 9.7-9.5.8-15.6-1.7-10.9-2.3-8.8-4.3-8-1 7.3-4 8.3-1.1 12.9 2.7 18.3 5.6z" class="sm_state sm_state_RU" style="-webkit-tap-highlight-color:transparent"/>
    <path d="m706.3 580-8.7 7.2-5 8.2-.8 6 7.1 9 8.7 11.3 7.7 5.3 5.5 6.8 5.3 16 .6 15.1-5.8 5.6-8.2 5.7-5.6 7-8.8 8.1-3.1-5.5 1.6-5.9-5.9-4.8 6.2-3.5 7.9-.7-3.8-5 12-6.7v-10.4l-2.5-5.7.3-8.6-2.7-6-6.5-6-6-7.5-7.6-10.2-9.7-5.2 1.6-3.1 4.4-2.3-4-7.5h-9.1l-4.7-7.8-5.4-6.8 3.6-2.1 6 .1 7-1 5.5-4.6 4.2 3.2 7 1.6-.3 5 4.1 3.4z" class="sm_state sm_state_VN" style="-webkit-tap-highlight-color:transparent"/>
    <path d="m393.2 402.2 2.3.8-4 5.5 6.1 3.2 4.3-2.2 9.7 4.6-7.1 6.1-5.5-.8-2.8.2-1.8-2.3.3-4-8.7 2-.7 5.5-2 4.7-5.9-.4-.8 3.7 5.6 2 3.2 6.5-1.7 8.7-5.8-2h-4l-1-5.1-10.4-3.8-8.4-4.1-5.6-4-9.5-6-5.8-8.8-2.8-1.6-7.4.4-3-1.7-2.6-6.7-10.6-4.6-4.5 5-5.1 3 2.3 4.2-8 .1-8.2-31.3 16-5 1.5.7 12.3 6 6.5 3.3 8.8 7.6 7.6-1.2 11.5-.7 10.2 6.2 2 8.5 3.5.2 3.4 7 9 .2 3 4h2.7l1.2-6.1 7.2-6z" class="sm_state sm_state_UZ" style="-webkit-tap-highlight-color:transparent"/>
    <path d="m655.3 581-5.5 5.6-1 3-4 2-3.8 3.8-5.3.4-2 9.3-3 1.6 4.8 7.5 5.5 6.3 3.8 5.7-1.8 7.4-2.4 1.6 2.4 4.3 5.7 6.8 1.4 4.8.2 4 3.7 8-3.5 8-3 8.8-1.2-6.4 1.8-6.6-3-5-.3-9.4-3.4-4.6-3.7-10.2-2.6-10.8-4.2-7.2-4.3 4.4-7.7 6-4.5-.7-4.8-2 1.2-10.7-2.6-8-7.1-10 .4-3-4.6-1.2-6.2-7-1.4-7 2.8 1.4-.8-6.2 3.3-2-1.3-3.6 1.3-3-1.2-9 6.2 2 2.1-7-.4-4.2 2.7-7.2-1.2-5 8.3-5.8 5.6 1.4-1.9-5.2 2.3-1.6-1.3-3.2 4.1-.7 3.7 5.1 3.6 2 1.7 6.6 1.2 7-5.6 7.3 1 10.2 7.4-1.5 3.2 8 5 1.7-1 7 6 3.3 3.4 1.6 5.1-2.6z" class="sm_state sm_state_MM" style="-webkit-tap-highlight-color:transparent"/>
    <path d="m585.4 336.3 5.3-1.6 7.7-1.1 7.2 1.2 8.8 3.9 6.6 4.3h6.2l9 1.3 4.9-2.1 7.9-1.4 5.9-5.9 4.5 1 5.3 2.8 7.5-.8.8 6.3.4 8.4 3.7 3.4 3-1.1 7.5 1.3 3.3-3 7 2.6 9.6 6 1 2.9-5.8-1-9.1 1.1-3.4 2.4-1.7 5.6-8.6 3.3-4.3 4.5-7.9-1.7-4.2-.8-.7 5.5 3.9 3.2 2.5 2.8-3.2 3-2.7 4.5-6.5 3-10.2.2-9.7 3-5.9 4.5-4.4-2.6h-8.3l-12.6-5.2-7.5-1.2-8.5 1.2-15.2-2-7.5.3-6.3-5.1-6.7-7.8-4.5-1-10.7-5.3-9.7-1-8.7-1.5-4-3.8-1.9-9.7-7.7-6.9-11-3-7.6-4.5-4.5-5.9 6.3-1.4 9-7.1 7.9-4 7.1 2.6 7 .2 6.4 3.8 6.7.3 10.7 2.2 3.2-6-5.3-4.8 1.7-8.5 9.4 3.3 6.4 1 9 2.2 4.8 6.2z" class="sm_state sm_state_MN" style="-webkit-tap-highlight-color:transparent"/>
    <path d="m676.6 711.8 1.9.8 4.6 5.2 3.4 5.8.8 5.7-.7 4 .8 2.9.7 5 2.8 2.5 3 7.6v2.8l-5.3.7-7.3-6.5-9.1-6.8-1.1-4.4-4.6-5.8-1.3-7-3-4.7.6-6.3-1.9-3.7 1.2-1.4 6.4 3.7.8 4.4 5-1zm120.2 18-6.7-1.5h-8.7l-2.2 9.7-2.8 3-3.5 11.9-6.2 1.9-7.2-2.4-3.6.8-4.5 4.3-4.8-.6-5 1.8-5.2-5-1.3-5.8 5.6 3 5.8-1.6 1.3-7.2 3.2-1.7 9.1-1.8 5.1-6.9 3.5-5.3 3.8 4.4 1.4-3 3.7.3v-5.5l.2-4.2 5.5-6 3.5-6.6 3-.2 4.2 4.4.6 3.8 5 2.4 6.5 2.6-.3 3.3-5 .4 1.4 4.3z" class="sm_state sm_state_MY" style="-webkit-tap-highlight-color:transparent"/>
    <path d="m160.7 479.2.6 3.5-.8 1.3h.1l-1 2.7-2.8-1.1-.9 5.6 2 1-1.7 1.2-.2 2.2 3.4-1 .5 3.3-2.4 13.7-1-2.2-5.1-12.6 1.8-2.8-.5-.5 1.5-4 .8-6.4.8-2.3h2.5l.6-1.5z" class="sm_state sm_state_IL" style="-webkit-tap-highlight-color:transparent"/>
    <path d="m549 525.6.2 3.7 2 5.4-.1 3.4-6.2.1-9.2-2-5.8-.8-5-4.3-10.4-1.2-10.4-4.8-7.8-4.1-7.7-3.3 1.2-8 3.7-4 2.6-2 6.4 2.7 8.6 5.6 4.4 1.2 3.3 4.1 6 1.6 6.8 4 8.7 1.8z" class="sm_state sm_state_NP" style="-webkit-tap-highlight-color:transparent"/>
    <path d="m727.3 604.6-5.7 4.2-6.6-2.7-1.3-7.3 3-4 7.7-2.3 4.4.1 2.2 3.3-2.7 3.8zm31.4-263 12 6 8 7.8H789l3.5-3.2 9.3-2.5 1.7 7.6-.4 3 3.8 9.2.8 8.3-9.3-1.5-3.9 3 6.3 7.2 5.3 10-3.4.2 2.5 4.4-7.3-5.1v4.8l-8.6 3.6 3.8 4.6-6.2-.4-4.8-2.7-1.5 6.2-5.2 4.5-2.8 5.5-8.5 2.4-3.2 4-6.4 2.5 1.7-4-3-3.4 2.6-5.8-6-4.4-4.5 3-4.9 6-1.7 5.5-6.7.4-1.7 4 6.4 5.8 6.4 1.4 1.9 3.8 6.8 2.5 5.1-6.1 7.9 3.3 4.7.3 3 4.4-8.9 2.4-1.3 4.7-5.1 4.3-1.2 6 9.5 4.7 6.1 8.4 7.4 8 7.4 6.5 2.1 6.4-3.7 2.4 3.2 4.6 5.2 2.7 1 7 .2 6.8-3.8.8-2.8 9.2-3 11.4-4.6 10.2-8.6 7.9-8.8 7.3-8.2 1-3.9 3.7-3-2.7-3.4 4.2-9.6 4.4-7.8 1.2-1 9.1-4 .6-3-6.3 1.2-3.3-10.5-2.8-3.2 1.5-7.9-2.3-4.1-3.5.4-5-7.1-1.5-4.2-3.2-5.5 4.5-7 1.1-6-.1-3.6 2.1-3.6 1.2 2.7 10-4-.3-1.1-2-.7-3.7-5 2.6-3.5-1.6-6-3.2 1-7.1-5-1.8-3.2-7.9-7.5 1.5-1-10.2 5.7-7.2-1.2-7.1-1.7-6.6-3.6-2-3.7-5-4.1.6-8.2-1.4 1.6-3.6-4.8-5.3-4.3 3.6-6.5-2-7.3 5.3-5.2 6.5-5.6 1-3.8-2.2-3.9-.3-5.7-1.9-3.5 2.2-3.5 6.4-2-6.8-4.1 1.8-8.7-.9-8.7-1.9-6.7-3.9-6-1.6-3.4-4.1-4.4-1.2-8.6-5.6-6.4-2.7-2.6 2-11.5-6-8.3-5.4-4.3-9.5 5.5 1.2-.8-4.4-4-4.4-1-7-10.4-10.2-12.7-3.3-4-6.7-6.2-4-2-2.5-2.4-4.8-.7-3.3-5-2-2 .9-4.1-8 1.5-2-1.6-2 5.5-4 4.2-1.7 7.8 1.2.8-5.5 8.6-.9 1.3-3.5 9.3-4.5.2-2-2.3-4.9 4-2.1-11.9-14.7 12.2-3.4 2.7-1.9-1.3-15L475 362l2.2-3.9-3.4-8.3 5.1-.8 2.6-5.6 2.2-.7 4.5 6 7.6 4.3 11 3.1 7.7 6.9 2 9.7 4 3.8 8.6 1.5 9.7 1 10.7 5.4 4.5 1 6.7 7.7 6.3 5 7.5-.2 15.2 2 8.5-1.2 7.5 1.2 12.6 5.2h8.3l4.5 2.6 5.8-4.6 9.7-3 10.2-.2 6.5-3 2.7-4.5 3.2-3-2.5-2.7-4-3.3.8-5.4 4.2.8 8 1.7 4.2-4.6 8.6-3.2 1.7-5.6 3.4-2.4 9.1-1 5.9.9-1-3-9.7-5.9-7-2.7-3.3 3.1-7.4-1.3-3 1-3.8-3.3-.4-8.4-.8-6.3 9.9 3.2 5.9-5.2-2.6-3.8-.2-8.7 1.7-2.7-3.4-4.5-5-1.9 2.4-4.1 6.8-1.5 8.3-.3 11.5 2.6 8 3 10.4 8.2 5 3.6 6 5.1 8.4 8z" class="sm_state sm_state_CN" style="-webkit-tap-highlight-color:transparent"/>
    <path d="m182 478.2-13 9.3-8.4-3.5h-.1l.8-1.3-.6-3.5 1.2-4.7 3.6-3.4-1.6-3.3-3.3-.4-1.5-6.6 1.4-3.6 1.7-1.9 1.6-1.8-.3-4.7 2.6 1.6 7.5-2.4 4 1.6h5.9l7.6-3.2 4 .1 7.8-1.3-2.8 5.3-3.6 2.2 1.6 6.3-1.3 10.3z" class="sm_state sm_state_SY" style="-webkit-tap-highlight-color:transparent"/>
    <path d="m457.2 401.5-.2 1.9-9.3 4.5-1.3 3.5-8.6 1-.8 5.4-7.8-1.2-4.3 1.8-5.4 4 1.6 2-1.5 1.9-12.9 1.3-9.5-2.8-7.3.7-.8-4.8 8 1.3 1.9-2.6 5.5.8 7-6.1-9.6-4.6-4.3 2.2-6.1-3.2 4-5.5-2.3-.8.4-3.8 4.2-1.2 12.3 3-.7-5 3.4-1.9 11 3.6 2-.9 11.6.3 10.6.8 4.5 3z" class="sm_state sm_state_KG" style="-webkit-tap-highlight-color:transparent"/>
    <path d="m710.7 643 2.4 5.8.2 10.4-12 6.7 3.7 5-8 .7-6 3.5-6.5-1.2-3.5-4.6-4.7-8.8-2.8-10.4 4.2-7.1 9.5-1.7 7 1.3 6.8 3.3 2.6-5.9z" class="sm_state sm_state_KH" style="-webkit-tap-highlight-color:transparent"/>
    <path d="M795.2 440.7v-.8l3.4.3.8-3.7 4.8-.6 2.7-.5v-2l11.1 10 4.4 5.6 4.6 10-.7 4.6-5.8 1.6-4.1 3.7-6.2.6-2.8-4.7-1.5-6.4-7-8.8 4.5-1.5z" class="sm_state sm_state_KR" style="-webkit-tap-highlight-color:transparent"/>
    <path d="m805.1 401.1 2 1.5-3-.6-1.4 3-.4 2.8 3.8 6.2-2.6 1.8-.4 1.5-1.2 2.5-3.9 1.5-1.8 2.3 1.7 3.6-.4 1 3.5 1.4 5.9 3.8v2l-2.7.5-4.8.6-.8 3.7-3.4-.3v.8l-4.3-1.6v1.6l-1.8.7-1-1.6-2.2-.8-2.6-1.3.1-3.8 1.3-1-1.4-1.5-.5-4.7-1.2-1.4-4.6-.9-4.5-2.3 2.8-5.5 5.2-4.5 1.5-6.2 4.8 2.7 6.2.4-3.8-4.6 8.6-3.6V396z" class="sm_state sm_state_KP" style="-webkit-tap-highlight-color:transparent"/>
    <path d="m252.3 507.6 2 3.7-.4 2 3.3 6.4-5.3.3-2.2-4.1-6.7-.8 4.4-8.3z" class="sm_state sm_state_KW" style="-webkit-tap-highlight-color:transparent"/>
    <path d="m374 308.2 5.8-.4 12.3-7.8-1 2.7 11.2 6.3 24.5 20.9 1.5-4.3 11.2 4.7 8.3-2.2 4.5 1.5 5.5 4.8 5.3 1.6 4.4 3.6 8-1.2 6 5.1-2.6 5.6-5 .8 3.3 8.3-2.2 4-14.4-2.9 1.3 15.1-2.7 2-12.2 3.3 11.8 14.7-3.9 2.1 2.3 5-4.7-1.3-4.5-3.1-10.6-.8-11.5-.3-2.2 1-11-3.7-3.3 2 .7 4.9-12.3-3-4.2 1.2-.4 3.8-3.5 1.6-7.2 5.9-1.2 6.1h-2.7l-3-4-9-.3-3.4-7h-3.5l-2-8.6-10.2-6.2-11.5.7-7.6 1.2-8.9-7.6-6.4-3.3-12.3-6-1.5-.7-16 5 8.3 31.3-3.5.4-6.5-6.7-5.2-2.4-7.5 1.8-2.4 3-.8-2.2.8-3.5-2-3-8.7-2.9-5-7.6-4.2-2.2-.8-2.8 6.8.8-1.4-6.1 5.5-1.4 6.3 1.2-.9-8.1-2.5-5.3-6.7.4-6.3-2-6.9 3.6-5.9 2-3.7-1.6-.3-4.2-5.7-5.7-4.9.3-7-5.6 2.2-6.5-2.4-1.6 3-9.2 8 4.8-.8-6 10.8-9 10.2-.2 16 5.7 9 3.4 5.8-3.5 10.3-.2 9.8 4.3 1-2.5 9.4.4.3-3.9-12.6-5.8 4.7-4-2-2.1 5.4-2.2-6.9-5.6 2-2.8 22.7-2.8 2.3-2 14.5-3 4.2-3.4 12.2 1.7 5.9 8.4 5.7-2 9.5 2.8z" class="sm_state sm_state_KZ" style="-webkit-tap-highlight-color:transparent"/>
    <path d="m243 515 6.6.9 2.3 4.1 5.2-.3 3.7 7.5 3.8 2 1.7 3 5.3 3.6 1 3.5-.6 3 1.2 2.8 2.4 2.4 1.2 2.8 1.4 2.1 2.4 1.8 2-.7 1.7 3.3.4 2 3.6 8.8 22.7 4.2 1.3-1.8 4 6.1-3.4 17.2-21.9 8.5-21.3 3.4-6.7 3.9-4.6 9-3.5 1.4-2-2.8-2.9.4-7.3-1-1.5-.7-8.6.1-2 .8-3.2-2.1-1.7 4.1 1 3.6-3.2 2.8-1.2-3.7-2.4-2.6-.7-3.4-4.1-3.1-4.4-7.2-2.6-7-5.5-5.9-3.3-1.5-5.5-8.1-1.2-6v-5l-4.8-9.7-3.8-3.3-4-1.8-2.8-5 .3-1.8-2.4-4.5-2.3-2-3.4-6.3-5-6.9-4.2-5.9h-3.6l.6-4.7.2-3 .5-3.5 8.3 1.5 2.8-2.7 1.5-3.1 5.5-1.2 1-3 2-1.3-8-8.7 14-4.3 1.2-1.3 9 2.4 11.6 6 22.5 17.3z" class="sm_state sm_state_SA" style="-webkit-tap-highlight-color:transparent"/>
    <path d="M692.6 755.5h.1l.2.1-.2.2-.2.2v.2h-.6v.2h-.2v.2h-.4v-.2l-.2-.1h-.2l-.3-.1h-.4l-.1-.2.1-.1.1-.3.2-.2v-.2l.1-.1h.4l.3-.1h.5l.5.4z" class="sm_state sm_state_SG" style="-webkit-tap-highlight-color:transparent"/>
    <path d="m228.2 666.7-2.5 4.6-1.8-1.6-1.7.7-4.3-.1-.3-2.7-.6-2.4 2.4-4 2.5-3.8 3.2.8 2.3-2.1 1.9 2.7-.1 3.4-4.2 2.2z" class="sm_state sm_state_DJ" style="-webkit-tap-highlight-color:transparent"/>
    <path d="m301 622-5.4 2.3-1.2 4v2.9l-7.3 3.6-11.7 4-6.3 6-3.4.6-2.3-.6-4.2 3.6-4.7 1.6-6.3.5-1.9.5-1.5 2.3-2 .6-1 2.2-3.8-.3-2.3 1.2-5.3-.4-2.2-5v-4.8l-1.3-2.5-1.8-6.3-2.4-3.5 1.5-.5-1-3.9.9-1.6-.6-3.8 3.2-2.8-1-3.6 1.7-4.1 3.2 2.1 2-.8 8.6-.1 1.5.8 7.4.9 2.8-.4 2 2.8 3.5-1.5 4.6-9 6.7-3.8 21.3-3.4 7 14.2z" class="sm_state sm_state_YE" style="-webkit-tap-highlight-color:transparent"/>
    <path d="m160.7 479.2-1.8.1-.6 1.5H156l1.7-7.1 3-6v-.3l3.3.4 1.7 3.3-3.7 3.4z" class="sm_state sm_state_LB" style="-webkit-tap-highlight-color:transparent"/>
    <path d="m710.7 643-7-3-2.7 5.9-6.7-3.3 2-4-.6-7.2-7-7.5-1.8-8.5-6.7-7-5.8-.5-1 3-4.3.2-2.6-1.5-7 5.1-1.4-7.8.5-9-5-.3-1.3-5.3-3.6-2.6 1.1-3.1 5.5-5.6 1 2 4 .2-2.6-9.9 3.6-1.2 5.4 6.8 4.7 7.8h9l4 7.5-4.3 2.3-1.6 3 9.7 5.3L696 615l5.9 7.5 6.5 6 2.7 6z" class="sm_state sm_state_LA" style="-webkit-tap-highlight-color:transparent"/>
    <path d="m802 569.3-2 7.1-5.3-7.4-2-6.3 2.5-8.4 4.5-6.6 4 2.6-.2 5.2z" class="sm_state sm_state_TW" style="-webkit-tap-highlight-color:transparent"/>
    <path d="m191 408.3 7.4-.4 7.5 4.3 1.7 3 .1 4.1 5.7 2.2 3.2 2.4-4.5 2.5 4 9.8-1 2.7 5 6.8-3.1 1.5-2.8-2.2-8.5-1.2-2.8 1.4-7.9 1.3-3.9-.1-7.6 3.2h-5.9l-4-1.6-7.5 2.4-2.6-1.6.3 4.7-1.6 1.8-1.7 2-3.1-4 2.3-3.2-4.3.8-6.2-2-4.3 5-10.7.9-6.3-4.6-7.6-.2-1.4 3.5-4.8 1-7.2-4.5-7.8.1-5-8.6-5.7-4.6 2.7-6.7-4.8-4.2 6.8-8.2 10.7-.2 2.2-6.6 13.3 1.2 7.5-5.5 7.8-2.4 11.4-.3 13.1 6 10.6 3.4 7.8-1.3 6.1.8zM84 414.5l1.6-1 1.5-5.3-3.6-2.3 6.7-2.7 6.1 1.1 1.2 3.4 6.5 2.6-1 2.2-8.3.4-2.6 2.7-5.3 4.5-2.6-3.9z" class="sm_state sm_state_TR" style="-webkit-tap-highlight-color:transparent"/>
    <path d="m518 712-6.4 2-3.9-6.9-1.9-12.3 2.7-14 5.5 4.7 3.8 6 4.1 9-.8 9z" class="sm_state sm_state_LK" style="-webkit-tap-highlight-color:transparent"/>
    <path d="m694.3 642.5-7.1-1.2-9.5 1.7-4.2 7 2.8 10.5-7-4-6.5.2.4-6.8h-6.6l.3 9.5-3 12.6-1.8 7.6 1 6.2 4.9.3 3.6 7.9 1.7 7.3 4.6 5 4.5 1 4.2 4.5-2.3 3.5-5 1-.8-4.4-6.4-3.7-1.2 1.4-3-3.2-1.7-4.3-4.3-4.8-3.8-4.1-1 5-1.7-4.8.5-5.3 1.6-8.2 3-8.8 3.5-8-3.7-8-.2-4-1.4-4.8-5.7-6.8-2.4-4.3 2.4-1.6 1.8-7.4-3.8-5.7-5.5-6.3-4.7-7.5 3-1.6 2-9.3 5.2-.4 3.7-3.7 4-2 3.6 2.6 1.2 5.3 5.1.4-.5 9 1.3 7.7 7.1-5 2.6 1.4 4.3-.3 1-3 5.8.6 6.7 7 1.7 8.5 7.1 7.5.6 7.3z" class="sm_state sm_state_TH" style="-webkit-tap-highlight-color:transparent"/>
    <path d="m317.5 544.1 1.8 6.8h-3.8v5.7l1.5 1.2-3.2 1.7.3 3.5-1.8 3.5v3.5l-1.3 1.8-22.7-4.2-3.6-8.9-.4-1.9 1.2-.5.6 2.4 5.6-1.3 6.2.2 4.5.3 4.4-5.9 5-5.5 4-5.3z" class="sm_state sm_state_AE" style="-webkit-tap-highlight-color:transparent"/>
    <path d="m433.8 443.6 2 2.4-3.9 1-3.2 1.5-7.9 1-7.1 1.8-3.2 3.8 2.5 3.6 2 4.3-2.8 3.6 1.1 3.3-1.2 3.1-7-.3 4.2 5.7-4.2 2.2-1.8 5.1 1.4 5.3-2.4 2.4-2.8-.8-5.4 1.2-.2 2.2h-5.5l-3 5 1 7.2-8.9 3.6-5.2-.8-1.2 2-4.5-1.2-7.1 1.4-12.9-4.4 5.2-7.8-1.4-5.5-5.8-1.5-1.6-5.5-3.6-6.8 2.1-4.7-3.3-1.3.6-6.3.8-10.7 8 3.3 5.2-1.2.5-3.9 5.4-1.2 3.4-2.6-.2-6.9 5.6-1.7.4-3 3.9 2.3 2.1.3h4l5.8 1.9 2.4.9 4.6-2.7 2.8 1.6 1.2-3.9 4.3.2.8-1.2-.3-3.5 2.3-3 4.4 2-.1 2.6 2.2.4 1.3 7.2 3.6 2.8 2-1.8 3-.8 3.3-4 5 .7z" class="sm_state sm_state_AF" style="-webkit-tap-highlight-color:transparent"/>
    <path d="m220.2 445.7 6.3 10.2 5 2.6 1.3 5-3.1 3-.7 6.6 6.2 8.2 9.5 4.8 4.7 6.5-.3 6.3h2.3l.7 4.5 4.7 4.6-4.5-.4-5-.8-4.3 8.3-13.7-.7-22.5-17.3-11.5-6-9.1-2.4-4.2-10.5 14.8-9L198 459l-1.6-6.2 3.6-2.2 2.8-5.3 2.8-1.4 8.5 1.2 2.8 2.2z" class="sm_state sm_state_IQ" style="-webkit-tap-highlight-color:transparent"/>
    <path d="m227.6 432.3 2.4-.3 7-6.3 2.6-.6 2.5 2.5-1.6 4.2 5.3 4.5 1.7-.5 3.4 6.4 7 1.8 5.8 4.2 10.3 1.5 10.7-2.3.3-2 5.9-1.6 4-5 4.8.3 2.7-1.6 5.2.8 8.9 4.4 5.7 1 9.8 7.5 5.4.4 2.2 7-.8 10.8-.6 6.3 3.3 1.3-2.1 4.7 3.6 6.8 1.6 5.5 5.8 1.5 1.4 5.5-5.2 7.8 4.3 4.5 3.7 5.2 7.7 3.8 1.3 7.5 3.6 1.5 1.2 3.9-10 4.5-1.5 10-14.2-2.6-8.3-2-8.4-1.1-4.4-10.6-3.8-1.5-5.5 1.5-6.8 4.2-9.4-2.9-8.2-6.6-7.3-2.5-6-8.1-6.9-11.4-3.7 1.3-5-2.8-2.3 3.4-4.6-4.6-.7-4.5H249l.3-6.3-4.7-6.5-9.5-4.8-6.2-8.2.7-6.7 3-2.9-1.1-5-5.1-2.6-6.3-10.2-5.1-6.8 1-2.7-4-9.8 4.5-2.5 1.6 3.3 4.3 3.9z" class="sm_state sm_state_IR" style="-webkit-tap-highlight-color:transparent"/>
    <path d="m230 432-2.5.3-3.7-5-.3-1.3h-3l-2.6-2.3-1.3.2-3.2-2.4-5.7-2.2-.1-4.1-1.7-3 9.3-1.3 1.9 2.1 3 1.5-1 2.1 4.3 3-1.5 2.8 3.5 2.3 3.4 1.3z" class="sm_state sm_state_AM" style="-webkit-tap-highlight-color:transparent"/>
    <path d="m493.5 505.7-3.7 4-1.2 8 7.7 3.3 7.8 4.1 10.4 4.8 10.3 1.2 5.1 4.3 5.8.8 9.2 2 6.2-.1.1-3.3-2-5.5-.2-3.7 4.1-1.8 2 6.8.5 1.6 7.4 3.4 4.3-1.4 6.3.6 6-.3-.6-5.2-3.5-2.9 5.6-1 5.2-6.5 7.2-5.3 6.6 2 4.3-3.6 4.8 5.3-1.6 3.7 8.2 1.3 1.3 3.2-2.3 1.6 2 5.2-5.7-1.4-8.3 5.9 1.2 5-2.7 7.1.4 4.2-2.1 7.1-6.2-2 1.2 9-1.3 3 1.3 3.5-3.3 2-6-13.6h-2l-.3 5.6-4.9-4.6 1.7-4.8 3.2-.5 2.1-7.2-4.5-1.5-6.9.1-7.2-1.2-1.6-6-3.6-.4-6.6-3.8-1.6 6 6.2 4.5-4 3.2-1.3 3 5 2.3-.4 5.3 3.5 6.4 2.1 7.1-.6 3.2-5.1-.1-8.9 1.7 1.2 6.4-3.2 5.1-10 6-7.1 10-5.1 5.5-6.7 5.6.4 3.9-3.5 2.1-6.4 3-3.5.5-1.6 6.6 2.5 11.2 1 7.1-2.6 8.2 1 14.6-4 .4-3 6.5 2.5 3-6.8 2.4-2.3 5.7-3 2.6-7.4-8-4.2-12.1-3.3-8.7-3-4-4.5-8.3-2.7-10.7-1.9-5.4-7.9-11.8-4.6-16.7-3.5-11-1.1-10.4-2.3-8-10.3 5.1-5.3-1-10.9-10.5 3.2-3-2.5-3.4-9.5-7.4 4.3-5.7h16.2l-2.5-7.4-4.6-4.3-2-6.7-5.3-3.7 6.6-9.1 8.7.6 6-9 3-8.6 5.2-8.7-1.3-6.2 5-5-6.8-4.1-3.9-5.9-4.4-7.5 2.7-3.8 11.4 2.2 7.6-1.3 5-7.3 10.4 10.2 1 7 4 4.4.9 4.4-5.5-1.2 4.3 9.5 8.3 5.4z" class="sm_state sm_state_IN" style="-webkit-tap-highlight-color:transparent"/>
    <path d="m227.6 432.3-5.1-1.2-4.3-3.9-1.6-3.3 1.3-.2 2.6 2.3h3l.3 1.3zm8.4-22.8 3.3-3.4 4.7 4.4 4.8 6.1 3.4.4 2.5 2.3-5.6.7.1 6.7-.5 3-2.3 2 1.1 4-1.7.6-5.3-4.5 1.6-4.2-2.5-2.5-2.5.6-7.1 6.3-1.2-6-3.4-1.3-3.5-2.3 1.5-2.8-4.3-3 1-2.1-3-1.5-1.9-2.1 1.5-1.5 5.6 2.5 4 .4.7-.9-4.4-4.7 1.6-1 2 .2 5.8 5.1 3.2.7z" class="sm_state sm_state_AZ" style="-webkit-tap-highlight-color:transparent"/>
    <path d="m814.8 853.3-3.2.2-9.5-6 7.2-1.8 3.7 2.7 2.5 2.5zm33.2-11.6.7 1.7-.2 2.6-5.5 6.4-6.6 1.9-.9-1 1-3 3.7-5.1zm-53-6.8 2.5 2.2 4.8-.6 1.6 3.6-9 1.7-5.2 1.2-4.1-.1 3-5h4.2zm37.9 0-1.5 4.8-11.5 2.4-10-1 .2-3.3 6.2-1.7 4.5 2.5 5.1-.7zm-107.4-11.4 14.4 1 2-3.7 13.7 4.1 2.4 5.7 11.3 1.6 9 5-9 3.3-8-3.5-6.9.3-7.8-.7-7-1.5-8.5-3.3-5.5-.8-3.2 1-13.7-3.6-1-3.6-6.9-.7 5.7-8.1 9 .5 6 3.4 3.2.6zm198-4.8-4.2 5.8-.3-6.4 1.5-3 1.7-3 1.6 2.5zM868.1 795l-3 2.9-5-1.6-1.4-3.8 7.7-.4zm24.6-3.1 2.4 6.5-6.1-3.6-6.3-.7-4.4.6-5.2-.3 2-4.7 9.3-.4zm80.1-4.3-1.3 28-2.2 28.1-6.1-7.1-7.5-1.7-2 2.4-9.7.2 3.8-7 5-2.3-1.4-9.4-3-7.1-14.4-7.4-6.2-.6-11-8-2.5 4.2-3 .7-1.4-3.1.1-3.8-5.6-4.2 8.3-3.1 5.3.1-.5-2.3h-11.1l-3-5-6.6-1.7-3.1-4.2 10.2-2 3.8-2.9L920 772l1.2 3.2 1.8 14 7.6 5 6.7-9 8.8-5.1h6.7l6.5 2.9 5.5 3zM853.5 753l-6 8.6-5.8 1.6-7.2-1.6-12.7.4-6.6 1.2-1 6.6 6.6 7.6 4.2-3.9 14.2-3-.7 4-3.3-1.2-3.4 5-6.8 3.4 6.8 11-1.5 3 6.5 9.8-.4 5.7-4.2 2.5-2.8-3 4-7-7.6 3.3-1.8-2.4 1.1-3.4-5.2-5 1-8.3-5.3 2.5.3 10-.3 12.4-5 1.2-3-2.4 2.5-8-.8-8.2-3.2-.2-2.1-5.9 3.3-5.6 1.2-6.8 4-13 1.5-3.5 6.4-6.4 6 2.5 9.6 1.2 8.7-.4 7.5-6.1zm26.2 2.6-.4 7.5-3.8-1-1.2 5.3 3 4.5-2.1 1-3-5.4-2.2-11 1.3-6.8 2.4-3 .7 4.6 4.5.7zm-144.6-7.7 1.4 5.8 5.2 5 5-1.8 4.8.6 4.4-4.3 3.6-.8 7.2 2.4 6.2-1.9 3.5-12 2.8-2.9 2.3-9.7h8.7l6.7 1.4-4 7.8 5.8 8-1.2 4 8.6 8-9 1-2.4 6 .3 7.7-7.4 5.9-.5 8.5-3.4 13.2-.9-3.1-8.8 3.9-2.9-5.2-5.3-.6-3.8-2.8-9 3.2-2.6-4.3-5.1.6-6.2-1-.8-11.5-3.7-2.4-3.6-7.4-1.1-7.5.8-8zm-30.5 67.7-8.3.1-6-7-9.6-7.2-3-5.2-5.5-7-3.6-6.4-5.7-12-6.5-7.3-2.3-7.4-3-6.6-7-5.4-4-7.4-6-4.8-8.3-9.5-.8-4.4 4.9.4 11.9 1.6 7 8.4 6.1 6 4.3 3.4 7.4 9.2 7.7.2 6.4 5.9 4.6 7.2 5.8 4-3.1 7 4.4 3 2.7.2 1.2 6 2.5 4.7 5.5.8 3.5 5.5-2.3 10.7z" class="sm_state sm_state_ID" style="-webkit-tap-highlight-color:transparent"/>
    <path d="m282.6 553.5-2 .7-2.4-1.8-1.1-6.3 1.5-4.4 2-1 2.4 2.8.7 5z" class="sm_state sm_state_QA" style="-webkit-tap-highlight-color:transparent"/>
  </g>
</svg>
