<svg xmlns="http://www.w3.org/2000/svg" width="1000" height="1000" overflow="hidden" preserveAspectRatio="xMinYMin" viewBox="0.3 0.3 1000 1000">
  <g fill="#7480ff" stroke="#7480ff" stroke-linejoin="round" stroke-width="14">
    <path d="m344.4 532.8-1.5 15.5-4.8.7-1.4 12.9-16.3-10.7-9.2 1.9-12.9-10.7-8.8-9.3-8.2-.3-3-8.1 14.5-4.5 13.2 1.9 16.6-4.8 11.5 10z" class="sm_state sm_state_BE" style="-webkit-tap-highlight-color:transparent"/>
    <path d="m772.5 696.9-8.5 9.5-4.8 16.6 7.8 13.3-17-3-18.4 7.4 1 11.8-16.9 2.3-14.4-8.5-14.7 6.6-14-.7-3-15.5-10.3-7.8 2.6-3-2.2-2.9 2.2-7.3 6.6-7.4-10.3-10-2.6-8.8 4-5.2 6.7 9.6 7-1.5 14.8 3.4 28 1.4 8.5-5.9 21.7-5.5 14.8 8.5z" class="sm_state sm_state_BG" style="-webkit-tap-highlight-color:transparent"/>
    <path d="m589.6 670 7-.4-4 10.3 10 9.2-2 10.7-4 1.1-3.3 2.2-5.9 5.6-1.5 12.9-17.7-8.9-7.7-10-7.8-5-9.2-9-4.8-7-10-11 3-9.6 7.4 5.5 3.7-5.1 8.5-.4 16.6 4 12.9-.3z" class="sm_state sm_state_BA" style="-webkit-tap-highlight-color:transparent"/>
    <path d="m805.7 479.7-14.4-.8-3 2.2 5.6 7.4 7.4 14.8-15.1 1-4.8 5.2 1 11.5-7.7-2.2-15.8 1-5.6-5.5-6.2 4-7-3.2-14.4-.4-21-5.5-18.1-1.9-14 .8-8.9 5.9-8.4 1-1.9-10.3-7-10.3 10.3-4.8-1.4-8.8-6.3-8.5-2.2-10H664l17.7-8.4 1.9-12.6 13.2-7.4-3.7-10 10-3.6 17-8.5 19.5 5.6 3.3 5.5 8.9-2.6 17.7 5.2 4 10.7-2.6 5.9 14 14.7 7.8 4v4.1l12.5 4 6.3 6z" class="sm_state sm_state_BY" style="-webkit-tap-highlight-color:transparent"/>
    <path d="m659.7 684.3-4 5.2 2.5 8.8 10.3 10-6.6 7.4-2.2 7.3 2.2 3-2.6 3-8.8.7-6.3 1-1.1-1.8 2.2-2.5 1.5-6-2.6.4-4-4.4-3.4-1-3-3.8-3.6-1.5-3-3.3-3.3 1.5-1.8 7.7-4.5 1.5 1.5-1.8-7.7-4.8-6.3-2.6-3.3-3.3-5.2-4 4-1.2 2-10.7-10-9.2 4-10.3-7 .3 6.3-8.8-6.3-6.6-5.5-9.3 13.6-5.9 11.8 1.1 11 8.9 3 7.7 11.8 5.2 2.6 9.6 11.5 7 5.5-5.2 4.8 2.6-3.7 4z" class="sm_state sm_state_RS" style="-webkit-tap-highlight-color:transparent"/>
    <path d="m722 591.8 5.9 2.6 6.6 6.6 7.4 9.6 12.6 14 2.2 10-.8 9.9 4.8 10.7 8.9 4.4 8.5-4 8.8 4 1.5 6.3-8.5 4.8-6-2.2-1.4 28.4-11.4-2.6-14.8-8.5-21.7 5.5-8.5 6-28-1.5-14.8-3.4-7 1.5-6.6-9.6-3.7-4 3.7-4-4.8-2.7-5.5 5.2-11.5-7-2.6-9.6-11.8-5.2-3-7.7-11-8.9L624 636l9.6-15.8 7-15.5 10.7-4.8 7.4-5.2 11.8 2.6h11.8l9.2 5.9 5.9-3.7 13.3-2.2 3.7-5.5z" class="sm_state sm_state_RO" style="-webkit-tap-highlight-color:transparent"/>
    <path d="m699.1 885 11.5 8 15-1.4 14.8 1.4v4.5l10.4-3-1.9 7-28 1.9-.4-3.7-24.3-4.8zm34-120.7-11.8-.7-10-2.2-22.9 5.9 14.8 13.3-9.2 4h-10.7l-11.4-12.1-3.4 5.1 6 14 10.6 11.1-7 5.2 11.8 10.7 10.3 7 1.5 13.2-18.4-6.2 6.6 12.1-12.1 2.3 9.2 21-13 .3-16.9-10.3-8.8-18.8-4.8-15.8-8.5-10.7-11-13.7-2-6.6 8.2-11.5.4-7.7 6.2-3.3-.3-6.3 12.5-1.8 6.6-5.2 10.4.4 2.9-4 3.7-.8 14 .7 14.8-6.6 14.3 8.5 17-2.2-1.1-11.8 10 6.2-4.1 14.8z" class="sm_state sm_state_GR" style="-webkit-tap-highlight-color:transparent"/>
    <path d="m123.9 463-13-4.4-11 .4 4.4-12.2L101 435l14.8-1 18 14zm58.6-105.8-18.8 24 17.3-3h18.8l-4.8 18.1-15.8 20 18 1 1.2 2.6 15.5 26.2 11.8 3.7 10.7 25.8 5.1 8.9 21.8 4-2.2 14.8-8.9 6.6 7 11.8-16.2 11.8-24-.4-31 6.7-8-4.8-12.2 10.7-16.6-2.6-13.3 8.8-9.2-4.4 26.9-24 16.2-5.1-28-3.7-4.8-9.2 18.8-7-9.2-12.2 3.7-14.7 26.2 2.2 3-13.3-11.5-13.7-.4-.3-21-4-4-6 6.6-10-5.6-6.2-9.5 10.7-.4-21.8-8.1-11 7-22.9 14-17.7 13.3 1.5z" class="sm_state sm_state_GB" style="-webkit-tap-highlight-color:transparent"/>
    <path d="m584 645.2 5.6 9.3 6.3 6.6-6.3 8.8-8.8-5.1-13 .4-16.5-4.1-8.5.4-3.7 5.1-7.4-5.5-3 9.6 10 11 4.8 7 9.2 8.9 7.8 5.2 7.7 10 17.7 8.8-1.8 3.7-18.4-8.5-11.8-8.5-17.7-7-17.4-17 3.7-1.8-9.2-10-1.1-7.7L500 661l-5.1 10-6-7.8v-8.1l.4-.4 13.3.8 3-3.7 6.6 3.7 7.4.3-.4-6.2 6.3-2.6 1-9.2 14.4-6.3 6 3 14.7 9.9 15.9 4.4z" class="sm_state sm_state_HR" style="-webkit-tap-highlight-color:transparent"/>
    <path d="m638.3 587.3 11 6.3 1.9 6.3-10.7 4.8-7 15.5-9.6 15.8-14.4 4.4-11.8-1-13.6 5.8-6.7 3.7-15.8-4.4-14.8-10-5.9-3-4.4-7.7-3-.3 4.9-14.8-4.1-5.1h10.3l.8-9.6 10 6.2 7 2.3 15-2.6 1.2-4.8 7-.8 8.4-3.3 2.3 1.5 8.4-3 3.7-5.5 6-1.5 20.2 7z" class="sm_state sm_state_HU" style="-webkit-tap-highlight-color:transparent"/>
    <path d="m87.7 852.1-8 6-10.4-3.4-10 2.6 3.4-18.5-1.1-14.3-8.9-2.3-4-8.8 1.8-15.5 8.1-8.5 1.9-9.6 4.4-14v-10l-3.3-8.4-.8-8.1 7-6 8.1-3.2 4.5 11.4h11l3.4-3 11.4.8L111 751l-8.9 6.2-1 18.5-3 3.3-1.1 11.4-8.5 1.9 7.4 14-6 15.5 6.7 7-3 6.2-7.3 8.9z" class="sm_state sm_state_PT" style="-webkit-tap-highlight-color:transparent"/>
    <path d="m578.2 450.5 21.7 2.6 32.5-.3 9.2 2.5 5.2 7 2.2 10 6.3 8.5 1.4 8.8-10.3 4.8 7 10.3 1.9 10.4L667 535l-1.1 6.3-8.5 2.5-14 19.2 5.9 10.3-4.1-1.4-18.4-8.9-13 3.3-8.8-2.2-10.3 4.8-10-8.1-7 3.3-1-1.5-9.7-11.4-13.6-1.1-2.6-7.4-12.5-2.6-2.2 6-10.4-4.8.8-6.3-13.7-1.9-9.2-7.3-8.8-14.4.7-8.1L490 491l-7-7.7 4.4-6.3-5.2-11.4 11.4-6.7 26.2-10.3 21.4-7.4L559 445l2.2 5.5z" class="sm_state sm_state_PL" style="-webkit-tap-highlight-color:transparent"/>
    <path d="m2826.1 533.9 50.5 40.5-32.8-7.3 13.6 33.2 35.4 23.6L2904 640l-24-14 .4 18-17.3-19.5-14-22.5-20.7-24.7-8.8-17.7-23.6-30.2-29.5-22.5-25.1-31 7-10.3-16.2-10.4 4.8-3.3 18 14.8 25.5 21.7 19.1 22.5zM632.4 452.8l-32.4.3-21.8-2.6 2.6-9.5 23.2-7.4 18.8 4 8.1 3.4-.7 6.2zM2305.8 57.5l-21.8.3-32.8-2.2-3.7-1.1 2.6-7.4 15.5-1.8 31 7.4zm46.5-35-4 7.3-25.5-1.5-38-7.4-6.7-5.9 30.6 2.6zm-94-9 11.4 14-52.8-.7-17 4.5-46-12.2-12.6-12.5 13-3.4 37.6.8zm-1167.9 92.3-8 1.4-49.9-2.5-8.4-8.5-29.2-5.2-7.4-10.7 13-4-6-10.4 20-16.2-14.8-2.2 24.7-16.6-9.2-8.5 25-9.6 38-11.8 43.2-3.3 18.4-6.6 24.8-2.2 15.4 7-4.8 5.5-42 9.2-36.5 8.5-32 17.7-10.4 18.4-12.2 18.5 11.5 15.8zm1633.2 625.7-5.1-4-7-12.2 9.2-.4-14.4-27.6-17.3-20 10.7-8 25.4 4-2.2-22.8-10.3-25.1 1-8.5-4.7-21-25.5 7-9.5 8.8h-28l-22.2-21.3-33.2-16.6-36.9-7.4-22.8-22.1-16.6-14-14-10-28.4-22.9-22.2-8-31.7-7.1-22.8.7-18.8 4.1-6.3 11.4 13.6 5.2 9.3 12.5-4.8 7.4.7 24 7 10.3-16.2 14.4-27.3-8.9-20.7 2.2-14.3-7.7-12.6-2.6-16.2 16.2-21.8 3.7-13.2 6-25.1-3.8h-17l-18-11.8L2169 545l-19.9-3.3-21 3-14.8 4.4-31.3-9.6-13.3-17-24.7-5.8-17.7-3-25.8-9.2-4.8 23.6 14.8 13.3-8.9 16.2-29.5-6-18.4-.7-17.7-10.6-19.2-.4-19.5-7-21.8 10.7-24.7 19.5-17.3 4-6.3 2-16.2-14.1-22.2 3.3-12.1-10-14.8-4.4-15-13.2-12.3-4-22.8 5.8-31-12.9-4 11.8-67.5-57.5-31-17.4 3-7.3-34 21.4-16.2 1-4-12.1-26.3-7.7-15.8 5.5-16.2-23.2-33.6-4.8-11.4 9.2-40.2 8.5-6.3 5.5-62.7 7.7-5.1 7.8 18.8 15.5-14.8 5.9 5.6 5.9-13 11 34.7 15.9-.7 10.7-25.8-1.1-3 7-27-11.8-28.3.3-16.2 9.6-24.4-9.2-44.2-15.8-28 .7-30 24.7 2.3 16.6-22.1-13.3-8.1 25.5 6.6 4.4-6.3 17.7 19.6 15.5 13.3-.8 15.8 15.5.7 11.8 10.4 4-5.2 13.7-17 3.7-13.2 24L1132 698l1.5 15.5 26.9 27.6-9.2 9.6-2.2 6-8.9-2-15.8-14-5.6-.7-13.3-5.5-7.7-9.6-18.8-4.8-10.7 3.7-4.4-4.4-28-11.5-28.4-3.6-17-4.1-1.5 3-28-20-22.9-8.8-18.8-13.7 13.3-3.6 11.8-19.2-12.2-9.2 25.5-9.6-1.5-5.2-15.9 3.7-1.4-10 8-6.6 17.8-1.5 1-7.7-6.5-13 4.7-11.7-1.4-7-28.4-7.4-10.7.4-13.3-10.7-13.3 3.7-24.7-8.2-.3-4.4-8.5-10-14.4-1-3-7 3.4-4.8-14-13-18.1 2.3-5.5-1.1-3.7 5.1-6.7-.7-7.3-14.8-5.6-7.3 3-2.3 14.3.8 6-4.8-6.3-6-12.6-4v-4l-7.7-4-14-14.8 2.6-6-4-10.6-17.8-5.2-8.8 2.6-3.4-5.5-19.5-5.6-7.7-13.2-3.7-10.7-9.3-4.8 6-7-8.9-20.7 9.6-12.5-3.3-3.7 16.6-12.2-20-10.3 29.5-27.3 12.6-12.5 3.3-10.7-27.3-14.4 3.3-14-18-15.5 6.2-17.7-24-23.2 10.8-15.5-27-13.7-1.4-14 11.8-1.8 23.6-7.8 13.6-7 28.4 11.8 43.1 4.8 65.3 22.9 15.1 9.6 5.6 13.6-13.7 10.7-24 5.5L762 185l-10.7 2.6 29.8 15.1 3.7 9.6 7 21.4 22.5 6.3 14 5.5-.7-10.3-12.5-8.9 7.7-8 42.8 13.2 11.8-5.2-15.9-15.4 29.9-20 15.1 1.2 17 7 4-14-17.3-12.2 3-12.2-15.9-12.5 45.4 6.6 13.2 11-18.8 2.7 4.5 11.4 15 7 22.2-4.4-1.5-13 28.4-9.9 45.7-17 11.8.8-9.2 12.1 20 2.3 7.7-7 28.4-.4 18.4-8.5 23.6 12.2 10.3-13.3-22-11.4 4.3-6.7 48 6 24.3 6.2 68.6 22.9 4-10.4-21.7-10.7-3-4-19.5-2.2-.7-9.2-17.4-15.5-4-6.3 15.8-17.3-2.2-17.7 8.1-3.7 42 5.1 10.8 10.7-3.4 15.5 13.7 6.3 14 13.6 14 27.3 24.7 12.2 1.9 13.6-13 28.8 19.6 3 1.9-7.4 14-5.2-1.9-10 7-9.9L1374 153l-1.5-13.3-17.7-1.5-10.7-11-1.4-20-30.3-15.8 17.4-13-13.7-13.6 7-.3 15.5 10.3 7.7 18.8 18.5 3.7-17-14 18.8-7.8 29.9-1 35.4 11-25.4-15.9-18.1-20.3 21.7-3.6 35 .7 28.8-2.6-20.6-9.6 4.8-12.1 15.5-.8 18-8.8 34.3-2.6-.7-5.2 34.3-1.4 15.8 4 20-9.6 25.8.4-5.6-8.1 3.4-7.4 22.8-7.4 30.6 6-12.9 4.4 34.7 2.5 15.1 8.9 7-4.4 40.2.3 42.8 8.9 20.3 6.6 9.2 9.6-8.9 5.5-24.3 10.4-4 5.5L1812 42l26.5 4.8 8.9-3.7 21.4 12.1.7-4.7 19.2-3 50.1 3 14 8.8 64.2 3-17.7-14.4 35 3.3 22.5-.4 36.5 10 22.2 12.1 1.4 8.2 37.3 15.5 33.2 7.7-11-20.3 34.6 8.5 18.4-5.2 36.1 6 3.7-5.2 28 2.6-34.6-18.1 7.7-8.1 149 12.5 29.2 11.4 60 14.8 54.6-3.7 34.3 3.3 24.4 8.1 18.8 14.4 26.9 5.5 14.4-4 25.8-.4 34.3 3.7 25.4-2.2 52.8 17.7 9.2-6.3-31.4-12.5-6.6-8.9 56.4 5.6 29.5-1.1 58.3 9.2 35 8.8 122.4 81.5-7.3 9.2-22.9-1.4 30.2 11 33.6 17.4 15.5 5.5 14 8.8 3.7 5.6-36.9-4.4-24.3 15.8-11 2.6-6 15.1-7.4 13.3 6.3 10-42.4-15.2-22.5 17-17.3-8.1-5.2 9.6-25.8-3.4 11.4 14.4 4 21.4 10.8 8.9 25 4.8 33.6 32-15.1 1.1 12.5 18.5 17.4 9.6-18.5 11.4 20 25.8-21 5.5 16.5 23-6.3 21.3-21-15.9-38.7-32.8-59.7-50.1-24-30.6.4-13.3-10.4-10.3 21-4.8-.7-27.7 2.6-22.1 9.2-17.3-24.3-30.3-17.3 1.9 11.8 17.7-13.3 23.6-45.4-26.6-33.5 7.4v36.1l28.4 13.3-31.4 5.9-23.6 2.2-15.8-15.8-29.5-3.4-9.3 10.7-55.6-3.7-48.7 6.3-13 43.2-18.4 52.3 30.3 3 21 14 21.4 4.8 1.5-11 20.6 1.4 47.2 24.7 17.3 19.2 5.2 22.8 20.3 27.3 19.5 36.5-3.7 33.6 4.8 15.8-7.3 27.3-7.8 27-3.3 13.6-17 13.6-11.4.4-19.2-11.4-15 17.3zM1637.3-35l-66.7 6.6-4.8-22.5 8.1-1.8 11.4 1.1 46.5 9.6zM891.3-72 875.5-70l-10.7 1.4v2.6l-13.3 2.6-16.6-3.7 4-5.1-28.7-.4 23.2-3h19.2l5.6 4 4.7-3.6 10.4-2.6 21.4 3.3zm664.9 27-26.2 2.2-43.1-4.8L1457-54l-24.3-11.8-21.8-3 20-10.7 22.8-3.3 35.4 7.4 50.5 15.5z" class="sm_state sm_state_RU" style="-webkit-tap-highlight-color:transparent"/>
    <path d="m702.8 339.2 3.3 3.7-9.5 12.5 8.8 20.6-5.9 7-14-.3-16.2-8.1-7.8-2.6-14 3.7-.4-13-5.5 3-12.2-7.7-3.6-12.6 20.2-6.2 20.7-3 18.8 3.3z" class="sm_state sm_state_EE" style="-webkit-tap-highlight-color:transparent"/>
    <path d="m535 825.2-6.2 18.8 3.3 7-3.3 12.2-15.5-8.9-10-2.6-27.6-11.8 1.8-12.1 22.9 2.2 19.9-2.6zm-125.3-70 12.1 16.5-1.4 31.4-8.9-1.5-7.7 7.7-7.4-6.2-1.9-28.4-4.8-13.3 10.7 1.1zm80-123.6-1.5 11.4 5.2 10-15.2-3.7-14.3 8.5 1.4 11.4-1.8 6.6 7 11.8 18.4 11.8 10.7 19.6 22.5 18.8 14.8-.4 5.1 5.2-5.1 4.8 17.7 8.5 14.7 7 17.4 12.5 2.2 4-3 8.5-11.4-11-17-3.7-7 15.1 14.4 8.9-1.5 12.1-7.7 1.5-9.2 20.3-8.1 1.8-.4-7.3 3.3-12.6 4-5.1-8.4-13.7-6.7-11.8-8-3-6.7-9.9-12.5-4.4-8.9-9.6-14-1.5-15.9-10.3-18-15.5-13.7-13.3-7-23.2-9.6-2.6-15.5-7.7-8.4 3-10.7 11-7.8 1.5 1.9-10-10.4-3-5.5-18 6.3-7-5.6-8.9.4-6.6 8.1 5.2 9.2-1.1 10-8.2 3.3 3.7 8.9-.7 3.7-9.2 14 3 7.7-4.1 1.1-9.3 11.5 3.4 1.8-4.5 18-4 4.9 7.7z" class="sm_state sm_state_IT" style="-webkit-tap-highlight-color:transparent"/>
    <path d="m197.3 703.5 7.3 8.9 35 10.6 7-5.1 21.5 10.7 21.7-3 1.5 13.7-18 15.5-24.4 5.1-1.9 7.8-11.8 12.9-7.3 19.1 7.3 13.7-11 10.3-4.4 15.5L205 844l-13.6 18-25.1.4-18.5-.3-12.5 8-7.7 9-9.6-2-7-8-5.2-13.3-18-3.7-1.5-8.1 7.3-8.9 3-6.2-6.6-7 5.9-15.5-7.4-14 8.5-1.9 1-11.4 3-3.3 1.1-18.5 8.9-6.2-4.8-11.8-11.5-.8-3.3 3h-11L75.9 730l-8 3.3-7 5.9 1.8-16.6-7.4-10 27.3-17 22.8 4.1H131l19.9 4 15.9-1.4z" class="sm_state sm_state_ES" style="-webkit-tap-highlight-color:transparent"/>
    <path d="m617.6 717.5-3 5.2-5 2.2-1.5-4.4-7 11.4 1.8 7.7-4-1.8-6.3-7.8-8.5-4.7 1.8-3.7 1.5-13 5.9-5.5 3.3-2.2 5.2 4 3.3 3.4 6.3 2.6 7.7 4.8z" class="sm_state sm_state_ME" style="-webkit-tap-highlight-color:transparent"/>
    <path d="m760.7 655.2-4.8-10.7.8-10-2.2-10-12.6-14-7.4-9.5-6.6-6.6-5.9-2.6 4-3.3 11.9-2.3 14.7 7 7.4 1.2 9.6 6.2-.4 7.8 7.4 3.7 4 9.5 7.4 6-.7 3.6 3.7 2.2-4.8 1.9-11.1-.8-2.2-3.3-3.7 1.9 2.2 4-4 7.8-2.3 7.7z" class="sm_state sm_state_MD" style="-webkit-tap-highlight-color:transparent"/>
    <path d="m672.6 752.2-3.7.7-3 4-10.3-.3-6.6 5.2-12.5 1.8-8.5-5.5-3.7-10 1.8-8 2.6.3.4-4.8 10.7-3.7 4.4-1.1 6.3-1.1 8.8-.8 10.3 7.8z" class="sm_state sm_state_MK" style="-webkit-tap-highlight-color:transparent"/>
    <path d="m519.2 881.6-.7 1.1-1.9-.7-1.8-1.1V879l-.4-.3h2.2l1.5 1 .7.8zm-6-4-1.8-.4v-.8l1.5-.3 1.5 1z" class="sm_state sm_state_MT" style="-webkit-tap-highlight-color:transparent"/>
    <path d="m415.2 733-5.5 18-8.9-4.7-4.8-15.5 3.3-8.9 11.8-8.8zm-78.5-171.1 4 1.8 5.2-.3 8.8 5.9 26.6 4.4-8.9 15.5-1.5 16.6-4.7 4-8.5-2.2.7 6-13.3 12.8v10.7l8.9-3.7 6.6 10-.3 6.6 5.5 8.9-6.3 7 5.5 18 10.4 3-1.9 10L357 710l-37.6-6.2-27.3 7.7-2.2 14-21.7 3-21.4-10.7-7 5.1-35-10.6-7.4-8.9 10-14 3.6-46.5-18.8-24.3-13.6-11.8-28-8.9-1.5-17 24-4.7 30.5 5.9L198 556l17.3 10 42-17.7 5.6-18.9 15.5-4.7 3 8 8 .4 9 9.3 12.8 10.6 9.2-1.8z" class="sm_state sm_state_FR" style="-webkit-tap-highlight-color:transparent"/>
    <path d="m667.4 138.2 1.5 14 27 13.7-10.8 15.4 24 23.3-6.3 17.7 18 15.5-3.2 14 27.3 14.4-3.4 10.7-12.5 12.5-29.5 27.3-29.5 1.8-28 7.8-26.2 4.8-11.8-11.8-17.3-7 .3-21.4-11-19.2 5.9-12.5 12.1-13 32.5-22.8 9.6-4.4-3.3-8.9-24-9.6-6.6-8-6.7-31.4-26.5-13.7-22.2-10 8.2-5.1 18.8 10.3 19.5-.7 17.3 4.8 12.6-8.9 4-14.7 21.8-6.7 21.4 7.8z" class="sm_state sm_state_FI" style="-webkit-tap-highlight-color:transparent"/>
    <path d="m344.4 532.8-10.3-5.6-11.5-10-16.6 4.9-13.2-1.9 9.2-6.2 14.7-33.2 24-9.6 14.8.7 3.3 7.8-3.3 20.6-4.5 8.5h-10.7z" class="sm_state sm_state_NL" style="-webkit-tap-highlight-color:transparent"/>
    <path d="m702.8 128.6-23.6 7.8-11.8 1.8 3-14-21.4-7.7-21.8 6.6-4 14.7-12.6 8.9-17.3-4.8-19.5.7-18.8-10.3-8.2 5.2-9.5.7.3 13.3-29.5-3.3-2.2 11.4h-14.7l-8.5 14.4-12.6 22.5-21 29.1 6.7 7.4-4.8 8-15.9-.3-8.8 20 3.6 28.3 11.5 10.7-3 25.5-12.5 14.7-6.7 12.6-12.1-13.3-31.7 25-22.5 5.2-24-11-6.6-23.3-7.4-49.8 14.7-13.6 41.7-18 29.9-21.8 26.5-28.8 32.8-39.4 23.6-15.2 38-25 31.4-8.9 24.7 1.1 19.2-16.2 27.2.7 25.9-3.7L701 111l-18 5.2zM566-27.4l-28 7-25-4 8-4.4-9.6-5.6 27-3.3 7 6.3zm-94.4-31.3 46.5 12.5-31.7 6.7-4.5 12.5-11 3.3-3.3 14.8-16.3.7L420-18.9l11-6.2-21-5.2-28.4-14.4-11.8-12.9 34.3-5.9 8.5 5.5H431l3.7-5.5 19.2-.7zm90-11 27.3 5.5-16.3 8.8-37.2 1.9-39.5-3-3.6-4.4h-18.8l-15.9-7.4 38.7-4.4 20 3.7 11.4-4.8z" class="sm_state sm_state_NO" style="-webkit-tap-highlight-color:transparent"/>
    <path d="m644.2 730.8-4.4 1.1-10.7 3.7-.4 4.8-2.6-.4-2.2-8.5-4.8-2.6-4.4-6.2 3-5.2 4.4-1.5 1.8-7.7 3.3-1.5 3 3.3 3.7 1.5 3 3.7 3.2 1.1 4 4.4 2.7-.3-1.5 5.9-2.2 2.5z" class="sm_state sm_state_XK" style="-webkit-tap-highlight-color:transparent"/>
    <path d="m410.4 608 .7 4-2.5 5.6 8.4 4.4 9.6.8-1 9.2-7.8 4-14-3-3.7 9.3-8.9.7-3.3-3.7-10 8.2-9.2 1-8-5.1-6.7-10-8.9 3.7v-10.7l13.3-12.9-.7-5.9 8.4 2.2 4.8-4h15.5l3.7-4.8z" class="sm_state sm_state_CH" style="-webkit-tap-highlight-color:transparent"/>
    <path d="m503.7 525.8 9.2 7.3 13.7 1.9-.8 6.2 10.4 4.8 2.2-5.9 12.5 2.6 2.6 7.4 13.6 1.1 9.6 11.4h-5.5l-2.6 4-4 1.2-.8 5.2-3.3 1-.4 2.3-5.9 2.2-8-.4-2.3 5.2-8.9-4.4-8.4 1-14.8-7-6.3 1.9-9.5 9.6-14-7.8-11.1-9.5-9.6-5.6-2.6-10-3.7-6.6 12.6-4.8 6.2-5.9 13-4.4 4-4.4 4.8 2.6z" class="sm_state sm_state_CZ" style="-webkit-tap-highlight-color:transparent"/>
    <path d="m645.3 571.9-4.4 6.2-2.6 9.2-3.7 2.3-20.3-7-5.9 1.4-3.7 5.6-8.4 3-2.3-1.6-8.4 3.4-7 .7-1.2 4.8-15 2.6-7-2.2-10-6.3-2.6-7.8 1-3 2.3-5 8.1.3 6-2.2.3-2.2 3.3-1.1.7-5.2 4.1-1.1 2.6-4h5.5l1.1 1.4 7-3.3 10 8.1 10.3-4.8 8.9 2.2 12.9-3.3z" class="sm_state sm_state_SK" style="-webkit-tap-highlight-color:transparent"/>
    <path d="m541 631.6-14.4 6.3-1.1 9.2-6.3 2.6.4 6.2-7.4-.3-6.7-3.7-3 3.7-13.2-.8 4-1.8-5-10 1.4-11.4 15.5 1.8 8.8-5.5 16.2-.4 3.4-4 3 .4z" class="sm_state sm_state_SI" style="-webkit-tap-highlight-color:transparent"/>
    <path d="m608.8 200.5-25.8 6-13 14.3 4.9 13-22.9 16.5-28.8 18.4-7.7 30 13.6 15 17.7 12.2-12.1 24.3-17 5.2-2.2 36.9-7.7 21-21-2.2-8.2 17.7-20.3 1-7-21-16.6-25.4-15.5-31L426 340l12.5-14.7 3-25.5-11.5-10.7-3.6-28.4 8.8-19.9 15.9.4 4.8-8.1-6.7-7.4 21-29.1 12.6-22.5 8.5-14.4h14.7l2.2-11.4 29.5 3.3-.3-13.3 9.5-.7 22.2 10 26.5 13.6 6.7 31.3z" class="sm_state sm_state_SE" style="-webkit-tap-highlight-color:transparent"/>
    <path d="m453.6 424.4-8.9 18-19.2-12.9-3.3-9.2 25-7.4zm-47.3 14-10.6 3.3-13.7-3-7.7-12.5-1.5-22.5 2.2-6.3 4.8-6.6 14.7-1.1 6-6.3 13.2-6.2v11.4l-4.4 7.4 2.6 5.9 9.6 3.3-3.7 8.5-5.2-2.2-11.4 15.8z" class="sm_state sm_state_DK" style="-webkit-tap-highlight-color:transparent"/>
    <path d="m482.3 465.7 5.2 11.4-4.5 6.3 7 7.7 5.6 12.2-.8 8 8.9 14.5-8.1 2.2-4.8-2.6-4 4.4-13 4.4-6.2 6-12.6 4.7 3.7 6.7 2.6 10 9.6 5.5 11 9.6-5.9 10.6-6.2 3 3.7 15.1-1.5 4-6.3-4.7-8.8-.8-13 4.1-16.2-1.1-2.2 6.3-10-6.3-5.1 1.1-20.3-7-3.7 4.8H371l1.5-16.6 8.9-15.5-26.6-4.4-8.8-6 .7-9.9-3.7-5.1 1.5-15.5-4-24H351l4.5-8.5 3.3-20.6-3.3-7.8 3-4.8 14.7-1 3.6 4.7 11.5-11-4.8-8.5-1.5-12.6 13.7 3 10.6-3.3 1.2 8.5 18 5.1.4 8.1 17.3-4.4 9.6-5.9 20.7 8.9z" class="sm_state sm_state_DE" style="-webkit-tap-highlight-color:transparent"/>
    <path d="m699.5 383 9.2 4.9 3.7 10.6 7.8 13.3-17 8.5-10 3.7-18.4-10.7-9.2-1.5-3.3-4.4-16.6 2.2-29.2-1.5-18.8 6.7-1.8-16.6 6.3-14 15-7.4 16.3 16.6 13.6-.8.4-17 14-3.6 7.8 2.6 16.2 8z" class="sm_state sm_state_LV" style="-webkit-tap-highlight-color:transparent"/>
    <path d="m693.2 424 3.7 10-13.2 7.3-1.9 12.6-17.7 8.4h-17.3l-5.2-7-9.2-2.5-2.2-5.6.7-6.2-8-3.4-18.9-4-6.3-18.8 18.8-6.7 29.2 1.5 16.6-2.2 3.3 4.4 9.2 1.5z" class="sm_state sm_state_LT" style="-webkit-tap-highlight-color:transparent"/>
    <path d="m345.9 563.4-5.2.3-4-1.8L338 549l4.8-.7 3.7 5.1z" class="sm_state sm_state_LU" style="-webkit-tap-highlight-color:transparent"/>
    <path d="m197.4 168.6-5.2 13.3 16.3 14-22.5 15.9-48.3 14.3-14.4 4.1-20.7-3.3-43.8-6.7 17.7-9.2-33.2-10 29.1-4 .4-6.3-32.5-4.7 13.3-13.7 24.3-3 22.2 14 25.8-11 18.8 5.5 26.9-10.7z" class="sm_state sm_state_IS" style="-webkit-tap-highlight-color:transparent"/>
    <path d="m608 720.5 1.5 4.4 5.2-2.2 4.4 6.2 4.8 2.6 2.2 8.5-1.8 8.1 3.7 10 8.5 5.5.3 6.3-6.2 3.3-.4 7.7-8.1 11.5-3.3-1.5-.8-5.2-11.4-8-2.6-11.1.4-16.3 1.8-7-3.3-3.7-1.8-7.7z" class="sm_state sm_state_AL" style="-webkit-tap-highlight-color:transparent"/>
    <path d="m543.9 583.3-1.1 3 2.6 7.7-.8 9.6h-10.3l4 5.1-4.7 14.8-3.4 4-16.2.4-8.8 5.5-15.5-1.8-27-6.3-4.7-7.7-18.1 4-1.8 4.5-11.5-3.4-9.6-.7-8.4-4.4 2.5-5.5-.7-4.1 5.2-1.1 10 6.3 2.1-6.3L444 608l12.9-4 8.8.7 6.3 4.8 1.5-4-3.7-15.2 6.2-3 6-10.6 14 7.7 9.5-9.6 6.3-1.8 14.8 7 8.4-1.1z" class="sm_state sm_state_AT" style="-webkit-tap-highlight-color:transparent"/>
    <path d="m123.9 463 2.6 16.3-14.4 20.3-32.5 13.3-25-3.4L70.4 486l-7.7-22.8 24.7-17.7L101 435l3.3 11.8L100 459l11-.4z" class="sm_state sm_state_IE" style="-webkit-tap-highlight-color:transparent"/>
    <path d="m863.2 523.5 8.5 10 .4 4.4 24.7 8.1 13.3-3.6 13.2 10.7 10.7-.4 28.4 7.4 1.5 7-4.8 11.8 6.6 12.9-1 7.7-17.8 1.5-8 6.6 1.4 10-14.4 1.8-11 7.8-17 1-14.8 9 3.7 14.3 10.4 5.5 18.8-1.4-2.3 8.4-19.9 4.1-23.2 13.3-11.4-4.8 2.6-10.7-21.8-7 2.6-4.4 17-7.8-6.3-5.1-29.9-6-3-8.8-16.5 3-4.8 12.9-12.2 17-8.9-4.1-8.4 4-8.9-4.4 4.4-2.6 2.3-7.7 4-7.8-2.2-4 3.7-1.9 2.2 3.3 11 .8 4.9-1.9-3.7-2.2.7-3.7-7.4-5.9-4-9.5-7.4-3.7.4-7.8-9.6-6.2-7.4-1.2-14.7-7-11.8 2.3-4.1 3.3h-7.7l-3.7 5.5-13.3 2.2-6 3.7-9.1-5.9h-11.8l-11.8-2.6-7.4 5.2-1.8-6.3-11.1-6.3 2.6-9.2 4.4-6.2 4 1.4-5.8-10.3 14-19.2 8.4-2.5 1.2-6.3-11.8-20 8.4-1 8.9-6 14-.7 18 1.9 21 5.5 14.5.4 7 3.3 6.2-4 5.6 5.5 15.8-1.1 7.8 2.2-1.1-11.5 4.8-5.1 15-1.1 6.7.7 3.7-5.2 5.5 1.1 18.1-2.2 14 13-3.3 4.7 3 7z" class="sm_state sm_state_UA" style="-webkit-tap-highlight-color:transparent"/>
  </g>
</svg>
