<svg xmlns="http://www.w3.org/2000/svg" width="1000" height="1000" overflow="hidden" preserveAspectRatio="xMinYMin" viewBox="0.3 0.3 1000 1000">
  <g fill="#7480ff" stroke="#7480ff" stroke-linejoin="round" stroke-width="6.3">
    <path d="m762 813.7-1-.4v-2.1l.3-.7.3.4.3 1 .8.5.2.6z" class="sm_state sm_state_BB" style="-webkit-tap-highlight-color:transparent"/>
    <path d="M735 762.3v-.5l.4.2z" class="sm_state sm_state_BL" style="-webkit-tap-highlight-color:transparent"/>
    <path d="M738.6 608.3h-.5l-.2.2.2.3-.7.3-.2-.1.4-.2h.1l.2-.5.5-.2z" class="sm_state sm_state_BM" style="-webkit-tap-highlight-color:transparent"/>
    <path d="m604.7 762.5-3 1.8-5-1.8-4.7-3.8 1.3-2.5 4-.7 2.1.4 6.2 1 4.4 2.5 1.4 3z" class="sm_state sm_state_JM" style="-webkit-tap-highlight-color:transparent"/>
    <path d="m644.3 727.5-.6.9-.4.8-1 .5h-.8l-.2-.2-.6.4-.9.1-1-.3-.6.2-.2-.9.5-.3.4-.5.6-.3.5-.7h.7l.5-.3.3.5.8.3.9-.3 1.1-1.7h.5v.4zm.4-2.8-.4-1 1-.5.5.5v.4l-.5.1zm.6-10.7.3-.2.9.5h.6l.7.2.5.3v.5l-.3.2-.9-.7h-.6l-.2-.2-.8.4-.8-.4v-.1l.3-.9zm-6.4-3-.4.6v1.2l-.1.7-.7.5-.3.6-.7.5-1.2.5-.1.4-.4-.4.2-.3.7-.2.3-.3v-.3l.7-.2.3-.7.7-.1.5-.7-.4-.5h-.6l-.4-.3.7-.8.2-.2zm-3.2-.5.2.2h.6l.7.3-.7.6-.1-.3h-.4l-.6-.1-.7-.4-.5-1 .5-.1.7.1zm-15.2-9.8 1 1.2.5.3.5.8-.5-.1-.2-.4-.5-.1-.7-.7-.3-.2-.3-.6zm6.1 0 .5 1 .3.8v.7l.4.3.3 1.2v1.5l.3.5.8.3.7 1v1.3l-.7-1.1v-.4l-.4-.6-1-.4.3-.3-.5-.5v-.5l.3-.5-.1-.8-.5-.7.1-.1-.5-.7-.1-1-.4.2zm4.8 0-.5.3-.5-.1-.2-.3 1-.4zm-13.6-3.1-.1-.2-.5-1.2h.3zm17.4-.9-.7 1h-.6l.3-.5.2-1 .6-.5.2.7zm-30.6-2-.5.2-.4.5-.5-.1 1-.7zm.3 1.2.7.3.3-.3.2-.8.3-.2.3 1v.8l-.1.5.1 1v.5l-.6 1.4-.4.1-.6-.3.3-.5.7-.3-.2-.2-1 .7-.3-.4.6-.5h-.6l-.4.2-.3-.3v-1.2l.2-.3-.7-.9v-.3l.7-.3.1-.5.5-.2.2-.3 1-.5.2.7-.9.6zm22.4-1 .1.8-.3-.1-.8.1-.7.2-.2-.3.5-.3.7-.5v-.4l-.7-.3-.3-1-.2-1-.6-.7v-.3l-.9-.8.5-.5.7.6v.9l.3.5.2.8.5.8.7.5.1.5zm-17.1-9 .5.2-1 .5-.5-.1-.3.3-.9-.2.4-.5.6-.3zm-7-1 .7-.2.5.4-.2.4.2.3-.3.7.5.5.3 1.5.3.5.7.8-.3 1.1.1 1-.3.5-.5.2-.7.7-.5.3h-.5l-.5.3h-.5v-.6l-.4-.4.1-1-.5.5-.3-.1-1-.7-.5-.5-.3-.5 1.1-.5.9 1.2.1-1-.5-.2-.1-.5.1-.5 1-1 .3-.6-.1-.2.5-.7v-.8l-.4-1.1.2-.2h.5zm13.5-4.2.1.3.5.7 1.3 1.1.9.2.1.2.4.6.5.7.8.6v.4l-.3 1.3-.2.3v.5l-.2.9-.3.5-.2 1.1-.1.2-.4-1-.6-.5.1-.3.9.1.3-.3-.2-.3.2-.7.5-.7.2-.8v-.5l-.9-.6-.6-1.2-.5-.3-1-.5-.5-.5-1-.4-.7.4.7-1.5zM602 668.3l.8.3h.2l1.1.2.4-.4.3.2h.8l.7-.3h.7l.4-.4.2.9-.2.3h-1.1l-1.8.3h-.5l-2.5.7-1.2.6h-.6l-.4-.1-.5-.5-.8-1 1 .5.2.3h.8l.8-.3.7-1-.5-.2.3-.5.2-.5zm7.1-2.2 1.3.3.4-.1.6.5 1.5 1.6.3 1 .7.2 1.2.8v.3l-.4.9.4 1.1h-.7l-.8.7-.2.3-.5 1.7-.2 1.5-.3.3-.5-.3-.1-.7-.7-.2.5-.8h.3l.8-.7-.1-.6.3-.7v-.5l.3-.5v-1l.4-.1.3-.5.2-.5-.5-.2-.8-.2-.2-.5v-.3l-.7-.3v-.5l-.5-1.2-.3-.1-.5.1-.8-.1h-.5l-1-.7z" class="sm_state sm_state_BS" style="-webkit-tap-highlight-color:transparent"/>
    <path d="M491 783.5H488l2.2-11.9 1.1-8.4.2-1.7 1.2-.5 1.5 1.3 4-6.4 2-.2-.3 1.7h1.7l-.5 3-2.1 4.4.6 1.7-1.5 3.8.5 1-1.6 5.4-2.2 2.9-1.8.3z" class="sm_state sm_state_BZ" style="-webkit-tap-highlight-color:transparent"/>
    <path d="m491.4 763.2-1.1 8.4-2.2 12h2.8l2.9 2 1-1.7 2.4 1.3-4.6 4.1-4.8 3-.8 2 .5 2.2-2.2 2.6-2.3.7.5 1.3-2 1.1-3.3 2.7-.5 1.5-4.6-1.8-5.8-.2-4-2.2-4.7-4.3.7-3.1 1.3-2.5-1.1-2 5.4-8.6h12l.6-3.6-1.3-.7-.8-2.3-3.2-2.5-3-3.5 4.2-.1.8-6h8.6z" class="sm_state sm_state_GT" style="-webkit-tap-highlight-color:transparent"/>
    <path d="M748 783.7h-.5l-.3-.7.1-.3.5-.5.5.3.2.5v.4zm-3-4.3h.5v.5l-.3.2v2l-.3.3-1 .5v-.4l-.4-.3-.1-.8v-.8l-.2-.9v-.5l.3-.5.5-.1.9.5zm2.3-.7.7.2.8.7-2.1.5-.5.1-.7-.5.2-1 .3-.1-.2-1 .2-.4.5-.3.5.7v.6z" class="sm_state sm_state_GP" style="-webkit-tap-highlight-color:transparent"/>
    <path d="m741.7 824.4-.7.5-.3-.1-.1-.9.3-.8.5-.6h.5l.1.4-.1 1.2z" class="sm_state sm_state_GD" style="-webkit-tap-highlight-color:transparent"/>
    <path d="M655 743v5.6l-1 4.1-2.6 1.8 2.2 3.2-.5 3-6-1.8-4.4.6-5.7-.6-4.4 2-4.7-3.4 1.2-3.5 8.4 1.5 6.8.9 3.7-2.4-3.8-4.6.6-4.1-5.8-1.7 2.5-2.8 5.6.3z" class="sm_state sm_state_HT" style="-webkit-tap-highlight-color:transparent"/>
    <path d="m543.6 793-3.1-.2-1.5 1.5-3.3 1.3h-2.4l-2.1 1.3-1.8-.3-1.5-1.6-1 .3-1.5 2.5-.8-.2-.4 2.3-3.4 2.8-2 1.4-1 1.3-2.5-2.2-2.3 2.9h-2l-2.2.1-.3 5.3h-1.3l-1.4 2.5-3 .5-1.3-3.3-2.8-1 1.2-4.3-1.2-1.2-2-.6-4.1 1.1-.2-1.3-2.6-1.8-1.8-2-2.7-1 2.2-2.7-.5-2.1.8-2 4.8-3 4.6-4.1 1 .5 2.2-1.8 2.6-.2.9.8 1.4-.5 4.4 1 4.3-.3 3-1.2 1.3-1.1 2.8.5 2.1.6 2.5-.1 2-1 4.2 1.5 1.3.3 2.6 2 2.5 2.3 3.2 1.7z" class="sm_state sm_state_HN" style="-webkit-tap-highlight-color:transparent"/>
    <path d="m688.5 760.5-.5-.3.2-.4h.5l.2.2zm24.2-.8h-.3l-1.5.5h-1l.3-.4.7-.3.7-.1 1 .1zm-15.7-4 1 .2h1l.5.1 1-.1.5.1.6-.1.4.1.8-.1.6.1h.5l1.4.4v-.4l1 .4.1-.2 1.4.2.3.3h.3l1 .5.3-.2-.1 1.2.3.5-1.5.5-.5.6-.5 1-.5.4-.5.1h-.6l-1 .2-.5.3-1.2-.1-.3-.4-.8.4-.5-.5-1.2.3-1.5-.2-.5.2-1 .2-.3.1-.3-.3-.7-.2-.5.4-1-.2.5-1.2v-.6l.3-.7-.3-1-.3-.1-.2-.7.7-.3.3-.2v-.8l.7-.4z" class="sm_state sm_state_PR" style="-webkit-tap-highlight-color:transparent"/>
    <path d="M737 770.6h-.6l-.2-.3.4-.7h.3l.2.3zm-1.2-2.5-.2.5h-.3l-.7-.3-.3-.3.5-.7.8.7z" class="sm_state sm_state_KN" style="-webkit-tap-highlight-color:transparent"/>
    <path d="M733.4 758.9h-.3l.5-.7h.5l-.3.5z" class="sm_state sm_state_AI" style="-webkit-tap-highlight-color:transparent"/>
    <path d="m592.8 860.4-1.1 1.5 1.8 6.3-1.8 3.1-3-.8-1.5 5.1-3-3-1.7-5.8 2.4-2.8-2.4-.6-1.4-3.5-4.7-3-4 .7-2.1 3.6-4 2.7-2 .3-1 2.3 4.2 5.8-2.7 1.3-1.3 1.5-4.5.7-1.3-6.5-1.3 1.9-3-.7-1.7-4.1-3.8-.9-2.5-1.1h-4l-.3 2.3-1-1.7.5-2.1 1-2.2-.3-1.8 1.5-1.3-1.8-1.5.1-4.3 3.7-1 3.1 3.8-.3 2.3 3.6.5 1-1 2.5 2.7 4.7-.9 4-2.6 5.9-2.2 3.3-3.1 5.1.6-.3 1 5.1.4 4 2 3 3.1z" class="sm_state sm_state_PA" style="-webkit-tap-highlight-color:transparent"/>
    <path d="m733.6 766.6-.3.2v-.3l.1-.2z" class="sm_state sm_state_BQSE" style="-webkit-tap-highlight-color:transparent"/>
    <path d="m565.3 747 .5.3.3-.7.7.2h.8l.2.3-.3.3-.4-.1-.6.1-.4.2H565zm13.4-4-1.1.4.3-.5zm1 .1-.1-.2 1.3-.4-.4.4z" class="sm_state sm_state_KY" style="-webkit-tap-highlight-color:transparent"/>
    <path d="m733.4 760.7-.6-.2.3-.5.5-.1z" class="sm_state sm_state_MF" style="-webkit-tap-highlight-color:transparent"/>
    <path d="M749.7 795.3v.3l.6-.1-.3.8.3.3v.3l.4.4.3 1.5-.5.5-.2-.7-.1.2-1-.2h-.7l-.3-.5 1-.8h-.7l-.7-.7-.1-.8-.4-.8.5-.7.7.2.8.5z" class="sm_state sm_state_MQ" style="-webkit-tap-highlight-color:transparent"/>
    <path d="m740 773.8.4.6v.5l-.3.4-.4-.2-.1-.5z" class="sm_state sm_state_MS" style="-webkit-tap-highlight-color:transparent"/>
    <path d="m427.2 677.7 3.6-.3-5.3 9.4-3 7.6-3 14.3-1.8 5.1.7 5.8 2.1 5.3.7 8.1 5 8 1.3 6 2.8 5.2 9.5 2.8 3.1 4.5 8.6-3 7.1-1 7.3-2 6-1.8 6.5-4.3 3-6.1 2-9 2-3.1 6.5-2.8 10.1-2.5 8.2.5 5.6-1 2 2.3-1 5.2-5.8 6.3-3 6.4 1.5 1.8-2 4.7-3.5 8.3-2-2.9-1.8.2-1.8.2-4.1 6.4-1.5-1.3-1.2.5-.2 1.7-8.6-.2h-8.6l-.8 6-4.2.1 3 3.5 3.2 2.5.8 2.3 1.3.7-.6 3.6h-12l-5.4 8.6 1.1 2-1.3 2.5-.7 3.1-9.2-11.4-4.3-3.5-7.3-2.8-5.3.8-8 4-4.8 1-6.1-2.8-6.8-2-8-4.8-6.7-1.5-9.8-5-7.1-5-1.9-2.9-5-.7-9-3.3-3.2-4.8-9-6.1-3.6-6.6-1.3-5.3 3.1-1-.4-3 2.6-2.8.7-3.7-2.5-4.8v-4.1l-2.2-5.5-6.3-10.6-7.6-8.3-3.1-6.6-6.8-4.3-1.2-2.6 2.8-6.5-4-2.5-4-5.3-.4-7.3-4.7-1-3.8-5.4-2.8-5.3.5-3.3-2.5-8-.5-8.1 1.4-4.2-5.2-4.3-3.1.5-4-2.8-3 4.3-.1 5-1.7 8.1 1.7 4.3 4.6 7.3.7 2.7 1.1.6.2 3.7 1.6-.2v7l2.2 2.6.8 3.8 4.5 5.3.7 10 1.6 4.6 1.5 5-.5 5.6 4.3.3 2.7 4.8 2.4 4.8-.4 2-4.7 3.8h-1.6l-1.2-6.4-4.8-6.2-5.6-5.1-4.2-2.7 2-7.7-.2-5.8-3.4-3.3-5.2-4.7-1.5 1.3-1.6-2.8-5-2.5-3.6-6.3.8-.6 3.5.5 4.4-4 1.7-4.8-4.8-7.6-4.3-2.8-1.3-6.7-1-7-1.3-8.5-.4-9.6 10.5-.9 11.7-1.1-1.5 2.1 11.6 5.2 18 7.4h25l1.4-4.5h15.6l2.1 3.9 3.5 3.4 4 4.7 1.3 5.4.7 6 3.8 3.2 6.6 3.1 8-8.3 7.4-.3 5.3 4.3 2.7 7.3 1.5 6.3 4 6 .3 7.4 1.4 5 6.5 3.3z" class="sm_state sm_state_MX" style="-webkit-tap-highlight-color:transparent"/>
    <path d="m543.6 793-.8 1.1-.8 2.3.6 3.9-2.5 3.6-1.3 4.3-.8 4.6.3 2.9-.2 4.8-1.4 1-1.2 4.6.3 2.8-2 2.7.2 2.8 1.3 1.8-2.3 2.3-2.8-.8-1.3-2.2-3-.8-2.2 1.3-6-2.8-1.4 1.3-3-3.3-4.1-4.3-1.9-3.5-3.6-3.4-4.1-4.8 1.1-1.7 1.3 1.7.9-.7 3-.5 1.3-2.5h1.3l.3-5.3 2.2-.1h2l2.3-2.9 2.5 2.2 1-1.3 2-1.4 3.4-2.8.4-2.3.8.2 1.5-2.5 1-.3 1.5 1.6 1.8.3 2.1-1.3h2.4l3.3-1.3 1.5-1.5z" class="sm_state sm_state_NI" style="-webkit-tap-highlight-color:transparent"/>
    <path d="M680 824.6h-.2l-.2-.8.2-.5-.2-.5-.7-.2-.5-.5.2-.5 2 1-.2.4v.6l-.3.3z" class="sm_state sm_state_BQBO" style="-webkit-tap-highlight-color:transparent"/>
    <path d="m786 458.6 5.6 1.5 7.7-.4-5.4 4.3-3.3.7-9.1-4.5-1-3.5 4.1-3.1zm23.8-26.5-4 .1-9.6-3.1-5.8-5 3.1-.8 9.8 2.6 7 4.3zm-510 6-5.1 1.6-10.5-4.7v-3.6l-4.8-3.6.5-3-7.1-1.9 1-5.6 2.5-2.3 6.8 2.2 4 1.6 6.7 1 .4 3.6.6 4.8 5.3 4.4zm561.7-22.3-8.3 9 6.4-3.5 4.8 2.3-4 3.5 6.4 2.8 4.6-2.5 7.1 3.2-4.6 7.6 6.3-1.8-.5 5.4.8 6.5-6 9.3-4 .3-4.7-2 4.1-8.4-2-1.4-12 9-5-.3 7.2-5-7.2-2.5-9.1.7-16-.4-.3-3 6.3-3.8-2.8-2.6 9-6.3 13.5-16.4 7-5.8 8.3-3.5 3.4.4-2.4 2.8zm-596.3-35.4 2.5 1.3 8.3-.8-12 11.4.5 8.3h-3.1l-1.2-4.6.9-4.9-1.4-3.1 2.2-4.5zm469.4-78.7-6 5-2.8-.9-.2-2.8.7-.6 4.6-2.8 2.9.1zm-16-5.3-12 5.3-5-.3v-2.5l8.3-4.5 10 .2zm-5.2-27.8-1.5 4.1 4.5-1.5 2.5 2.5 5.8 3.3 6.2 2.8-2.3 4.5 5.8-.6 3.2 3.1-8.3 3-9.8-2.3-1.3-4.3-10.4 5-13.6 4.9 1.1-5.5-10.4.9 9.4-4.7 6-7.4 8.5-8.5zm74.4-13.8-8.2.5 1.2-4.4 6.3-5.2 7.1-1.1 3.8 2.4-2.5 3.9-1.4 1.3zm-123.4-17.7-6.8 3.2-7-2.7-6.4.8-5.7-4 8.3-2.8 8.1-3.8 5 2.5 2.6 1.7.7 1.6zM752 473.3l-3.6-6 4.8-14-2.6-3-6.2 1.6-1.8-2.6-9.1 7.8-5.3 8-4.6 4.9-4.2 1.6-2.8.5-1.8 2.5h-15.4l-13 .2-4.4 1.8-11.3 7.3v-.2l-1.5-.6-3.3 1.5-3.1 2.1-3-1.8-7.8 1.3-6.5 1.5-3.1 1.3-3.8 3.5 3 1.2 2.8-.7h.5l-.5 3.2-8 1.1-4.6 1.3-2.8 1.7-4.3-1-2.7.5-4.8 3-7.6 3.3-4.5-.7 3.3-3.6 6.2-5.8 6.8-3.5 1.8-3 1.5-5 6.3-5.7 1.5-6.7 1.8 6.5 6.3 1.5 4-3.5-2.4-8-1.5-3.2-6.6-2-6.3-1.2h-6.4l-5.7-1.3-.6-2.3-2.4 1.5-2-.4 3.2-3.5-3-1.3 3.2-4-2-3 2.8-3-8.6-1.4-.2-6-1.3-1.3-5.5-.3-6.8-2-2.4 1.3-3 2.5-5.5 1.6-5.1 4.2-9-2.8-7.3 1.3-6.4-3.2-7.6-1.6-5.5-.7-1.7-1.6 1.5-5.7h-2.8l-2.1 4H307.4l-9-10-2.6-4.6-11.6-4.3 2.2-9 6-6.2-6.8-4.5 5-8-3.4-7.4 4.2-5.3 8.4-4.8 5.3-6.3-7.6-6.3 2.3-11.4 1.8-7-2.6-4.4-1.3-4 1-5.1-10.8 3.1-12.6 5.5-.5-6.3-.8-4.3-4.7-2.7-7-.3 59-54.2 40.8-33.8 10 2.2 5.4 4.3 6.1.8 10.4-3.6 11.6-2.8 8.8 1 14.8-3.8 13.5-2.2.4 3.6 7.4-2.1 6.5-4.1 3.5 1 2.3 7.9 15.7-6.1-6.4 6.8 9.9-1.5 5.3-2.5 7.6.5 6.5 3.6 12.4 3.3 7.8 1.5 7.3-.5 4.8 4.7-14.1 4.4 10.6 1.9 19.7-1 7.3-1.7 2.3 5.5 11.8-4.5-3.5-4 7.4-3 8.7-.4 6.4-.9 3.5 2.2 2.5 4.8 8.3-.7 8.7 4.2 12-1.5 10 .1 3.9-5.6 7.4-1.5 8.2 3-7.2 8.6 10.3-7.3 5.3.3 10.6-9-2.7-5.5-4.8-3.7 9.2-9.7 13.5-6.3 7.5 1.5 3.3 3.8.7 9.9-9.6 4.3 11 1.8-7.2 9.1 14.7-7 3.7 5.9-7.2 6.6 2.2 6.1 12-6.4 10.8-8 7.8-9.7 9.1.6 9 1.3 6 4.5-2.9 4.5-8.4 4.8 1.5 4.8-4 4.5-18 6.4-10.8 1.5-5.3-2.8-5.5 4.6-12.2 7.8-5 4.2-12.8 6.3-10.7.6-8.5 4-4.8 6.3-9.4 1.1-14.4 7.8-15.6 10.8-8.3 7.6-8.1 11.4 10 1.7-2.6 9.1-1.3 7.6 12.1-2 11.6 4.3 5.5 3.9 2.8 4.6 8.1 2.8 6 4.2 12.6.6 8 1-6 8.6-2.9 10.1.2 11.5 7.3 9.7 7.8-3.3 9.2-10.6 3.9-15.9-2.9-5.3 15-4.8 12.4-7 8-6.9 2.7-6.6-.6-8.5-5.3-7.4 14.7-10.3 1.7-8.8 6.4-14.9 6.3-2.3 11.1 2.6 7 1 7.4-2.6 5.2 3.3 6 5.6.3 3.7 12.7.8-4.3 8.1-3.8 12.3 6.3 1.6 2.6 5.8 13.6-5.4 12.4-11 7-4.4 1.8 8.7 4.3 12.5 3.3 11.9-5.6 6.3 8 5.6 4.8 5.6 11.4 2.7 4 3.1v8.7l5.6 1.3 1.8 3.8-3.3 11.4-7.1 3.8-7 3.7-14.5 3.6-13.1 8.3-14.3 1.8-16.7-2.3H785l-8.8.7-9.4 7.4-12.3 4.7L738 446l-13 9.6 7.7-1.6 18-13.8 20.4-8.6 12.6-1 5.5 5.2-10.1 7-1 11 .1 8 9.3 5.1 14.3-1.5 11.9-11.7-1.7 7.6 4.2 3.8-12.3 6.8-20.5 6.3-9.6 4.1-12 7.6-6-.8 2.4-8.8 17.2-8.8-13.4.4zM575.7 202l-7.7 4 17.4-2.5 4.3 4.3 12-4.5 3 2.8-3.6 8.5 7.1-3.5 4.6-8.8 7.2-1.3 5 1.3 3.6 3.5-4.5 8.5-4 6 7 4.4 8.3 4.3-4.3 3.8-11.8.8 1.3 3.3-5.3 3.4-11-1.4-9.5-2.4-8.5.4-15.7 3.2-18.7 1.3-13 .8.4-4.3-6.8-2.3-7.1 1-1-7.1 5.5-1 12-1.5 9.2.5 10.2-1.6-10.7-2-15.1.6-9.4-.1v-3.2l19.3-3.6-10.4.1-9-2.3 13-6.4 8.6-3.5 23.5-5.2zm65.5-2.5-11.6 5.6-3.8-6 3.4-1.2 9.2-.4zm179.8 2.7-1.1 2.3-13.6-.3-8.1 1.1-1.5-.6-3.5-4.5 2.8-3 3.7-.7 13.9 1zm-65.9-.5.5 5.3 12-6.8 19.3-3.5 3.8 8.8-5.3 5.6 15-2.5 8.7-3.5 11.3 4.4 6.1 4.1-1.8 3.8 13.6-2 3.1 5.6 14 3.5 3.6 3.5 1.5 8.5-15.1 4 12.8 6 9.7 2 5.5 8.3 10.8.7-5.5 6.4-18 10.8-6.7-4-6.3-9-9.8 1.3-3.8 5.4 4.5 5.3 7.5 4.3 1.6 2.5-.1 9.5-6 6.7-7.8-2.6-14.2-7.5 6 8.2 4.6 5.8-.5 3.3-18-3.8-12.7-5.7-6.3-4.4 4-2.9-8-4.8-7.7-4.4-1.5 2.6-21.7 1.5-4-3.1 9-7 13.4-.2 15.4-1.1-.4-3.3 5.2-4.7 14.5-9 .7-4-.8-3-7.8-4.5-11.8-3 5.8-2.3-3.3-5.6-5.6-.5-3.2-3-5.4 2.6-13.1 1.2-23.2-2-12.3-2.7-9.7-1.3-3.2-3.1 10.5-4H719l5.5-8.8 11.7-7.6 10-3.5 18.5-2.3zm-83.4-5.8 6 1.8 12.5-1.2-.8 2.5-10.1 4.2 6.3 3.6-8.6 7.8-14 3.3-5.6-.7-1.5-3.3-9.8-6.6 2.9-2.8 12.2 1-1.5-5.5zm37.4 9-13 6.5-7.2-.3 3-7.6 4.3-4.1 7-3.7 8.5-2.3 13.1.3 10.3 2-16.7 7.6zm-191.8 12-22.4 4.3 1-3.8-10-4.6 7.4-3.7 12.4-6.3 12.6-5.6.6-5.1 23.2-1.4 7 1.9 15.7.5 3.2 2.3 2.6 3.6-10.7 2.2-23 6-15.3 6zm207.4-30.5-6.8 3.2-8.7-.7-5.3-2.1 7.5-3.7 11.4-2.3 2.4 3zM710 172l.3 3.8-4.6 4.2-9.6 6.3-11.5.8-5.3-1.3 5.7-4.8-11 .5 7.2-6.3 6.3.3 12.7-2.8 8.1.5zm-65.3 4.3-1.1 2.8 7.2-1.3 6 .3-3.8 4.2-8.4 3.8-23 1.3-20.4 3.7-10 .1 2.5-2.6 17.7-3.8-29.6 1-7-1.5 19.4-8 9-2.3 13.7 2.8 4.8 4.8 10.1.7 1.2-7.8 9.6-3 5.1.9zm92.3-7.3 3.8 2.7H753l2.4 2.6-4.7 3 5.2 1.8 2 2 8 .4 8.5.6 11.8-1.6 13.4-.9 9.6.7 3.8 3.2-1.7 3.3-6 2.3-11 1.8-7.1-1.2-19.6 1.4-13.2.1-9.3-1-14.3-2.6 2.7-4.6 3.5-4-2.3-3.7-11.6-1-4.3-2.4 6.3-3.4zm-125.4-4.3-9.6 6.2-8.8 2.8-6.3.3-16.4 3.5-11.7 1.3-6-1.8 19.4-6.1 20.2-5.2 9 .2zm134.5 1-3 .2-11-.5 1.2-2.2 12 .2 2.6 1.3zm-97.4-1.5-14.6 2.4-5.4-2.5 8.4-2.5 10-.8 6.7 1.1zm13-7-9.5 1.6h-10l1.7-1.2 9.4-2.1 2.8.3zm77.4 4.2-10.9 1.7-2.7-1.8 1-2.9 3.7-3.1 7.3.3 2.8.5 3.8 2.7zm-22.8-2-1.9 3.2-8.7-.8-6.7-2.5-12.9-.4 8.8-2.1-4.6-1.8 3.6-3 10.1 1 12.4 2.8zm89.6-10 4.5 2.4-10.8 2.2-17.6 5.8-11.2.5-11.3-1-2.6-3.2 3.4-2.6 7.2-2h-11l-3.3-2.5.7-3.1 8-3.2 6.9-2.1 6.6-.5-.5-1.7 13.8-.3 2.6 3.6 7.8 1.5 8 1.5zM937.2 126l14.4.5 11 .9 8.7 1.6-1.8 1.7-16.3 2.8-14.9 1.3-6.6 1.5H944l-17.4 4.2-11.2 2-15.4 5.7-13.5 1.2-5 1.7-18.8.6 7.3 1-5.5 1.3 1.2 3.8-8.3 2.7-11.4 2.1-5.8 3-11 2.5-.8 1.8 10.8-.3-1.9 2-21 4.8-14-2.3-19.4 1.3-8.3-1-11.3-.5 3.5-3.8 13.2-1.8 3.4-5.7 4.3-.5 12.4 3.4-2.8-5-8.2-1.5 8.3-3 12.6-1.8 4.7-2.7-5-2.8 1.8-3.6 15.6.2 3.6.8 12.1-2.7-12-.8-21 .5-7.2-2.3-1.4-2.8-4.1-2 1.8-2.2 10-1.3 7-.2 12.2-1 11.2-2.4 6.5.3 4 1.8 8.3-3.3 8.6-1 10.7-.7 17.3-.3 2.1.7 17-1 11.7.3z" class="sm_state sm_state_CA" style="-webkit-tap-highlight-color:transparent"/>
    <path d="m535.3 836.2 2 5.8 3.3 4.3 4.2 4.5-3.7 1-.1 4.3 1.8 1.5-1.5 1.3.3 1.8-1 2.2-.5 2.1-5-2.3-1.8-2.3 1.2-1.8-.2-2.4-2.4-2.4-3.7-2.2-3-1.3-.5-3.2-2.3-1.8.3 3-2 2.6-2-3-2.7-1.1-1.2-2 .2-3.3 1.4-3.3-2.4-1.5 2.3-2.2 1.5-1.3 6 2.8 2-1.3 3 .8 1.4 2.2 2.8.8z" class="sm_state sm_state_CR" style="-webkit-tap-highlight-color:transparent"/>
    <path d="M675.1 824.4h-.5l-.6-.5-.5-.1-.5-.5-.2-.4-.5-.1-.3-.7-.5-.5.1-.8.9.5.1.8.7.7 1.2.3.3.5.5.7z" class="sm_state sm_state_CW" style="-webkit-tap-highlight-color:transparent"/>
    <path d="m585.4 710.5 3.1 3.8 8.6-1.2 3 2.5 7 6.6 5.2 4.9 3-.2 5.3 2.1-1 3 6.7.5 6.4 4.3-1.3 2.5-6.3 1.3-6.3.5-6.1-.8-13.4 1 7-5.8-3.6-2.8-6-.7-2.7-3.1-1.4-6-5.3.3-8.2-2.8-2.5-2.3-11.8-1.6-3-2 3.8-2.7-8.9-.5-7.3 5.5-3.8.1-1.7 2.7-4.6 1.2-3.8-1.2 5.3-3.1 2.5-4 4.5-2.3 5-2 7-1 2.4-1.3 7.7.8 7.3.1z" class="sm_state sm_state_CU" style="-webkit-tap-highlight-color:transparent"/>
    <path d="M733.4 760.7v.1l-.6-.1v-.2z" class="sm_state sm_state_SX" style="-webkit-tap-highlight-color:transparent"/>
    <path d="m498.7 810.2-1.1 2.5-5.5-.2-3.3-1-3.7-2.1-5-.7-2.4-2.3.5-1.5 3.3-2.7 2-1.1-.5-1.3 2.3-.7 2.7 1 1.8 2 2.6 1.8.2 1.3 4.1-1.1 2 .6 1.2 1.2z" class="sm_state sm_state_SV" style="-webkit-tap-highlight-color:transparent"/>
    <path d="m653.1 760.7.5-3-2.2-3.1 2.5-1.9 1.2-4.1-.2-5.6 1.3-1.9h7.2l5.3 2.7 2.5-.2 1.1 3.8 5.1-.3-.6 3.1 4.1.5 4.2 3.9-3.8 4.3-4.3-2.4-4.4.5-3-.5-1.8 2-3.6.7-1.2-2.7-3.1 1.5-4.5 7.3-2.1-1.6z" class="sm_state sm_state_DO" style="-webkit-tap-highlight-color:transparent"/>
    <path d="m746.4 786.7.8.1.3.9v1l-.2 1.3-.1.3-.4.2-.6.3.2-.6-.2-.4-.2-1.1-.5-.9v-.5l.2-.5v-.5h.3z" class="sm_state sm_state_DM" style="-webkit-tap-highlight-color:transparent"/>
    <path d="m720 756.4-.7.3h-.1l-.5.3-.2-.1.2-.5 1-.2z" class="sm_state sm_state_VG" style="-webkit-tap-highlight-color:transparent"/>
    <path d="m-120.2 749.6-1.9 1.8-2-1.5 1-3-.6-4 .8-1.1 2-1.7-.2-2.1.7-1 .7.2 3.1 1.8 1.5 1 1.2 1.3 1.4 3.8-.3.5-4.1 2.3zm-1.2-16.6-3.3.7-1-2.2-.8-.8v-.7l1.1-1 3 1 2 1.7zm-5-5.6-.5 1.1-5-.3 1-1.3zm-7.8-1.7-.6.7-.7-.2-3.1-.3-.5-2.5-.4-.3 2.9-1.5.6.7zm-13.9-7-1.3 1-2.6-1.8.6-.8 1.7-1 2.1.2zm724.7-275.2-10.1 3.3-7.8 4.1-7.6 4.5-.9 1.5 9.5-2.1 3.5 3.4 7.6-2.5 8-3.4 9-3.5-5.1 5.5 4.1 1.3 4.2 4 8.4-2.4 8.5-.8.5 3 2.5.3 2 .4 2.4 4.1-7.8 1h-.1l-6.1-1.2-7.5 2-6.1 1-7.8 6.8-5 3.8.7 1.2 9-6.8h1.2l-7.7 8.1-4.8 7.3-4.2 6-1 5-1.3 2.6-1 2.8.2 5.4.5.9 3-.2 2.6-1.1 2.3-1.4 5.5-5.1 3-7-.2-6.4 2.3-4.5 4.3-5.1 3.5-3.7 4.5-2.5-.7 3.5 3.7-5.1 2.1-1 2.8-4 6.3 2.2 4.7 4-1.4 4.7-2.6 4.9-6.3 4-.7 2.7h1.7l7.1-4.4 2.7 1-.9 6-1.1 4.4-6.2 5.8-3.3 3.6-4.4 4 4.4 2.2 4.2.6 6.6-1.5 6.1-2.8 5-1.5 7.6-3 9.6-6.2.2-1 .5-3.2 4.5-1.3 6.4.5 6.6.8 7.7-3.5 1-4.1-.4-1.5 11.3-7.3 4.5-1.8 12.9-.2h15.4l1.8-2.5 2.8-.4 4.2-1.7 4.6-4.8 5.3-8.1 9.1-7.8 1.8 2.6 6.2-1.6 2.6 3-4.8 14 3.6 6 .4 3.5-10.6 5-10 3.6-9.9 3.1-6.6 6.3-2.2 2.4-2 5.6 1.2 5.5 3.5.3.3-3.8 1.8 2.3-1.6 3-6.3 1.6-4.2-.1-7 1.8-3.7.5-5.2.5-8.2 3.1 13.4-2 1.8 2-13.1 3.2h-5.5l.7-1.3-3.5 3 2.3.4-4.1 7.7-8.8 8 .2-2.7-1.8-.5-2-2.7v5.8l1.6 1.8-1 4-4 4.1-7.4 8.5-.7-.3 4.9-7.3-3.4-4 1.7-9-3.2 4.7v6.8l-5.3-1.7 5 3.3-2.5 10.1 2.4.9v3.6l-1.7 10.6-7.6 7.8-10.1 3.1-7.3 6.3-4.7.7-5.6 4-2.1 3.5-11.5 7-6.3 5-5.8 6.3-3.1 7.5v7.4l1 9.2 2.5 7.4-.9 4.6 2.2 12.3-1.7 7.3-1 4.1-3.3 6.5-3 1.3-4.3-1.3-.6-4.6-3-2.5-3.3-9.1-2.7-8.2-.6-4.1 3.3-7.1-1.3-5.8-5.2-9-3.1-1.6-10.1 5-1.5-.7-3.3-5-5-2.6-10.6 1.5-7.6-1.4-7.1.9-4.2 1.6 1 2.8-1.1 4.3 1.3 2.2-2 1.3-3-1.5-3.8 2-6.5-.3-5.4-5.6-8.1 1.3-6-2.5-5.8.8-8.3 2.5-10 7.8-10.2 4.6-6.1 5-3.2 4.8-1.6 7.5-.7 5 1 3.6-3.6.3-6-2.3-6.4-3.3-1.5-5-.4-7.5-4-6-1.4-6.2-2.7-7.3-5.3-4.3-7.4.3-8 8.3-6.6-3.1-3.8-3.2-.7-6-1.3-5.4-4-4.7-3.5-3.4-2.1-3.8h-15.6l-1.3 4.4h-25l-18-7.4-11.7-5.2 1.5-2.1-11.7 1.1-10.5.9.5-5.3-3.5-6.2-3.6-1.3.2-3-4.8-.6-2-2.8-8-1-1.5-1.9 1.4-5.8-4.2-10.6-.8-14.7 1.5-2.5-2.2-3.5-2.5-8.9 3-8.6-1.5-5.8 6.5-8.8 4.6-9 1.9-8 9-10 13.3-18.9 7.1-14 3-8.8.7-4.8 2.3-2.2 9.6 3.7-1.7 9.7 3.7-2.8 4.1-8.4 2.7-8.5h227l2.2-4h2.8l-1.5 5.7 1.7 1.6 5.5.7 7.6 1.7 6.4 3.1 7.3-1.3zm-438.1-92.6-11.6 3.8-1.3-2.6 3.8-4.7L140 344l5.8-1.4 4.3.6v3.2zm-64.6-27.5-6.5 1.5-2.8-1.8-1.3-2.7 9.4-1.6 5 1zm2-37 2 1.6 5.8-.9 2.6 2.5 5.5 1.2-2 1.1-8.1 2-2.9-2.1-.5-1.7-7 .5-.6-.8zM362 231.5l-40.8 33.8-59 54.2 7 .3 4.7 2.7.8 4.3.5 6.3 12.6-5.5 10.7-3.1-1 5.1 1.4 4 2.6 4.5-1.8 7-2.3 11.3 7.6 6.3-5.3 6.3-8.4 4.8-1-3.6-4.2-3.3 5.5-8.6-2.7-8.2 4.5-9.2-6.8-.7-11.7-.2-6.3-3-5.5-10-5.5-1.9-9.4-3.4-11.3.8-10-4.5-4.4-4.1-10.4 2-5.8 6.7-4.8.7-11 2-10.2 3.3-10.6 2.2 5.3-5.8 13.9-9.6 11.3-3 .6-2.3-15.6 5.3-12.2 6.4-18.6 7 .4 4.8-15 7-12.7 4-11 3.2-6.5 4.3-17.6 5.2-7.5 4.6-13.5 4.3-4.5-.7-10.3 2.7-11.6 3.5-10 3.3-16.6 3 .6-1.9 13.6-4.6 11-3.1 14.2-5.5 10.7-1 8.3-4.1 17.3-6 3.8-2 9.4-3.5 9.6-7.4 10.3-5.8-12.1 3-.5-1.9-8.1 3.7.6-5-6 3.5 2.7-4.8-12 3.8h-4.7l6.1-5.8 5.5-3.6-.7-3.5-11.9 2-1-4.7-2.1-2.3 6.6-5.5-.7-4 9.8-5.6 12.7-5.4 8.8-4.8 6.8-.7 3 1.5 11.8-4.6 4.1.8 9.3-3 4.1-4.3-1.8-1.7 10-3.6-4.7.2-10.3 2-4.8 2.1-3-2.1L133 280l-7.6-2.3 2-3.8-1.7-5.3 15.3-4 21.8-4.5h5.8l-7.1 4.7 15.2-.4 2-5.8-3.8-3.4 1.3-4.7-1.1-3.8-5.5-2.8 10.8-4.8 12.4-.3 14.6-4 8-4.3 13-4.3 8-1 18.5-4 5.1.7 17.3-4.7 7.3 1.9-.9 4 5.5-1.7 10.4.5-3.1 2 8.1 1.5 8.1-.9 10.3 2.7 12 1 3.6 1 10.9-1.4 6.8 2.7z" class="sm_state sm_state_US" style="-webkit-tap-highlight-color:transparent"/>
    <path d="m749.2 806.7-.4-.3-.6-.3-.2-.4v-1l.2-.3 1.1-1.8.5.3v1.2l-.1 1.3-.2.7z" class="sm_state sm_state_LC" style="-webkit-tap-highlight-color:transparent"/>
    <path d="M656.4 720.3h1.2l.5.6h-.5l-.5-.1-.9.1-.1-.5zm-4.5-.2.5.7 1-.2-.3.3h-1l-.7-.3zm3.7-1v.8l-.8-.3-.2-.5.2-.2z" class="sm_state sm_state_TC" style="-webkit-tap-highlight-color:transparent"/>
    <path d="M731.1 765.1h-.2l.2-.3.2.2z" class="sm_state sm_state_BQSA" style="-webkit-tap-highlight-color:transparent"/>
    <path d="m746.7 812.7-.2.1-.8-.5v-.6l.3-.5.3-.8h.7l.2.6-.2 1.3z" class="sm_state sm_state_VC" style="-webkit-tap-highlight-color:transparent"/>
    <path d="m744.2 770.5 1 .4-.3.5h-.4l-1.1.2-.4-.2v-.8l.5-.1.2-.5h.3zm0-6.2h.3l.4.4.1.6-.1.5-.4.2-.1-.4-.5-.3v-.8z" class="sm_state sm_state_AG" style="-webkit-tap-highlight-color:transparent"/>
    <path d="m717.4 763.7.5.5-1.9.3-.1-.8 1.1-.4zm1.1-6.3-.3.3h-.8v-.3l.5-.2zm-2.3-.4.7.5-.4.4-.5-.4h-.8l.3-.3z" class="sm_state sm_state_VI" style="-webkit-tap-highlight-color:transparent"/>
    <path d="m665 820.3-.8-.3-.8-.9.1-1 .4.5.6.7.5.8z" class="sm_state sm_state_AW" style="-webkit-tap-highlight-color:transparent"/>
  </g>
</svg>
