<svg xmlns="http://www.w3.org/2000/svg" width="1000" height="1000" overflow="hidden" preserveAspectRatio="xMinYMin" viewBox="0.3 0.3 1000 1000">
  <g fill="#7480ff" stroke="#7480ff" stroke-linejoin="round" stroke-width="9">
    <path d="m242.6 362.4.3-4.5-1.2-3 1.9-3.7 11.6-3.3 9.5-.7 4.3-1.9 5 1.9-5.2 4.3-14.5 6.6z" class="sm_state sm_state_TL" style="-webkit-tap-highlight-color:transparent"/>
    <path d="m659.6 323.2-3.8 1.7-5.4-6-5.3-9.7-1.9-11.7 2-1.4 1.1 4.5 3.8 3.6 5.7 9.5 6 5.2zm-50.8-20.5-7.2 1.2-2.4 4.3-14.7 7.4h-7.4l-10.7-4.5-7.3-4.3 1.4-4.8 11.9 2.4 7.6-1.2 2.4-7.4 2.1-.4.7 8 7.6-.9 4.3-5.2 7.8-5.5-.9-9 8-.3 2.7 2.4-1 8.6zM457 358.4l3.8-50 2.4-49.6 22.8 10.4 24.5 8.8 8.8 7.9 7 7.6 1.5 9 21.9 9.5 2.6 8.1-12.4 1.7 2.2 10.2 11.2 10 7 16.1 8-.4-1.5 6.6 10.2 2.6-4.2 2.9 13.5 6.4-2.1 4.5-9 1-3-3.8-11-2-13.4-2-9.5-9.8-6.7-8.6-6-13.3-16.8-6.6-11.6 4.2-8.8 5.3.7 11.1-11 5.3-7.3-2.6zm168-70.6-4.2 4-2.2-9-2.6-5.7-6-5-7.3-6.7-9.5-4.5 3.8-3.6 7.1 4.3 4.6 3.3 5.4 3.6 5 6.4 5 5z" class="sm_state sm_state_PG" style="-webkit-tap-highlight-color:transparent"/>
    <path d="m799.2 396 .7.4-.2 1h.7v.4h-2l-.6-1.1.4-.8zm-91-1.5h.4l2.4 2 1.2.6 2.1 1.7-.2.7h-.5l-.5.5-.4-.7h-.3l-.5-.5-.2-1-1-.2v-.7l-.7-.2-.2.2h-.5l-2.1-1-.5-1 .7-.9zm87.7-3.6-.5.8-.7-.5v-.5l.7-.5zm-5.5-9.2.2.2h.7l-.2 1-1.2.4h-.7l-1 .3-.9 1.4-.2-.7-.7.2-.5-.4v-.8l1.2-.2v-.5l.7-1 1.6.3zm-62.5-6.7.7-.2 1.4.7 1.2 1.2.7.7h.5l.5.5h.4l.7.7.8-.3 1 .3.4.5h1l.7-.3.4.7.5 2 .7.7v1.1l-.5.5.3.7-1-.4-.7.4-.7-.2-1.2-.7h-.5l-1.4-.5-1-.2-.4-.7-.7-.5-.7-.3-.5-.7-1-.5.5-.9-.2-1v-.9l-.5-.2-1.4-.5-.7.2-.3-.5.3-.7.2-.7zm9.5-8-.3.4v1.7l-.4-.5v-1.2zm-7-4.3.8 2.1.5 1v.9l.2 1.2-.5.7-1-1.7-.2.7-.7-1.1.3-2.4.2-.5v-.7zm-19.9.4h.7l.7-.2 1 .2.2-.2h3.1l.5.7.7.2.5.8h.5l.4.2 1 1v1.4h.5l1 .4.1.8v1.4l-.2.2-1.7.5-.4.2-1-.2-1-.5h-.9l-.2-.4-1.2-.8h-1.4l-1.2.3H711l-1.2-.3-.7-.4-.7.2-.7-1-.8-.4-.7-2-.4-.9.4-.5-.2-.4v-1.7l.2-.7 1.5-.7 1 .5.9 1.1.2.8zm5.5-5.7 1.2 1.2-.7.7-.8-.4v-.3zm0 0-.5 1h-.2l-1-.7-.7.2-.5-.2-.2-.5.7-.3.5-.4 1.2.2zm-15.7-1.2.2.5.5.2-.5 1-1 .5-.6-1zM680 352l.5.7-.3.7-1.9-1 1.2-.7zm8 1.9-.7-.5.3-.7.7-.7v1.1l.2.5zm-2-4.3.4-.3h1v.5l-1 .7.5.5v.7l-1 1-.5.2-.7-.2-1-1 .3-1.4.7-.2.5-1 .7-.2zm-8.6.2-.5.3-.5 1.1 1 1.2-1.2-.4v-.5l-.3-.7-1-1v-.5l1-.4.3-.7 1-.8.6.5v1zm30.6-1.2.5.5-.2.5-.5-.3-1.4-1.1.4-1 .8-.2.4.4-.2.8zm15.5-1.9 1 2 1.4 1.8v.7l-1 .5v2l.3.4h.4l.5.7 1.2 1 .2 1.1.3.8.4.4-.4.5.7.7-.3.3.3 1.2-.5.4.7.7.3 1.2.4 1.2v1.4l-.2.3-.7-.7-.7-1.2v-.7l-.7-1-1-.7-.7-.7-1.2-1.4-1-.7-.7-2.2-.4-2.4-.5-1.6v-1.2l-.3-1 1-1-.2-.6-1.2-1.7-.3-.7.3-.2 1 .2.4.2.7-.7zm-49.2-.7-.5-1-.7-.7h1zm-.3-2.4 1 .3.2.2.3 1.2h-.5l-.5-1zm7.4.5-.2.7h1.6l1 1.7v.5l.5.7.2 1.2-.5.4v.8l-1.4-.5-.5-.5h-.7l-1-.7-.2-.5-.2-.7 1 .2-.8-1.9-.2-.4-1.2.2-.5.2h-1l-.6 1-1-.5v-1.4l.5-.5h1v-1l.9-1.4 1-.7.6-.5 1 .8.5 1-.3 1.6zm-14 0h-.3l-.4-1.9.2-.7v-1l.5.3.2 1v1.6zm8-1.2-.7.5-.2-.2h-1l-.7-.8-.2-.7-.2-.7.2-.7.7-1 1.2-.4.5.5.7 1.1v1.5zm-7-8.3.9 1.2v.2l1.6 1-.2.7-1.4 1.7v.7l-.7.2v-1h-.5v-.9l-.5-1-.7-.4-.2-.7.2-.7.5-.5.5-.5zm24.4.2.7.5-.4.3-1.2.2-.3-.7.5-.5zm2.2 0 .4-.2 1.2.7.7.3.5.4.7 1.2.7.3.8.7v.7l1.1.2v.7l.8.3.7-.3.2.3 1 .4.2.5.7-.2.7.2.3.7 1 .7.6.8 1 .7 2.3 2.4-.7.9.7 1.2.3 1.4-.7-.2-.7-1-1.7-1.9-1-.2-1.1-1-1.5-.2-.2-.7-1.4-.5-1.2-1.2h-.5l-1.9-1.4-1.2-.7v-.5l-1-.5-.4-.4-.5-1-1-.7-.2-.5v-1l-1-1.1-.4-.3v-.7zm-3.6-1.4.5.5.4-.2.8.4-.3.5-.7-.2zm-10.7-1.4h1.2l-.5.5-.7-.3zm10.2 0-.5 1.2-.2-.5zm-6.4 1-1.2.2-.5-.5.7-1 .8.3zm-29.7-2.2.5.7-.5.5-.7-.3-.3-.2zm3.5-4.5.8.5-.3.7-1.6.4-.8-.7.8-1.4.4-.2zm4-2.2v1.2l-.4-.4v-.5zm7-3.5.7.2 1 1.2.7.5.7.2.7.7 1.9 1 1 1.2v1l.2 1.3.5.5.7.7h.4l.3 1 1.6.7 1-.2.2.2v.7l-.7.2-.5.8-1.1-.5-2-1h-1.1l-.8-1-1.6-.9-1.4-2.3-1.5-2.4-1.2-.7-1.6-1.7v-1.7l.7-.4.7.2z" class="sm_state sm_state_SB" style="-webkit-tap-highlight-color:transparent"/>
    <path d="m863.4 110.2 2.4 1h-.5z" class="sm_state sm_state_MH" style="-webkit-tap-highlight-color:transparent"/>
    <path d="m947.3 511.7-.7.3.2-1zm-17.8-3.8.5.5.7.2v.7l-1.2.5-1.2-.7-1.2.7h-.7l-.5.7.3.7-1-.2-.2.5-1-.3-.2.3-1-.5.7-.2.5-.3.5-.4 1 .2.7-.7.4-.7 1.2-.3 1.2-.7zm2.1-.2-.5.2-.4-.2.4-.5zm14-14.5.3 1.2-.5 1.4-.2-.5-.3-1h-.4l.2-1.1.5-.3zm-6.1-3.4h-.3l-.2-.9.5-.5 1-.2v1l-.6.4zm-5.3-5.9-.2 1 .7.4.2.7.8 1 .7.2.2.7h.5l.2 1-.7 1.2.2.5.3 1.1-.7.5v1.2h.4l.3 1.2-.7.7-1.5.5-.2-.5-.7.3-.2.4-.8-.7-1.9.7-1.9 1.7-.7-.2-1 .4-.6-.2-1.5.2-.7-.4-2.1-.8-.7-.2-1.5-.2-.4-.3-1.2-.4-.5-2.4.7-1.7h.7l.7-.2.3-1.2.7-.3.2-.9-.4-.5 1.4-1 1-1.1.2.2 1.4-1.2h.5l2.1-1 1.4.6.8-.3 1.1-.5 1.5-.2.7-.7zm15 .5-.5.2.5-2.1h1l-.3 1zm-27-4.8-.6.7-1.2.8v-.8l1-1zm35.3-1-.4-.4.2-.5 1.2-1.2.7-1.2-.7 2.7zm2.4-11.8-1 1-1.8 2.6-.8.2-1.6 1-.5 1.4-1 .4-.4.8-.3.4.8.3 1.4-.7.2-.3.7-.7.5-.7 1.4-.7.7-.7 1.5-.7v.7l-1.2 1.6-.5.3.2 1.4-.7.7-.7-.7h-1l-1.1.2-1 .7-1.6.3h-2.4l1.2-1.2-1-.5-1.4.5-1 .5v.4l-.7.3-.4.2-.3 1-.5.7-.7-.3v-.4l-1-.3-.9.5-.4 1.2-.8.5h-.7V477l-.4-1 .2-.4-.2-.3-1.5.5v-1l1-.6h.2l-.2-1.2.7-.3 1.2.7 1.4-1h.5l.7-.6h.5l.7-.7v-.5l1.9-.2 2.8-1 1 .2 1.2-.4.5-1h.4l.5-1 1 .3.2-.5.5.3 2.3-1.2.3.7.5-.3.4.3.7-.7 1.2-.5.3.2-1.2 1z" class="sm_state sm_state_FJ" style="-webkit-tap-highlight-color:transparent"/>
    <path d="m757.8 138-.5.7-1.1-.2v-.5l1.1-1zm-67-25.2h1l.6.5.3 1-.5.1.2.5-.2.5h-1.4l-.5-.5v-.5l-.5-.7v-.7zM418 73.3l.2.7h-.7l-.7 1.2-.3-.2.8-2 1-.2z" class="sm_state sm_state_FM" style="-webkit-tap-highlight-color:transparent"/>
    <path d="m811 528.1-1.1-.4.5-1 1.2-.2.4 1-.2.4zm-2.8-9h-.4l-.8-.2-1-1.2-.2-1v-1l.5-.4.3-1 .7-.2h1l-.5.7v1.2l1.6 1.2-.7.7zm0-14h.7l.3.4-1.2.3.2.7 1 .5.2.7-.2 1-1 .2-1-.7h-.9l-.5-.5-.7-.5.3-1v-.7l.4-1.1.8-1h1.2l.4.2-.2 1zm-7.1-18.1 1.4-.2.3.2.4 1.4.5.7.2.3-.9 1.4-2 .5-.6-.7-.3-1.2-.7-.3-1 .8-.2-.3.5-1 1-.6 1-1.2zm5.5-9.3-.3-.7h.7zm-3.8-5.7.2 1.2v.5l1 .2.4 1.2h1.2v1l-.2.2-.7-.7-.8-.3-1.4.5-.7-.2-.2-.5-.3-1 .5-1.1.5-.7zm2.1-.5h-.2l-.3-.7h.5zm.5-3.3-.5.5h-1.4l-.7.2-.5-.4-1-.3-1.2-1 .3-.4 1.2-.5 1-.2.9-.7.2-.7h.5l.2.7v1.4l1.2 1zm-11.2-3 .5.6 1.4 1 1.7 1.7.2.2v1l.5.7-.7.4-1 1v-.5l-.7-.2h-1l-.4.2v.5l-1 .5-.7-.3v-1.6l-.2-1.5.2-1.4.2-1.2-.4-1.2-1.5.7-.4-.4-.3-.7v-.8l.7-.7v-1l.3-.6.7-.3 1.4.7-.2.5.5 1.2-.3.5zm-1.4-5.8h-.7l-1.2-.7v-.2l.4-.7.5-.3 1.2.3-.2 1zm-1.2-2.4 1-.7.2.3.2.7h-1.2zm13.5 6.2-.4-.2.2-2.9-.2-.7.2-1.2.7-1.9.3-1.2.4 1.5-.2.7v3.8l-.2 1.4zm-3-7.8h-1.7l-.7-.3v-.4l2.1-1.7 1.2-.5 1.2-.2v.5l-.7 1-.5.6zm4.5-1.7v.5h-.7l.2-.7.5-3.1v-.3l.2-2.8.5.2-.3 3.1.3.7-.3 1.2zm-15 3.3-2.2-.2-1.4.7-.2.5h-.5l-.2-1.4-.5-.3-1-2.3 1-2v-.9l-.2-.5v-3.3l-.3-.7v-1.2l.5-.7v-.7l.5-.7v-.5l.7-.3.2 1.2.5 1 .5.7.2 3-.2 2v.2l1.4-.2.7-.7.5-2v-.4l.7-.5.7.3-.2 1v2l.7.3v1.2l-.5.2.7 1-.5.4v1.2l.5 1.2-.2.5h-.7zm10-22 1 .6-.3 1-.7.7-.5.5h-1.4v-1l.2-1 .5-.6zm1.4-4.6-.7.5-.5.2v.5l-.5.2v-.7l-.4-.4-.3-.8.3-1 .4-.1 1-.5.2.5.3.9v.2zm-11.9-10-.2-.2.2-1.2.5.5z" class="sm_state sm_state_VU" style="-webkit-tap-highlight-color:transparent"/>
    <path d="m771.6 564-.5.3-.4 1-1-.6.5-1.1.2-.5.7.2zm10.5-18.5-.3.2.5 1h.7l1-.5-.3 1.4-.4.5-.3 1-1.2.7-1-.5v-.2l-.6-.8.2-.4-.5-.5.3-1-.3-1h.3l1 .3zm-6.4-10.2-.5 1.2v.9l-.5.7.7.5.5.2.2.5-.2.5.7 1h-.5l-.4 1.1-.5.5-.7-.2-.5-.8-.3-.4-1.4-.3-.7-1.2v-.4l-.2-.7h.7l.7-.5 1-.7.2-.7-1-.5-1 .2.6-1 .7-.2.4.3 1-.8zm-8.1-3.8-.7 1.4-.3.7h.7l-1.6 1.7-.3-.5.7-1 .5-1.2zm0 0-.5-1h1l.2 1zm-33-5.7.4.2 1.2 2.1.7.7.7-.2.5-.7 2.1 1.2.7 1.2 1.7 1.4.7 1 .3.7 1 1 .1.4h.5l.7.7 2.2.5.2.7v1l.7.9 1 .2-.7 1.2.2.5 1 1.2h.2l1 1.2-.3 1 1.7.4 1 1.2h.6l.7.5 1.2 1-.2.6h.7l1 1.2 1.4 1v.4l.7.3.7.7v.5l.7 1.4 1 1 .2-.3 1 1.4 1.2.3.7.7v1l.2.9.2.2-.4 1.5-1.7.9-.2-.7-.7.2-.8.7-1.4-1.9h-1l-.2-.4h-.5l-.4.7-2.2-2.2h-.4l-1-1.2.2-1.9h-1.6l-.7-.4-.3-.5-.4-.2h-.8v-.8l-.4-1.1-1 .2-1.9-1.2-.2-.5v-.7l-.7.5-1.5-.7-.2-1-1-.7-.4-1.2-1.2-.2.5-.5-.8-.7-.7-.2-.7-1.7v-1l-.5-.7h-.7l-.4-1.4.2-.5-1.7-1-.7-.4-1-1.4.8-.5-.5-.5-.5-.7v-1.2l-1.2-.7V531l-.4-.7h.7l.2-.7-.2-.5H734l-.4-.7 1.2-1.7-.8-.7zm2.5.7-.7-.3.3-1zm-5.4-5.7-.5.4-.2-1 .4-.4z" class="sm_state sm_state_NC" style="-webkit-tap-highlight-color:transparent"/>
    <path d="m702.7 843.4-2 6.2 13.4-6.2-1.2 6.4-5 6.4-10 7-16.9 11-11.1 6.3-1.5 7.1-9.5.2-15 5.7-11.1 9.8-19.5 15.2-15 6.7-9.5 4.2-11-.2-3.5-5-12.1-1 2.3-5.6 15.5-11 27.1-15 10.2-2.8 13.3-5.7 16.7-7.9 13.5-7.8 14.3-11.2 7.4-3.8 8.3-8.5 13.8-7zm69-72.5-1 16.1 6.9-10.4 3 4.3-5.7 11.4 7 5 7.5 1.1 11.2-5.7 5.3 1.7-12.4 13.6-10 8.8-9.3-.3-6.6 4.5-3.6 6.7-3.8 2.6-11 8.3-14 10.2L721 855l1.2-4-3.6-2.2 16.4-12.3 2.1-8.6-9-6 4.3-5.4 12.6-5.2 10-11.9 6-9.8 1.3-10.2 2-2.6-2.2-6.4-1.7-13.3 1-11 5.2-1.1 2.2 8.5 7.6 3.8z" class="sm_state sm_state_NZ" style="-webkit-tap-highlight-color:transparent"/>
    <path d="M814 227.4h-.5l-.3-.7h.7z" class="sm_state sm_state_NR" style="-webkit-tap-highlight-color:transparent"/>
    <path d="M970.6 349.3v-.4h.2v.2z" class="sm_state sm_state_TV" style="-webkit-tap-highlight-color:transparent"/>
    <path d="m362.2 841.5 8.8 5.2 7.9-2.1 11.6-2.9 6.7 1-10.7 18-7.9 5-9.5 12.4-1.4-4.3-15.7 10.5-2-.7-7-.5 1.1-12.9 4.8-10 1.4-13.3 4.8-6.8zm120-412.3 3 12 9.4-5.8 3.4 6.4 5.4 6-2.6 6.9.5 13 .5 7.7 3 1.9 1 13-2.8 7.9 1.9 10.2 12.8 8 7.6 7.2 7.6 6.7-2.6 3.8 5.5 9.5 1.2 16.6 6.1-3.3 3.6 6.4 3.8-2.1-1.7 16.1 7 9.3 4.5 5.7 6.6 12.4V617l-2.4 8.7-4.2 9.3 1.6 13-6 13.6-5 7.2-9 13.5-3.5 8.8-7.4 11-11.9 13.8-13 7.6-10.5 11.6-7.9 7.6-10.4 13-8.8 7.7-9.3 11.4-7.4 10.5-1.9 5-10.2 5.2-14.5.5-15 6.4-9 5.7-11.4 6.7-6.4-7-6.2-2.6 6.2-7.8-8.4 2.9-17 10.9-8.6-4-5.7-2.4-6.7-1.2-9.7-4.3-3.1-9.5 3.5-11.4 1-7.9-3.3-6.1-11.2-1.7 7.6-7.6 2.1-11.2-11.1 10.5-12.6 2.8 10.7-8.3 5.9-8.8 8.3-7.6 3.8-11.2-16.1 12.9-10.3 5.2-10.2 12.1-7.1-6.2 4-8-3.3-11.2-4.3-5.7 3.8-3.6-12.6-9.3-9-.2-9.5-7.6-23.6 1.4-18.7 5.5-16.5 5.2-11.8-1-16.7 8-12.6 3.2-5.5 8.1-7 6.2-11.3.5-8.5 1.2-10-2.7-10 1.7-9 .7-10.7 8.1-3.6-.7-8 4.3-8.2 4.7-9-.4h-8.3l-9.8-9.8-5.7-2.8 3.6-8.8 6.9-2.2 3.6-3.3 1.4-5.5 5.5-10.7 1.6-9-1.6-15.5.4-8.8 3.4-8.5-2.2-10 .7-4.5-4-6.2 1.7-11.9-4.6-12.1-.2-6.4 4.3 6.6-1.2-14.2 5.5 4.5 2.6 6 1.4-8-3.8-12-.2-4.8-2-4.5 3.2-8.8 3.5-3.8 3.1-7.6.2-9 7.4-11-1 11.6 7.4-10.4 11.7-5.2 7.6-6.5 11.2-5.7 6.1-1.2 3.4 2 11.4-5.8 8.3-1.6 2.6-3.4 3.6-1.4 7.4.5 14.7-4.5 8.3-7 4.8-8 9.2-7.6 1.7-6.2 1.7-8.3 11.6-13 3.4 13.2 6.1-3-3.5-7.2 5.4-7.4 5.3 3.4 3.5-11.7 8.4-7.6 4.2-6 7-2.6.9-4.2 5.5 1.6.9-3.8 6.2-2.1 6.6-2.2 8.8 7.2 6.2 9h8.3l8.4 1.4-1.7-8.3 8.3-12.1 6.4-4-1.4-3.9 6.9-8.8 8.8-5.4 6.4 1.9 11.7-2.9.7-7.8-9.3-5 7.4-2.1 8.5 3.8 6.5 6.1 10.7 3.8 4-1.4 7.8 4.8 8.4-4.5 4.7 1.4 3.6-3.1 5.2 7.6-4.7 8.3-6 6.2-4.5.5.7 6-5.2 7.5-6 7.6.5 4.3 9 8.6 9.6 4.7 6 5.3 7.8 9h3.8l6.1 4 1.2 4.8 11.7 5 9.7-5.3 4.3-8 4-7 3.1-8.2 6.2-12.2-.5-7.3 1.7-4.6-.2-8.5 3.3-11.7 3-3-1.3-5 4.2-8.1 3.6-8.4 1-4.5 5.4-5.7 3.1 7.6-.2 9.5 3 2-.2 6.4 3.8 7.6-.2 8.8z" class="sm_state sm_state_AU" style="-webkit-tap-highlight-color:transparent"/>
  </g>
</svg>
