<svg xmlns="http://www.w3.org/2000/svg" width="1000" height="1000">
  <path fill="#7480ff" d="M770.5 25c8.5 17.6 27.4 31.6 46.3 31.6-25.5 0-51.1 25.6-51.1 51.1 0-25.5-25.6-51-51.1-51 18.9 0 37.8-14 46.3-31.7zM152.2 54.8c0 17 17 34.1 34.1 34.1-17 0-34 17-34 34 0-17-17.1-34-34.1-34 17 0 34-17 34-34M305.6 140c0 25.6 25.6 51.1 51.1 51.1-25.5 0-51.1 25.6-51.1 51.2 0-25.6-25.6-51.2-51.1-51.2 25.5 0 51.1-25.5 51.1-51m694.4 72.5v673.6c-200.3-8.6-426.4-12-644.1-72-91.3-23.3-163.2-50.7-213.7-81.7-50.6-31-82.4-67.6-82.4-110 .2-18.4 7.7-37.7 17.1-52.2a160 160 0 0 1 27.2-30.2 66.5 66.5 0 0 1-4.9-25.2c0-36.7 29.3-66 66-66s66 29.3 66 66-29.3 66-66 66a66 66 0 0 1-36.7-11c-15.6 14.5-29.6 32.6-30.3 52.6 0 22.5 18.9 49.5 64 77.3 45.2 27.8 114.2 54.5 203.1 77.2 196 48.9 434.4 66.7 610.4 70.5a320 320 0 0 1-138-64c-57.3-3.8-108.5-8.4-162.9-15.1 5.7-13.3 8.5-25 7.6-37.7 38.7 4.5 78.7 8.6 112.2 11.2a320.5 320.5 0 0 1-77.9-210A321.3 321.3 0 0 1 1000 212.6M715.5 372.8a357.9 357.9 0 0 0-17 40.2c-124.1 12.1-238 30.8-333.2 55-35.7 9-68.2 18.9-97.2 29a103.7 103.7 0 0 0-13.5-35.9c30.5-10.7 64.3-20.9 101.3-30.3 103-26.2 226-45.8 359.6-58zm-27.6 76.6a357.9 357.9 0 0 0-7 39.5 1728.5 1728.5 0 0 0-154.4 25.8C461.2 529 408.7 546.2 374 564.1c-17.2 9-30 18.2-37.5 26.3-7.5 8-9.7 14-9.7 19.3s2.2 11.2 9.7 19.3c7.6 8.1 20.3 17.3 37.5 26.3 34.6 18 87 35 152.4 49.4a1216.3 1216.3 0 0 0 21.1 4.4 74.4 74.4 0 0 0-4.7 38.2c-8.1-1.6-16.8-3.4-24.7-5.2-67.3-14.7-122.1-32.2-161.7-52.8a174.3 174.3 0 0 1-48-34.1 67.5 67.5 0 0 1-20-45.5c0-17 8.1-32.6 20-45.5 12-12.8 28.2-23.8 48-34.1 39.6-20.6 94.4-38 161.7-52.8 50.2-11 107.3-20.5 169.7-28zm-75.6 255c17.9 0 32 14.2 32 32 0 18-14.1 32-32 32-17.8 0-32-14-32-32 0-17.8 14.2-32 32-32M493 906.9c0 17 17 34.1 34.1 34.1-17 0-34 17-34 34.1 0-17-17-34-34.1-34 17 0 34-17.1 34-34.2"/>
</svg>
