<svg xmlns="http://www.w3.org/2000/svg" width="1000" height="1000" overflow="hidden" preserveAspectRatio="xMinYMin" viewBox="0.3 0.3 1000 1000">
  <rect width="10090" height="4317.9" x="-4035" y="-1726.2" fill="none" rx="0" ry="0" style="-webkit-tap-highlight-color:transparent" transform="scale(.3474)"/>
  <g fill="#7480ff" stroke="#7480ff" stroke-linejoin="round" stroke-width="2.4">
    <path d="m779.8 457.2.4 3-1.3-.7.7 3.3-1.4-2-.5-2.2-1-2-1.7-2.3-3.3-.2.6 1.7-.8 2.3-1.6-.9-.4.8-1-.5-1.5-.3-1-3.4-1.6-3 .1-2.5-2.3-1 .6-1.5 1.9-1.6-3-2.1.8-2.8 3.1 1.8 1.7.2.8 2.8 3.4.6h3.3l2.1.6-1 3.4-1.5.3-.8 2.3 2.3 2.1.2-2.6h1z" class="sm_state sm_state_BD" style="-webkit-tap-highlight-color:transparent"/>
    <path d="m473 341.1-.2 2.7-.8.1-.3 2.2-2.8-1.8-1.6.3-2.2-1.8-1.5-1.6h-1.4l-.5-1.5 2.5-.7 2.3.3 2.8-.8 2 1.7z" class="sm_state sm_state_BE" style="-webkit-tap-highlight-color:transparent"/>
    <path d="m455.3 486.2-.3 2 .5 1.8 2 2.7v2l4.2.9v2.8l-.8 1.2-1.8.3-.7 1.8-1.3.5-3-.1-1.7-.3-1.2.6-1.5-.3-6.3.2v2.3l.4 3-2.4-1-1.7.2-1.3 1-1.5-.8-.7-1.4-1.6-1-.2-2.3 1-1.7-.1-1.4 2.8-3.3.6-2.8 1-1 1.7.6 1.5-.9.5-1 2.7-1.8.7-1.3 3.4-1.7 2-.6.8.8z" class="sm_state sm_state_BF" style="-webkit-tap-highlight-color:transparent"/>
    <path d="m546.6 369.3-1.4 1.7-.9 2.8 1.4 2.3-3-.5-3.1 1.3.2 2-3 .4-2.4-1.5-2.5 1.2-2.5-.2-.5-2.6-1.7-1.3.4-.6-.4-.5.4-1.2 1.1-1.3-1.7-1.7-.5-1.5.7-1 1.2 1.7 1.2-.2 2.5.5 4.8.3 1.5-1 3.7-1 2.6 1.5z" class="sm_state sm_state_BG" style="-webkit-tap-highlight-color:transparent"/>
    <path d="M515.2 364.7h1.2l-.7 1.7 1.7 1.6-.3 1.8-.7.2-.6.4-1 1-.2 2.2-3-1.5-1.4-1.8-1.3-.8-1.6-1.6-.9-1.2-1.7-1.9.5-1.6 1.3 1 .6-1h1.5l2.9.7h2.2z" class="sm_state sm_state_BA" style="-webkit-tap-highlight-color:transparent"/>
    <path d="m241.8 493.8-.4-.1V492.6l.2.1v.4l.4.2v.2z" class="sm_state sm_state_BB" style="-webkit-tap-highlight-color:transparent"/>
    <path d="M231.4 474.1v-.1h.1z" class="sm_state sm_state_BL" style="-webkit-tap-highlight-color:transparent"/>
    <path d="M232.8 415.2H232.4v.2l-.2.1h.1l.1-.3h.2z" class="sm_state sm_state_BM" style="-webkit-tap-highlight-color:transparent"/>
    <path d="m863.8 528.5 1.4-1.5 2.9-2.3v2l-.1 2.6h-1.7l-.7 1.3z" class="sm_state sm_state_BN" style="-webkit-tap-highlight-color:transparent"/>
    <path d="m248.7 629-.2-1.2-3.4-2.1h-3.3l-6 1.1-1.4 3.6.1 2.2-1 4.9-.6-1-4-.1-1 3.3-2.4-3-4.7-1-2.6 3.7-2.4.6-2-5.6-2.3-4.6.7-4-2-1.6-.8-3-2-2.8 1.8-4.3-1.9-3.4.7-1.4-.7-1.6 1.2-2-.2-3.4v-3l.7-1.3-3.5-6.5 2.7.3h1.8l.7-1.3 3-1.6 1.9-1.6 4.6-.7-.3 3 .6 1.7-.2 2.7 4.1 3.6 4.1.7 1.5 1.5 2.4.8 1.6 1.2h2.2l2.2 1.2.3 2.3.8 1.2.2 1.7-1.1.1 1.8 4.8 6.7.2-.3 2.3.5 1.6 2 1.1 1.1 2.6-.3 3.2-.9 1.8.5 2.2z" class="sm_state sm_state_BO" style="-webkit-tap-highlight-color:transparent"/>
    <path d="m911.6 408 1 1.4-.8 2.5-2-1.4-1.3 1v2.3l-2.7-1.1-.8-2 .9-2.4 2.1.5.7-1.7zm15.6-12.2.3 3.3 1.6 2-.4 2.8-3.4 2-5.8.2-2.8 4.7-3-1.6-1.5-3-5.4.8-3.3 2h-4l4.8 3 .5 7-1.6 1.7-2.3-1.6-.5-3.7-2.6-1.1-2.6-2.8 2.7-1.3.7-2.6 2.5-2 1.3-2.9 6.1-1.2 4 .9V395l3.3 2 2.8-4 1-1.6-.6-5-3.2-4.6-.1-2.5 3-.8 5.2 5.7 1.8 3.2-.8 4.1zm-7.6-28.4 2.9.9 1.1-1.7 3.8 4.5-4 1-.3 4-6.9-2.6 1 4.3h-3.6l-3-3.9-.4-3.1 3.3-.2-2.8-5.6-1-3 6.6 4.1z" class="sm_state sm_state_JP" style="-webkit-tap-highlight-color:transparent"/>
    <path d="M560.8 565h-.4v-.1L559 561v-.7l-1-1.8 2.3.3 1-2.3 2 .2.2 1.6.8 1v1.3l-1 .8-1.4 2.2z" class="sm_state sm_state_BI" style="-webkit-tap-highlight-color:transparent"/>
    <path d="M466.8 499.5v1.3l.7 2.4-.7 1.7.4 1-1.8 2.6-1 1.3-.7 2.5.1 2.6-.2 6.5-3 .5-.9-2.8.2-9.3-.7-.9-.2-2-1.2-1.4-1.1-1.2.4-2.1 1.3-.5.7-1.8 1.8-.3.7-1.2 1.2-1.2h1.3z" class="sm_state sm_state_BJ" style="-webkit-tap-highlight-color:transparent"/>
    <path d="m772.3 434 1.7 1.2.3 2.5-2.8.1-3-.2-2 .6-3.5-1.6-.3-.7 1.7-3 1.6-1 2.7.8 1.9.1z" class="sm_state sm_state_BT" style="-webkit-tap-highlight-color:transparent"/>
    <path d="m181.5 474.2-1.1.7-1.9-.7-1.8-1.4.5-1 1.5-.3.8.2 2.4.4 1.7 1 .5 1z" class="sm_state sm_state_JM" style="-webkit-tap-highlight-color:transparent"/>
    <path d="m543.5 619 1.2 3.3.7.8 1 2.3 3.8 4.5 1.5.4v1.5l.9 2.6 2.7.6 2.2 1.8-5.2 3-3.3 3-1.2 2.8-1.2 1.5-1.9.3-.7 2-.4 1.2-2.3 1-2.9-.3-1.5-1.1-1.5-.4-1.8.8-1 2-1.6 1.2-1.8 1.8-2.5.5-.7-1.5.3-2.4-1.9-4-.8-.5.3-11.9 3.5-.1.5-14.5 2.7-.2 5.5-1.4 1.3 1.7 2.3-1.6h1l2.1-1z" class="sm_state sm_state_BW" style="-webkit-tap-highlight-color:transparent"/>
  </g>
  <path fill="none" stroke="#7480ff" stroke-linejoin="round" stroke-width="2.4" d="m-201.7 604.9.4.1.2.1v.2H-202.2l-.3-.2-.2.1-.2-.1-.1-.2-.4-.1v-.3l.3-.1h.6l.5.2h.3zm-2.8-1.8.4.4.1.4v.4h-.2l-.2-.1-.2.1h-.5l-.2-.1-.2-.3-.3-.2-.3-.3-.1-.1v-.1h.4l.4-.2h.8z" class="sm_state sm_state_WS" style="-webkit-tap-highlight-color:transparent"/>
  <g fill="#7480ff" stroke="#7480ff" stroke-linejoin="round" stroke-width="2.4">
    <path d="m250.8 539.2 2 .4.4-1-.7-.7.4-1.2 1.5.4 1.7-.5 2 1 1.6.7 1-1 .9.1.5 1.1 1.7-.2 1.4-1.6 1.1-3 2.2-3.7 1.3-.2.8 2.3 1.9 7 2 .8v2.8l-2.7 3.3 1 1.2 6.5.7v4l2.8-2.6 4.5 1.5 6 2.4 1.8 2.4-.6 2.3 4.2-1.3 7 2.2 5.4-.2 5.3 3.4 4.7 4.5 2.8 1.2 3 .2 1.4 1.2 1.2 5.2.7 2.5-1.3 6.7-1.7 2.7-5 5.6-2 4.7-2.6 3.4-.9.2-.8 3 .6 7.6-.7 6.2-.2 2.7-1 1.6-.4 5.5-3.2 5.2-.4 4.3-2.7 1.7-.7 2.5h-3.8l-5.4 1.5-2.3 1.8-3.8 1.2-3.9 3.3-2.6 4-.2 3 .8 2.3-.1 4.1-.6 2-2.1 2.2-2.9 7.2-2.5 3.2-2 2-1 3.8-1.8 2.3-1.3-2.3 1.1-2-2.4-2.7-3-2.3-4-2.6-1.2.2-4-3.2-2.2.4 3.8-5.5 3.4-4 2-1.6 2.7-2.2-.2-3.3-2-2.4-1.7.9.4-2.4.2-2.4-.2-2.3-1.3-.7-1.3.7-1.3-.2-.5-1.6-.7-3.7-.8-1.2-2.4-1.1-1.4.8-3.8-.8-.2-5.6-1.3-2.2 1-.9-.5-2.2.8-1.8.4-3.2-1-2.6-2-1.1-.6-1.6.3-2.4-6.7-.1-1.8-4.8h1l-.1-1.8-.8-1.2-.3-2.3-2.2-1.2H234l-1.6-1.2-2.4-.8-1.5-1.5-4-.7-4.2-3.6.2-2.7-.6-1.6.3-3-4.6.6-1.9 1.6-3 1.6-.7 1.2-1.8.1-2.7-.4-2 .7-1.7-.4v-6.1l-2.8 2.3h-3.2l-1.5-2.3-2.4-.2.7-1.7-2.1-2.5-1.7-3.7 1-.7-.1-1.8 2.1-1.1-.4-2.2.9-1.4.1-2 4-2.7 3-.8.5-.6 3.2.2 1.4-11.2v-1.7l-.5-2.3-1.7-1.5.1-3 2-.7.7.5.1-1.6-2-.4v-2.6l7 .2 1.1-1.5 1 1.3.7 2.4.7-.5 2 2.2 2.7-.3.7-1.2 2.7-1 1.5-.7.5-1.7 2.5-1.1-.1-1-3-.2-.5-2.6.2-2.8-1.6-1 .7-.4 2.6.6 2.8 1 1.1-1 2.6-.6 4-1.5 1.4-1.6-.5-1.2h2l.7.8-.5 1.8 1.3.6.7 1.9-1 1.5-.6 3.4.9 2 .2 2 2.2 1.9 1.7.2.4-.9 1.2-.1 1.6-.7 1.2-1.1 2 .4z" class="sm_state sm_state_BR" style="-webkit-tap-highlight-color:transparent"/>
    <path d="m196.7 460.8-.3.4v.3l-.5.2h-.3v-.1l-.3.1h-1v-.3l.2-.1.1-.2.3-.1.1-.3h.3l.2-.1.1.2.3.1.3-.1.5-.7h.2v.2zm.1-1-.1-.4.4-.2.2.2v.1h-.2zm.3-4.2h.1l.3.2h.5l.2.2v.2h-.1l-.3-.2h-.3v-.1l-.4.1-.3-.1.1-.4zm-2.5-1.1-.1.3v.7l-.3.1-.2.3-.2.2-.5.2v.1l-.2-.1.1-.1.3-.1V455.8h.3l.2-.3h.2l.2-.3-.1-.2h-.3l-.1-.1.3-.3v-.1zm-1.2-.2h.3l.3.2-.3.3v-.2h-.4l-.3-.2-.2-.3.2-.1h.3zm-5.8-3.7.3.4.2.1.2.4-.2-.1v-.1h-.2l-.3-.3-.1-.1-.1-.3zm2.3 0 .2.4.1.3v.2l.2.2v1l.2.2h.3l.3.5v.5l-.3-.5v-.1l-.2-.3h-.3v-.2l-.1-.2v-.2l.1-.2v-.3l-.2-.2v-.1l-.2-.3v-.3h-.2zm1.8 0-.1.1h-.2l-.1-.2.4-.1zm-5.1-1.2h-.1l-.2-.5h.1zm6.6-.3-.2.3h-.3l.1-.2v-.3l.3-.2.1.2zm-11.7-.8h-.2l-.1.2h-.2l.4-.3zm.1.4.3.2v-.2l.2-.3.2.3v1.1l-.2.5h-.4l.1-.2.3-.2h-.1l-.4.2-.1-.1.2-.2h-.5v-.6l-.2-.3v-.2h.3v-.3h.2l.1-.2.4-.2v.3l-.3.2zm8.6-.3v.3h-.7l.2-.2.2-.2v-.1l-.2-.2-.2-.3v-.4l-.3-.3v-.1l-.3-.3.2-.2.2.2v.4l.2.2v.3l.2.3.3.2v.2zm-6.6-3.5.2.1-.4.2H182.8l.1-.2.3-.1zm-2.6-.3.2-.2.2.2V445l-.1.2.2.2.1.6.1.2.3.3-.1.4v.4l-.1.2h-.2l-.2.3-.2.1h-.2l-.2.2h-.2v-.3l-.2-.1v-.4l-.1.2h-.1l-.4-.3-.2-.2-.1-.2.4-.2.3.5v-.4h-.1v-.5l.4-.3v-.3l.2-.3v-.3l-.1-.5h.2zm5.1-1.7v.1l.3.3.5.4h.3v.2l.2.2.2.3.3.2v.1l-.1.6h-.1v.6l-.2.2v.4h-.1l-.2-.3-.2-.2v-.1h.5v-.5l.2-.2v-.5l-.3-.3-.2-.4-.2-.1-.4-.2-.2-.2-.4-.1h-.2l.2-.5zm-5.6-4.7h.4l.5.1h.5l.3-.1h.2l.2-.2v.5h-.4l-.7.1h-.2l-1 .3-.4.2h-.3l-.3-.2-.3-.4.4.2h.7l.2-.4h-.1v-.3l.1-.2zm2.8-.9.5.2v-.1l.3.2.6.6.1.4h.3l.4.4v.9h-.2l-.3.2-.1.1-.2.7v.5l-.2.2-.2-.2v-.2h-.3l.2-.4h.1l.4-.2-.1-.3.1-.2v-.2l.1-.2v-.4h.2v-.3l.2-.1-.2-.1h-.3l-.1-.3-.3-.2v-.2l-.2-.5h-.8l-.4-.3z" class="sm_state sm_state_BS" style="-webkit-tap-highlight-color:transparent"/>
    <path d="m552.3 332-2.5-.1-.5.4 1 1.2 1.3 2.6-2.6.2-.9.8.2 2-1.3-.4-2.7.2-1-1-1 .8-1.3-.6h-2.4l-3.6-1-3.1-.3h-2.5L528 338l-1.4.2-.4-1.8-1.2-1.8 1.8-.8-.2-1.5-1.1-1.5-.4-1.7h3l3-1.4.3-2.2 2.3-1.2-.6-1.8 1.7-.6 3-1.5 3.3 1 .5 1 1.6-.5 3 .9.7 1.8-.4 1 2.4 2.6 1.3.7v.7l2.2.7 1 1z" class="sm_state sm_state_BY" style="-webkit-tap-highlight-color:transparent"/>
    <path d="M138 482.3h-1l.8-4.6.4-3.2v-.7l.5-.2.6.5 1.6-2.4h.7l-.1.5h.6l-.2 1.2-.8 1.7.3.6-.6 1.5.2.4-.6 2-.9 1.1-.7.2z" class="sm_state sm_state_BZ" style="-webkit-tap-highlight-color:transparent"/>
    <path d="M493.1 412.1v3.1l-1.7 1.2-1 1.3-2.3 1.6.4 1.6-.2 1.8-1.7.9-1.6-7.3-2.2-1.7v-1l-3-2.4-.3-3 2-2.3.7-3.4-.6-3.8.6-2.1 3.6-1.6 2.4.4v2.1l2.8-1.5.2.8-1.6 2 .1 1.8 1.2 1-.3 3.6-2.2 2 .7 2.2 1.8.1.9 2z" class="sm_state sm_state_TN" style="-webkit-tap-highlight-color:transparent"/>
    <path d="m563.2 551.5 1.4 2.3-.2 2.4-1 .5-2-.2-1 2.3-2.2-.3.3-2.3.5-.3.2-2.4 1-1.1.9.4z" class="sm_state sm_state_RW" style="-webkit-tap-highlight-color:transparent"/>
    <path d="m527.2 367.2-.7.9.5 1.5 1.8 1.7-1.2 1.3-.4 1.2.4.5-.4.5-1.6.2-1 .2-.2-.4.4-.4.2-1h-.4l-.7-.7-.6-.2-.5-.6-.6-.3-.5-.6-.6.3-.3 1.3-.8.3.3-.3-1.4-.9-1-.4-.6-.6-1-.7.8-.2.3-1.8-1.7-1.6.7-1.8-1.2.1 1-1.5-1-1.2-1-1.5 2.4-1 2 .1 2 1.6.4 1.3 2 .9.5 1.6 2 1.2 1-.9.7.5-.6.7z" class="sm_state sm_state_RS" style="-webkit-tap-highlight-color:transparent"/>
    <path d="m901.5 585.1.1-1.2-.3-.8.5-1 3.1-.9 2.5-.1 1.2-.6 1.3.6-1.4 1.1-3.8 1.8z" class="sm_state sm_state_TL" style="-webkit-tap-highlight-color:transparent"/>
    <path d="M649.5 631.8h.3l.2.1.2.2v.5l.3.2.1.1v.5l-.1.3h-.1l-.3.1h-.7l-.5-.3-.2-.3v-.2l-.2-.4v-.3l.2-.1.1-.3h.4z" class="sm_state sm_state_RE" style="-webkit-tap-highlight-color:transparent"/>
    <path d="m677 395-1-.2-1.9-1-.2 1.3-2.6.9v3.2l-1.6 1.3-2.5.5-.2 1.9-2.5.5-3.8-1.6-1-3.3-2.6-.2-4.6-3.6-2.7-.4-4.2-2-2.5-.5-1.2.8-2.3-.1-2 2.3-2.7.8-1.2-2.9-.4-4.2-3-1.4.3-2.7-2.2-.3v-3.4l3.3 1 2.6-1.3-3-2.4-1.5-2.3-2.4 1 .4 3-1.7-2.6 1.2-1.4 3.5-.8 2.5 1 3 3.3 1.7-.2h3.7l-1-2.1 2.4-1.4 2.1-2.4 5 2.2 1.2 3.2 1.5.8 3.5-.2 1.3.8 2.7 4.1 4.5 2.8 2.7 2 4 1.9 4.9 1.8z" class="sm_state sm_state_TM" style="-webkit-tap-highlight-color:transparent"/>
    <path d="m688.8 383.3-.9 1.2-3.8-.6.4 2.2 3.5-.3 4.5 1.3 6-.6 2 3.8 1-.4 2.3 1 .4 1.5 1.1 2.3h-3.4l-2.4-.3-1.6 1.8-1.4.4-1 .9-1.7-1.4-.5-3.4-1.1-.2v-1.2l-2-1-1.1 1.5.1 1.6-.4.6h-2l-.6 1.8-1.3-.8-2.2 1.3-1.1-.5.8-4-1.5-3.1-2.7-1 .4-1.8 2.8.2 1-2.2.3-2.6 4-1v2l.8 1z" class="sm_state sm_state_TJ" style="-webkit-tap-highlight-color:transparent"/>
    <path d="m538 351.3 1 .4 1 1.2 1.4 1.6 2.1 2.4.4 1.7-.1 1.7.8 1.9 1.5.7 1.5-.7 1.5.7.2 1.1-1.4.8-1-.3-.3 4.8-2-.4-2.5-1.5-3.7 1-1.5 1-4.8-.2-2.5-.6-1.2.2-1.2-1.6-.6-.7.6-.7-.8-.5-1 1-2-1.3-.4-1.6-2-.9-.5-1.3-1.9-1.6 2.5-.7 1.6-2.7 1.2-2.7 1.9-.8 1.2-1 2 .5h2.1l1.6 1 1-.6 2.3-.4.6-1z" class="sm_state sm_state_RO" style="-webkit-tap-highlight-color:transparent"/>
    <path d="M405 495.7v1.4l-.4.4.3 1.4-.6.5h-.8l-1 .7h-1l-1.6 1.9-1.9-1.7-1.5-.3-.8-1.1v-.7l-1-.8-.3-.9 1.9-.6 1.2.1 1-.5z" class="sm_state sm_state_GW" style="-webkit-tap-highlight-color:transparent"/>
    <path d="M970 492.2v.8h-.3v-.2l-.1-.3v-.3l.3-.3.1-.1v-.4h.2v.1h.3l-.1.4z" class="sm_state sm_state_GU" style="-webkit-tap-highlight-color:transparent"/>
    <path d="m138.2 474.5-.4 3.2-.9 4.6h1.1l1 .7.5-.6 1 .5-1.9 1.6-1.8 1.1-.3.8.2.8-.8 1-1 .3.3.5-.8.4-1.3 1-.2.6-1.7-.7h-2.3l-1.5-.9-1.7-1.6.2-1.2.5-1-.4-.7 2-3.3h4.6l.3-1.4-.5-.3-.3-.9-1.3-1-1-1.2 1.5-.1.3-2.3h3.3z" class="sm_state sm_state_GT" style="-webkit-tap-highlight-color:transparent"/>
    <path d="m534 401.7 2 1.4 2.6-.3 2.5.3v.7l1.8-.5-.3 1.2-4.9.3v-.6l-4.2-.8zm5.8-20.8h-2l-1.7-.5-4 1 2.6 2.3-1.6.7h-1.8l-2-2-.5.8 1 2.4 1.8 2-1.2.8 2 1.9 1.8 1.2.3 2.2-3.2-1 1.1 2-2 .4 1.5 3.6-2.2.1-3-1.8-1.4-3.2-.9-2.7-1.4-1.9-2-2.3-.2-1.1 1.4-2v-1.3l1.1-.6v-1l2-.4 1.2-.9h1.8l.5-.6.6-.2 2.5.2 2.5-1.2 2.5 1.5 2.9-.4-.2-2 1.7 1-.7 2.6z" class="sm_state sm_state_GR" style="-webkit-tap-highlight-color:transparent"/>
    <path d="M494.5 537.7v4.9h-5.2l-1.2.2-.7-.6 1.2-4.6z" class="sm_state sm_state_GQ" style="-webkit-tap-highlight-color:transparent"/>
    <path d="M236.4 482.3h-.2l-.2-.2.1-.2.2-.1h.2v.4zm-1.2-1.6h.2v.2h-.1v.8l-.1.1-.4.2v-.1l-.2-.1v-1.4h.2l.4.2zm1-.3h.2l.3.3-.8.2-.2.1-.3-.2v-.4h.2v-.5l.2-.2.2.3v.2z" class="sm_state sm_state_GP" style="-webkit-tap-highlight-color:transparent"/>
    <path d="M630 440.1H630.3l.2.5v1.1l-.1.3v-.3l-.5-.5.1-.3-.1-.4v-.3z" class="sm_state sm_state_BH" style="-webkit-tap-highlight-color:transparent"/>
    <path d="m249 522.6-.7 3.7-2.2 1 .2 1-.7 2.1 1.5 3h1.2l.4 2.2 2.1 3.6-.8.2-2-.4-1.2 1-1.6.8-1.2.1-.4.9-1.7-.2-2.2-2-.2-1.8-1-2.1.7-3.4 1-1.5-.7-1.9-1.3-.6.5-1.8-.8-.9-1.9.1-2.3-3 1-1.1v-2l2.2-.6 1-.7-1.2-1.6.3-1.4 3-2.4 2.3 1.5 2 2.6.1 2.1 1.3.1 2 2z" class="sm_state sm_state_GY" style="-webkit-tap-highlight-color:transparent"/>
    <path d="m258 537.5 1-1.8.4-1.8.6-1.7-1.3-2.4-.2-2.8 2-3.5 1.1.5 2.6 1 3.8 3.3.5 1.7-2.2 3.7-1.1 3-1.4 1.6-1.7.2-.5-1.1-.8-.1-1.1 1z" class="sm_state sm_state_GF" style="-webkit-tap-highlight-color:transparent"/>
    <path d="m599.3 373.3 3.2.9 1.3 1.6 2.3 1-.7.5 2 2.2-.3.4-1.9-.2-2.6-1.2-.7.7-4.5.7-3.5-2-3.5.1.2-1.7-1.3-2.7-2.2-1.5-1.9-.5-1.4-1.2.3-.5 2.9.7 4.9.6 4.8 2 .7.8z" class="sm_state sm_state_GE" style="-webkit-tap-highlight-color:transparent"/>
    <path d="m234 498-.3.1h-.1v-.7l.2-.3h.2v.7z" class="sm_state sm_state_GD" style="-webkit-tap-highlight-color:transparent"/>
    <path d="m435.1 329.2-2.2-.8H431l.8-2-.6-2 2.6-.2 3 2.4zm10.1-18.2-3.2 4 3-.4h3.2l-.8 3-2.7 3.5 3 .2.3.4 2.6 4.5 2 .7 1.9 4.4.9 1.5 3.7.7-.4 2.6-1.5 1.1 1.2 2-2.8 2h-4.1l-5.3 1.1-1.4-.8-2.1 1.9-2.9-.5-2.2 1.5-1.6-.7 4.6-4.1 2.8-1-4.8-.6-.9-1.6 3.3-1.2-1.6-2 .6-2.6 4.5.4.5-2.3-2-2.3-3.6-.8-.7-1 1.1-1.7-1-1-1.6 1.7V320l-1.4-1.9 1.2-4 2.4-3 2.3.3z" class="sm_state sm_state_GB" style="-webkit-tap-highlight-color:transparent"/>
    <path d="m501 537.7-.3 1.8 1 2 2.7-.2.8.7-1.5 4.8 1.7 2.4.3 3.1-.4 2.8-1 1.9-3.2-.2-2-2-.3 1.9-2.4.5-1.2 1 1.3 2.6-2.7 2.3-3.7-4.1-2.4-3.4-2.2-4.1.2-1.4.8-1.3.8-3 .8-3 1.2-.2h5.2v-4.9l1.7-.2 2.1.5 2.2-.5z" class="sm_state sm_state_GA" style="-webkit-tap-highlight-color:transparent"/>
    <path d="m412.8 496.3.2 1.5h.6l1-.6.5.1 1 1.1 1.6.3 1-.8 1.1-.6.8-.6.7.1.9 1 .3 1 1.5 1.8-.7 1-.2 1.3.8-.4.4.5-.2 1.2 1.1 1.2-.7.3-.3 1.4.8 1.7.9 3.2-1.3.5-.4.6.3.8-.3 1.8h-.5l-1-.2-.7 1.7h-1l-.7-1 .2-1.6-1.5-2.4-.9.4-.8.1-1 .2v-1.4l-.5-1.1.1-1.2-.7-1.7-1-1.5h-2.9l-.8.8-1 .1-.7.9-.3 1-2 2-1.5-2.5-1.4-1.6-.9-.5-.9-.9-.4-1.7-.5-1-1-.6 1.6-2h1l1-.6h.8l.6-.5-.3-1.4.4-.4v-1.4h1.8l2.6 1h.7l.3-.5 2 .3z" class="sm_state sm_state_GN" style="-webkit-tap-highlight-color:transparent"/>
    <path d="m393.9 493.4.5-1.8h3.9l.8-1 1.1-.2 1.4 1h1.1l1.2-.6.7 1.2-1.6 1-1.5-.2-1.5-.8-1.3 1h-.7l-.9.5z" class="sm_state sm_state_GM" style="-webkit-tap-highlight-color:transparent"/>
    <path d="m396.9 229.8 12.6 1.9-4.3.9-8.2.1-11.7.3.9.4 7.8-.3 6.1.9 4.4-.8 1.6 1-2.9 1.4 5.8-1 10.9-1 6.3.6 1.1 1-9.4 1.9-1.4.6-7.2.5 5.1.2-3 2-2.4 1.8-.7 3.3 2.3 2-3.7.1-4.1 1 4 1.7-.1 2.6-2.7.3 2.6 2.8-5.5.2 2.6 1.3-1 1.1-3.7.5-3.5.1 2.7 2.2-.3 1.5-4.6-1.4-1.6.9 3.2.8 3 2 .3 2.7-4.7.7-1.7-1.3-2.7-2 .4 2.3-3.5 1.8 6.8.1 3.5.2-7.5 3-7.8 2.7-8 1.2h-3l-3 1.4-4.8 3.6-6.4 2.5-2 .2-3.8.8-4.2 1-3 2-1 2.6-2 2.4-5.5 3 .2 2.8-2.3 3-2.6 3.6-4.1.3-3.2-3-5.7-.1-2-2-.5-3.6-3-4.6-.5-2.3 1-3.2-2.4-3.3 2-2.6-1.1-1.2 4.4-4 4.6-1.4 1.6-1.4 1.8-2.7-3.5 1.2-1.6.5-2.6.5-2.7-1.1 1-2.3 1.8-1.8h2.5l4.8.9-3.4-2.2-1.7-1.1-2.8.4-1.6-.8 4.4-3-.8-1.3-.7-2.2-1-3.5-2.2-1.2.9-1.3-5.1-1.8-5-.3-6.3.1-6 .3-2-1-2.4-2 7-1h4.8l-9.3-.9-4-1.2 1.3-1.1 10-1.4 9.5-1.4 1.7-1-5.1-1 3-1.1 9.2-1.9 3.4-.2.2-1.2 5.7-.7 7-.3h6.5l1.8.7 6.7-1.4 4.5 1 3 .2 3.9.8-4.3-1.3 1-1.1 8-1.4 7.4.1 3.3-.9 7.5-.2z" class="sm_state sm_state_GL" style="-webkit-tap-highlight-color:transparent"/>
    <path d="m454 502.1-.2 1.3 1.4 2v3l.4 3.2.9 1.5-.8 3.6.3 2 1 2.7.8 1.4-5.7 2.4-2 1.4-3.2 1.2-3.2-1.2.1-1.6-1.5-3.5 1-4.6 1.5-3.4-1-5.8-.5-3 .1-2.4 6.3-.2 1.5.3 1.2-.6z" class="sm_state sm_state_GH" style="-webkit-tap-highlight-color:transparent"/>
    <path d="m642.4 479.2-1.4-2.9-3.3-6.7 10.4-4 1.6-8.2-1.9-2.9V453l.8-1.7v-1.6l1.4-.9-.7-.5v-2.7h1.8l2 2.8 2 1.5 2.6.5 2.2.7 1.8 2.4 1 1.3 1.3.6.2.9-1.1 2.4-.5 1.1-1.3 1.3-1.1 2.8-1.6-.2-.6 1-.5 2 .7 2.7-.3.5h-1.6l-2 1.6-.3 2-.7.8H651l-1.2 1 .1 1.6-1.6 1.2-2-.4-2.3 1.4zm7.9-37-.8-1.3.9-1.3.4.3-.1 1.7z" class="sm_state sm_state_OM" style="-webkit-tap-highlight-color:transparent"/>
    <path d="m588.1 416-.5.7-6.6 2 3.8 4.1-1 .7-.5 1.3-2.6.6-.7 1.5-1.3 1.2-4-.7-.1-.5 1.1-6.5-.2-1.6.3-1.2-.2-2.5.4-1.3 4 1.7 6.2-4.4z" class="sm_state sm_state_JO" style="-webkit-tap-highlight-color:transparent"/>
    <path d="m514.2 360.5 1 1.6 1 1-1 1.6-1.5-.9h-2.2l-2.9-.6h-1.5l-.6 1-1.3-1-.5 1.6 1.7 2 .9 1.1 1.6 1.6 1.3.9 1.3 1.7 3 1.5-.3.6-3.1-1.4-2-1.5-3.1-1.2-3-3 .7-.2-1.6-1.7-.2-1.4-2.1-.6-.9 1.7-1-1.3v-1.4h2.3l.5-.6 1.2.6 1.3.1-.1-1 1-.5.3-1.6 2.4-1 1 .4 2.6 1.7 2.7.8z" class="sm_state sm_state_HR" style="-webkit-tap-highlight-color:transparent"/>
    <path d="M200.8 466.7v2.2l-.4 1.6-1 .7.8 1.2-.1 1.1-2.3-.7-1.7.3-2.2-.3-1.7.8-1.8-1.3.5-1.3 3.2.6 2.6.3 1.4-1-1.5-1.7.3-1.6-2.2-.6 1-1h2z" class="sm_state sm_state_HT" style="-webkit-tap-highlight-color:transparent"/>
    <path d="m523.5 350.5 2 1.1.3 1-1.9.9-1.2 2.7-1.6 2.7-2.5.7-2-.1-2.4 1-1.1.6-2.7-.8-2.6-1.7-1-.5-.7-1.3h-.5l.8-2.6-.7-.9h1.8v-1.6l1.8 1 1.2.4 2.6-.4.2-.8 1.2-.2 1.4-.5.4.2 1.5-.5.6-1 1-.2 3.5 1.2z" class="sm_state sm_state_HU" style="-webkit-tap-highlight-color:transparent"/>
    <path d="M158.2 485.9H157l-.6.5-1.3.5h-.9l-.8.5-.7-.1-.6-.7-.3.2-.6 1-.3-.2-.2 1-1.3 1-.7.5-.4.5-1-.8-.9 1h-.7l-.8.1-.2 2h-.5l-.5 1-1.1.2-.5-1.3-1.1-.3.4-1.7-.4-.4-.8-.3-1.6.5v-.5l-1-.7-.7-.8-1-.4.8-1-.2-.8.3-.8 1.8-1.1 1.8-1.6.4.2.8-.7h1l.4.2.5-.2 1.7.4 1.6-.1 1.2-.4.5-.5 1 .2.9.3 1-.1.7-.4 1.6.6.5.1 1 .8 1 .9 1.1.6z" class="sm_state sm_state_HN" style="-webkit-tap-highlight-color:transparent"/>
    <path d="M213.6 473.4h-.2v-.2h.3zm9.3-.3h-.2l-.5.2h-.4l.1-.1.3-.1H222.8zm-6-1.5h.7l.2.1h1.7l.5.2v-.2l.4.2v-.1h.6v.2h.2l.4.2h.1V472.7l-.5.1-.2.3-.2.4-.2.1h-.4l-.4.1-.2.2-.4-.1-.1-.1h-.4l-.1-.1-.5.1H217l-.2.2v-.2h-.9l.2-.4v-.3l.1-.2-.1-.4h-.1l-.1-.3.2-.1.2-.1v-.3l.2-.2z" class="sm_state sm_state_PR" style="-webkit-tap-highlight-color:transparent"/>
    <path d="m575.6 415 .2 2.6-.3 1.2-1.6.5v-1l.9-.6-1-.5.4-2.6z" class="sm_state sm_state_PS" style="-webkit-tap-highlight-color:transparent"/>
    <path d="m936.4 516-.1.3V517h-.3l-.2-.4h.2l-.1-.2.2-.4h.2z" class="sm_state sm_state_PW" style="-webkit-tap-highlight-color:transparent"/>
    <path d="m429 396-1.5 1-1.7-.5-1.7.4.5-3.2-.2-2.4-1.5-.4-.7-1.5.3-2.7 1.4-1.5.4-1.6.7-2.4v-1.7l-.6-1.5v-1.4l1.1-1 1.4-.6.8 2h1.9l.5-.5 2 .1.8 2-1.5 1.1-.2 3.2-.5.6-.2 2-1.4.3 1.2 2.4-1 2.6 1.2 1.2-.5 1.1-1.3 1.5z" class="sm_state sm_state_PT" style="-webkit-tap-highlight-color:transparent"/>
    <path d="M232.1 477.3h-.2v-.4h.2v.2zm-.4-1-.1.3h-.1l-.3-.2h-.1l.2-.3.3.2z" class="sm_state sm_state_KN" style="-webkit-tap-highlight-color:transparent"/>
    <path d="m248.7 629 1.3 2.2.2 5.6 3.8.8 1.4-.8 2.4 1.1.8 1.2.7 3.7.5 1.6 1.3.2 1.3-.7 1.3.7.2 2.3-.2 2.4-.4 2.4-.2 3.5-2.7 3.2-2.7.6-4-.6-3.6-1.1 2.6-6.2-.7-1.8-3.7-1.6-4.6-3-3-.7-7.1-6.5 1-5-.2-2.1 1.3-3.6 6.1-1.2h3.3l3.4 2.2z" class="sm_state sm_state_PY" style="-webkit-tap-highlight-color:transparent"/>
    <path d="M230.8 472.8h-.1l.1-.2h.2v.2z" class="sm_state sm_state_AI" style="-webkit-tap-highlight-color:transparent"/>
    <path d="m177 511.7-.5.5.7 2.4-.7 1.3-1.1-.4-.6 2-1.1-1.1-.6-2.3.8-1-.8-.3-.6-1.3-1.8-1.2-1.5.3-.8 1.4-1.6 1-.7.1-.4 1 1.6 2.1-1 .5-.5.6-1.7.3-.6-2.5-.5.7-1.1-.3-.6-1.5-1.5-.4-1-.4h-1.5v.9l-.5-.7.2-.8.4-.8-.1-.7.5-.5-.7-.6.1-1.6 1.4-.4 1.2 1.5-.1.8 1.4.2.4-.4.9 1 1.8-.3 1.6-1 2.2-.8 1.2-1.2 2 .3-.1.3 2 .2 1.5.7 1.1 1.2z" class="sm_state sm_state_PA" style="-webkit-tap-highlight-color:transparent"/>
    <path d="M-47.3 659.4h-.1l-.1-.3v-.1l.2.1zm6.5-24.2v.1l-.3-.1.2-.2zm-4-15.6v-.5l.4-.2h.2v.1l-.2.3zM-75 619h.5l.2.3v.2h-.5l-.2-.4h-1l-.1-.3-.2-.3V618.2h1l.1.3.1.4zm-1.9-1-.1.4-.3-.1v-.2l.4-.2zm-4.8-2.7h-.1l-.1-.2h.1zm-1.3.2-.2.2h-.2l-.1-.6.5.4zm-.7-1.1h.2v.4l-.3-.2v-.1zm18-1.9-.2.1v-.2zm24-22.7h-.1v-.3l-.2-.1h.3v.3zm-2-2.2v-.5l.3.2h-.1zm.9-1v.2h-.7v.2h-.2l-.2-.2v-.2l.4-.2h.2l.1.1zm-4.4-1.7v.4h-.2l-.2-.3.2-.1zm1.5-1.9h.2v.1l-.3.2v-.2zm-2.3-.4.5.1.2.2v.1l-.2.2h-.5l-.1-.3v-.3z" class="sm_state sm_state_PF" style="-webkit-tap-highlight-color:transparent"/>
    <path d="m1012.7 574.7-1 .4-1.5-1.6-1.4-2.6-.5-3 .5-.5.4 1.2 1 1 1.5 2.5 1.6 1.4zm-13.6-5.5-1.9.3-.6 1.2-4 2h-1.9l-2.8-1.3-2-1.1.4-1.3 3.1.7 2-.4.7-2h.6l.2 2.1 2-.3 1.1-1.3 2.1-1.5-.2-2.4h2.1l.7.6-.2 2.2zM958.7 584l1-13.3.7-13.2 6 2.8 6.6 2.3 2.3 2.1 2 2 .3 2.4 5.8 2.6.7 2.1-3.3.5.6 2.7 3 2.7 1.9 4.3 2-.2-.3 1.8 2.7.7-1.1.8 3.6 1.7-.6 1.2-2.4.2-.8-1-3-.5-3.5-.5-2.5-2.6-1.8-2.3-1.6-3.6-4.5-1.7-3 1.1-2.4 1.4.2 3-3 1.4-2-.7zm44.8-18.8-1.1 1.1-.6-2.4-.7-1.5-1.6-1.4-2-1.7-2.5-1.2 1-1 2 1.1 1.1 1 1.5.9 1.3 1.7 1.4 1.3z" class="sm_state sm_state_PG" style="-webkit-tap-highlight-color:transparent"/>
    <path d="m203 564.4-3.1-.2-.5.6-3 .8-4 2.8-.1 1.9-1 1.4.5 2.2-2.1 1.1v1.8l-.9.7 1.7 3.7 2 2.5-.6 1.7 2.4.2 1.5 2.2 3.2.1 2.8-2.3v6.1l1.7.4 2-.7 3.5 6.6-.7 1.4v2.9l.2 3.4-1.2 2 .7 1.6-.7 1.4 1.9 3.4-1.9 4.3-.7 2.1-1.7 1-3.8-2.3-.5-1.6-7.4-4.1-6.8-4.5-3-2.5-1.7-3.3.5-1.2-3.4-5.4-4.1-7.4-3.8-8.1-1.5-2-1.3-3-3-2.6-2.5-1.6 1-1.8-1.8-4 1-2.8 2.8-2.5.5 1.7-1 1 .2 1.4 1.4-.3 1.5.4 1.6 2.1 2-1.7.5-2.7 2.1-3.6 4.3-1.6 3.9-4.3 1-2.6-.5-3 1-.4 2.4 1.9 1.1 2 1.7 1 2.2 4.2 2.7.5 2-1 1.3.7 2.1-.4 2.8 1.9-2.2 4.2h1z" class="sm_state sm_state_PE" style="-webkit-tap-highlight-color:transparent"/>
    <path d="m717 402.5-2.3 3.4-3.6.6-5.4-1-1.3 1.8 2.1 3.5 1.8 2.8 3.3 2-2.4 2.3.6 3-2.5 4-1.4 4.2-2.8 4.2-4.1-.3-3.1 4.3 2.5 1.8.9 3.2 2.2 2 1.1 3.5H695l-2 2.7-2.7-1-1.4-3-3.1-3-6.4.7-5.7.1-4.8.6.7-4.7 4.8-2.2-.6-1.8-1.7-.7-.6-3.6-3.7-1.7-1.7-2.5-2-2.2 6 2.1 3.4-.6 2.1.5.6-.9 2.5.4 4.2-1.7-.5-3.4 1.4-2.4h2.6l.1-1 2.6-.6 1.3.4 1.1-1.2-.7-2.5 1-2.4 1.9-1-2-2.7 3.3.1.6-1.4-.5-1.6 1.3-1.7-1-2-1.1-1.8 1.5-1.7 3.3-.9 3.8-.5 1.5-.7 1.8-.5 3 2 1.9 3.1z" class="sm_state sm_state_PK" style="-webkit-tap-highlight-color:transparent"/>
    <path d="m906.5 512.7.6 2.7.4 2.3-1 3.7-1.6-4.2-1.6 2.1 1.4 3-1 2-4.3-2.4-1.2-3 1-2-2.5-1.9-1 1.7-1.6-.2-2.6 2.3-.6-1.2 1.2-3.4 2.1-1.1 1.8-1.6 1.4 1.9 2.7-1.1.4-1.8 2.6-.2-.5-3 3 1.8.5 2zm-9.3-7.6-1 1.3-1 2.6-1 1.2-2.5-2.8.7-1.1.8-1.2.1-2.4 2-.3-.3 2.7 2.2-3.9zM878 509l-4.5 3.9 1.6-2.9 2.4-2.5 1.9-2.8 1.4-4 1 3.3-2.2 2.2zm11.1-10.5 2.3 1.3h2.2l.2 1.7-1.5 1.7-2.1 1.2-.4-1.9.1-2zm12.8-1 1.5 4.5-2.9-1.1.2 1.4 1.2 2.5-1.7 1-.4-3-1-.2-.9-2.5 2.1.3-.2-1.5-2.5-3h3.4zm-14.6-3.8-.6 3.6-1.7-2-2.2-3.2 3 .2zm-4.1-22 2.4 1.1.9-1 .5 1-.3 1.7 1.7 2.9-.4 3.3-1.8 1.4-.1 3.3 1.3 3.2 1.9.4 1.5-.4 4.7 2.2v2.2l1.3 1-.2 1.9-3-2-1.5-2.1-.8 1.5-2.5-2.5-3.2.7-2-1V489l1-1-1.2-1-.2 1.4-2.1-2.3-.8-1.8-.7-3.8 1.6 1.3-.7-6.4.5-3.7z" class="sm_state sm_state_PH" style="-webkit-tap-highlight-color:transparent"/>
    <path d="m513.2 327 3.8.5 5.5-.1 1.6.4 1 1.2.3 1.7 1 1.5.3 1.5-1.8.9 1.2 1.7.4 1.8 2 3.4-.2 1.1-1.5.4-2.4 3.3 1 1.8-.6-.2-3.2-1.6-2.2.6-1.6-.4-1.7.9-1.7-1.4-1.2.5-.2-.2-1.7-2-2.3-.2-.5-1.2-2.1-.5-.4 1-1.8-.8.1-1-2.3-.4-1.6-1.3-1.5-2.4.1-1.4-1-2.1-1.1-1.3.7-1.1-.9-2 2-1.1 4.5-1.8 3.7-1.3 3 .7.4 1z" class="sm_state sm_state_PL" style="-webkit-tap-highlight-color:transparent"/>
    <path d="M565.3 581.8h.2l1.4.8 2.3.7 2 1.2 1.7 1.8.8 3.4-.7 1.1-.8 3.3.6 3.4-1.2 1.4-1.2 3.8 1.8 1-10.9 3.4.3 3-2.8.5-2 1.6-.6 1.4-1.2.3-3.3 3.3-2 2.7h-1.2l-1.1-.4-4-.4-.6-.3v-.4l-1.4-1-2.3-.1-2.9.9-2.3-2.5-2.2-3.3.5-13h7.4l-.3-1.4.6-1.5-.6-1.9.5-2-.4-1.2h1.2l.2 1.3h1.7l2.2.3 1.2 1.9 2.8.5 2.2-1.2.8 2 2.7.6 1.3 1.8 1.4 2.2h2.7l-.1-4.3-1 .7-2.5-1.6-1-.7.6-4 .7-4.9-.8-1.8 1.1-2.6 1-.5 4.8-.7.6.2-.2.9 1.2.3.8.8.6-.2z" class="sm_state sm_state_ZM" style="-webkit-tap-highlight-color:transparent"/>
    <path d="M230.8 475.8v-.1z" class="sm_state sm_state_BQSE" style="-webkit-tap-highlight-color:transparent"/>
    <path d="M423.9 434.4v.3l-.2.7v6.2l-11.5-.2-.1 10.4-3.3.4-1 2 .6 6h-13.7l-.9 1.3.2-1.7 8-.3.5-1.5 1.5-1.8 1.2-5.7 5-4.4 1.8-5 1.1-.4 1.2-3.2 3-.4 1.2.6h1.6l1.1-1 2.2-.1-.1-2.2z" class="sm_state sm_state_EH" style="-webkit-tap-highlight-color:transparent"/>
    <path d="m899.5 341.3 8.7 7-5.6-1.3 2.3 5.7 6.1 4 1.9 2.9-4.1-2.4v3l-3-3.3-2.3-3.8-3.6-4.3-1.5-3-4-5.2-5.1-3.9-4.3-5.3 1.2-1.8-2.8-1.8.8-.5 3.1 2.5 4.4 3.7 3.3 3.9zm-377-14-5.5.2-3.8-.5.5-1.6 4-1.3 3.2.7 1.4.6-.1 1zm287.6-67.8h-3.7l-5.7-.4-.6-.2.4-1.2 2.7-.3 5.3 1.2zm8-6-.7 1.2-4.4-.3-6.5-1.2-1.1-1 5.2.4zm-16.2-1.6 2 2.4-9-.1-3 .8-7.9-2.1-2.2-2.2 2.3-.6 6.4.2zm-200.7 15.9-1.3.2-8.6-.4-1.5-1.5-5-.9-1.2-1.8 2.2-.7-1-1.8 3.4-2.8-2.5-.4 4.2-2.8-1.6-1.5 4.3-1.6 6.6-2 7.4-.6 3.1-1.2 4.3-.3 2.6 1.2-.8 1-7.2 1.5-6.3 1.5-5.5 3-1.8 3.2-2 3.1 2 2.8zM882 375.3l-.9-.7-1.2-2 1.6-.2-2.5-4.7-3-3.4 1.9-1.4 4.4.7-.4-4-1.8-4.3.2-1.4-.8-3.6-4.4 1.2-1.6 1.5h-4.9l-3.8-3.7-5.7-2.8-6.3-1.3-4-3.8-2.8-2.4-2.4-1.7-4.9-4-3.8-1.3-5.4-1.3-4 .2-3.2.7-1 2 2.3.8 1.6 2.2-.9 1.2.2 4.2 1.2 1.7-2.8 2.5-4.7-1.5-3.5.4-2.5-1.4-2.2-.4-2.8 2.8-3.7.6-2.3 1-4.3-.6h-3l-3-2-4.2-1.9-3.4-.5-3.6.5-2.6.7-5.3-1.6-2.3-3-4.3-1-3-.5-4.5-1.5-.8 4 2.6 2.3-1.6 2.8-5-1-3.2-.2-3-1.8h-3.3l-3.4-1.3-3.7 1.9-4.3 3.3-3 .7-1 .4-2.8-2.5-3.8.6-2.1-1.7-2.6-.8-2.6-2.2-2-.7-4 1-5.3-2.2-.7 2-11.6-9.9-5.3-3 .5-1.2-5.8 3.6-2.8.2-.7-2-4.5-1.4-2.7 1-2.8-4-5.8-.9-2 1.6-6.9 1.5-1 1-10.8 1.3-1 1.3 3.3 2.6-2.5 1 1 1-2.3 2 6 2.7-.1 1.8-4.5-.1-.5 1.2-4.6-2h-4.9l-2.8 1.6-4.2-1.5-7.6-2.8-4.8.2-5.1 4.2.4 2.9-3.8-2.3-1.4 4.3 1.1.8-1 3 3.3 2.7 2.3-.1 2.7 2.6.1 2 1.8.8-.9 2.3-3 .6-2.2 4.2 3.8 3.8.3 2.7 4.6 4.7-1.6 1.7-.4 1-1.5-.3-2.7-2.4-1-.1-2.3-1-1.3-1.6-3.2-.9-1.9.7-.7-.8-4.8-2-5-.6-2.8-.7-.3.5-4.8-3.4-4-1.5-3.2-2.4 2.3-.6 2-3.3-2-1.6 4.3-1.6-.2-1-2.7.7-.3-1.7 1.4-1.1 3-.3.2-1.3-1.1-2.2.8-2-.2-1.3-5-1.2h-1.8l-2.2-1.8-2.3.6-4.3-1.4v-.7l-1.5-1.7-2.5-.2-.5-1.2.6-.9-2.4-2.2-3.1.4-1-.2-.6.9-1.1-.1-1.3-2.6-1-1.2.6-.4 2.4.1 1-.8-1-1-2.2-.7v-.7l-1.3-.7-2.4-2.5.4-1-.7-1.9-3-.9-1.5.5-.6-1-3.4-1-1.3-2.2-.6-1.9-1.6-.8 1-1.2-1.5-3.5 1.6-2.2-.6-.6 2.9-2.1-3.4-1.8 5-4.7 2.2-2.1.6-1.9-4.7-2.4.6-2.5-3.2-2.6 1.1-3-4-4 1.7-2.7-4.6-2.4-.2-2.4 2-.3 4-1.3 2.4-1.2 4.9 2 7.4.8 11.2 4 2.6 1.6 1 2.4-2.4 1.8-4.1 1-12.8-2.7-1.9.4 5.2 2.6.6 1.7 1.2 3.6 3.9 1.1 2.4 1-.1-1.8-2.2-1.5 1.3-1.4 7.4 2.3 2-1-2.7-2.6 5.1-3.4 2.6.2 3 1.2.6-2.4-3-2.1.6-2.1-2.8-2.2 7.8 1.2 2.3 1.9-3.2.4.7 2 2.6 1.2 3.8-.8-.2-2.2 4.9-1.7 7.8-3 2 .2-1.5 2.1 3.4.4 1.3-1.2h5l3-1.5 4.1 2 1.8-2.2-3.8-2 .8-1.1 8.2 1 4.2 1 11.8 4 .7-1.8-3.8-1.8-.5-.7-3.3-.4-.2-1.6-3-2.6-.6-1.1 2.7-3-.4-3 1.4-.7 7.2 1 1.9 1.8-.6 2.6 2.3 1 2.4 2.4 2.5 4.7 4.2 2.1.3 2.4-2.2 4.9 3.4.5.3-1.3 2.4-.8-.3-1.8 1.2-1.7-2.8-2-.3-2.2-3-.3-1.9-1.9-.2-3.4-5.2-2.7 3-2.2-2.4-2.4h1.2l2.7 1.7 1.3 3.3 3.2.6-3-2.4 3.3-1.3 5.1-.2 6.1 1.9-4.3-2.8-3.1-3.4 3.7-.7 6 .2 5-.5-3.6-1.6.8-2.1 2.7-.2 3.1-1.5 5.9-.4-.1-1 5.9-.2 2.7.7 3.4-1.6h4.4l-1-1.3.7-1.3 3.9-1.3 5.2 1-2.2.8 6 .4 2.6 1.6 1.2-.8h6.9l7.3 1.6 3.5 1.1 1.6 1.7-1.5 1-4.2 1.7-.7 1 3.6.4 4.5.8 1.5-.6 3.7 2 .1-.7 3.3-.6 8.7.6 2.4 1.5 11 .5-3-2.5 6 .6h3.8l6.3 1.6 3.8 2.1.3 1.4 6.4 2.7 5.7 1.3-2-3.5 6 1.5 3.2-1 6.2 1.1.6-.9 4.9.5-6-3.1 1.3-1.4 25.6 2.1 5 2 10.4 2.5 9.3-.6 6 .6 4.1 1.3 3.3 2.5 4.6 1 2.5-.7h4.4l5.9.5 4.4-.3 9 3 1.6-1-5.4-2.2-1.1-1.6 9.7 1 5-.2 10 1.6 6 1.5 21.1 14-1.3 1.6-3.9-.2 5.2 1.9 5.8 3 2.6.9 2.4 1.5.7 1-6.4-.8-4.1 2.7-2 .5-1 2.6-1.2 2.2 1 1.8-7.2-2.6-3.9 2.9-3-1.4-.9 1.6-4.4-.5 2 2.4.7 3.7 1.8 1.5 4.3.8 5.8 5.6-2.6.1 2.1 3.2 3 1.7-3.2 2 3.5 4.4-3.6 1 2.8 3.8-1 3.7-3.7-2.7-6.6-5.6-10.3-8.7-4.1-5.2v-2.3L913 314l3.6-.8-.1-4.8.4-3.8 1.6-3-4.2-5.1-3 .3 2 3-2.2 4-7.8-4.5-5.8 1.3v6.2l4.9 2.3-5.4 1-4 .4-2.8-2.8-5-.5-1.6 1.8-9.6-.6-8.4 1-2.2 7.5-3.2 9 5.2.5 3.6 2.4 3.7.8.3-1.9 3.5.3 8.1 4.2 3 3.3.9 4 3.5 4.6 3.3 6.3-.6 5.8.8 2.7-1.2 4.7-1.4 4.6-.5 2.3-3 2.4h-2l-3.2-2-2.6 3zM695.2 243.5l-11.4 1.2-.9-3.9 1.4-.3 2 .2 8 1.6zM567 237.2l-2.7.3-1.8.3v.4l-2.3.5-2.9-.7.7-.9h-5l4-.5h3.4l1 .7.7-.7 1.8-.4 3.7.6zm114.3 4.6-4.5.4-7.4-.8-5.2-1-4.1-2.1-3.8-.5 3.4-1.9 4-.5 6 1.2 8.7 2.7z" class="sm_state sm_state_RU" style="-webkit-tap-highlight-color:transparent"/>
    <path d="m534.6 307.9.6.6-1.6 2.2 1.5 3.5-1 1.2h-2.4l-2.8-1.4-1.4-.5-2.4.6V312l-1 .5-2-1.3-.7-2.2 3.5-1 3.5-.5 3.3.5z" class="sm_state sm_state_EE" style="-webkit-tap-highlight-color:transparent"/>
    <path d="m571.6 420 2.5 5.9.5 1-.9 1.6-.4 3-.8 2.2-.7.7-1.3-1.3-1.7-1.8-3-5.8-.3.4 1.8 4.2 2.4 4.1 3.2 6.4 1.4 2.2 1.3 2.3 3.4 4.5-.6.7.2 2.6 4.3 3.7.7.8H542l-.7-15-.8-14.4-1.3-3.3.7-2.5-.6-1.8 1-2h4.6l3.5 1 3.5 1.3 1.6.6 2.5-1.3 1.4-1.1 3-.4 2.4.5 1.2 2 .7-1.3 2.7 1 2.8.2z" class="sm_state sm_state_EG" style="-webkit-tap-highlight-color:transparent"/>
    <path d="m563.6 637.5 1.4 5.7.7 2.9-.9 4.5.3 1.4-1.8-.7-1 .3-.4 1.2-1 1.5-.2 1.4 2 2.2 2-.4 1-1.8h2.5l-1 3-.7 3.3-1 1.9-2.6 2-.7.6-1.6 2.1-1.2 2.1-2.2 3-4.2 4.1-2.6 2.4-2.8 2-3.7 1.5-1.7.2-.6 1.2-2-.7-1.7.8-3.6-.8-2.1.5-1.4-.2-3.7 1.6-3 .7-2.1 1.5-1.6.1-1.3-1.5H518l-1.4-1.9-.2.6-.4-1 .2-2.5-1-2.7 1.2-.8v-3l-2-3.9-1.6-3.4-2.2-5.3 1.7-2 1.3 1.1.5 1.7 1.6.3 2.1.8 1.9-.3 3.2-2.1.6-15 1 .6 1.8 3.9-.3 2.4.7 1.5 2.5-.5 1.8-1.8 1.7-1.2 1-2 1.7-.8 1.5.4 1.5 1.1 2.9.2 2.3-.9.4-1.2.7-2 2-.3 1-1.5 1.3-2.8 3.3-3 5.2-3h1.3l1.8.7 1.2-.5zm-12.9 33.7.7-1.3 2-.6.7-1.4 1.2-2-1-1.2-1.5-1.3-1.7 1-2 1.5-2 2.5 2.4 3.2z" class="sm_state sm_state_ZA" style="-webkit-tap-highlight-color:transparent"/>
    <path d="m183.1 547.5.5 3.1-1 2.6-4 4.3-4.2 1.6-2.1 3.6-.6 2.7-2 1.7-1.5-2-1.5-.5-1.4.3-.2-1.5 1-1-.5-1.6 1.9-3-.8-1.8-1.4 1.9-2.2-1.9.7-1.1-.6-3.7 1.2-.6.7-2.6 1.3-2.6-.2-1.6 2-.9 2.4-1.6 3.6 2.3h.7l.9 1.7 3 .6 1-.7 1.8 1.4z" class="sm_state sm_state_EC" style="-webkit-tap-highlight-color:transparent"/>
    <path d="m505.8 391.4-1 3.2.5 1.2-.6 2.1-2.6-1.5-1.7-.4-4.8-2 .3-2.2 4 .4 3.4-.4zm-21.5-12 2 2.8-.2 5.4-1.5-.3-1.3 1.4-1.3-1.1-.3-4.9-.9-2.3 1.9.2zM498 358l-.2 2 .8 1.7-2.5-.6-2.5 1.4.2 2-.3 1.1 1.2 2 3.2 2 1.8 3.4 3.9 3.3h2.5l1 .8-1 .8 3 1.5 2.6 1.2 3 2.1.4.7-.5 1.5-2-2-3-.5-1.1 2.6 2.4 1.5-.2 2-1.3.3-1.6 3.5-1.4.3v-1.2l.5-2.2.7-.9-1.5-2.3-1.1-2-1.4-.6-1.1-1.7-2.2-.7-1.5-1.7-2.4-.2-2.8-1.8-3-2.7-2.4-2.3-1.2-4-1.7-.4-2.6-1.3-1.5.5-1.8 1.9-1.3.2.3-1.7-1.8-.5-1-3 1.1-1.3-1-1.5.1-1.2 1.4 1 1.6-.3 1.7-1.3.6.6 1.5-.1.6-1.6 2.5.5 1.3-.7.2-1.6 2 .6.3-.8 3-.7.9 1.3z" class="sm_state sm_state_IT" style="-webkit-tap-highlight-color:transparent"/>
    <path d="m834.3 459.3-4.2 3.4-2.3 3.8-.4 2.9 3.4 4.2 4 5.4 3.7 2.5 2.6 3.2 2.5 7.6.3 7.1-2.7 2.7-4 2.7-2.6 3.3-4.2 3.8-1.4-2.6.8-2.8-2.8-2.2 2.9-1.7 3.7-.3-1.8-2.4 5.7-3.2v-4.9l-1.2-2.7.2-4-1.3-2.9-3.1-2.9-2.8-3.5-3.6-4.8-4.6-2.5.7-1.4 2.1-1.1-1.9-3.6h-4.3l-2.2-3.6-2.5-3.3 1.7-1h2.8l3.3-.4 2.6-2.2 2 1.5 3.3.8-.2 2.3 2 1.7z" class="sm_state sm_state_VN" style="-webkit-tap-highlight-color:transparent"/>
    <path d="m1049.9 594 .2.2v.2h.1v.2h-.5l-.2-.4.1-.2zm-24.3-.3h.2l.6.5.3.2.6.4v.2h-.2l-.1.1-.2-.2h-.2v-.3l-.3-.1v-.2h-.4l-.5-.3-.1-.2.1-.3zm23.4-1-.1.2-.2-.1v-.1l.2-.2zm-1.4-2.5v.1h.2v.3H1047.1l-.2.2-.3.3v-.2l-.2.1-.1-.1v-.2h.3v-.2l.2-.3.4.1zm-16.7-1.7h.2l.4.1.3.3.2.2.2.1h.1l.2.2h.5l.1.2h.3l.2-.1v.2l.2.5.2.2v.3l-.1.1v.2l-.2-.1-.2.1h-.2l-.3-.2h-.1l-.4-.2h-.3l-.1-.2-.2-.2h-.2l-.1-.2-.3-.1.2-.3-.1-.2v-.3h-.1l-.4-.2h-.2v-.4zm2.5-2.2v.6l-.2-.1v-.4zm-1.8-1.1.2.5.1.3v.8l-.3-.5v.2l-.3-.3.1-.6v-.4zm-5.3.1h1.5l.1.1h.2l.1.3h.2l.3.3v.4h.2l.2.1V587.1l-.4.2h-.4l-.3-.2h-.2l-.4-.3h-1.3l-.2-.1h-.2l-.2-.2-.2-.1-.2-.5-.1-.3.1-.1v-.8l.4-.2.3.2.2.3v.2zm1.4-1.5.3.3-.2.2-.1-.1v-.1zm0 0-.1.2-.3-.2-.2.1h-.1l-.1-.2h.2l.1-.2h.3zm-4.2-.3h.1l.1.2-.1.2-.3.1-.1-.2zm-5.3-1.2v.4l-.5-.2.3-.2zm2.1.5h-.2v-.3l.3-.2v.5zm-.6-1.1h.4l-.2.2v.4l-.2.2h-.3l-.2-.2v-.4h.2l.1-.3.2-.1zm-2.2 0-.2.1-.1.3.3.4-.4-.2V582l-.3-.2v-.2l.3-.1v-.2l.3-.2.2.1v.3zm8.1-.3.2.2h-.2l-.4-.3.1-.2.2-.1.1.1v.2zm4.1-.5.3.5.4.5v.2l-.3.2v.6h.2l.1.2.4.2v.5l.2.2-.1.1.2.2v.4l-.1.1.1.2.1.3.1.3v.4l-.2-.1-.2-.3v-.2l-.2-.3-.3-.2-.1-.2-.4-.3-.2-.2-.2-.6-.1-.6-.2-.5v-.6l.2-.2v-.2l-.3-.4-.1-.2h.4l.2-.2zm-13-.2-.2-.2-.2-.2h.3zm-.1-.6h.2v.1l.1.4-.2-.3zm2 .1-.1.2h.4l.3.5V581.2l.2.3-.2.1v.2l-.4-.1v-.1h-.3l-.2-.2v-.2l-.1-.1h.2l-.2-.5v-.1h-.4v.1h-.3l-.2.3-.3-.2v-.3l.1-.2h.3v-.2l.2-.4.3-.2.2-.1.2.2.2.2v.5zm-3.8 0-.2-.5v-.4h.2v.7zm2.1-.3-.1.1h-.4l-.1-.2-.2-.4v-.2l.3-.2.3-.2.1.2.2.3v.4zm-1.9-2.2.3.3.4.3v.2l-.4.5v.2h-.2v-.2h-.1v-.3l-.1-.2-.2-.2-.1-.2v-.1l.2-.2.1-.1zm6.6 0 .2.2h-.2l-.3.1V577.7zm.5 0h.2l.3.2h.2l.1.2.2.3h.2l.2.3v.1l.3.1v.2h.4l.3.2v.1h.4l.1.2.2.2.2.2.3.2.6.6-.2.3.2.3v.4l-.1-.1-.2-.3-.4-.5h-.3l-.3-.3h-.4v-.2l-.4-.2-.3-.3h-.2l-.5-.4-.3-.2-.2-.2-.2-.1-.1-.3-.3-.2v-.4l-.3-.3h-.1v-.2zm-1-.3.2.1H1021.6v.2h-.2zm-2.8-.4h.4l-.2.1h-.2zm2.8 0-.2.3v-.1zm-1.7.3h-.4v-.1l.1-.3.2.1zm-8-.6.2.2-.2.1h-.2v-.1zm1-1.2.2.1v.2l-.5.1-.2-.2.2-.3.1-.1zm1-.6v.3-.2zm1.9-1 .2.1.2.3.2.2h.2l.2.2.5.3.3.3V575.9l.2.2.2.1.1.3.5.2H1018.4v.2h-.2l-.1.2-.3-.1-.5-.3h-.4l-.1-.2-.5-.3-.7-1.2-.4-.2-.4-.5v-.4l.2-.1h.2z" class="sm_state sm_state_SB" style="-webkit-tap-highlight-color:transparent"/>
    <path d="M594 487.8h2.4l3.2 1.7 1 1.4 1.6 1.3 1.6 2.4 1.2 1.3-1.2 1.8-1.1 1.9.3 1.1.1 1.3h2l.9-.3.8.8-.7 1.4 1.4 2.3 1.4 2 1.3 1.4 11.9 4.8h3l-9.8 12.2-4.7.2-3.1 2.8h-2.3l-1 1.4h-2.4l-1.5-1.4-3.3 1.7-1 1.7-2.4-.4-.8-.4-.9.1h-1.1l-4.6-3.5h-2.5l-1.2-1.3v-2.3l-2-.7-2.1-4.4-1.7-1-.6-1.6-2-2-2.1-.3 1.2-2.3h1.9l.5-1.3-.1-3.2v-.5l1-4.2 1.6-1.2.3-1.6 1.4-3.2 2.1-2 1.3-4 .4-3.5 4.2 1 1-3.1 2.2 1.8 2-1z" class="sm_state sm_state_ET" style="-webkit-tap-highlight-color:transparent"/>
    <path d="m603.3 553.7-2-3.3-.2-14.8 3.1-4.6 1-1.3 2.2-.1 3.2-2.9 4.6-.1 10-12.3H622l-11.9-4.7-1.4-1.5-1.4-2-1.3-2.2.7-1.4 1.2-2.2 1.2.7.8 1.7 1.7 1.7h1.8l3.3-1 3.8-.5 3.1-1.3 1.8-.2 1.3-.8h2l1.1-.2 1.6-.6 2-.4 1.5-1.4h1.4l.1 1.1-.2 2.4.1 2.1-.7 1.5-.9 4.4-1.5 4.5-2 5.2-3 6-3 4.5-4.2 5.6-3.5 3.3-5.3 4-3.4 3-4 5-.7 2.2z" class="sm_state sm_state_SO" style="-webkit-tap-highlight-color:transparent"/>
    <path d="m563.6 637.5-1.8-.5-1.2.5-1.8-.7h-1.3l-2.2-1.8-2.7-.6-1-2.6v-1.5l-1.4-.4-3.8-4.5-1-2.3-.7-.8-1.3-3.2 4 .4 1.1.5h1.2l2-2.8 3.3-3.3 1.2-.3.6-1.4 2-1.6 2.8-.6.1 1.5h3l1.6.8.7 1 1.7.3 1.8 1.3-.2 5.2-.9 2.8-.2 3 .5 1.2-.6 2.4-.5.4-1 3z" class="sm_state sm_state_ZW" style="-webkit-tap-highlight-color:transparent"/>
    <path d="M166.5 468.3h.2v-.2h.6l.1.2-.1.1h-.4l-.1.1h-.5zm5-1.6-.4.2.2-.2zm.5.1.4-.3-.1.2z" class="sm_state sm_state_KY" style="-webkit-tap-highlight-color:transparent"/>
    <path d="m447.8 370.5 1.2 1.5 6 1.8 1.3-.8 3.6 1.8 3.8-.5.2 2.3-3 2.7-4.3.9-.3 1.3-2 2.2-1.3 3.3 1.3 2.4-2 1.7-.7 2.7-2.5.8-2.4 3.1h-7.4l-2.2 1.4-1.3 1.5-1.7-.3-1.2-1.4-.9-2.2-3-.7-.3-1.4 1.3-1.5.5-1-1.2-1.3 1-2.6-1.2-2.4 1.4-.4.2-2 .5-.5.2-3.2 1.5-1-.8-2-2-.2-.5.5h-2l-.7-2-1.4.6-1.2 1 .3-2.8-1.2-1.7 4.7-3 3.9.7h4.4l3.4.7 2.7-.2z" class="sm_state sm_state_ES" style="-webkit-tap-highlight-color:transparent"/>
    <path d="m607.6 495.3-1 1-1.6-.4-1.2-1.3-1.6-2.4-1.7-1.3-1-1.4-3-1.7H594l-1-.9-2 1-2.2-1.8-1 3-4.2-.9-.4-1.6 1.2-6 .2-2.6 1.1-1.3 2.5-.7 1.8-2.3 2.2 4.7 1.2 3.7 2 2 5.1 3.9 2.1 2.2 2 2.5 1.2 1.3z" class="sm_state sm_state_ER" style="-webkit-tap-highlight-color:transparent"/>
    <path d="m520 372.9-.5.9-.9.4-.2-.8-1.3 2 .4 1.3-.7-.3-1.1-1.4-1.5-.8.4-.6.2-2.2 1-1 .6-.4.9.7.5.6 1.1.4 1.4.9z" class="sm_state sm_state_ME" style="-webkit-tap-highlight-color:transparent"/>
    <path d="m544.6 362.2-.8-1.9v-1.7l-.3-1.7-2.1-2.4-1.3-1.6-1.1-1.2-1-.4.6-.6 2-.4 2.6 1.2 1.3.2 1.6 1.1v1.3l1.2.7.7 1.6 1.3 1-.1.7.6.3-.8.4-2-.2-.3-.5-.7.3.4.7-.7 1.3-.3 1.3z" class="sm_state sm_state_MD" style="-webkit-tap-highlight-color:transparent"/>
    <path d="m632.4 602 .2 5 .8 1.9-.4 2-.8 1-1-2.3-.7 1.2.5 3-.5 1.8-1 .9-.5 3.5-1.7 4.7-2.2 5.6-2.7 7.7-1.8 5.7-2 4.7-3 1-3.1 1.7-2-1-2.6-1.5-.8-2.2v-3.6l-1-3.2v-3l.8-2.9 1.6-.7.2-1.3 1.8-3.1.5-2.6-.7-2-.5-2.5v-3.8l1.3-2.2.7-2.6 1.7-.2 2-.8 1.5-.7 1.5-.1 2.1-2.3 3.1-2.5 1.2-2-.4-1.8 1.5.5 2.1-2.8.2-2.5 1.3-1.8 1.1 1.8.9 1.7z" class="sm_state sm_state_MG" style="-webkit-tap-highlight-color:transparent"/>
    <path d="M230.8 473.5h-.3l.2-.2.1-.1z" class="sm_state sm_state_MF" style="-webkit-tap-highlight-color:transparent"/>
    <path d="m446.6 403.8 1.2 2.6.2 2.5 1.2 4.3 1 .9-.7 1.6-4.5.7-1.6 1.4-2 .4-.2 3-4 1.6-1.4 2-2.8 1.1-3.4.7-5.7 3v4.8h-.6v2.2l-2 .1-1.2 1h-1.6l-1.3-.6-2.9.4-1.2 3.2-1.1.3-1.8 5.1-5 4.4-1.2 5.7-1.5 1.8-.5 1.4-8 .4.2-2 1.4-1 1.2-2.2-.2-1.4 1.3-2.8 2-2.6 1.2-.6 1-2.4.2-2.2 1.3-2.5 2.4-1.5 2.3-4.1 1.9-1.7 3.2-.4 2.8-2.8 1.8-1 3-3.5-.8-5 1.4-3.6.6-2.1 2.2-2.7 3.5-1.9 2.6-1.7 2.3-4.2 1.1-2.5h2.5l2 1.8 3.2-.3 3.5 1z" class="sm_state sm_state_MA" style="-webkit-tap-highlight-color:transparent"/>
    <path d="m686.1 375.1 1 .4-1.8 2.6 2.9 1.5 2-1 4.6 2.1-3.4 3-2.6-.4h-1.3l-.8-1 .1-2-4.1 1-.3 2.6-1 2.2-2.8-.2-.4 1.8 2.7 1 1.5 3-.8 4.1-2.7-.9h-2l-.4-2.4-5-1.8-3.9-2-2.7-1.9-4.5-2.8-2.7-4.1-1.3-.8-3.5.2-1.5-.8-1.2-3.2-5-2.2-2.1 2.4-2.4 1.4 1 2H638l-4-14.8 7.7-2.3.7.3 5.8 2.9 3 1.5 4.2 3.6 3.6-.6 5.5-.3 4.8 3 1 4h1.6l1.6 3.3 4.2.2 1.5 1.9h1.3l.5-3 3.5-2.7z" class="sm_state sm_state_UZ" style="-webkit-tap-highlight-color:transparent"/>
    <path d="m810.1 459.7-2.6 2.7-.5 1.4-1.9 1-1.8 1.7-2.4.2-1 4.4-1.4.8 2.2 3.5 2.6 3 1.9 2.7-1 3.5-1 .8 1 2 2.8 3.2.6 2.3.2 2 1.7 3.6-1.7 3.8-1.4 4.2-.5-3 .8-3.1-1.4-2.4-.1-4.5-1.7-2.1-1.7-4.8-1.3-5.2-2-3.4-2 2.1-3.6 2.9-2.1-.4-2.3-1 .6-5-1.3-3.8-3.4-4.7.2-1.4-2.1-.6-3-3.3-.6-3.3 1.3.6-.4-2.9 1.6-1-.6-1.6.6-1.4-.6-4.3 3 1 1-3.4-.2-2 1.2-3.4-.5-2.3 3.9-2.8 2.7.7-1-2.5 1.1-.7-.6-1.6 2-.3 1.7 2.4 1.7 1 .8 3 .6 3.4-2.7 3.5.5 4.8 3.5-.7 1.5 3.7 2.4.9-.5 3.3 2.8 1.5 1.7.8 2.4-1.2z" class="sm_state sm_state_MM" style="-webkit-tap-highlight-color:transparent"/>
    <path d="m469 469 .1 9.3-2 2.8-.2 2.5-3.2.6-4.9.3-1.2 1.5-2.3.2H453l-.9-.8-2 .6-3.3 1.7-.7 1.3-2.7 1.7-.5 1.1-1.5.9-1.8-.6-.9 1-.6 2.8-2.8 3.3.1 1.4-1 1.7.2 2.4-1.5.6-.8.5-.6-1.7-1 .5-.6-.1-.7 1.1h-2.7l-1-.6-.5.4-1-1.2.1-1.2-.4-.5-.8.4.2-1.3.7-1-1.5-1.7-.3-1.2-.9-.9h-.7l-.8.5-1.2.5-1 1-1.5-.4-1-1-.5-.2-1 .6h-.6l-.2-1.5.2-1.3-.3-1.5-1.3-1.2-.7-2.3v-2.5l1.1-.8.7-2.4h1.1l2.5 1 2-.8 1.3.3.6-.9h14.3l.8-3-.7-.4-1.5-17.6-1.6-17.5h5.4l11.8 8.8 11.9 8.9.8 1.9 2.2 1.1 1.7.7v2.6z" class="sm_state sm_state_ML" style="-webkit-tap-highlight-color:transparent"/>
    <path d="m777 344 2.6-.8 3.6-.5 3.4.5 4.2 1.9 3 2h3l4.3.6 2.3-1 3.7-.6 2.8-2.8 2.2.4 2.4 1.4 3.6-.4.4 3 .2 4 1.7 1.5 1.5-.5 3.5.7 1.6-1.5 3.3 1.3 4.5 2.8.5 1.4-2.8-.5-4.3.5-1.6 1.2-.8 2.6-4 1.6-2 2.1-3.8-.8-2-.4-.3 2.6 1.8 1.5 1.2 1.4-1.5 1.3-1.3 2.2-3 1.4-5 .1-4.5 1.4-2.8 2.2-2-1.2h-4l-6-2.5-3.5-.6-4 .6-7.2-1-3.6.2-3-2.4-3.1-3.7-2.2-.5-5-2.5-4.6-.5-4.1-.7-2-1.8-.8-4.6-3.7-3.2-5.2-1.5-3.6-2-2-2.9 3-.7 4.2-3.3 3.7-1.9 3.4 1.2 3.2.1 3 1.8 3.3.2 5 1 1.5-2.8-2.5-2.3.8-4 4.5 1.5 3 .6 4.3 1 2.2 2.9z" class="sm_state sm_state_MN" style="-webkit-tap-highlight-color:transparent"/>
    <path d="m1067 517.9.6.2z" class="sm_state sm_state_MH" style="-webkit-tap-highlight-color:transparent"/>
    <path d="m529.5 378.8-.7.2-.5.7-1.8-.1-1.1.9-2.2.3-1.4-1-.7-1.7.4-1.4.4.1v-.8l2-.6.7-.2 1-.2 1.6-.2 1.7 1.4z" class="sm_state sm_state_MK" style="-webkit-tap-highlight-color:transparent"/>
    <path d="m657.6 628.6.2.6v.4l-.3.3v.1l-.2.2-.3.2h-.3l-.4-.1-.2-.1v-.2l.1-.2.1-.5.1-.2.4-.3.1-.4.3-.2h.3zm20.1-1.3-.2-.2.3-.1H678.1v.1z" class="sm_state sm_state_MU" style="-webkit-tap-highlight-color:transparent"/>
    <path d="M503 401v.3l-.4-.1-.3-.2v-.4h.3l.3.2.1.1zm-1-.6h-.3v-.2h.3l.3.1z" class="sm_state sm_state_MT" style="-webkit-tap-highlight-color:transparent"/>
    <path d="M578.1 602h.3l1.2 1.4 1.4 3v5.2l-1.6.8-1.2 2.9-2.2-2.6-.1-2.8.8-2-.1-1.6-1.4-1-1 .4-2-2-1.8-1 1.2-3.8 1.2-1.4-.6-3.4.8-3.3.7-1-.8-3.5-1.7-1.8 3.5.7.6 1.1v.5l1.1 2.6.1 4.9-1.1 2.3 1 3-.1 1.7.7 1.2v1.6l.5.8.7-1 1.2 1.6.1-.5-.6-2.1-.7-.2z" class="sm_state sm_state_MW" style="-webkit-tap-highlight-color:transparent"/>
    <path d="M718 529.8v.1h-.2l.1-.2z" class="sm_state sm_state_MV" style="-webkit-tap-highlight-color:transparent"/>
    <path d="M237 486.8h.2v.5l.2.2.1.6-.2.2v-.3h-.8v-.2l.3-.3h-.3l-.2-.2v-.3l-.2-.4.2-.2h.2l.4.2z" class="sm_state sm_state_MQ" style="-webkit-tap-highlight-color:transparent"/>
    <path d="M971.1 489.4h-.2v-.1l.3-.1h.1zm1-3.2h-.1l-.2-.4v-.2h.2v.2l.1.1zm.3-1-.1.1v.2h-.2v-.5l.3-.2v.3zm-1.2-4.8h-.2v-.1h.2zm-1.2-7v-.4h.1l.1.1zm-.8-2.7h-.2v-.2h.2z" class="sm_state sm_state_MP" style="-webkit-tap-highlight-color:transparent"/>
    <path d="m233.3 478.5.1.3v.2h-.2v-.2z" class="sm_state sm_state_MS" style="-webkit-tap-highlight-color:transparent"/>
    <path d="M436.7 445.3h-5.4L433 463l1.5 17.6.7.5-.8 2.8-14.3.1-.6.9-1.3-.3-2 .9-2.5-1.2h-1.1l-.7 2.5-1.2.8-2.3-2.8-2.1-3-2.3-1.1-1.7-1.2h-2l-1.7.9-1.8-.3-1.2 1.2-.3-2.1 1-2 .5-3.8-.2-4-.4-2.1.4-2-.9-2-1.8-1.7.9-1.4h13.7l-.6-5.8 1-2.1 3.3-.4.1-10.4 11.4.2.1-6.2z" class="sm_state sm_state_MR" style="-webkit-tap-highlight-color:transparent"/>
    <path d="m576 529.6 1.7 2.9.5 2 1.6 4.7-1.3 3-1.8 2.6-1 1.7v.1l-.1-.2-2-.8-1.4 1-2.3.6-1.7 2.3.2 1.6h-4l-1.2.4-2.1 1.3-1-.5.1-3 .9-1.6.2-3.2.7-2 1.4-2 1.3-1.1 1.2-1.4-1.4-.6.2-4.8 1.4-1.1 2.3 1 2.9-1h2.5z" class="sm_state sm_state_UG" style="-webkit-tap-highlight-color:transparent"/>
    <path d="m820.2 521.6.9.4 2.2 2.5 1.6 2.7.4 2.7-.4 1.8.4 1.4.3 2.5 1.4 1 1.4 3.7v1.3l-2.5.4-3.5-3-4.3-3.3-.5-2.1-2.2-2.7-.6-3.4-1.4-2.2.3-3-1-1.7.6-.7 3 1.8.5 2 2.3-.4zm56.9 8.5-3.2-.7h-4l-1.2 4.6-1.3 1.4-1.6 5.7-3 .9-3.4-1.2-1.7.4-2 2-2.4-.2-2.3.8-2.5-2.4-.6-2.7 2.6 1.4 2.8-.7.6-3.5 1.5-.7 4.3-1 2.4-3.1 1.7-2.6 1.8 2.1.7-1.4 1.7.1v-2.6l.1-2 2.6-2.8 1.6-3.1 1.5-.1 2 2 .2 1.9 2.4 1.1 3 1.2v1.6l-2.5.2.7 2z" class="sm_state sm_state_MY" style="-webkit-tap-highlight-color:transparent"/>
    <path d="m113.6 441.8 1.4-.2-2 3.7-1.2 2.9-1.1 5.4-.7 2 .3 2.2.8 2 .2 3.1 2 3 .4 2.4 1.1 2 3.6 1 1.2 1.8 3.3-1.2 2.8-.3 2.7-.8 2.3-.7 2.5-1.7 1.1-2.3.8-3.4.8-1.2 2.5-1.1 3.9-1 3 .2 2.2-.3.8.8-.4 2-2.2 2.4-1.2 2.5.6.7-.8 1.8-1.3 3.1-.7-1h-1.4l-1.6 2.6-.6-.6-.4.2-.1.7h-6.6l-.3 2.2h-1.6l1.1 1.4 1.3 1 .3.8.5.3-.3 1.4h-4.5l-2.1 3.3.4.7-.5 1-.2 1.2-3.6-4.4-1.6-1.3-2.8-1.1-2 .3-3.1 1.5-1.8.4-2.4-1-2.6-.8-3-1.9-2.6-.5-3.8-2-2.7-1.9-.7-1-2-.3-3.4-1.3-1.2-1.8-3.4-2.4-1.4-2.5-.5-2 1.2-.4-.2-1.2 1-1 .3-1.4-1-1.9v-1.6l-.8-2-2.4-4.1-3-3.2-1.1-2.5-2.6-1.7-.5-1 1.1-2.4-1.5-1-1.6-2-.1-2.8-1.8-.4-1.4-2-1.1-2.1.2-1.3-1-3-.2-3.1.5-1.6-2-1.6-1.1.1-1.6-1-1.1 1.6v2l-.7 3 .6 1.7 1.8 2.8.3 1 .4.2v1.4h.7v2.6l.8 1 .3 1.5 1.8 2 .2 3.8.6 1.8.6 1.9-.2 2.1 1.7.2 1 1.8 1 1.8-.3.8-1.7 1.5h-.7l-.4-2.5-1.8-2.4-2.2-2-1.6-1 .8-3v-2.1l-1.4-1.3-2-1.8-.5.5-.7-1-1.9-1-1.4-2.4.3-.3 1.4.2 1.7-1.5.6-1.8-1.8-3-1.7-1-.5-2.5-.4-2.8-.5-3.2v-3.7l3.9-.3 4.5-.4-.6.8 4.5 2 6.9 2.8h9.5l.5-1.7h6l.8 1.4 1.4 1.4 1.5 1.8.5 2 .2 2.3 1.5 1.2 2.5 1.2 3-3.1 3-.2 2 1.7 1 2.8.5 2.4 1.6 2.3v2.8l.7 2 2.4 1.2z" class="sm_state sm_state_MX" style="-webkit-tap-highlight-color:transparent"/>
    <path d="m576 411.5.3 1.7-.3.6-.4 1.3-1.3-.5-.5 2.6 1 .5-.9.6v1l1.6-.5.2 1.6-1.1 6.5-.5-1-2.4-6 .8-1.3-.2-.3.7-1.9.4-3 .3-1.1h1.2l.3-.7z" class="sm_state sm_state_IL" style="-webkit-tap-highlight-color:transparent"/>
    <path d="m485.2 375.6-1 3-1.5-.8-.8-2.6.6-1.6 2-1.5zM471.7 346l.7.4.9-.1 1.5 1 4.6.8-1.5 2.6-.3 2.9-.8.7-1.5-.4.2 1-2.3 2.2v1.9l1.5-.7 1.1 1.8v1l1 1.6-1.2 1.2 1 3.1 1.8.5-.4 1.7-2.8 2.3-6.5-1-4.7 1.3-.3 2.4-3.8.5-3.7-1.8-1.2.8-6-1.8-1.2-1.5 1.7-2.4.6-8-3.2-4.2-2.4-2-4.8-1.5-.2-3 4-.8 5.3 1-1-4.5 3 1.7 7.3-3 1-3.2 2.6-.9.5 1.4 1.4.1 1.5 1.6 2.2 1.8 1.6-.3z" class="sm_state sm_state_FR" style="-webkit-tap-highlight-color:transparent"/>
    <path d="m528.6 273.3.2 2.4 4.6 2.4-1.8 2.6 4.1 4-1 3 3 2.7-.5 2.4 4.7 2.5-.6 1.9-2.2 2.1-5 4.7-5.1.3-4.8 1.3-4.5.9-2-2-3-1.3v-3.6l-1.9-3.3 1-2.2 2.1-2.2 5.6-4 1.7-.7-.6-1.5-4.1-1.7-1.2-1.4-1.1-5.3-4.6-2.4-3.8-1.7 1.4-.9 3.3 1.8 3.3-.1 3 .8 2.2-1.5.7-2.6 3.7-1.1 3.7 1.3z" class="sm_state sm_state_FI" style="-webkit-tap-highlight-color:transparent"/>
    <path d="M1089.4 625h-.2v-.3zm-4.8-1.1.2.1h.2v.3l-.4.1-.3-.2-.3.2h-.2l-.1.2v.2h-.8l.2-.1v-.1l.2-.1h.3l.2-.2v-.2h.4l.3-.2zm.6 0h-.2v-.2zm3.8-4v.4l-.1.4v-.2l-.1-.2h-.2l.1-.3.1-.1zm-1.7-.8-.1-.3.1-.1h.3v.2l-.2.1zm-1.4-1.6v.2l.1.2.1.2.2.2h.2v.3h.2v.2l-.2.3.1.2v.3l-.1.1v.3h.1v.3l-.1.2-.4.2v-.2l-.3.1v.1l-.2-.2-.5.2-.5.5h-1.2l-.8-.3-.4-.1-.4-.2-.1-.6.2-.5H1082.2l.1-.4h.2v-.4l.3-.3.3-.3.4-.2h.1l.6-.3.4.1h.2l.3-.1.4-.1.2-.2zm4 .1h-.1l.1-.5h.3l-.1.3zm-7.2-1.2-.1.1-.4.2v-.2l.3-.2zm9.4-.3-.1-.1v-.2l.4-.3.2-.3-.2.7zm.7-3.2-.3.3-.5.7h-.2l-.4.3-.2.4-.2.1-.1.2-.1.1h.2l.4-.1.2-.3.1-.1.4-.2.2-.2.4-.2v.2l-.3.4h-.1v.5l-.2.2-.2-.2h-.5l-.3.2h-1.1l.4-.2-.3-.2-.4.2h-.2v.2h-.2l-.2.1v.3l-.1.2h-.2v-.2h-.5l-.2.4-.2.1h-.1v-.4l-.2-.3v-.1h-.4v-.2l.3-.2v-.3h.2l.3.1.4-.2h.1l.2-.2h.1l.2-.2v-.2h.5l.6-.2h.4l.4-.1v-.3h.2l.1-.2h.3v-.1h.2l.6-.3v.2H1092.7l.2-.2h.4l-.3.2z" class="sm_state sm_state_FJ" style="-webkit-tap-highlight-color:transparent"/>
    <path d="M270.8 758.8h.3v.2l-.5-.2.2-.2zm-.4-.9.1.1.3.1v.3h-.2v-.2l-.2-.2zm4-.5v.3h-.2l-.1-.2.2-.1zm-7.8-.6v.2l.1.2h-.4l-.2-.2h-.1l-.1-.3h.1v-.1h.3l-.1.2h.2l.2-.1zm1.9-.8-.3-.1-.3-.2-.5-.2v-.2l-.4-.1h-.2l-.2-.3h.2l.5.1.5.3h.6l.1-.1.1-.2h.8v.3h.2l.5-.2.1.2h.2l.2-.1-.2-.1v-.2h.2l.4.1v.3l-.2.3v.2h-.3l-.2.6-.2.2-.2.4v.2l-.3.2-.1-.2h-.3v.2h-.5l.2.3h-.1l-.1.3h-.3l-.2.2-.2.1-.2-.2-.3-.2v-.1h-.3l.4.2h-.3l-.3-.1-.1-.1-.3-.1-.1-.2h.8l-.3-.2h-.1.8l.2.1v-.1h.3v-.3h-.2l-.1-.4v-.1h.8v-.2h-.6l-.2.2h-.4l-.3-.2v-.2l.4.1.4-.1h.7zm1-1.2h.2l.2.2h-.4zm-.6 0h-.2v-.2h.2zm-1-.1h.5v.1l-.1.3H268l-.2-.2h.4l-.3-.1zm4.6 0h1.1l.2.2V755.2h-.2l-.2-.1h-.1v.1l.1.3.2-.2h.1l.1.3.2.1.4.1v-.2l-.5-.1.1-.4h.2l1-.2.4.4h.1v.3h-.4l-.3-.1h-.4l.2.2h.3l.5.1.2.1.1.1-.1.3h-.3l-.1.1h-.5l-.3.2.2.1-.5.3h-1.1l-.3-.2-.4-.2v.2l.2.1.3.1.2.2h.4l.3.2h-.2l.2.4h-.2l-.1-.2h-.3l-.3.2-.1-.2-.2-.1h-.2l-.3-.1h-.2l.2.3h.2v.1l.4.4-.1.1-.3-.1h-.2l-.2-.2-.3-.1-.1.3.3.1V758.6h-.3v-.2l-.4-.1v-.1h-.2l-.2-.3.2-.3v-.1l-.3-.3v-.2h.3v-.2h.3v-.3l.3-.2.4-.2.2.3v.3l.2-.1-.3-.4v-.2l-.3-.1-.3-.2v-.1l.3.1.1-.3-.4-.1v-.2h.5l.2-.3-.2-.2h.2zm-3.1-.2h.4l.1.1.2-.1h.1l.1.3h-.4l-.2-.2h-.5v-.2zm-4.3-.7h-.4l.1-.2z" class="sm_state sm_state_FK" style="-webkit-tap-highlight-color:transparent"/>
    <path d="m1038.9 525.3-.1.2h-.3v-.2l.3-.3zm-17.9-6.7h.3l.2.1V519.3h-.5l-.1-.2-.1-.3v-.2zM948.3 508l.1.1h-.2l-.2.4v-.1l.2-.5h.2z" class="sm_state sm_state_FM" style="-webkit-tap-highlight-color:transparent"/>
    <path d="m434.4 299.9.3.1h.2v.4l.2.2v.1l-.5-.2v-.3l-.2-.1-.1-.2zm.2-1h.5l.2.2v.3h-.2l-.2-.3h-.3l-.2-.3zm-.8-1v.2h.3v.2h-.3l-.1.1-.4-.1h-.1l-.1-.3h.7l-.2-.1.2-.6.3.1.2.3.3.2.2.3.2.2v.3l-.4-.2v-.1l-.2-.1v-.1l-.2-.2h-.3zm2.4-.3-.2-.1.2-.2zm-1.6.3-.2-.1-.2-.2v-.2l.2-.1h.2l.4.2v.2l.4.2v.1l-.3.2zm1.4-.4-.2.3-.1-.1h-.2v-.5l.2.2zm-.5 0h-.2v-.4l.1.2z" class="sm_state sm_state_FO" style="-webkit-tap-highlight-color:transparent"/>
    <path d="m158.2 485.9-.4.4-.3.9.3 1.5-1 1.4-.5 1.6-.3 1.8.1 1v1.9l-.6.4-.4 1.7v1.1l-.7 1v1.1l.6.7-.9.9-1-.3-.6-.8-1.1-.4-.8.5-2.3-1-.6.5-1.1-1.3-1.6-1.6-.7-1.4-1.4-1.3-1.6-1.8.4-.7.6.7.3-.3 1.1-.2.5-1h.5l.2-2h1.5l1-1.1.9.8.4-.5.7-.5 1.3-1 .2-1 .3.1.6-1h.3l.6.6h.7l.8-.4h1l1.2-.5.6-.6z" class="sm_state sm_state_NI" style="-webkit-tap-highlight-color:transparent"/>
    <path d="m473 341.1-1.7-1-2-1.6-2.8.8-2.3-.3 1.6-1 2.5-5.8 4.1-1.6h2.6l.5 1.4-.5 3.6-.8 1.4h-1.8z" class="sm_state sm_state_NL" style="-webkit-tap-highlight-color:transparent"/>
    <path d="m534.6 271.7-4 1.3-2 .3.5-2.4-3.7-1.3-3.8 1.1-.6 2.6-2.2 1.5-3-.8h-3.3l-3.3-1.7-1.4.9-1.6.1v2.3l-5-.6-.4 2h-2.5l-1.5 2.5-2.1 3.8-3.7 5 1.2 1.3-.8 1.4h-2.8l-1.5 3.4.6 4.8 2 1.9-.5 4.4-2.2 2.5-1 2.1-2.2-2.2-5.4 4.3-3.9.9-4.1-2-1.2-4-1.2-8.5 2.5-2.3 7.2-3.1 5.1-3.8 4.6-5 5.6-6.7 4-2.6 6.6-4.3 5.4-1.5 4.2.2 3.3-2.8 4.7.1 4.4-.6 8.7 2.4-3 1zm-23.5-26.8-4.8 1.2-4.3-.7 1.4-.8-1.6-1 4.6-.5 1.2 1zm-16.2-5.4 8 2.1-5.5 1.2-.7 2.1-2 .6-.5 2.5-2.8.2-5.4-1.9 2-1-3.7-1-4.9-2.4-2-2.2 6-1 1.4 1h3.1l.7-1 3.3-.2zm15.5-2 4.7 1-2.8 1.6-6.4.3-6.8-.5-.6-.8h-3.3l-2.7-1.3 6.7-.7 3.4.6 2-.8z" class="sm_state sm_state_NO" style="-webkit-tap-highlight-color:transparent"/>
    <path d="m536.2 618.2 3-.9 2.2.2 1.4 1v.3l-2 1h-1l-2.4 1.5-1.3-1.7-5.5 1.4-2.7.2-.5 14.5-3.5.1-.3 11.9-.7 15-3.2 2-1.8.4-2.2-.8-1.6-.3-.5-1.7-1.3-1.1-1.7 2-2.5-3.1-1.3-3-.6-4-.8-2.8-1-6.3V639l-.3-2.2-1.3-1.7-1.8-3.4-1.8-4.9-.7-2.5-2.8-4-.2-3.1 1.8-.8 2.1-.7 2.3.2 2 1.8.6-.3 14.4-.1 2.4 1.9 8.5.5z" class="sm_state sm_state_NA" style="-webkit-tap-highlight-color:transparent"/>
    <path d="m1053.1 629.3-.3-.1.1-.3h.3l.2.2-.1.1zm-.8-2.4h-.3l-.2-.4v-.6l.1-.3h.4v.4l.4.4-.2.2zm0-3.8h.2v.2h-.2v.2l.3.1v.5h-.3l-.2-.1h-.3v-.2l-.3-.1v-.4l.2-.4.2-.2h.4v.3zm-1.9-4.8h.4l.2.4.1.2h.1l-.3.4-.5.2-.2-.2v-.3l-.2-.1-.3.2.1-.3.3-.2.2-.3zm1.5-2.5v-.1h.1zm-1-1.5v.5h.3l.1.3h.3v.3l-.2-.1h-.8v-.2l-.1-.2.1-.3.2-.2zm.6-.1h-.1v-.2zm0-.9v.1h-.4l-.2.1-.1-.1h-.3l-.3-.3v-.2l.4-.1h.2l.3-.2v-.2h.2v.5l.3.3zm-2.9-.8.1.2.4.2.5.5v.3l.1.2-.1.1-.3.3v-.2H1048.7v.2h-.4V612.5l-.5.2v-.1l-.2-.2v-.2l.2-.2v-.3l.1-.2h.2l.4.2v.5zm-.4-1.5h-.2l-.3-.2.1-.3h.5v.3zm-.3-.7.3-.2V610.4h-.2zm3.6 1.7h-.1v-1.4l.2-.5.1-.3.1.4v1.6zm-.8-2.1h-.6v-.2l.5-.4.3-.2h.4l-.2.3-.2.2zm1.2-.5v.2h-.2v-.2l.2-.8v-.9l.2.1v1.3zm-4 1-.6-.1-.3.2h-.2l-.1-.3h-.1l-.3-.7.3-.5v-1.3l-.2-.2v-.3l.2-.2v-.2l.1-.1v-.2h.2v.3l.2.2.1.2v1.4h.4l.2-.2.1-.5v-.2h.4v.8h.1v.4h-.1l.2.3-.2.1v.3l.2.4h-.3zm2.7-6 .2.2v.3l-.2.2-.2.1h-.3v-.5l.1-.2zm.3-1.2-.1.2h-.2v.2h-.1v-.2l-.1-.1v-.4l.1-.1.3-.1v.4zm-3.1-2.6v-.4l.1.1z" class="sm_state sm_state_VU" style="-webkit-tap-highlight-color:transparent"/>
    <path d="M1042.6 638.9h-.1l-.2.3-.2-.2.1-.3v-.1h.3zm2.8-5v.3h.2l.3-.1v.4l-.2.1v.3l-.4.1h-.2v-.1l-.2-.2v-.8h.2zm-1.7-2.7-.1.3v.3l-.2.1.2.2h.1l.1.2.1.3h-.1l-.1.4H1043.4l-.2-.2v-.1h-.4l-.2-.4V632h.1l.2-.1.3-.2v-.2l-.2-.1h-.3l.2-.2H1043.2l.2-.2zm-2.2-1-.2.3v.2h.2l-.4.4h-.1l.1-.3.2-.3zm0 0-.1-.3h.2l.1.3zm-8.8-1.6.1.1.4.6.1.2h.2l.2-.3.5.3.2.4.5.3.2.3v.2l.3.2v.2h.2l.2.1.5.2v.4l.3.3h.2l-.2.3.1.2.3.3.3.3v.3h.4l.2.4h.2l.2.1.3.3v.2h.1l.3.3.4.2v.2h.2l.1.2v.2l.2.3.3.3.3.3h.3l.2.3v.5h.1v.4l-.5.3v-.2h-.3l-.2.2-.4-.5h-.2v-.1h-.2l-.1.2-.6-.6h-.1l-.3-.3v-.5h-.4l-.1-.1-.1-.2H1037.3v-.2l-.2-.3h-.2l-.5-.3V634.8l-.3.1-.3-.2-.1-.2-.3-.2v-.3h-.4l.1-.2-.2-.2h-.2l-.1-.5v-.3l-.2-.2h-.2v-.5l-.5-.2-.2-.1-.2-.4.2-.2h-.2v-.6l-.4-.2v-.4l-.1-.1h.2v-.4h-.4l-.1-.2.3-.4-.2-.2zm.7.2h-.2v-.3zm-1.4-1.5-.2.1V627.1z" class="sm_state sm_state_NC" style="-webkit-tap-highlight-color:transparent"/>
    <path d="m506 453.9 1 6.3 1.5 1v1.4l1.6 1.3-.8 1.8-1.1 8.3-.2 5.3-4.4 3.8-1.5 5.4 1.6 1.5v2.6h2.3l-.4 2-1 .2v1.3l-.7.1-2.5-4.4-.9-.2-2.7 2.3-2.8-1.2-1.9-.2-1 .5h-2l-2.2 1.6-1.8.1-4.3-2-1.7.9h-1.9L477 492l-3.5-1.5-3.9.5-.9.8-.5 2.4-1 1.6-.3 3.7-2.7-2.3h-1.3l-1.2 1.2.1-2.8-4.1-1-.1-2-2-2.6-.5-1.8.3-2 2.3-.2 1.2-1.5 5-.3 3.1-.6.3-2.5 2-2.8-.1-9.3 4.9-1.8 10.1-8 12-7.8 5.5 1.8 2 2.2z" class="sm_state sm_state_NE" style="-webkit-tap-highlight-color:transparent"/>
    <path d="m504.5 496.1 1.5 1.6-.4.8-.2 1.3-3 3.2-.8 2.6-.5 2-.8 1-.7 2.9-1.9 1.6-.5 2-.8 1.7-.4 1.7-2.4 1.4-2-1.7h-1.4l-2.1 2.5h-1l-1.8 3.9-.8 3-3.8 1.4-1.3-.2-1.4.9-2.9-.1-2-2.6-1.1-3-2.6-2.6h-5.8l.2-6.5-.1-2.6.7-2.5 1-1.3 1.8-2.5-.4-1.1.7-1.7-.8-2.4.1-1.3.3-3.7 1-1.6.5-2.4.9-.8 3.9-.5 3.5 1.5 1.3 1.5 1.9.1 1.7-1 4.3 2.1h1.8l2.1-1.8 2.1.1 1-.5 2 .2 2.7 1.2 2.7-2.3 1 .2 2.4 4.4z" class="sm_state sm_state_NG" style="-webkit-tap-highlight-color:transparent"/>
    <path d="m1024.2 713.3-.5 1.7 3.5-1.7-.3 1.7-1.3 1.7-2.7 1.9-4.5 3-3 1.6-.3 1.9h-2.6l-4 1.6-3 2.6-5.1 4-4 1.8-2.6 1.2-2.9-.1-1-1.3-3.2-.3.7-1.5 4.1-3 7.2-4 2.8-.7 3.5-1.5 4.4-2.1 3.6-2 3.8-3 2-1 2.2-2.4 3.7-1.8zm18.4-19.3-.3 4.3 1.9-2.8.8 1.1-1.5 3 1.8 1.4 2 .3 3-1.5 1.4.5-3.3 3.6-2.7 2.3h-2.4l-1.8 1.2-1 1.7-1 .7-2.9 2.2-3.7 2.8-3.8 1.6.3-1-1-.6 4.4-3.3.6-2.3-2.4-1.6 1.1-1.5 3.4-1.3 2.6-3.2 1.6-2.6.4-2.7.5-.7-.6-1.7-.4-3.6.3-3 1.3-.2.6 2.3 2 1z" class="sm_state sm_state_NZ" style="-webkit-tap-highlight-color:transparent"/>
    <path d="M210.4 498h-.1l-.1-.3v-.4h-.3l-.2-.3.1-.2.8.4v.4l-.2.1z" class="sm_state sm_state_BQBO" style="-webkit-tap-highlight-color:transparent"/>
    <path d="m759.8 433.5.1 1.7 1 2.6v1.6h-3l-4.4-.9-2.7-.3-2.4-2-4.9-.6-5-2.3-3.6-2-3.7-1.5.6-3.8 1.8-2 1.2-.9 3 1.3 4 2.7 2.2.5 1.5 2 2.9.8 3.2 1.8 4 .9z" class="sm_state sm_state_NP" style="-webkit-tap-highlight-color:transparent"/>
    <path d="M1053.8 549.1h-.1v-.2h.1z" class="sm_state sm_state_NR" style="-webkit-tap-highlight-color:transparent"/>
    <path d="m524.6 375.2-.8.2-1.8.6v.8h-.5l-.4-1.5-.8-.4-.8-1.1.5-1 .8-.2.3-1.3.6-.2.5.5.6.3.5.6.6.2.7.8.4-.1-.2 1-.4.5z" class="sm_state sm_state_XK" style="-webkit-tap-highlight-color:transparent"/>
    <path d="m434.6 504.7 1.6.9.7 1.4 1.5.8 1.3-1 1.7-.1 2.4 1 1 5.8-1.5 3.4-1 4.6 1.5 3.5-.1 1.6h-1.6l-2.5-.7h-2.4l-4.2.7-2.5 1.2-3.5 1.5-.7-.1.2-3.4.4-.5-.1-1.6-1.5-1.7-1.2-.3-1-1 .8-2-.3-1.9v-1.1h.6l.3-1.8-.3-.8.4-.6 1.3-.4-.9-3.3-.8-1.7.3-1.4.7-.3.5-.4 1 .7h2.7l.7-1.2h.6l1-.4.6 1.7.8-.5z" class="sm_state sm_state_CI" style="-webkit-tap-highlight-color:transparent"/>
    <path d="m484.4 354 .1.8-.4 1 1.4.7h1.7l-.2 1.7-1.3.7-2.5-.5-.6 1.6h-1.5l-.6-.6-1.7 1.4-1.6.2-1.4-.9-1.1-1.7-1.5.7v-1.9l2.3-2.2-.2-1 1.5.4.8-.7h2.7l.6-.8z" class="sm_state sm_state_CH" style="-webkit-tap-highlight-color:transparent"/>
    <path d="m199.2 499-2.3.7-1 2-1.5 1.2-1.1 1.5-.6 2.9-1.1 2.4 1.8.3.4 1.8.7 1 .2 1.5-.4 1.5v1l1 .3.7 1.3 4.6-.3 2.1.5 2.4 3.5 1.5-.4 2.6.2 2-.5 1.3.7-.8 2.2-.8 1.4-.4 2.9.7 2.7 1 1.2v.9l-1.8 2 1.3 1 1 1.4 1 4-.7.5-.7-2.4-1-1.3-1.2 1.5-7-.2v2.6l2.1.4v1.6l-.8-.5-2 .7v3l1.6 1.5.5 2.3v1.7l-1.4 11.2-1.9-2.2h-1l2.2-4.2-2.8-2-2.2.5-1.3-.7-2 1-2.6-.5-2.2-4.3-1.7-1-1.1-2-2.4-1.8-1 .3-1.5-1-1.8-1.3-1 .7-3-.6-1-1.8-.6.1-3.6-2.3-.4-1.2 1.3-.4-.1-2 .9-1.5 1.8-.3 1.5-2.5 1.4-2.2-1.2-1 .7-2.3-.7-3.7.9-1-.5-3.5-1.4-2.2.6-2 1.1.3.7-1.2-.7-2.4.5-.5h1.8l2.9-2.8 1.5-.4v-1.3l1-3.5 2-1.9h2.3l.4-1 2.8.4 2.9-2 1.5-1 1.8-1.9 1.3.3.8 1z" class="sm_state sm_state_CO" style="-webkit-tap-highlight-color:transparent"/>
    <path d="m844.2 471-2.7 1.9-3.1-1.3-.7-3.5 1.4-1.8 3.7-1.1h2.1l1 1.6-1.3 1.8zM859 346.4l5.7 2.8 3.8 3.7h4.8l1.7-1.5 4.4-1.2.8 3.6-.2 1.4 1.8 4.3.4 4-4.4-.7-1.9 1.4 3 3.4 2.5 4.7-1.6.1 1.2 2.1-3.5-2.4v2.3l-4 1.7 1.8 2.1-3-.2-2.2-1.2-.7 2.9-2.5 2.1-1.3 2.6-4 1.2-1.6 1.9-3 1.1.8-1.9-1.4-1.6 1.2-2.7-2.8-2-2.2 1.3-2.3 2.9-.8 2.6-3.1.2-.9 1.9 3 2.7 3.1.7.9 1.8 3.2 1.2 2.4-3 3.8 1.6 2.2.2 1.5 2-4.3 1.2-.6 2.2-2.4 2-.6 2.9 4.5 2.2 3 4 3.4 3.7 3.5 3.1 1 3-1.8 1.2 1.5 2.2 2.5 1.2.5 3.3v3.3l-1.7.4-1.3 4.3-1.5 5.4-2.1 4.8-4 3.8-4.3 3.5-3.8.4-1.9 1.8-1.4-1.3-1.6 2-4.6 2-3.7.6-.4 4.3-2 .3-1.4-3 .6-1.5-5-1.3-1.5.7-3.7-1.1-2-1.7.2-2.3-3.3-.8-2-1.5-2.6 2.2-3.3.5h-2.8l-1.7 1-1.8.5 1.3 4.7-1.9-.1-.5-1-.3-1.7-2.4 1.2-1.7-.8-2.8-1.5.5-3.3-2.4-.9-1.5-3.7-3.5.7-.5-4.8 2.7-3.4-.6-3.4-.8-3.1-1.7-1-1.7-2.4-2 .3-3.9-.6.8-1.7-2.3-2.5-2 1.7-3.1-1-3.4 2.6-2.5 3-2.7.5-1.7-1-1.9-.2-2.7-.9-1.6 1-1.7 3-1-3.2-2 1-4-.5-4.1-.9-3.2-1.8-2.9-.8-1.6-2-2-.5-4.1-2.7-3-1.3-1.2 1-5.5-2.9-4-2.5-2-4.5 2.6.6-.3-2.1-2-2.1-.4-3.3-5-4.8-6-1.6-1.8-3.2-3-1.9-1-1.1-1-2.3-.4-1.6-2.3-1-1 .5-2-3.8.8-.9-.8-1 2.6-1.8 2-.9 3.7.6.4-2.6 4-.4.7-1.7 4.4-2.1v-1l-1-2.3 1.8-1-5.5-7 5.7-1.5 1.3-1-.6-7 6.8 1.3 1-1.9-1.6-4 2.4-.3 1.3-2.7 1-.3 2.1 2.8 3.6 2.1 5.2 1.5 3.7 3.2.9 4.6 1.9 1.8 4.1.7 4.6.5 5 2.5 2.2.5 3.2 3.7 3 2.4 3.5-.2 7.2 1 4-.6 3.6.6 6 2.5h3.8l2.1 1.2 2.8-2.2 4.6-1.4 4.8-.1 3.1-1.4 1.3-2.2 1.5-1.4-1.2-1.3-1.8-1.5.3-2.6 2 .4 3.7.8 2-2.2 4.1-1.5.8-2.6 1.6-1.2 4.3-.5 2.8.5-.5-1.4-4.5-2.8-3.3-1.3-1.6 1.5-3.5-.7-1.5.5-1.7-1.5-.2-4-.4-3 4.7 1.5 2.8-2.5-1.2-1.7-.2-4.2.9-1.2-1.6-2.2-2.4-.9 1.1-2 3.2-.6 4-.2 5.4 1.2 3.8 1.4 4.9 4 2.4 1.7 2.9 2.4 3.9 3.8z" class="sm_state sm_state_CN" style="-webkit-tap-highlight-color:transparent"/>
    <path d="M508.7 516.7 507 521l-.8.7-.3 3.1.4 1.7-.3 1.2 1.7 2.2.3 1.5 1.3 2 1.7 1.4.2 1.8.3 1.2-.2 2.2-2.9-1-2.9-1-4.5-.2-.4-.2-2.2.5-2.1-.5-1.7.2h-6l.6-3.3-1.4-2.7-1.7-.6-.7-1.9-1-.5.1-1.2 1-2.9 1.6-4h1l2.2-2.3 1.3-.1 2 1.7 2.5-1.4.4-1.7.8-1.6.5-2 1.9-1.7.7-2.9.8-1 .5-2 .8-2.6 3-3.2.2-1.3.4-.8-1.5-1.6.2-1.3 1-.2 1.4 2.6.3 2.7-.1 2.7 2 3.7h-2l-1 .2-1.7-.3-.8 1.9 2.2 2.4 1.6.7.5 1.6 1.1 2.8z" class="sm_state sm_state_CM" style="-webkit-tap-highlight-color:transparent"/>
    <path d="m244 759.9 3.8 8.6h3.2l1.9.1-.3 1.6-2 1.2-1.6-.2-2-.3-2.6-1.1-3.4-.6-4.8-2.1-4-2-6.2-4.4 2.9.8 5.4 2.6 4.7 1.4.7-1.8-.2-2.7 2.2-1.6zm-25.8-120.5.6 1-.8 4.3-3.5 2 1 6.7-.5 1.4 1.3 1.5-2.1 2.6-1.7 3.8-.5 3.7 1 4-1.3 4.1 3.1 7 1 .8 1 3.8-1.1 3.9.9 3.4-2 2.7 1.1 3.6 2 4-1.5 1.5.1 3.6.5 4.1 2.1 5-1 .8 2.3 4.6 2 1.5-.5 1.8 1.7.7 1 1.5-1.2.8 1.1 2.3.7 5.3-.4 3.4 1.1 2v2.5l-1.8 1.8 2 4.1 1.7 1.5 2-.3 1.1 3 2.2 2.2 7.7.5 3.1.7H241l-1 1-2.2 1.3 1 3.6h-1.2l-4-1.1-4.7-2.8-4.8-2.2-2-2.4-.2-2.3-2.7-2.7-3.2-6.7-.1-3.8 2.1-3-5.2-1.3 1.7-3.4-1.3-6.7 4.2 1.4-1.2-8.3-2.5-1 .6 5-2.2-.6-1-5.7-1.2-7.5.7-2.8-2.1-4-1.5-4.5 1.4-.2.3-6.5.8-6.5v-6l-2-6.2.3-3.4-1.3-5 1.2-5-.6-7.8V634l-.9-6.7-1.3-5.8 1.7-1 .7-2 2 2.7.8 3 2 1.7-.6 3.9 2.3 4.6 2 5.6z" class="sm_state sm_state_CL" style="-webkit-tap-highlight-color:transparent"/>
    <path d="m250.9 358 2.1.5 3-.1-2 1.6-1.4.3-3.4-1.7-.4-1.4 1.6-1.2zm9.1-10.2h-1.5l-3.7-1.1-2.2-2 1.2-.3 3.7 1 2.7 1.7zM64.9 350l-2 .6-4-1.8v-1.4l-1.8-1.4.2-1.1-2.8-.7.4-2.1 1-1 2.6.9 1.5.6 2.6.4.1 1.4.3 1.8 2 1.7zm214.9-8.5-3.2 3.4 2.5-1.3 1.8.9-1.5 1.3 2.4 1 1.8-.9 2.7 1.2-1.8 3 2.4-.8-.2 2.1.4 2.5-2.3 3.5-1.5.2-1.9-.8 1.6-3.2-.8-.5-4.6 3.4-1.9-.1 2.8-2-2.8-.9-3.5.3-6-.2-.2-1 2.4-1.6-1-1 3.4-2.4 5.2-6.2 2.6-2.3 3.2-1.3 1.3.1-1 1.1zM51.6 328l1 .5 3.2-.3-4.6 4.4.2 3.2h-1.2l-.5-1.8.4-1.9-.6-1.2.9-1.7zm179.6-30-2.3 1.8-1-.3-.1-1 .3-.3 1.7-1.1h1.1zm-6.1-2.1-4.6 2-1.9-.1v-1l3.2-1.7h3.8zm-2-10.7-.6 1.6 1.8-.5 1 1 2.1 1.2 2.4 1-.9 1.8 2.3-.3 1.2 1.2-3.2 1.2-3.7-1-.5-1.6-4 2-5.2 1.8.4-2-4 .2 3.6-1.7 2.3-2.9 3.2-3.2zm28.5-5.2-3.1.2.4-1.7 2.4-2 2.7-.4 1.5 1-1 1.4-.5.5zm-47.2-6.8-2.6 1.2-2.7-1-2.5.3-2.1-1.5 3.1-1 3.1-1.5 2 1 1 .5.2.7zm33.5 90.4-1.4-2.3 1.9-5.4-1-1.1-2.4.6-.7-1-3.5 3-2 3-1.8 1.9-1.5.6-1.1.2-.7 1h-10.9l-1.7.7-4.3 2.8-.5-.3-1.3.6-1.2.8-1.2-.7-3 .5-2.4.6-1.2.5-1.5 1.3 1.2.5 1-.3h.2l-.1 1.2-3 .5-1.9.5-1 .6-1.7-.4-1 .2-1.8 1.2-3 1.2-1.7-.2 1.3-1.4 2.3-2.2 2.6-1.4.7-1.1.6-2 2.4-2.1.6-2.6.7 2.5 2.4.6 1.5-1.4-.9-3-.5-1.3-2.6-.7-2.4-.5H188l-2.1-.5-.3-.9-.9.6-.7-.1 1.2-1.4-1.1-.5 1.2-1.5-.8-1.1 1-1.2-3.2-.5v-2.3l-.6-.5-2-.2-2.7-.7-1 .5-1 1-2.2.6-2 1.6-3.4-1.1-2.7.5-2.5-1.2-3-.6-2-.3-.7-.6.6-2.2h-1l-.9 1.5H67.8l-3.4-3.8-1-1.7-4.5-1.7.8-3.5 2.3-2.3-2.6-1.7 2-3.1-1.3-2.8 1.5-2 3.3-1.9 2-2.4-3-2.4 1-4.4.7-2.6-1-1.8-.5-1.5.3-2-4 1.3-4.9 2-.2-2.3-.3-1.7-1.8-1-2.6-.1L73 284l15.6-12.9 3.8.8 2.1 1.7 2.3.3 4-1.4 4.5-1 3.3.3 5.7-1.4 5.2-.9v1.4l3-.8 2.4-1.6 1.3.4 1 3 6-2.3-2.5 2.6 3.8-.6 2-1 3 .3 2.4 1.4 4.8 1.2 3 .6 2.7-.2 1.9 1.8-5.4 1.7 4 .7 7.6-.4 2.8-.6.8 2 4.5-1.6-1.3-1.6 2.9-1.1 3.3-.2 2.4-.3 1.4.8 1 1.8 3-.2 3.4 1.6 4.6-.6h3.8l1.5-2 2.9-.7 3 1.2-2.6 3.3 3.9-2.8 2 .1 4-3.5-1-2-1.8-1.5 3.5-3.7 5.2-2.4 2.8.6 1.3 1.4.3 3.8-3.7 1.7 4.2.7-2.7 3.5 5.6-2.7 1.4 2.2-2.7 2.6.8 2.3 4.6-2.5 4.1-3 3-3.8 3.5.3 3.4.5 2.3 1.7-1 1.7-3.3 1.9.6 1.8-1.6 1.7-6.9 2.5-4 .6-2.1-1.1-2.1 1.8-4.7 3-1.9 1.5-4.9 2.4-4.1.3-3.2 1.5-1.9 2.4-3.6.4-5.5 3-6 4.1-3.1 3-3.1 4.3 3.8.7-1 3.5-.5 2.9 4.6-.8 4.5 1.7 2 1.4 1.2 1.8 3 1 2.3 1.6 4.9.3 3 .4-2.3 3.3-1 3.8v4.4l2.8 3.8 3-1.3 3.5-4 1.5-6.2-1.1-2 5.7-1.8 4.8-2.7 3-2.6 1-2.6-.2-3.2-2-2.9 5.6-3.9.7-3.3 2.4-5.8 2.4-.8 4.3 1 2.7.4 2.8-1 2 1.2 2.2 2.2.2 1.4 4.9.3-1.7 3-1.4 4.8 2.4.6 1 2.2 5.2-2 4.7-4.3 2.7-1.7.7 3.4 1.6 4.7 1.3 4.6-2.2 2.4 3 2.2 2 2.1 4.3 1 1.5 1.2v3.3l2.2.5.7 1.5-1.3 4.4-2.7 1.4-2.7 1.4-5.6 1.4-5 3.2-5.4.7-6.4-.9h-4.6l-3.4.3-3.6 2.8-4.7 1.8-6.4 5.2-5 3.7 3-.7 6.9-5.2 7.8-3.3 4.8-.4 2 2-3.8 2.6-.4 4.3v3l3.6 2 5.5-.6 4.6-4.5-.7 3 1.6 1.4-4.7 2.6-7.8 2.4-3.7 1.6-4.6 2.9-2.3-.3 1-3.4 6.5-3.4-5.1.2zm-67.4-103.8-3 1.5 6.6-1 1.7 1.7 4.6-1.7 1.1 1-1.4 3.3 2.8-1.3 1.7-3.4 2.8-.5 1.9.5 1.4 1.3-1.7 3.3-1.6 2.3 2.7 1.7 3.2 1.6-1.7 1.5-4.5.3.5 1.2-2 1.3-4.2-.5-3.7-1-3.2.2-6 1.2-7.2.6-5 .3.2-1.7-2.6-.9-2.7.4-.4-2.7 2.1-.4 4.6-.6 3.5.2 4-.6-4.2-.8-5.7.3h-3.7V267l7.5-1.4h-4l-3.5-.8 5-2.5 3.3-1.3 9-2zm25-1L191 261l-1.4-2.3 1.3-.5 3.5-.1zm68.8 1-.4 1-5.2-.2-3.1.4-.6-.2-1.3-1.7 1-1.2 1.4-.2 5.4.4zm-25.2-.2.2 2 4.5-2.5 7.4-1.4 1.5 3.4-2 2.2 5.7-1 3.3-1.3 4.4 1.6 2.3 1.6-.7 1.5 5.2-.8 1.2 2.2 5.3 1.3 1.4 1.3.6 3.3-5.8 1.5 4.9 2.3 3.7.8 2.1 3.1 4.1.3-2 2.5-7 4-2.5-1.4-2.4-3.5-3.7.5-1.5 2 1.7 2.1 2.9 1.7.6 1v3.5l-2.3 2.6-3-1-5.5-2.8 2.3 3 1.8 2.3-.2 1.2-7-1.4-4.7-2.2-2.4-1.7 1.5-1-3-1.9-3-1.7-.6 1-8.3.6-1.5-1.2 3.4-2.7h5.1l6-.5-.2-1.3 2-1.7 5.5-3.5.3-1.5-.3-1.2-3-1.7-4.5-1.1 2.2-1-1.3-2-2.1-.3-1.2-1.1-2.1 1-5 .5-8.9-.8-4.7-1-3.7-.5-1.2-1.2 4-1.6h-3.6l2-3.3 4.6-3 3.8-1.3 7-.8zm-32-2.2 2.3.7 4.8-.4-.3 1-3.8 1.5 2.4 1.4-3.3 3-5.4 1.3-2.1-.3-.6-1.3-3.7-2.5 1-1 4.8.3-.6-2zm14.4 3.5-5 2.5-2.8-.1 1.2-3 1.6-1.5 2.7-1.4 3.3-1 5 .2 4 .8-6.5 2.9zm-73.4 4.6-8.6 1.6.4-1.4-3.8-1.8 2.8-1.4 4.7-2.4 4.9-2.2.2-2 8.9-.4 2.7.7 6 .1 1.2 1 1 1.3-4.1.9-8.8 2.2-5.9 2.4zm79.3-11.7-2.6 1.2-3.3-.2-2-.9 2.9-1.4 4.3-.8 1 1.1zm-5.6-5.5.2 1.5-1.8 1.5-3.7 2.5-4.3.3-2-.5 2-1.9-4.1.2 2.7-2.4 2.4.1 5-1 3 .1zm-25 1.6-.4 1.1 2.8-.5 2.3.1-1.5 1.6-3.2 1.5-8.8.5-7.8 1.4h-3.8l1-1 6.7-1.4-11.3.4-2.7-.6 7.5-3 3.4-1 5.2 1.1 1.9 1.9 3.8.2.5-3 3.7-1 2 .2zm35.4-2.7 1.4 1h4.7l1 1-1.9 1.1 2 .7.8.8 3 .1 3.3.3 4.5-.7 5.1-.3 3.7.3 1.5 1.2-.7 1.2-2.3 1-4.2.6-2.7-.4-7.5.5h-5l-3.6-.3-5.5-1 1-1.8 1.4-1.5-1-1.4-4.3-.4-1.7-1 2.4-1.2zm-48-1.7-3.7 2.4-3.3 1-2.4.2-6.3 1.3-4.5.5-2.3-.7 7.4-2.3 7.8-2h3.4zm51.5.4h-1.2l-4.2-.1.5-.9 4.5.1 1 .5zm-37.3-.6-5.6 1-2-1 3.2-1 3.8-.3 2.6.4zm5-2.6-3.7.5H196l.7-.4 3.6-.8h1zm29.6 1.5-4.2.7-1-.7.4-1.1 1.4-1.2 2.8.1 1 .2 1.5 1zm-8.7-.7-.7 1.2-3.4-.3-2.5-1-5-.1 3.4-.8-1.8-.7 1.4-1.2 3.9.4 4.7 1zm34.2-3.9 1.7 1-4 .8-6.8 2.2-4.3.2-4.3-.4-1-1.2 1.3-1 2.7-.8h-4.1l-1.3-1 .2-1.1 3.1-1.2 2.6-.8 2.6-.2-.2-.7h5.2l1 1.3 3 .6 3 .5zm50.2-8.9 5.5.2 4.3.4 3.3.6-.7.6-6.2 1.1-5.7.5-2.6.6h4.8l-6.7 1.6-4.3.7-5.9 2.2-5.1.5-2 .6-7.1.3 2.8.3-2.1.6.4 1.4-3.2 1-4.3.9-2.2 1-4.2 1-.3.7h4l-.6.7-8 1.8-5.5-.9-7.4.5-3.1-.3-4.3-.2 1.3-1.5 5-.7 1.3-2.1 1.7-.2 4.7 1.2-1-1.9-3.2-.5 3.2-1.2 4.8-.7 1.8-1-2-1 .8-1.5 6 .1 1.3.3 4.7-1-4.7-.3-8 .2-2.7-1-.5-1-1.6-.8.7-.8 3.8-.5h2.6l4.7-.4 4.3-1 2.5.2 1.5.6 3.2-1.2 3.3-.4 4.1-.3h6.6l.8.2 6.6-.4 4.4.1z" class="sm_state sm_state_CA" style="-webkit-tap-highlight-color:transparent"/>
    <path d="m520.2 532.6-.2 2.5-1 2.2-.8 2.5-.4 3.6.2 2.4-.6 1.4v1.5l-.5 1.2-2.3 2-1.7 2.1-1.6 4v3.3l-.8 1.3-2.1 2-2.2 2.5-1.3-.7-.2-1.1h-2l-1.2 1.5-1-.4-1.3-1.4-1 .7-1.5 1.7-3-4.3 2.8-2.3-1.3-2.6 1.2-1 2.4-.5.3-1.9 2 2 3.1.2 1.1-2 .4-2.7-.3-3.1-1.7-2.4 1.5-4.8-.9-.7-2.6.3-1-2.1.2-1.8 4.5.1 3 1.1 2.8 1 .2-2.2 2-3.8 2-2.1 2.5.6z" class="sm_state sm_state_CG" style="-webkit-tap-highlight-color:transparent"/>
    <path d="m539.5 511.9 2.4 1.5 2 1.7v1.3l2.5 2.1 1.6 1.8.8 2.4 2.8 1.6.5 1.3-1.1.5-2.4-.1-2.6-.5-1.3.4-.6 1-1.2.1-1.3-.9-4 2-1.7-.3-.5.3-1 2.5-2.7-.9-2.6-.3-2.3-1.6-3-1.4-1.9 1.4-1.4 2-.3 2.8-2.3-.1-2.5-.7-2 2.1-2 3.8-.3-1.2-.2-1.8-1.7-1.4-1.3-2-.3-1.5-1.7-2.2.3-1.2-.4-1.7.3-3.1.9-.7 1.7-4.2 3-.3.6-1h.6l.9 1 4.5-1.6 1.5-1.5 1.9-1.5-.4-1.4 1-.4 3.5.3 3.3-2 2.5-4.4 1.8-1.6 2.3-.7.4 1.7 2 2.5v1.8l-.4 1.6.2 1.3 1.2 1.2z" class="sm_state sm_state_CF" style="-webkit-tap-highlight-color:transparent"/>
    <path d="m552.1 525.6 2.2 3.4 1.7.5 1-.7 1.6.2 2-.8.8 1.7 3.3 2.7-.2 4.8 1.4.6-1.2 1.4-1.3 1.1-1.4 2-.7 2-.2 3.2-.9 1.6v3l-1 1.2-.2 2.4-.5.3-.3 2.3.8 1.8.1.7-.8 6.5 1 2.3-.6 1.7 1.1 2.9 2.2 2.2.4 2.2 1 1.1-.2.7-.6-.2-4.8.7-1 .5-1 2.6.7 1.8-.7 4.8-.6 4 1 .8 2.5 1.6 1-.7.1 4.3h-2.7l-1.4-2.2-1.3-1.8-2.7-.5-.8-2.1-2.2 1.2-2.8-.5-1.2-1.9-2.2-.3h-1.7l-.2-1.2-1.2-.1-1.7-.3-2.2.7-1.5-.2-.9.4.3-4.8-1.2-1.5-.2-2.6.5-2.4-.6-1.5-.1-2.6h-4.3l.3-1.4H526l-.2.7-2.3.2-.9 2.3-.6 1-2-.6-1 .6-2.5.3-1.3-2-.8-1.4-1-2.5-.9-3H502l-1.2.4h-1.1l-1.5.5-.5-1.2 1-.5v-1.7l.7-1 1.2-1 1 .5 1.3-1.6h2l.1 1.2 1.3.7 2.2-2.5 2.1-2 .9-1.3v-3.4l1.5-3.9 1.7-2 2.3-2 .4-1.3.1-1.5.6-1.4-.2-2.4.4-3.6.7-2.5 1.1-2.2.2-2.5.3-2.8 1.4-2 1.9-1.4 3 1.4 2.3 1.5 2.6.4 2.7.9 1-2.5.5-.3 1.7.3 4-2 1.3.9 1.2-.1.6-1 1.3-.4 2.6.5h2.4z" class="sm_state sm_state_CD" style="-webkit-tap-highlight-color:transparent"/>
    <path d="m500.4 340 1.6 1.2 2.3.3v1l1.7 1 .4-1.1 2.1.4.5 1.3 2.3.2 1.7 2h-1l-.4.7-.7.2-.2.8-.5.2v.4l-1.1.4h-1.4l-.4.8-1.5-.7-1.5.1-2.5-1.2-1 .4-1.7 1.6-2.4-1.3-2-1.7-1.6-1-.4-1.6-.6-1.2 2.1-.8 1-1 2.3-.8.7-.7.8.4z" class="sm_state sm_state_CZ" style="-webkit-tap-highlight-color:transparent"/>
    <path d="m569.2 404.3.2.3h-.7l-.2-.1v-.2h.4zm-1.1.3-.1.2v.3l-.2.2H567.5l-.3.2h-.1l-.4.3H566.1l-.2.2v-.2l-.3.1h-.1l-.2-.2-.2.2h-.4l-.3-.1h-.3l-.2-.3-.2-.4-.2-.2-.2-.4v-.4l.3.2h.3v-.2l.1-.2h.4v-.2h.2v.3l.4.1v.2h.4l.4-.4.3.1.2-.1h.2l.2.2.1-.2h.2l.2.2v.4l.2-.1.2.1z" class="sm_state sm_state_CY" style="-webkit-tap-highlight-color:transparent"/>
    <path d="m155 502.4.8 2.2 1.2 1.7 1.6 1.7-1.4.4v1.6l.6.6-.5.5.1.7-.4.8-.2.8-1.9-.9-.7-.8.5-.7v-1l-1-.9-1.4-.8-1.2-.5-.2-1.2-.9-.7.2 1.1-.8 1-.7-1-1.1-.5-.5-.8.1-1.3.6-1.2-1-.6.9-.8.6-.5 2.3 1 .8-.5 1.1.4.5.8 1.1.3z" class="sm_state sm_state_CR" style="-webkit-tap-highlight-color:transparent"/>
    <path d="M208.5 498h-.2l-.3-.3h-.2l-.1-.2-.1-.2h-.2l-.1-.3-.2-.2v-.3l.4.2v.3l.3.3.4.1.2.2.1.2z" class="sm_state sm_state_CW" style="-webkit-tap-highlight-color:transparent"/>
    <path d="M366.1 486.5v.2l-.2-.1v-.2h.2zm1.2 0v.1h-.3l-.2-.2v-.5l.4-.2h.2l.1.5v.2zm2.3-1.9v.2l.2.1.3.3h.1l.1.2.1.3.2.2-.2.3h-.7l-.2-.3-.1-.2v-.5l.1-.3-.1-.3zm2 0h.1v.7l-.2.1-.3-.2.1-.3v-.1zm1.2-3.6.2-.1.3.1v.6l-.2.2h-.7v-.4h.1v-.5h.1zm-5-1.8H368.3l.2.2v.1h-.2l-.5-.2-.1.1-.2.4-.2-.4-.1-.3h.2zm4.9-.3v.4l-.2.1v-.7l-.1-.2.2-.2.1.2v.3zm-7.2-.8.1.2.1.2-.4.2-.2-.2-.2-.1.3-.3zm-.5-1.2.2.1v.1l.2.2-.1.3-.4.2-.3.2h-.4v-.3l-.2-.1v-.2H364.3l.1-.2.5-.3z" class="sm_state sm_state_CV" style="-webkit-tap-highlight-color:transparent"/>
    <path d="m174.1 454.3 1.2 1.5 3.3-.5 1.2 1 2.6 2.5 2 1.9 1.2-.1 2 .8-.4 1.2 2.6.1 2.5 1.7-.6 1-2.4.5-2.4.1-2.3-.3-5.1.4 2.6-2.2-1.3-1-2.3-.3-1-1.2-.6-2.3-2 .1-3.2-1-1-1-4.4-.6-1.2-.8 1.5-1-3.4-.2-2.8 2.1h-1.5l-.6 1.1-1.8.4-1.4-.4 2-1.2 1-1.5 1.6-1 2-.7 2.7-.3.9-.6 3 .4h2.7z" class="sm_state sm_state_CU" style="-webkit-tap-highlight-color:transparent"/>
    <path d="m565 652 .4 1.9.2 1.8-.9 1.8-2 .4-2-2.2.1-1.4 1-1.5.5-1.2 1-.3z" class="sm_state sm_state_SZ" style="-webkit-tap-highlight-color:transparent"/>
    <path d="m586.2 411.1-6.2 4.4-4-1.7.3-.6-.2-1.7.6-2.2 1.7-1.6-.8-1.5-1.6-.2-.7-3.1.7-1.7.8-1 .7-.8v-2.2l1.1.7 3.6-1.1 1.9.7h2.8l3.6-1.5h1.8l3.7-.6-1.3 2.6-1.7 1 .8 3-.7 4.9z" class="sm_state sm_state_SY" style="-webkit-tap-highlight-color:transparent"/>
    <path d="M230.8 473.5h-.3z" class="sm_state sm_state_SX" style="-webkit-tap-highlight-color:transparent"/>
    <path d="m716.4 374.8-.1.9-4.4 2.1-.6 1.7-4.1.4-.4 2.6-3.7-.5-2 .8-2.6 1.9.8 1-.7.8-6.1.6-4.5-1.3-3.5.3-.4-2.2 3.8.6 1-1.2 2.5.4 3.4-3-4.6-2.1-2 1-3-1.5 2-2.6-1.1-.4.2-1.8 2-.5 5.8 1.4-.3-2.4 1.6-.9 5.1 1.7 1-.4 5.5.1 5 .4 2.2 1.5z" class="sm_state sm_state_KG" style="-webkit-tap-highlight-color:transparent"/>
    <path d="m604.2 531-3 4.6v14.8l2.1 3.3-2.5 1.7-.9 1.7-1.4.3-.5 2.9-1.2 1.6-.7 2.7-1.4 1.3-5.2-4-.2-2.4-13-8.3.3-3-.9-1.6v-.1l1-1.7 1.8-2.7 1.3-3-1.6-4.6-.5-2-1.7-2.9 2.2-2.4 2.4-2.7 1.8.7v2.3l1.3 1.3h2.5l4.6 3.5h1.1l.9-.1.8.4 2.4.4 1-1.7 3.3-1.7 1.4 1.4z" class="sm_state sm_state_KE" style="-webkit-tap-highlight-color:transparent"/>
    <path d="M575.5 508.4v3.2l-.4 1.2-2 .1-1.1 2.3 2.2.3 1.9 2 .6 1.6 1.7 1 2.2 4.4-2.4 2.7-2.2 2.4-2.2 1.9h-2.5l-2.9 1-2.3-1-1.4 1.1-3.3-2.7-.8-1.7-2 .8-1.7-.2-.9.7-1.7-.5-2.2-3.4-.5-1.3-2.8-1.6-.9-2.4-1.5-1.8-2.4-2-.1-1.4-2-1.7-2.4-1.5 1-.5 1.3-.8.8-3.6 1-1.9 2.6-.5.6 1 1.8 2.4 1 .4 1.3-.7 2.6.2.5.8h3.6l.1-.8 1.8-.9.4-1.1 1.3-.8 3 2.3 1.9-.4 1.7-3 1.9-2.2-.3-2.4-1-1.2 2.2-.2.2-1 1.7.3-.4 3 .6 3 1.8 1.6.5 1.4v2z" class="sm_state sm_state_SS" style="-webkit-tap-highlight-color:transparent"/>
    <path d="m260.4 523.5-2 3.5.3 2.8 1.4 2.4-.7 1.7-.4 2-.9 1.6-2-.9-1.7.5-1.5-.4-.4 1.2.7.8-.4.9-2-.4-2-3.6-.5-2.3H247l-1.5-2.9.7-2.1-.2-1 2.2-1 .7-3.7 4.3.9.4-.8 2.9-.3z" class="sm_state sm_state_SR" style="-webkit-tap-highlight-color:transparent"/>
    <path d="m836.4 489.1 1 2.7.2 5-5.7 3 1.7 2.5-3.7.3-3 1.7-3-.6-1.6-2.2-2.2-4.2-1.4-4.9 2-3.4 4.5-.7 3.4.6 3.1 1.5 1.3-2.7z" class="sm_state sm_state_KH" style="-webkit-tap-highlight-color:transparent"/>
    <path d="m141 492.5-.5 1-2-.2-1.3-.3-1.4-.9-2-.2-.9-.9.2-.6 1.3-1 .8-.4-.2-.5.9-.3 1 .4.7.8 1 .7v.5l1.6-.5.8.3.4.4z" class="sm_state sm_state_SV" style="-webkit-tap-highlight-color:transparent"/>
    <path d="M610.4 597.3h-.6l-.1-.3v-.2h.3l.4.4zm2.3-1.2.1.6v.5l-.1-.1-.3-.2v-.1h-.3l-.3-.3v-.1l.3.1h.2l.2-.3v-.1h.2zm-3.6-.7-.3-.2h-.2l-.2-.2-.1-.4V594.3l.2-.8v-.3h.3l.2.2-.2.7.1.2.1.3.1.3.1.4z" class="sm_state sm_state_KM" style="-webkit-tap-highlight-color:transparent"/>
    <path d="m477.7 546.6-.2.2h-.1l-.1-.3-.1-.5v-.2l.2-.3h.2l.2-.3.3.1v.3l.1.2v.2l-.1.2-.2.3zm3-6.2-.1.2H480.3v-.2h.1v-.3l.1-.1h.2z" class="sm_state sm_state_ST" style="-webkit-tap-highlight-color:transparent"/>
    <path d="m524.8 347.9-.8 1-.4 1.6-.7.4-3.5-1.2-1 .2-.6 1-1.5.5-.3-.3-1.5.6-1.2.1-.2.9-2.6.4-1.2-.4-1.7-1-.5-1.4.2-.5.4-.9h1.4l1-.3v-.4l.7-.2v-.8l.8-.2.4-.7h1l.2.2 1.2-.6 1.7 1.4 1.8-.8 1.5.4 2.2-.6z" class="sm_state sm_state_SK" style="-webkit-tap-highlight-color:transparent"/>
    <path d="M876.3 393.4v-.4l1.6.1.4-1.8 2.3-.2 1.2-.3v-1l5.3 4.8 2 2.7 2.2 4.7-.3 2.2-2.7.7-2 1.8-2.9.3-1.3-2.2-.7-3-3.4-4.3 2.2-.7z" class="sm_state sm_state_KR" style="-webkit-tap-highlight-color:transparent"/>
    <path d="m506.8 358.1-2.5 1.1-.1 1.6-1.1.4v1.1H502l-1.2-.7-.5.6H498l.7-.4-.8-1.7.2-2 2.7.3 1.5-1h2.8l.6-.7h.5z" class="sm_state sm_state_SI" style="-webkit-tap-highlight-color:transparent"/>
    <path d="m881 374.6 1 .7-1.5-.3-.6 1.4-.2 1.4 1.8 2.9-1.2.9-.2.7-.6 1.2-1.8.7-1 1 .9 1.8-.2.4 1.7.7 2.7 1.8v1l-1.2.2-2.3.2-.4 1.8-1.6-.1v.4l-2-.8v.8l-.9.3-.4-.8-1.1-.4-1.2-.6v-1.8l.6-.5-.6-.7-.3-2.2-.5-.6-2.2-.5-2.1-1 1.3-2.6 2.5-2.2.7-3 2.2 1.3 3 .2-1.8-2.1 4-1.7v-2.3z" class="sm_state sm_state_KP" style="-webkit-tap-highlight-color:transparent"/>
    <path d="m619.4 425 1 1.8-.2.9 1.5 3-2.5.2-1-2-3.2-.4 2-3.9z" class="sm_state sm_state_KW" style="-webkit-tap-highlight-color:transparent"/>
    <path d="m410.6 487.5.2 2.5.7 2.3 1.2 1.2.3 1.5-.2 1.3-.5.2-2-.3-.2.4-.7.1-2.6-1H405l-6.6-.2-1 .5-1.2-.1-1.9.6-.5-3h3.2l1-.6h.6l1.3-1 1.5.9 1.5.1 1.6-1-.7-1-1.2.6h-1l-1.5-1h-1.1l-.8 1h-3.9l-1.5-3-1.7-1.5 1.6-.8 1.8-2.9.9-2 1.3-1.3 1.7.3 1.7-.9h2l1.7 1.2 2.3 1 2.1 3z" class="sm_state sm_state_SN" style="-webkit-tap-highlight-color:transparent"/>
    <path d="m417.3 512.7-1.7 2-1.6 2.1-.2 1.2-.9 1.3-1-.3-2.5-1.6-1.9-2.2-.5-1.5-.5-3 2-1.8.4-1.1.6-.9 1-.1.8-.8h2.9l1 1.5.7 1.7v1.2l.5 1v1.5z" class="sm_state sm_state_SL" style="-webkit-tap-highlight-color:transparent"/>
    <path d="m620.4 585.1-.2.1h-.3l-.3.2h-.2v-.2h.5l.3-.2h.1zm-.3-.2h-.4zm32.9-19.2.2.3-.1.2-.1-.2-.2-.2v-.3z" class="sm_state sm_state_SC" style="-webkit-tap-highlight-color:transparent"/>
    <path d="m677 330.6 2.8-.2 5.8-3.6-.5 1.2 5.3 3 11.6 9.9.7-2 5.3 2.2 4-1 2 .7 2.6 2.2 2.6.8 2 1.7 3.9-.6 2.8 2.4-1.2 2.7-2.5.4 1.6 4-1 1.8-6.8-1.4.6 7.2-1.3.9-5.7 1.6 5.5 7-1.8 1 1 2.3-2.1-.6-2.2-1.5-5-.4-5.4-.1-1 .4-5.3-1.7-1.5 1 .3 2.3-5.8-1.4-2 .5-.2 1.8-1.7.8-3.4 2.8-.5 2.9h-1.3l-1.5-2h-4.2l-1.6-3.4h-1.6l-1-4-4.8-3-5.5.3-3.6.6-4.2-3.6-3-1.5-5.8-2.9-.7-.3-7.6 2.3L638 379l-1.6.2-3-3.2-2.6-1.1-3.5.8-1.2 1.4-.3-1 .3-1.7-.9-1.4-4.1-1.4-2.4-3.6-2-1-.4-1.3 3.3.3-.7-2.9 2.6-.6 3 .6-.4-3.9-1.2-2.5-3.2.2-3-1-3.2 1.8-2.8.9-1.8-.7-.1-2-2.7-2.7-2.3.1-3.4-2.7 1.1-3-1.1-.8 1.4-4.3 3.8 2.3-.4-2.9 5.1-4.2 4.8-.2 7.6 2.8 4.2 1.5 2.8-1.6h4.9l4.6 2 .5-1.3 4.4.2.2-1.8-6-2.7 2.2-2-1-1 2.6-1-3.2-2.6.9-1.3 10.7-1.4 1.1-1 7-1.4 1.9-1.6 5.8.9 2.7 4 2.8-1 4.5 1.3z" class="sm_state sm_state_KZ" style="-webkit-tap-highlight-color:transparent"/>
    <path d="m615 428.5 3.2.4 1 2 2.5-.2 1.7 3.6 1.9.9.7 1.4 2.6 1.7.4 1.7-.3 1.4.6 1.3 1.2 1.2.5 1.3.7 1 1.1.8 1-.3.8 1.6.2.9 1.7 4.2 10.7 2 .6-.9 2 3-1.7 8-10.4 4-10 1.7-3.2 1.8-2.2 4.3-1.7.6-1-1.3-1.3.2-3.4-.4-.7-.4h-4l-1 .4-1.6-1-.8 2 .5 1.7-1.5 1.3-.6-1.8-1.1-1.2-.3-1.6-2-1.5-2-3.4-1.3-3.3-2.6-2.8-1.6-.7-2.6-3.8-.5-2.8V455l-2.3-4.6-1.8-1.6-1.9-.8-1.3-2.3.1-1-1.1-2-1.1-1-1.6-3-2.4-3.2-2-2.8h-1.7l.3-2.3.1-1.4.3-1.7 3.9.7 1.3-1.2.7-1.5 2.6-.6.4-1.3 1-.7-3.7-4.1 6.6-2 .5-.7 4.3 1.2 5.5 2.8 10.6 8.2z" class="sm_state sm_state_SA" style="-webkit-tap-highlight-color:transparent"/>
    <path d="M827.8 542.3h.1l-.2.2v.1h-.2l-.1.1v.1h-.3v-.1h-.5v-.2l.2-.3v-.1h.5l.3.1z" class="sm_state sm_state_SG" style="-webkit-tap-highlight-color:transparent"/>
    <path d="m518.5 284-4.5 1-2.2 2.5.8 2.2-3.9 2.9-5 3.2-1.3 5.1 2.4 2.6 3 2-2 4.3-3 .9-.4 6.3-1.3 3.6-3.6-.4-1.4 3-3.5.3-1.2-3.7-2.8-4.3-2.7-5.4 1.1-2.1 2.2-2.5.5-4.4-2-1.9-.6-4.8 1.5-3.5 2.8.1.8-1.4-1.2-1.3 3.7-5 2.1-3.8 1.5-2.5h2.5l.4-2 5 .6v-2.3l1.6-.1 3.8 1.7 4.6 2.4 1.1 5.3z" class="sm_state sm_state_SE" style="-webkit-tap-highlight-color:transparent"/>
    <path d="m583.6 488.2-.4 3.5-1.3 4-2 2-1.5 3.2-.3 1.6-1.7 1.2-1 4.2v.5h-.5l.1-2.1-.5-1.4-1.8-1.6-.6-3 .4-3-1.7-.2-.2.9-2.2.2 1 1.2.3 2.4-2 2.3-1.6 2.9-1.9.4-3-2.3-1.3.8-.4 1.1-1.8.9-.1.8H554l-.5-.8-2.6-.2-1.2.7-1-.3-1.9-2.5-.6-1-2.6.5-1 1.9-.8 3.7-1.3.7-1 .5-.4-.2-1.2-1.2-.2-1.3.5-1.7v-1.7l-2.1-2.5-.4-1.7v-1l-1.4-1.2V497l-.9-1.6-1.2.3.4-1.5.8-1.7-.4-1.7 1.1-1.2-.7-1 .8-2.5 1.6-3 3 .3-.7-16.2v-1.7h4l-.2-8h41.7l1.4 4-.8.6.8 4.3 1.5 4.8 1.4 1 2 1.5-1.6 2.3-2.6.7-1 1.3-.2 2.6-1.3 6z" class="sm_state sm_state_SD" style="-webkit-tap-highlight-color:transparent"/>
    <path d="m200 473.5.2-1.1-.8-1.2 1-.7.4-1.6v-2.2l.5-.7h2.7l2 1h1l.4 1.5 2-.2-.3 1.2 1.6.2 1.6 1.5-1.5 1.6-1.6-.9-1.7.2-1.1-.2-.7.8-1.4.2-.4-1-1.3.6-1.7 2.8-.8-.6z" class="sm_state sm_state_DO" style="-webkit-tap-highlight-color:transparent"/>
    <path d="M235.7 483.5h.3l.2.4v.8l-.2.2-.3.2v-.4l-.1-.5-.2-.3V483.3h.2z" class="sm_state sm_state_DM" style="-webkit-tap-highlight-color:transparent"/>
    <path d="m608 500.3-1.2 2.2-.8-.8-.8.3h-2l-.2-1.3-.3-1.1 1.1-2 1.2-1.7 1.6.4 1-1 1 1.2-.1 1.7-2 1z" class="sm_state sm_state_DJ" style="-webkit-tap-highlight-color:transparent"/>
    <path d="m491.8 322.5-1.5 3.1-3.3-2.2-.6-1.6 4.3-1.3zm-8.1 2.4-1.8.6-2.4-.5-1.3-2.2-.3-3.8.4-1.1.8-1.2 2.6-.1 1-1.1 2.3-1.1v2l-.8 1.2.4 1 1.7.6-.6 1.5-1-.4-1.9 2.7z" class="sm_state sm_state_DK" style="-webkit-tap-highlight-color:transparent"/>
    <path d="m225.7 471.9-.3.1-.3.1v-.2h.4z" class="sm_state sm_state_VG" style="-webkit-tap-highlight-color:transparent"/>
    <path d="m496.8 329.6.8 2-.7 1 1.2 1.4 1 2-.2 1.5 1.5 2.4-1.4.4-.8-.4-.7.7-2.2.8-1 1-2.2.8.6 1.2.4 1.7 1.7 1 1.9 1.6-1 1.8-1.1.5.6 2.6-.2.7-1.1-.8-1.5-.1-2.2.7-2.8-.2-.4 1-1.7-1-1 .2-3.4-1.2-.6.8h-2.7l.3-2.9 1.5-2.6-4.6-.8-1.5-1 .1-1.7-.6-.9.2-2.7-.6-4h1.8l.8-1.5.5-3.6-.5-1.3.5-.8 2.5-.2.6.8 2-2-.8-1.4-.3-2.1 2.4.5 1.8-.6.2 1.5 3 .9.2 1.3 3-.7 1.6-1 3.5 1.5z" class="sm_state sm_state_DE" style="-webkit-tap-highlight-color:transparent"/>
    <path d="m642.4 479.2-2.5 1-.6 1.9v1.4l-3.4 1.7-5.6 1.9-3 2.8-1.5.3-1.1-.3-2 1.7-2.3.8-3 .2-.8.2-.7 1.1-1 .3-.5 1h-1.8l-1 .5-2.6-.2-1-2.4v-2.2l-.6-1.2-.8-3-1.2-1.6.7-.3-.4-1.8.4-.8-.3-1.8 1.5-1.3-.5-1.7.8-2 1.6 1 1-.3 4-.1.7.4 3.4.4 1.4-.2 1 1.4 1.6-.7 2.2-4.3 3.2-1.8 10-1.6 3.3 6.7z" class="sm_state sm_state_YE" style="-webkit-tap-highlight-color:transparent"/>
    <path d="m482.2 396.6-.6 2 .6 4-.7 3.3-2 2.3.4 3 2.8 2.5.1 1 2.2 1.6 1.6 7.3 1.2 3.6.3 1.9-.5 3.3.2 1.9-.4 2.2.4 2.5-1.4 1.8 2.2 3v1.6l1.4 2.3 1.6-.7 2.9 1.9 1.5 2.5-11.9 7.8-10.1 8-5 1.8-3.9.4v-2.6l-1.7-.7-2.2-1.1-.8-2-11.9-8.8-11.8-8.9-13-9.9.1-.7v-.3l.1-4.8 5.7-3 3.4-.7 2.8-1 1.4-2 4-1.7.2-3 2-.4 1.6-1.4 4.5-.7.6-1.6-.9-1-1.2-4.2-.2-2.5-1.2-2.6 3.2-2.2 3.7-.7 2.1-1.6 3.2-1.3 5.7-.7 5.6-.3 1.7.5 3.1-1.5 3.7-.1 1.3 1z" class="sm_state sm_state_DZ" style="-webkit-tap-highlight-color:transparent"/>
    <path d="m-95.8 469.3-.7.7-.8-.6.4-1.1-.3-1.6.4-.4.7-.6v-.9l.2-.3h.3l1.2.7.5.4.5.5.6 1.5-.2.1-1.6 1zm-.5-6.4-1.2.3-.4-.8-.3-.4v-.2l.4-.4 1.2.4.7.6zm-1.9-2.1-.2.4-1.9-.1.4-.5zm-3-.7-.2.3h-.3l-1.2-.2-.2-1 1-.6.3.2zm-5.3-2.6-.5.4-1-.7.3-.4.6-.3h.8zm277.3-105.3-3.9 1.2-3 1.6-2.9 1.7-.3.6 3.6-.8 1.3 1.3 3-1 3-1.3 3.5-1.3-2 2 1.6.6 1.6 1.5 3.2-.9 3.2-.3.2 1.1 1 .2.7.1 1 1.6-3 .4-2.4-.5-2.8.8-2.4.4-3 2.6-1.9 1.4.3.5 3.5-2.6h.4l-3 3-1.8 2.9-1.6 2.2-.4 2-.5 1-.4 1 .1 2.1.2.3h1.1l1-.5 1-.5 2-2 1.2-2.6v-2.5l.8-1.7 1.6-2 1.4-1.3 1.7-1-.3 1.3 1.4-2 .9-.3 1-1.5 2.4.8 1.8 1.5-.5 1.9-1 1.8-2.4 1.6-.3 1h.7l2.7-1.7 1 .4-.3 2.3-.5 1.7-2.3 2.2-1.3 1.4-1.7 1.5 1.7.8 1.6.3 2.5-.6 2.4-1 1.9-.7 3-1.1 3.6-2.4v-.4l.2-1.2 1.8-.5 2.4.2 2.6.3 2.9-1.3.4-1.6-.2-.6 4.3-2.8 1.7-.7h10.9l.7-1 1-.2 1.6-.6 1.8-1.8 2-3.1 3.5-3 .7 1 2.4-.6 1 1.1-1.9 5.4 1.4 2.3.2 1.3-4 1.9-3.9 1.4-3.8 1.2-2.5 2.4-.9.9-.7 2.1.4 2.1 1.4.2v-1.5l.8.9-.6 1.1-2.5.7h-1.5l-2.7.6-1.5.2-2 .2-3 1.2 5-.8.7.8-5 1.2h-2l.2-.5-1.3 1.1.9.2-1.6 3-3.4 3v-1l-.6-.2-.8-1v2.2l.6.7-.3 1.5-1.6 1.6-2.8 3.2-.3-.1 1.9-2.8-1.3-1.5.6-3.4-1.2 1.7v2.6l-2-.6 2 1.3-1 3.8.9.3v1.4l-.7 4-2.9 3-3.9 1.3-2.8 2.4-1.7.2-2.2 1.6-.8 1.3-4.4 2.6-2.4 2-2.2 2.4-1.2 2.9v2.8l.4 3.5 1 2.9-.4 1.7.8 4.7-.6 2.8-.4 1.6-1.3 2.5-1 .5-1.7-.5-.3-1.8-1.1-1-1.3-3.4-1-3.1-.3-1.6 1.3-2.8-.5-2.2-2-3.4-1.2-.6-3.8 1.9-.6-.3-1.3-1.9-1.9-1-4 .6-3-.5-2.7.3-1.6.6.4 1-.4 1.7.5.9-.8.5-1.1-.6-1.5.8-2.4-.2-2.1-2.1-3.1.5-2.3-1-2.2.4-3.2.9-3.9 3-3.8 1.8-2.4 1.9-1.2 1.8-.6 2.8-.3 2 .4 1.3-1.4.2-2.3-1-2.4-1.2-.6-1.9-.1-2.8-1.6-2.3-.5-2.4-1-2.8-2-1.7-3 .2-3 3.1-2.5-1.2-1.5-1.2-.2-2.3-.5-2-1.5-1.8-1.4-1.4-.8-1.4h-6l-.5 1.7h-9.5l-7-2.9-4.4-2 .6-.7-4.5.4-4 .3.2-2-1.3-2.4-1.4-.5v-1.1l-1.8-.3-.8-1-3-.4-.6-.7.5-2.2-1.6-4-.3-5.7.6-1-.8-1.3-1-3.4 1.2-3.3-.6-2.2 2.5-3.4 1.7-3.4.7-3.1 3.5-3.8 5.1-7.3 2.7-5.3 1.2-3.4.2-1.8.9-.9 3.7 1.4-.7 3.8 1.4-1.1 1.6-3.2 1-3.3h87l.7-1.5h1.1l-.6 2.2.7.6 2 .3 3 .6 2.5 1.2 2.7-.5zM3.2 316.7l-4.5 1.5-.5-1 1.5-1.8 4-1.3 2.2-.6 1.7.3v1.2zm-24.8-10.5-2.4.6-1.1-.7-.5-1 3.6-.7 1.9.4zm.8-14.2.8.7 2.2-.4 1 1 2 .4-.7.5-3 .7-1.2-.8-.1-.6-2.8.2-.2-.3zm109.5-20.9-15.6 13-22.5 20.7h2.6L55 306l.3 1.7.2 2.4 4.8-2.1 4.1-1.2-.3 2 .5 1.4 1 1.8-.7 2.6-1 4.4 3 2.4-2 2.4-3.3 1.8-.3-1.3-1.6-1.3 2-3.3-1-3.1 1.8-3.6-2.6-.2h-4.5l-2.4-1.2-2.1-3.9-2.1-.7-3.6-1.3-4.3.3-3.8-1.7-1.8-1.6-4 .8-2.2 2.6-1.8.2-4.2.8-4 1.2-4 .9 2-2.2 5.4-3.7 4.3-1.2.2-.8-6 2-4.6 2.4-7.1 2.7.1 1.8-5.7 2.7-4.9 1.6-4.1 1.2-2.6 1.6-6.7 2-2.8 1.8-5.2 1.6-1.7-.2-4 1-4.4 1.3-3.9 1.3-6.3 1.1.2-.7 5.2-1.7 4.2-1.2 5.5-2.1 4-.4 3.3-1.6 6.5-2.3 1.5-.7 3.6-1.4 3.7-2.8 4-2.2L-6 311l-.2-.7-3.1 1.4.3-1.9-2.3 1.3 1-1.8-4.6 1.4h-1.8l2.3-2.2 2.1-1.4-.2-1.3-4.6.8-.4-1.8-.8-.9 2.5-2-.2-1.7 3.7-2 4.9-2.2 3.4-1.8 2.6-.2 1.1.5 4.5-1.8 1.6.4 3.5-1.2 1.6-1.6-.7-.7 3.8-1.4-1.8.1-3.9.8-1.8.8-1.2-.8-4.3.4-3-.9.8-1.4-.6-2 5.8-1.6 8.4-1.7h2.2l-2.7 1.8 5.8-.1.8-2.3-1.5-1.3.5-1.8-.4-1.4-2.1-1.1 4-1.8 4.8-.2 5.6-1.5 3-1.6 5-1.7 3.1-.4 7.1-1.5 2 .3 6.6-1.8 2.7.7-.3 1.5 2.1-.6 4 .2-1.2.7 3.1.6 3.1-.3 4 1 4.5.4 1.4.4 4.2-.5 2.6 1z" class="sm_state sm_state_US" style="-webkit-tap-highlight-color:transparent"/>
    <path d="m272.3 684.3-1 2.6-3.4 2.2-2.7-.8-1.8.4-3.5-1.7-2.2.1-2.5-2.2-.3-2.6.6-1-.8-4 .3-4.2.3-3.3 2.2-.4 4 3.2 1.2-.2 4 2.6 3 2.3 2.4 2.7-1.1 2z" class="sm_state sm_state_UY" style="-webkit-tap-highlight-color:transparent"/>
    <path d="m614.8 598.4.1.2.3.1v.4l-.2.5-.1.2-.2-.2v-.2l.2-.2-.2-.4v-.2z" class="sm_state sm_state_YT" style="-webkit-tap-highlight-color:transparent"/>
    <path d="m576 411.5-.8.1-.3.7h-1l.7-3.4 1.4-2.8v-.1l1.6.2.8 1.5-1.7 1.6z" class="sm_state sm_state_LB" style="-webkit-tap-highlight-color:transparent"/>
    <path d="m236.8 491.1-.1-.1-.3-.1v-.7l.5-.7.2.2v.4l-.1.5v.3z" class="sm_state sm_state_LC" style="-webkit-tap-highlight-color:transparent"/>
    <path d="m836.4 489.1-3.4-1.4-1.3 2.7-3.1-1.5 1-1.9-.3-3.4-3.4-3.6-.8-4-3.2-3.3-2.7-.3-.5 1.4-2 .2-1.3-.7-3.3 2.4-.7-3.7.3-4.2-2.4-.2-.6-2.5-1.7-1.3.5-1.4 2.6-2.7.5 1h2l-1.3-4.6 1.7-.6 2.5 3.3 2.2 3.6h4.3l2 3.6-2.2 1-.7 1.5 4.6 2.5 3.6 4.8 2.8 3.6 3.1 2.8 1.3 2.9z" class="sm_state sm_state_LA" style="-webkit-tap-highlight-color:transparent"/>
    <path d="M1095.6 581.6v-.1z" class="sm_state sm_state_TV" style="-webkit-tap-highlight-color:transparent"/>
    <path d="m879.5 454.2-.9 3.3-2.5-3.4-1-3 1.2-4 2.1-3.1 2 1.2-.1 2.5z" class="sm_state sm_state_TW" style="-webkit-tap-highlight-color:transparent"/>
    <path d="m236.2 502.8-.1.3-.2.3h-.1v1.4h.2l-.2.2V505.6l-.1.1-.3.1-.3.1h-1.3l-.3.1-.2-.1h-.4l-.2.1h-.2l.3-.2.2-.2h.3l.2-.2.1-.2h.4l.2-.2-.1-.5.1-.3v-.4l-.2-.2-.2-.1h-.2v-.1l.2-.2h.7v-.2h.8l.8-.2zm1.6-2-.1.3h-.2l-.3.2-.5.3-.2-.1.2-.2.5-.3z" class="sm_state sm_state_TT" style="-webkit-tap-highlight-color:transparent"/>
    <path d="m590.4 378 3.5-.2 3.5 2 .9 1.5v2l2.7 1 1.5 1-2 1.3 1.8 4.6-.5 1.3 2.4 3.2-1.5.7-1.3-1-4-.6-1.4.6-3.7.7h-1.8l-3.6 1.4H584l-2-.7-3.5 1.1-1.2-.7.1 2.2-.7.9-.8.9-1.5-1.9 1-1.5-2 .4-2.9-1-2 2.4-5 .4-3-2.1-3.6-.2-.7 1.7-2.3.5-3.4-2.2H547l-2.4-4-2.6-2.2 1.2-3.2-2.2-2 3.2-3.8 5-.1 1-3.1 6.4.6 3.6-2.6 3.6-1.2 5.4-.1 6.2 2.8 5 1.6 3.7-.6 3 .4zm-50.6 3 .8-.5.7-2.5-1.7-1.1 3.2-1.3 2.9.5.5 1.6 3 1.3-.4 1-3.9.2-1.3 1.2-2.4 2.2-1.3-1.8z" class="sm_state sm_state_TR" style="-webkit-tap-highlight-color:transparent"/>
    <path d="m745.2 521.7-3 1-2-3.3-.8-5.8 1.3-6.6 2.6 2.2 1.7 2.8 2 4.3-.4 4.2z" class="sm_state sm_state_LK" style="-webkit-tap-highlight-color:transparent"/>
    <path d="m534 315.4 1.7.8.6 1.9 1.3 2.3-2.9 1.4-1.7.6-3.2-1.8-1.6-.2-.5-.8-2.9.4-5-.3-3.2 1.2-.3-2.9 1-2.4 2.6-1.3 2.8 2.9 2.4-.1v-3l2.4-.6 1.4.5 2.8 1.3z" class="sm_state sm_state_LV" style="-webkit-tap-highlight-color:transparent"/>
  </g>
  <path fill="none" stroke="#7480ff" stroke-linejoin="round" stroke-width="2.4" d="m-206.2 635.4-.3-.2v-.1l.2-.1zm-1.8-1.3h.2l.3.2h.1l.2-.2.2.2-.2.2v.2h-.2l-.1-.2-.5-.2zm-.5-5.5-.1.1v-.3zm2.8-4.7-.3.2h-.2l.2-.4h.2zm-9-12.2h-.2v-.2h.3z" class="sm_state sm_state_TO" style="-webkit-tap-highlight-color:transparent"/>
  <g fill="#7480ff" stroke="#7480ff" stroke-linejoin="round" stroke-width="2.4">
    <path d="m533 322.4.6 1.8-2.3 1.2-.3 2.2-3 1.4h-3l-.9-1.2-1.6-.4-.3-1v-1l-1.3-.6-3.2-.7-1.1-3.2 3.2-1.2 5 .3 2.9-.4.5.7 1.6.3z" class="sm_state sm_state_LT" style="-webkit-tap-highlight-color:transparent"/>
    <path d="M473.3 346.4h-.9l-.7-.3.3-2.2.8-.1.6.9z" class="sm_state sm_state_LU" style="-webkit-tap-highlight-color:transparent"/>
    <path d="m423.7 515.7-.1 1.1.3 2-.8 1.8 1 1.1 1.2.3 1.5 1.7.1 1.6-.4.5-.2 3.4h-1l-3.6-2-3.3-3-3-2.3-2.5-2.6.9-1.3.2-1.2 1.6-2.2 1.7-1.9h.8l.9-.5 1.5 2.4-.2 1.7.7.9h1l.7-1.7z" class="sm_state sm_state_LR" style="-webkit-tap-highlight-color:transparent"/>
    <path d="m550.7 671.2-1.2.4-2.4-3.2 2-2.5 2-1.6 1.7-.9 1.4 1.3 1.1 1.3-1.2 2-.7 1.3-2 .6z" class="sm_state sm_state_LS" style="-webkit-tap-highlight-color:transparent"/>
    <path d="m828.5 488.9-3.3-.6-4.5.7-2 3.4 1.4 5-3.4-2-3 .2.1-3.3h-3v4.5l-1.3 6-1 3.6.5 3h2.4l1.7 3.8.8 3.5 2.2 2.3 2.1.5 2 2.1-1 1.7-2.4.5-.4-2.1-3-1.8-.6.7-1.5-1.5-.7-2-2-2.3-2-2-.4 2.4-.8-2.3.3-2.5.7-3.9 1.4-4.2 1.7-3.8-1.7-3.7-.2-1.9-.6-2.3-2.7-3.2-1.2-2 1.2-.8.9-3.5-1.9-2.7-2.6-3-2.2-3.5 1.4-.8 1-4.4 2.4-.2 1.8-1.7 1.9-1 1.7 1.3.6 2.5 2.4.1-.3 4.3.7 3.7 3.3-2.4 1.2.7 2-.2.6-1.4 2.7.3 3.2 3.3.8 4 3.3 3.6.3 3.4z" class="sm_state sm_state_TH" style="-webkit-tap-highlight-color:transparent"/>
    <path d="m457.1 502.2-.4 2.1 1 1.2 1.3 1.4.2 2 .7.9-.2 9.3 1 2.8-3 1-.8-1.5-.9-2.6-.3-2 .8-3.7-.9-1.5-.4-3.2v-3l-1.4-2 .2-1.3z" class="sm_state sm_state_TG" style="-webkit-tap-highlight-color:transparent"/>
    <path d="m538.1 467.2.7 16.2-3-.3-1.6 3-.8 2.5.7 1-1.1 1.2.4 1.7-.8 1.7-.4 1.5 1.2-.3.9 1.6v2.4l1.4 1.2v1l-2.3.7-1.8 1.6-2.5 4.5-3.3 1.9-3.5-.3-1 .4.4 1.4-1.9 1.4-1.5 1.6-4.5 1.6-.9-1h-.6l-.7 1-2.9.3.5-1.1-1.1-2.8-.5-1.6-1.6-.7-2.2-2.5.8-1.9 1.7.4 1-.2h2l-2-3.7.1-2.7-.3-2.7-1.5-2.6.4-2h-2.3V490l-1.6-1.5 1.5-5.4 4.4-3.8.2-5.3 1.1-8.3.8-1.8-1.6-1.3v-1.3l-1.4-1-1-6.4 3.5-2.2 14.2 7.7z" class="sm_state sm_state_TD" style="-webkit-tap-highlight-color:transparent"/>
    <path d="M201.3 458h.5l.2.3h-.7l-.1-.2zm-1.7 0 .2.2h.4l-.1.1h-.4l-.3-.1zm1.4-.4v.3l-.3-.1v-.2z" class="sm_state sm_state_TC" style="-webkit-tap-highlight-color:transparent"/>
    <path d="M229.9 475.2v-.1z" class="sm_state sm_state_BQSA" style="-webkit-tap-highlight-color:transparent"/>
    <path d="m540.3 418.4-1.1 2 .6 1.8-.7 2.5 1.3 3.3.8 14.4.7 15 .3 8.1h-4v1.7l-14.4-7.7-14.3-7.8-3.4 2.2-2.4 1.5-2-2.2-5.7-1.8-1.5-2.5-2.9-2-1.6.8-1.3-2.3-.1-1.7-2.2-3 1.4-1.7-.4-2.5.4-2.2-.2-2 .5-3.2-.3-1.9-1.2-3.6 1.7-.9.2-1.8-.4-1.6 2.3-1.6 1-1.3 1.7-1.2v-3l4 1.3 1.5-.4 2.9.7 4.6 1.9 1.8 3.6 3.1.7 5 1.7 3.7 2 1.6-1 1.6-1.8-1-3.1 1-2 2.3-2 2.3-.5 4.7.8 1.3 1.8h1.3l1.1.8 3.4.4z" class="sm_state sm_state_LY" style="-webkit-tap-highlight-color:transparent"/>
    <path d="m235.8 493.4-.3-.1v-.3l.1-.2.1-.3h.3v.8z" class="sm_state sm_state_VC" style="-webkit-tap-highlight-color:transparent"/>
    <path d="m650.3 442.3.8 3.2h-1.8v2.7l.7.5-1.5.9.1 1.6-.8 1.7v1.6l-.6.9-10.7-2-1.7-4.2-.2-.9.5-.3.3 1.2 2.7-.6h2.9l2.1.2 2.1-2.8 2.4-2.6 1.9-2.5z" class="sm_state sm_state_AE" style="-webkit-tap-highlight-color:transparent"/>
    <path d="m240 512.9-3 2.4-.3 1.4 1.1 1.6-.9.7-2.2.7v1.9l-1 1 2.3 3.1.5 1.2-1.3 1.6-4.1 1.5-2.6.6-1 1-3-1-2.5-.6-.7.4 1.6 1-.2 2.8.4 2.6 3 .3.2.9-2.6 1.1-.4 1.7-1.5.7-2.7 1-.7 1.2-2.8.3-2-2.2-1-4-.9-1.5-1.3-.9 1.9-2-.1-.9-1-1.2-.7-2.7.4-3 .8-1.3.8-2.2-1.3-.7-2 .5-2.6-.2-1.5.4-2.4-3.5-2-.5-4.7.3-.8-1.3-.9-.4v-.9l.4-1.5-.2-1.6-.7-1-.4-1.7-1.8-.3 1.1-2.4.6-3 1.1-1.4 1.5-1.2 1-2 2.3-.7-.1 1-2.2.4 1.1 1.9-.2 2.1-1.7 2.4 1.2 3.2 1.6-.2 1-3-1.1-1.4v-3.1l4.5-1.7-.3-1.9 1.3-1.3 1 3h2.6l2.2 2.2v1.4h3.3l3.8-.4 2 1.8 2.6.5 2.1-1.3.1-1 4.5-.2 4.2-.1-3 1.2 1 2 3 .2 2.6 2 .4 3.3h1.9z" class="sm_state sm_state_VE" style="-webkit-tap-highlight-color:transparent"/>
    <path d="m234.9 477.3.4.2-.1.1h-.2l-.4.1h-.1v-.4h.1l.1-.2h.1zm0-2.4h.1l.2.1v.5h-.2l-.2-.2v-.3z" class="sm_state sm_state_AG" style="-webkit-tap-highlight-color:transparent"/>
    <path d="m705.3 394.7 1 1.1-1.9.5-1.5.7-3.7.5-3.4.9-1.5 1.7 1.2 1.7.9 2-1.3 1.8.5 1.6-.6 1.4-3.3-.1 2 2.7-2 1-.8 2.4.6 2.5-1 1.2-1.4-.4-2.6.5v1.1h-2.7l-1.4 2.4.5 3.4-4.2 1.7-2.5-.4-.6 1-2.1-.6-3.4.6-6-2 2.4-3.7-.7-2.6-2.7-.7-.8-2.6-1.7-3.3 1-2.2-1.5-.6.3-3 .4-5 3.7 1.5 2.5-.5.2-1.9 2.5-.6 1.7-1.2-.1-3.3 2.6-.8.2-1.4 1.9 1.1 1 .1h1.9l2.7 1 1.1.4 2.2-1.3 1.3.8.6-1.9h2l.4-.5-.1-1.6 1-1.4 2.1.9v1.2l1 .2.6 3.4 1.7 1.4 1-1 1.4-.3 1.6-1.8 2.4.3z" class="sm_state sm_state_AF" style="-webkit-tap-highlight-color:transparent"/>
    <path d="m604.2 395.7 3 4.8 2.4 1.3.6 2.3-1.5 1.4-.3 3.2 3 3.9 4.4 2.2 2.2 3v3h1l.3 2.2 2.2 2.2-2-.2-2.4-.4-2.1 4-6.5-.4L598 420l-5.5-2.8-4.3-1.2-2-4.9 7-4.2.7-5-.8-2.9 1.7-1 1.3-2.6 1.4-.6 4 .6 1.3 1z" class="sm_state sm_state_IQ" style="-webkit-tap-highlight-color:transparent"/>
    <path d="m224.6 474.7.2.2h-.7v-.2l.4-.2zm.5-2.4h-.5l.2-.1zm-.9-.2.2.2v.1h-.6l.1-.2z" class="sm_state sm_state_VI" style="-webkit-tap-highlight-color:transparent"/>
    <path d="m415 282.5-1 2.2 2.8 2.4-3.8 2.8-8.3 2.4-2.5.7-3.5-.5-7.6-1.2 3-1.6-5.6-1.7 5-.7v-1l-5.6-.9 2.3-2.3 4.2-.5 3.8 2.4 4.4-2 3.3 1 4.6-1.8z" class="sm_state sm_state_IS" style="-webkit-tap-highlight-color:transparent"/>
    <path d="m607.7 389.4 1.2-.2 3.3-3 1.2-.3 1.2 1.2-.7 2 2.4 2.2.9-.3 1.5 3 3.4.9 2.7 2 4.9.7 5-1 .2-1 2.8-.8 1.9-2.3h2.3l1.2-.7 2.5.4 4.2 2.1 2.7.4 4.6 3.6 2.6.2 1 3.3-.3 5.1-.3 3 1.5.6-1 2.2 1.7 3.3.8 2.6 2.7.7.7 2.6-2.5 3.6 2 2.2 1.8 2.5 3.7 1.7.6 3.6 1.7.7.6 1.8-4.8 2.2-.7 4.7-6.7-1.2-4-1-4-.5-2-5-1.8-.7-2.6.7-3.2 2-4.4-1.4-4-3.1-3.4-1.2-2.8-3.8-3.3-5.4-1.8.6-2.3-1.3-1 1.6-2.3-2.2-.3-2.1h-1v-3l-2.2-3-4.5-2.3-2.9-4 .3-3 1.5-1.5-.6-2.3-2.4-1.3-3-4.8-2.4-3.2.5-1.3-1.9-4.6 2.1-1.2.8 1.6 2 1.8z" class="sm_state sm_state_IR" style="-webkit-tap-highlight-color:transparent"/>
    <path d="m608.9 389.2-1.2.2-1.8-2.4v-.6h-1.5l-1.3-1h-.6l-1.5-1.2-2.7-1v-2l-.9-1.3 4.5-.7.9 1 1.4.7-.5 1 2 1.4-.7 1.4 1.7 1 1.6.7z" class="sm_state sm_state_AM" style="-webkit-tap-highlight-color:transparent"/>
    <path d="m518.4 373.4.2.8.9-.4.8 1 .8.5.4 1.4-.4 1.4.7 1.8 1.4.9.1 1-1 .7-.1 1.3-1.4 2-.6-.3-.1-.9-2-1.4-.4-1.9v-2.8l.3-1.2-.5-.6-.3-1.3z" class="sm_state sm_state_AL" style="-webkit-tap-highlight-color:transparent"/>
    <path d="m539.4 591.4.4 1.3-.5 2 .6 1.8-.6 1.5.3 1.4h-7.4l-.5 13 2.2 3.3 2.3 2.5-6.6 1.6-8.5-.5-2.4-2-14.4.2-.5.3-2.1-1.8-2.3-.1-2.2.6-1.7.8-.3-2.5.6-3.6 1.3-3.8.1-1.7 1.3-3.7.8-1.6 2.1-2.7 1.2-1.8.4-3-.2-2.3-1-1.5-1-2.5-.8-2.4.2-.9 1.1-1.5-1-4-.8-2.7-1.7-2.6.3-.8 1.5-.5h1l1.3-.4h10.6l.8 3 1 2.5.9 1.3 1.3 2.1 2.4-.3 1.2-.6 2 .6.5-1 1-2.3 2.2-.2.2-.7h1.8l-.3 1.4h4.3v2.6l.7 1.5-.5 2.5.2 2.5 1.2 1.5-.3 4.8.9-.4 1.5.2 2.2-.7zm-41.8-21-1-3 1.5-1.7 1.1-.7 1.3 1.4-1.2.8-.7 1v1.8z" class="sm_state sm_state_AO" style="-webkit-tap-highlight-color:transparent"/>
  </g>
  <path fill="none" stroke="#7480ff" stroke-linejoin="round" stroke-width="2.4" d="m-198 606.1-.2.3v.2h-.2l-.3-.1.2-.2h.2zm4.2 0-.3.1v-.1h.2z" class="sm_state sm_state_AS" style="-webkit-tap-highlight-color:transparent"/>
  <g fill="#7480ff" stroke="#7480ff" stroke-linejoin="round" stroke-width="2.4">
    <path d="m252.9 768.6-1.9-.1h-3.2l-3.8-8.6 2 1.8 2.7 2.9 5 2.3 4.6 1-.5 1.9-2.8.2zm-19.3-131.2 7.1 6.6 3 .7 4.6 3 3.7 1.6.7 1.8-2.7 6.2 3.7 1 4 .7 2.7-.6 2.7-3.2.2-3.6 1.6-.8 2 2.4.3 3.3-2.6 2.2-2.1 1.6-3.4 4-3.8 5.5-.3 3.3-.3 4.2.8 4-.6 1 .3 2.6.2 2.1 5 3.5v2.8l2.5 1.8.2 2-2 5.1-4.5 2.2-6.5.9-3.8-.5 1.3 2.5.1 3 1.1 2-1.5 1.4-3.3.6-3.5-1.5-1 1 1.6 4 2.5 1.3 1.5-1.3 1.6 2-2.7 1.4-1.8 2.5.8 4-.1 2.1h-3l-2 2 .1 3.1 4.1 3 3.3.7.1 3.6-2.9 2.2-.3 4.6-2.3 1.6-.5 1.8 2.6 4.1 3 2.2-1.4-.1-3-.7-7.8-.5-2.2-2.3-1.2-2.9-2 .3-1.6-1.5-2-4.1 1.8-1.8v-2.5l-1.1-2 .4-3.4-.7-5.3-1.1-2.3 1.1-.8-.9-1.5-1.7-.8.5-1.7-2-1.5-2.3-4.6 1-.8-2-5-.6-4v-3.7l1.5-1.5-2.1-4-1-3.6 1.9-2.7-.9-3.4 1-4-.9-3.7-1-.7-3-7 1.2-4.3-1-3.9.5-3.7 1.7-3.8 2-2.6-1.2-1.5.5-1.4-1-6.8 3.5-2 .8-4.2-.6-1 2.6-3.7 4.7 1 2.4 3 1-3.3 4 .2z" class="sm_state sm_state_AR" style="-webkit-tap-highlight-color:transparent"/>
    <path d="m933.4 712.8 2.4 1.4 2-.6 3.2-.7 1.7.2-2.8 4.8-2.1 1.4-2.5 3.3-.4-1.2-4.2 2.8-.5-.2-1.9-.1.3-3.4 1.3-2.7.4-3.5 1.2-1.9zm32-109.9.8 3.2 2.5-1.5 1 1.7 1.4 1.6-.7 1.8.1 3.5.1 2 .9.5.2 3.5-.8 2.1.6 2.7 3.4 2.2 2 1.9 2 1.8-.7 1 1.5 2.5.3 4.4 1.7-.9 1 1.8 1-.6-.5 4.3 1.8 2.5 1.2 1.5 1.8 3.3v3.3l-.6 2.3-1.2 2.5.5 3.5-1.6 3.6-1.4 1.9-2.4 3.6-1 2.4-1.9 2.9-3.1 3.6-3.5 2-2.8 3.2-2.1 2-2.8 3.5-2.3 2-2.5 3-2 2.8-.5 1.4-2.7 1.4-3.9.1-4 1.7-2.4 1.5-3 1.8-1.7-1.8-1.7-.7 1.7-2.1-2.2.7-4.6 3-2.3-1.1-1.5-.7-1.8-.3-2.6-1.1-.8-2.5 1-3 .2-2.2-.9-1.6-3-.5 2-2 .6-3-3 2.8-3.3.8 2.8-2.2 1.6-2.4 2.2-2 1-3-4.3 3.4-2.7 1.4-2.7 3.2-1.9-1.6 1-2.2-.8-3-1.2-1.5 1-.9-3.3-2.5h-2.4l-2.5-2-6.3.3-5 1.5-4.4 1.4-3.2-.3-4.4 2.1-3.4.9-1.4 2.1-2 1.7-2.9.1-2.3.3-2.6-.7-2.7.5-2.4.2-2.9 2.1-1-.2-2 1.2-2.2 1.2H849l-2.6-2.7-1.6-.7 1-2.4 1.8-.6 1-.8.4-1.5 1.4-2.8.5-2.5-.5-4 .1-2.4 1-2.3-.6-2.7.1-1.2-1-1.6.4-3.2-1.2-3.2v-1.7l1 1.7-.2-3.8 1.4 1.2.7 1.6.4-2-1-3.3v-1.3l-.6-1.2.8-2.3 1-1 .8-2v-2.5l2-2.9-.2 3.1 2-2.8 3-1.3 2-1.8 3-1.5 1.7-.3 1 .5 3-1.5 2.2-.5.7-.8 1-.4 1.9.1 4-1.2 2.1-1.8 1.3-2.2 2.5-2 .4-1.7.5-2.2 3-3.5 1 3.6 1.6-.8-1-2 1.5-2 1.4 1 1-3.1 2.2-2 1.1-1.6 1.8-.7.3-1.2 1.4.5.3-1 1.7-.6 1.7-.6 2.4 2 1.6 2.3h2.2l2.3.4-.5-2.2 2.2-3.3 1.7-1-.3-1 1.8-2.4 2.3-1.4 1.8.5 3-.8.2-2-2.4-1.4 2-.6 2.2 1 1.7 1.7 2.9 1 1-.4 2.2 1.3 2.2-1.2 1.2.3 1-.8 1.4 2-1.3 2.3-1.6 1.6-1.2.1.2 1.6-1.4 2-1.6 2 .2 1.2 2.4 2.3 2.5 1.3 1.6 1.4 2 2.4h1.1l1.6 1 .4 1.3 3 1.4 2.7-1.4 1.1-2.2 1-1.8 1-2.3 1.6-3.2-.2-2 .5-1.2v-2.2l.8-3.1.8-.9-.4-1.3 1.2-2.1 1-2.3.2-1.2 1.4-1.5.9 2-.1 2.6.8.5v1.7l1 2v2.4z" class="sm_state sm_state_AU" style="-webkit-tap-highlight-color:transparent"/>
    <path d="m507.3 349.8-.2.5.5 1.4-.1 1.6h-1.8l.7.9-.8 2.5-.6.7h-2.8l-1.5 1-2.7-.3-4.6-1-.8-1.4-3.1.7-.4.8-2-.6-1.6-.1-1.4-.8.4-1-.1-.6.9-.2 1.7 1 .4-1 2.8.2 2.2-.7 1.5.1 1 .8.3-.7-.6-2.6 1-.5 1-1.8 2.5 1.3 1.6-1.6 1.1-.4 2.6 1.2 1.4-.1z" class="sm_state sm_state_AT" style="-webkit-tap-highlight-color:transparent"/>
    <path d="m204.6 496.3-.3-.1-.3-.3v-.4l.2.2.2.2.2.4z" class="sm_state sm_state_AW" style="-webkit-tap-highlight-color:transparent"/>
    <path d="m733.6 424-1.8 2-.6 3.8 3.7 1.5 3.7 2 5 2.3 4.8.5 2.4 2 2.7.4 4.4 1h3v-1.7l-1-2.6-.1-1.7 2-.9 1 3.3.2.7 3.4 1.6 2-.6 3 .2h3l-.4-2.6-1.7-1.3 2.7-.5 2.5-3 3.4-2.6 3.1 1 2-1.7 2.3 2.5-.7 1.7 3.8.6.7 1.6-1.1.7.9 2.5-2.7-.7-4 2.8.6 2.3-1.2 3.5.2 2-1 3.3-3-1 .6 4.3-.6 1.4.6 1.7-1.6 1-2.8-6.5h-1l-.1 2.6-2.3-2.1.8-2.3 1.5-.3 1-3.4-2.1-.7h-3.3l-3.4-.5-.8-2.8-1.7-.2-3-1.8-.8 2.8 2.9 2.1-2 1.6-.5 1.4 2.3 1.1-.1 2.5 1.6 3 1 3.4-.3 1.5h-2.4l-4.2.8.6 3-1.5 2.4-4.8 2.8-3.3 4.7-2.5 2.6-3.1 2.7.2 1.8-1.7 1-3 1.5-1.7.2-.7 3.1 1.2 5.3.4 3.4-1.2 3.9.5 6.9-1.9.2-1.4 3 1.2 1.4-3.3 1.2-1 2.7-1.4 1.2-3.6-3.8-2-5.7-1.5-4.1-1.4-2-2.2-3.8-1.3-5.1-.8-2.5-3.8-5.6-2.2-8-1.6-5.1-.6-5-1-3.8-5 2.5-2.4-.5-5.2-5 1.5-1.4-1.2-1.6-4.5-3.5 2-2.7h7.7l-1.1-3.5-2.2-2-1-3.2-2.4-1.8 3-4.3 4.2.3 2.8-4.2 1.4-4.1 2.5-4.1-.6-3 2.4-2.3-3.3-2-1.8-2.8-2-3.5 1.2-1.8 5.4 1 3.6-.6 2.4-3.4 4.9 4.8.5 3.3 1.9 2 .4 2.2-2.6-.6 2 4.5 4 2.5z" class="sm_state sm_state_IN" style="-webkit-tap-highlight-color:transparent"/>
    <path d="m568.4 551-.1 2.6-.7 2.8 1 1.6 1.6-1 2-.2.5.5 2.1-1-1.4-1.4 1.2-1.9 1.7-1.8 13 8.3.2 2.4 5.2 4-1.8 5 .2 2.4 2.2 1.4.1 1-1 2.6.1 1.2-.2 2 1.1 2.5 1.4 4 1.3 1-3 2.3-3.9 1.5h-2.1l-1.4 1.2-2.4.1-1 .5-4.2-1.1-1.4.1-1-1.6-.3-4.3-1.8-2.1-.3.7-.6-1-3.5-.8-2-1.2-2.3-.7-1.4-.7-.2-.1-1.7-4.2-.2-2.5-2.9-2.8.9-1.5-.7-1.7.1-1.7-.6-.5.2-1.8h.4l1.2-1.5 1.5-2.2.9-.8v-1.3l-.8-1-.2-1.6 1-.5.2-2.4-1.4-2.3 1.3-.5z" class="sm_state sm_state_TZ" style="-webkit-tap-highlight-color:transparent"/>
    <path d="m391.9 433.9-.2.3-.3.3-.2-.3h-.2l-.1-.1v-.2h.3l.3-.2.2-.1h.1zm8.6-1.5v.3l.1.3-.1.4v.2l-.2.3h-.3l-.1.2-.4-.1-.3-.3-.2-.3v-.4l.4-.2v-.5h.7l.2.2zm-6.3.5h-.1l-.2-.1-.1-.2v-.3l.1-.2h.4l.3.3v.2l-.3.3zm3.9-2.2v.1l-.4.2-.3.3-.1.1v.3l-.3.4v.3l-.4.4v.1h-.2l-.3.1h-.1v-.3l-.3-.2v-.2l-.2-.2v-.2l-.2-.3.3-.2.2.1.4-.1h.2l.3-.1.4-.3v-.1l.3-.2H398zm6.4 1.8-.1.2h-.7v-.1h.1l.4-.1.3-.2.2-.2v-.3l.1-.2.1-.3.2-.3.2-.4.1-.5.2-.1h.2l.2.1v1.3h-.1l-.2.5-.2.2h-.4l-.4.2zm-12.4-2.9h.2l.1.1.2.3-.2.2.1.3-.4.6-.1-.3-.3-.6v-.5l.2-.2zm15.3-1.3v.3l-.1.3-.5.3h-.3l-.2.4-.4-.1.2-.3v-.5l.3-.1h.2l.2-.2h.3l.2-.4h.2z" class="sm_state sm_state_IC" style="-webkit-tap-highlight-color:transparent"/>
    <path d="m607.7 389.4-2.4-.6-2-1.8-.8-1.6.6-.1 1.3 1h1.4l.1.7zm4-10.8 1.6-1.7 2.2 2.1 2.3 3 1.6.1 1.2 1.1-2.7.3v3.2l-.2 1.4-1 1 .5 2-.9.2-2.4-2.2.7-2-1.2-1.2-1.2.4-3.3 3-.6-3-1.6-.6-1.7-1 .7-1.4-2-1.4.5-1-1.4-.7-1-1 .8-.7 2.6 1.2 1.9.2.4-.4-2.1-2.2.7-.6 1 .2 2.7 2.4 1.5.3z" class="sm_state sm_state_AZ" style="-webkit-tap-highlight-color:transparent"/>
    <path d="m435.1 329.2.5 2.7-2.5 3.5-5.6 2.3-4.3-.6 2.8-4-1.4-4 4.3-3 2.3-1.8.6 2-.8 2.2 2-.1z" class="sm_state sm_state_IE" style="-webkit-tap-highlight-color:transparent"/>
    <path d="M885.6 588.6H884l-4.5-2.8 3.4-.8 1.8 1.3 1.1 1.2zm15.7-5.5.3.8v1.2l-2.6 3-3.2 1-.4-.5.4-1.4 1.8-2.5zm-25.1-3.2 1.2 1 2.3-.3.7 1.7-4.2.9-2.5.5h-2l1.5-2.4h2zm18 0-.8 2.2-5.4 1.2-4.8-.5.2-1.6 2.9-.8 2.1 1.2 2.4-.3zm-50.9-5.4 6.9.4.8-1.7 6.6 2 1.1 2.6 5.3.8 4.3 2.4-4.2 1.5-3.9-1.6-3.2.1-3.7-.3-3.3-.7-4-1.6-2.6-.4-1.5.5-6.5-1.7-.5-1.7-3.2-.3 2.6-3.9 4.3.3 2.8 1.6 1.5.3zm93.7-2.3-2 2.8-.1-3 .7-1.5.8-1.4.8 1.2zM910.8 561l-1.4 1.4-2.4-.8-.6-1.8 3.6-.2zm11.7-1.5 1.1 3.1-3-1.7-2.9-.3-2 .2H913l1-2.3 4.4-.2zm37.9-2-.7 13.2-1 13.3-3-3.3-3.5-.8-.9 1.1-4.6.1 1.8-3.3 2.4-1.1-.7-4.4-1.4-3.4-6.8-3.5-3-.3-5.2-3.8-1.1 2-1.4.3-.7-1.4v-1.8l-2.6-2 3.9-1.5h2.5l-.2-1h-5.3l-1.4-2.4-3.1-.8-1.5-2 4.8-1 1.9-1.3 5.7 1.7.6 1.5.8 6.6 3.6 2.4 3.2-4.3 4.2-2.4h3.2l3 1.4 2.6 1.4zM903.9 541l-2.9 4-2.7.9-3.4-.8-6 .2-3.1.6-.5 3 3.1 3.7 2-1.9 6.7-1.4-.3 1.9-1.6-.6-1.6 2.4-3.2 1.6 3.2 5.2-.7 1.4 3 4.7-.1 2.6-2 1.2-1.3-1.4 1.9-3.3-3.6 1.6-.8-1.2.5-1.5-2.5-2.5.4-3.9-2.4 1.2v10.6l-2.4.6-1.4-1.2 1.2-3.7-.4-4h-1.5l-1-2.8 1.5-2.7.6-3.2 1.9-6.1.7-1.7 3-3 2.9 1.2 4.5.6 4.1-.2 3.6-3zm12.4 1.2-.2 3.6-1.8-.5-.6 2.5 1.5 2.2-1 .5-1.4-2.6-1.1-5.2.6-3.2 1.2-1.5.3 2.2 2.1.3zm-68.4-3.6.6 2.8 2.5 2.3 2.3-.8 2.3.2 2.1-2 1.7-.4 3.4 1.2 3-1 1.6-5.6 1.3-1.4 1.1-4.6h4.1l3.2.7-2 3.7 2.9 3.8-.6 1.9 4 3.7-4.2.5-1.1 2.8.1 3.7-3.5 2.8-.2 4-1.6 6.3-.5-1.5-4.1 1.8-1.4-2.4-2.5-.3-1.8-1.3-4.3 1.5-1.2-2-2.4.2-3-.4-.3-5.5-1.8-1.1-1.7-3.5-.5-3.5.4-3.8zm-14.5 32h-3.9l-2.9-3.3-4.5-3.3-1.4-2.5-2.6-3.3-1.7-3-2.7-5.7-3-3.5-1.2-3.4-1.4-3.2-3.3-2.5-2-3.5-2.7-2.3-4-4.5-.3-2.1 2.3.2 5.6.7 3.3 4 3 2.8 2 1.7 3.4 4.3 3.7.1 3 2.8 2.2 3.4 2.7 2-1.4 3.2 2 1.4 1.3.1.6 2.9 1.2 2.2 2.6.4 1.6 2.6-1 5z" class="sm_state sm_state_ID" style="-webkit-tap-highlight-color:transparent"/>
    <path d="m562.2 339.6 1.5 1.7v.7l4.3 1.4 2.3-.6 2.2 1.8h1.9l4.9 1.2.2 1.2-.8 2 1.1 2.3-.2 1.3-3 .3-1.4 1.1.3 1.7-2.5.3-2 1.4-2.8.1-2.6 1.6.7 2.4 1.7 1 3.3-.3-.4 1.5-3.4.7-4 2.3-2-.9.5-1.8-3.8-1.2.5-.8 2.9-1.3-1.1-.9-5.1-1-.5-1.5-2.9.5-.8 2.2-2.1 3-1.5-.8-1.5.7-1.5-.7.8-.5.3-1.3.7-1.3-.3-.7.6-.3.4.5 1.9.2.8-.4-.6-.3v-.7l-1.2-1-.7-1.6-1.2-.7v-1.3l-1.6-1-1.3-.3-2.5-1.2-2 .4-.8.6h-1.3l-.6 1-2.3.3-1 .6-1.6-1h-2l-2-.4-1.3.9-.3-1.1-2-1 .5-1.7.8-1 .7.2-1-1.8 2.3-3.3 1.5-.4.2-1-2-3.5 1.4-.2 1.5-1 2.5-.1 3 .3 3.7 1h2.4l1.2.6 1.1-.7 1 1 2.7-.3 1.3.4-.2-2 .9-.8 2.6-.2h1.1l.6-.8 1 .2 3-.4 2.5 2.2-.6.9.5 1.2z" class="sm_state sm_state_UA" style="-webkit-tap-highlight-color:transparent"/>
    <path d="m633.8 446.7-1 .3-1.1-.8-.5-3 .6-2 1-.5 1.1 1.3.4 2.3z" class="sm_state sm_state_QA" style="-webkit-tap-highlight-color:transparent"/>
    <path d="M568.2 655.7h-2.6l-.2-1.8-.3-1.9-.3-1.4.9-4.5-.7-3-1.4-5.6 4-4.7 1-2.9.5-.4.6-2.4-.5-1.2.2-3 .9-2.8.2-5.2-1.8-1.3-1.7-.3-.7-1-1.6-.8h-3l-.1-1.5-.3-2.9 11-3.4 2 2 .9-.4 1.4 1 .1 1.7-.8 1.9.1 2.8 2.2 2.6 1.2-2.9 1.6-.8v-5.3l-1.4-2.9-1.2-1.3h-.3l-.4-4.6 1-3.9 1.4-.1 4.2 1.1 1-.5 2.4-.1 1.4-1.2h2.1l4-1.5 2.9-2.4.5 1.8-.3 4 .3 3.7v6.3l.4 2-1.2 2.9-1.5 2.8-2.3 2.6-3.4 1.5-4.1 2-4.2 4.3-1.4.8-2.7 2.9-1.4.9-.5 2.9 1.5 3.1.6 2.3v1.3l.6-.2-.3 4-.7 1.9.7.7-.6 1.7-1.5 1.4-3 1.4-4.4 2.2-1.5 1.5.2 1.7.8.3z" class="sm_state sm_state_MZ" style="-webkit-tap-highlight-color:transparent"/>
  </g>
</svg>
