<svg width="4303.624" height="2772.318" viewBox="0 0 1138.667 733.509" xmlns="http://www.w3.org/2000/svg">
  <g style="stroke-width:.846491">
    <path style="fill:#81a1c1;fill-opacity:1;stroke:#000;stroke-width:16.9865;stroke-linecap:round;stroke-linejoin:round;stroke-miterlimit:4;stroke-dasharray:none" d="M10.033 10.033h664.933v290.411H10.033z" transform="matrix(1.5339 0 0 1.54265 -2.362 256.925)"/>
    <g style="stroke-width:.846491">
      <g style="fill:#3b5b82;fill-opacity:1;stroke-width:.846491">
        <path style="display:inline;fill:#3b5b82;fill-opacity:1;stroke:#000;stroke-width:12.6974;stroke-linecap:round;stroke-linejoin:round;stroke-miterlimit:4;stroke-dasharray:none" d="M47.584 47.584h54.832v44.832H47.584zm89.795-.122h415.243v45.597H137.379z" transform="matrix(1.5339 0 0 1.54265 -2.362 519.046)"/>
        <path style="fill:#3b5b82;fill-opacity:1;stroke:#000;stroke-width:12.6974;stroke-linecap:round;stroke-linejoin:round;stroke-miterlimit:4;stroke-dasharray:none" d="M587.5 47.584h54.287v44.287H587.5z" transform="matrix(1.5339 0 0 1.54265 -2.362 519.046)"/>
      </g>
      <g style="fill:#3b5b82;fill-opacity:1;stroke-width:.846491">
        <path style="display:inline;fill:#3b5b82;fill-opacity:1;stroke:#000;stroke-width:12.6974;stroke-linecap:round;stroke-linejoin:round;stroke-miterlimit:4;stroke-dasharray:none" d="M47.584 47.584h54.832v44.832H47.584zm90.273 9.916h54.287v44.287h-54.287zm89.643-9.643h54.287v44.287H227.5zm90 9.643h54.287v44.287H317.5zm90-9.643h54.287v44.287H407.5z" transform="matrix(1.5339 0 0 1.54265 -2.362 380.207)"/>
        <path style="fill:#3b5b82;fill-opacity:1;stroke:#000;stroke-width:12.6974;stroke-linecap:round;stroke-linejoin:round;stroke-miterlimit:4;stroke-dasharray:none" d="M497.5 57.5h54.287v44.287H497.5z" transform="matrix(1.5339 0 0 1.54265 -2.362 380.207)"/>
      </g>
      <g style="fill:#3b5b82;fill-opacity:1;stroke-width:.846491">
        <path style="display:inline;fill:#3b5b82;fill-opacity:1;stroke:#000;stroke-width:12.6974;stroke-linecap:round;stroke-linejoin:round;stroke-miterlimit:4;stroke-dasharray:none" d="M47.584 47.584h54.832v44.832H47.584zm90.273 9.916h54.287v44.287h-54.287zm89.643-9.643h54.287v44.287H227.5zm90 9.643h54.287v44.287H317.5zm90-9.643h54.287v44.287H407.5z" transform="matrix(1.5339 0 0 1.54265 -2.362 256.925)"/>
        <path style="fill:#3b5b82;fill-opacity:1;stroke:#000;stroke-width:12.6974;stroke-linecap:round;stroke-linejoin:round;stroke-miterlimit:4;stroke-dasharray:none" d="M497.5 57.5h54.287v44.287H497.5z" transform="matrix(1.5339 0 0 1.54265 -2.362 256.925)"/>
        <path style="fill:#3b5b82;fill-opacity:1;stroke:#000;stroke-width:13.0107;stroke-linecap:round;stroke-linejoin:round;stroke-miterlimit:4;stroke-dasharray:none" d="M587.685 47.685h47.802v104.63h-47.802z" transform="matrix(1.5339 0 0 1.54265 -2.362 256.925)"/>
      </g>
    </g>
  </g>
  <g style="display:inline;stroke-width:1.51639">
    <g style="stroke-width:1.51639" transform="matrix(.50616 0 0 .50472 720.811 -33.749)">
      <circle style="fill:none;fill-opacity:1;stroke:#000;stroke-width:118.708;stroke-linecap:round;stroke-linejoin:round;stroke-miterlimit:4;stroke-dasharray:none" cx="493.91" cy="383.413" r="241.067"/>
      <circle style="fill:none;fill-opacity:1;stroke:#a3be8c;stroke-width:49.4618;stroke-linecap:round;stroke-linejoin:round;stroke-miterlimit:4;stroke-dasharray:none;stroke-opacity:1" cx="493.91" cy="383.413" r="241.067"/>
    </g>
    <g style="stroke-width:1.51639">
      <path style="display:inline;fill:none;fill-opacity:1;stroke:#000;stroke-width:106.02;stroke-linecap:round;stroke-linejoin:round;stroke-miterlimit:4;stroke-dasharray:none;stroke-opacity:1" d="M669.202 229.145s-231.244 163.207-230.48 328.023c.635-11.47-55.805-156.04-97.496-169.012" transform="matrix(.56673 0 0 .56512 729.361 -99.539)"/>
      <path style="display:inline;fill:none;fill-opacity:1;stroke:#a3be8c;stroke-width:53.0102;stroke-linecap:round;stroke-linejoin:round;stroke-miterlimit:4;stroke-dasharray:none;stroke-opacity:1" d="M669.202 229.145s-231.244 163.207-230.48 328.023c.635-11.47-55.805-156.04-97.496-169.012" transform="matrix(.56673 0 0 .56512 729.361 -99.539)"/>
    </g>
  </g>
  <text xml:space="preserve" style="font-style:normal;font-variant:normal;font-weight:700;font-stretch:normal;font-size:205.649px;line-height:1;font-family:sans-serif;-inkscape-font-specification:&quot;sans-serif Bold&quot;;text-align:start;letter-spacing:26.4583px;writing-mode:lr-tb;direction:ltr;text-anchor:start;fill:#ebcb8b;fill-opacity:1;stroke:#000;stroke-width:45;stroke-linecap:round;stroke-linejoin:round;stroke-dasharray:none;stroke-opacity:1;paint-order:stroke fill markers" x="18.607" y="222.155" transform="scale(.9903 1.0098)"><tspan style="letter-spacing:26.4583px;stroke-width:45;stroke-dasharray:none" x="18.607" y="222.155">TYPEM</tspan></text>
</svg>
